<svg width="390" height="844" viewBox="0 0 390 844" fill="none" xmlns="http://www.w3.org/2000/svg">
<rect width="390" height="844" fill="white"/>
<path d="M70 264C70 259.582 73.5817 256 78 256H321C325.418 256 329 259.582 329 264V304C329 308.418 325.418 312 321 312H78C73.5817 312 70 308.418 70 304V264Z" fill="#D9D9D9"/>
<path d="M85.84 289V279.2H89.081C89.7577 279.2 90.3923 279.328 90.985 279.585C91.5777 279.837 92.098 280.189 92.546 280.642C92.994 281.09 93.344 281.61 93.596 282.203C93.8527 282.791 93.981 283.423 93.981 284.1C93.981 284.777 93.8527 285.411 93.596 286.004C93.344 286.592 92.994 287.112 92.546 287.565C92.098 288.013 91.5777 288.365 90.985 288.622C90.3923 288.874 89.7577 289 89.081 289H85.84ZM86.82 288.02H89.081C89.6223 288.02 90.1287 287.92 90.6 287.719C91.076 287.514 91.4937 287.231 91.853 286.872C92.2123 286.513 92.4923 286.097 92.693 285.626C92.8983 285.15 93.001 284.641 93.001 284.1C93.001 283.559 92.8983 283.052 92.693 282.581C92.4923 282.105 92.21 281.687 91.846 281.328C91.4867 280.969 91.0713 280.689 90.6 280.488C90.1287 280.283 89.6223 280.18 89.081 280.18H86.82V288.02ZM95.2189 289V282H96.1989V282.966C96.4462 282.611 96.7682 282.329 97.1649 282.119C97.5616 281.909 97.9932 281.804 98.4599 281.804C98.7306 281.804 98.9919 281.839 99.2439 281.909L98.8449 282.882C98.6489 282.821 98.4576 282.791 98.2709 282.791C97.8929 282.791 97.5452 282.884 97.2279 283.071C96.9152 283.258 96.6656 283.507 96.4789 283.82C96.2922 284.133 96.1989 284.48 96.1989 284.863V289H95.2189ZM100.127 282H101.107V289H100.127V282ZM100.624 280.775C100.465 280.775 100.33 280.724 100.218 280.621C100.111 280.514 100.057 280.381 100.057 280.222C100.057 280.063 100.111 279.933 100.218 279.83C100.33 279.723 100.465 279.669 100.624 279.669C100.778 279.669 100.909 279.723 101.016 279.83C101.128 279.933 101.184 280.063 101.184 280.222C101.184 280.381 101.13 280.514 101.023 280.621C100.916 280.724 100.783 280.775 100.624 280.775ZM106.078 289H104.832L102.277 281.979H103.32L105.455 287.852L107.59 281.979H108.633L106.078 289ZM112.6 289.182C111.956 289.182 111.368 289.016 110.836 288.685C110.308 288.354 109.886 287.91 109.569 287.355C109.256 286.795 109.1 286.177 109.1 285.5C109.1 284.987 109.191 284.508 109.373 284.065C109.555 283.617 109.804 283.225 110.122 282.889C110.444 282.548 110.817 282.282 111.242 282.091C111.666 281.9 112.119 281.804 112.6 281.804C113.118 281.804 113.594 281.907 114.028 282.112C114.466 282.317 114.842 282.604 115.155 282.973C115.472 283.342 115.71 283.773 115.869 284.268C116.032 284.763 116.1 285.297 116.072 285.871H110.136C110.192 286.314 110.332 286.711 110.556 287.061C110.784 287.411 111.074 287.689 111.424 287.894C111.778 288.095 112.17 288.197 112.6 288.202C113.066 288.202 113.486 288.081 113.86 287.838C114.238 287.595 114.541 287.262 114.77 286.837L115.764 287.068C115.484 287.689 115.061 288.197 114.497 288.594C113.932 288.986 113.3 289.182 112.6 289.182ZM110.108 285.08H115.085C115.052 284.646 114.919 284.249 114.686 283.89C114.457 283.526 114.161 283.237 113.797 283.022C113.433 282.803 113.034 282.693 112.6 282.693C112.166 282.693 111.769 282.8 111.41 283.015C111.05 283.225 110.756 283.512 110.528 283.876C110.299 284.235 110.159 284.637 110.108 285.08ZM117.272 289V282H118.252V282.966C118.499 282.611 118.821 282.329 119.218 282.119C119.614 281.909 120.046 281.804 120.513 281.804C120.783 281.804 121.045 281.839 121.297 281.909L120.898 282.882C120.702 282.821 120.51 282.791 120.324 282.791C119.946 282.791 119.598 282.884 119.281 283.071C118.968 283.258 118.718 283.507 118.532 283.82C118.345 284.133 118.252 284.48 118.252 284.863V289H117.272ZM125.639 289V279.2H126.703L131.876 287.229V279.2H132.856V289H131.799L126.619 280.971V289H125.639ZM140.239 282H141.219V289H140.239L140.204 287.698C139.975 288.141 139.655 288.501 139.245 288.776C138.834 289.047 138.344 289.182 137.775 289.182C137.261 289.182 136.781 289.086 136.333 288.895C135.885 288.699 135.49 288.431 135.15 288.09C134.809 287.749 134.543 287.355 134.352 286.907C134.16 286.459 134.065 285.978 134.065 285.465C134.065 284.961 134.158 284.487 134.345 284.044C134.536 283.601 134.797 283.211 135.129 282.875C135.465 282.539 135.852 282.278 136.291 282.091C136.734 281.9 137.208 281.804 137.712 281.804C138.295 281.804 138.804 281.944 139.238 282.224C139.672 282.499 140.017 282.861 140.274 283.309L140.239 282ZM137.754 288.23C138.253 288.23 138.682 288.109 139.042 287.866C139.401 287.619 139.676 287.287 139.868 286.872C140.064 286.457 140.162 285.999 140.162 285.5C140.162 284.987 140.064 284.525 139.868 284.114C139.672 283.699 139.394 283.37 139.035 283.127C138.675 282.884 138.248 282.763 137.754 282.763C137.259 282.763 136.806 282.887 136.396 283.134C135.99 283.377 135.665 283.706 135.423 284.121C135.185 284.536 135.066 284.996 135.066 285.5C135.066 286.009 135.189 286.471 135.437 286.886C135.684 287.297 136.011 287.623 136.417 287.866C136.827 288.109 137.273 288.23 137.754 288.23ZM142.619 289V282H143.599V282.966C143.851 282.611 144.173 282.329 144.565 282.119C144.957 281.909 145.387 281.804 145.853 281.804C146.381 281.804 146.864 281.935 147.302 282.196C147.741 282.453 148.084 282.796 148.331 283.225C148.579 282.796 148.919 282.453 149.353 282.196C149.787 281.935 150.268 281.804 150.795 281.804C151.323 281.804 151.803 281.932 152.237 282.189C152.671 282.446 153.017 282.791 153.273 283.225C153.53 283.659 153.658 284.14 153.658 284.667V289H152.678V284.884C152.678 284.511 152.587 284.165 152.405 283.848C152.223 283.531 151.978 283.276 151.67 283.085C151.367 282.889 151.029 282.791 150.655 282.791C150.282 282.791 149.941 282.882 149.633 283.064C149.33 283.241 149.087 283.489 148.905 283.806C148.723 284.119 148.632 284.478 148.632 284.884V289H147.652V284.884C147.652 284.478 147.561 284.119 147.379 283.806C147.197 283.489 146.952 283.241 146.644 283.064C146.336 282.882 145.996 282.791 145.622 282.791C145.254 282.791 144.915 282.889 144.607 283.085C144.299 283.276 144.054 283.531 143.872 283.848C143.69 284.165 143.599 284.511 143.599 284.884V289H142.619ZM158.004 289.182C157.36 289.182 156.772 289.016 156.24 288.685C155.713 288.354 155.29 287.91 154.973 287.355C154.66 286.795 154.504 286.177 154.504 285.5C154.504 284.987 154.595 284.508 154.777 284.065C154.959 283.617 155.209 283.225 155.526 282.889C155.848 282.548 156.221 282.282 156.646 282.091C157.071 281.9 157.523 281.804 158.004 281.804C158.522 281.804 158.998 281.907 159.432 282.112C159.871 282.317 160.246 282.604 160.559 282.973C160.876 283.342 161.114 283.773 161.273 284.268C161.436 284.763 161.504 285.297 161.476 285.871H155.54C155.596 286.314 155.736 286.711 155.96 287.061C156.189 287.411 156.478 287.689 156.828 287.894C157.183 288.095 157.575 288.197 158.004 288.202C158.471 288.202 158.891 288.081 159.264 287.838C159.642 287.595 159.945 287.262 160.174 286.837L161.168 287.068C160.888 287.689 160.466 288.197 159.901 288.594C159.336 288.986 158.704 289.182 158.004 289.182ZM155.512 285.08H160.489C160.456 284.646 160.323 284.249 160.09 283.89C159.861 283.526 159.565 283.237 159.201 283.022C158.837 282.803 158.438 282.693 158.004 282.693C157.57 282.693 157.173 282.8 156.814 283.015C156.455 283.225 156.161 283.512 155.932 283.876C155.703 284.235 155.563 284.637 155.512 285.08Z" fill="#8391A1"/>
<path opacity="0.35" d="M351.5 20C351.5 18.8034 352.47 17.8334 353.667 17.8334H370.333C371.53 17.8334 372.5 18.8034 372.5 20V26C372.5 27.1967 371.53 28.1667 370.333 28.1667H353.667C352.47 28.1667 351.5 27.1967 351.5 26V20Z" stroke="black"/>
<path opacity="0.4" d="M374 21.0001V25.0001C374.805 24.6613 375.328 23.8732 375.328 23.0001C375.328 22.1269 374.805 21.3388 374 21.0001Z" fill="black"/>
<path d="M353 20.6667C353 19.9303 353.597 19.3334 354.333 19.3334H369.667C370.403 19.3334 371 19.9303 371 20.6667V25.3334C371 26.0698 370.403 26.6667 369.667 26.6667H354.333C353.597 26.6667 353 26.0698 353 25.3334V20.6667Z" fill="black"/>
<path fill-rule="evenodd" clip-rule="evenodd" d="M338.33 19.608C340.546 19.6081 342.678 20.4596 344.283 21.9863C344.404 22.1042 344.598 22.1027 344.717 21.983L345.873 20.8163C345.933 20.7556 345.967 20.6734 345.966 20.5878C345.966 20.5022 345.931 20.4204 345.87 20.3603C341.655 16.3208 335.005 16.3208 330.79 20.3603C330.729 20.4203 330.694 20.5021 330.694 20.5877C330.693 20.6733 330.727 20.7556 330.787 20.8163L331.943 21.983C332.062 22.1029 332.256 22.1044 332.377 21.9863C333.983 20.4595 336.114 19.608 338.33 19.608ZM338.33 23.4037C339.548 23.4036 340.722 23.8561 341.624 24.6733C341.747 24.7893 341.939 24.7868 342.058 24.6677L343.212 23.501C343.273 23.4398 343.307 23.3568 343.306 23.2705C343.305 23.1843 343.27 23.102 343.208 23.042C340.46 20.4856 336.204 20.4856 333.455 23.042C333.393 23.102 333.358 23.1843 333.357 23.2706C333.356 23.3569 333.39 23.4399 333.451 23.501L334.605 24.6677C334.724 24.7868 334.917 24.7893 335.039 24.6733C335.941 23.8567 337.114 23.4042 338.33 23.4037ZM340.643 25.9575C340.645 26.044 340.611 26.1274 340.549 26.188L338.552 28.2037C338.494 28.2629 338.414 28.2963 338.33 28.2963C338.247 28.2963 338.167 28.2629 338.109 28.2037L336.111 26.188C336.049 26.1274 336.015 26.0439 336.017 25.9574C336.019 25.8709 336.057 25.789 336.121 25.731C337.396 24.6521 339.265 24.6521 340.54 25.731C340.604 25.7891 340.642 25.871 340.643 25.9575Z" fill="black"/>
<path fill-rule="evenodd" clip-rule="evenodd" d="M324.667 17.6666H323.667C323.114 17.6666 322.667 18.1143 322.667 18.6666V27.3333C322.667 27.8856 323.114 28.3333 323.667 28.3333H324.667C325.219 28.3333 325.667 27.8856 325.667 27.3333V18.6666C325.667 18.1143 325.219 17.6666 324.667 17.6666ZM319 20H320C320.552 20 321 20.4477 321 21V27.3333C321 27.8856 320.552 28.3333 320 28.3333H319C318.448 28.3333 318 27.8856 318 27.3333V21C318 20.4477 318.448 20 319 20ZM315.333 22.3333H314.333C313.781 22.3333 313.333 22.781 313.333 23.3333V27.3333C313.333 27.8856 313.781 28.3333 314.333 28.3333H315.333C315.886 28.3333 316.333 27.8856 316.333 27.3333V23.3333C316.333 22.781 315.886 22.3333 315.333 22.3333ZM310.667 24.3333H309.667C309.114 24.3333 308.667 24.781 308.667 25.3333V27.3333C308.667 27.8856 309.114 28.3333 309.667 28.3333H310.667C311.219 28.3333 311.667 27.8856 311.667 27.3333V25.3333C311.667 24.781 311.219 24.3333 310.667 24.3333Z" fill="black"/>
<path d="M36.3208 28.2563C39.0088 28.2563 40.6055 26.1543 40.6055 22.5947C40.6055 21.2544 40.3491 20.1265 39.8584 19.2549C39.1479 17.8999 37.9248 17.1675 36.3794 17.1675C34.0796 17.1675 32.4536 18.7129 32.4536 20.8809C32.4536 22.917 33.9185 24.3965 35.9326 24.3965C37.1704 24.3965 38.1738 23.8179 38.6719 22.8145H38.6938C38.6938 22.8145 38.7231 22.8145 38.7305 22.8145C38.7451 22.8145 38.7964 22.8145 38.7964 22.8145C38.7964 25.2314 37.8809 26.6743 36.3354 26.6743C35.4272 26.6743 34.7241 26.1763 34.4824 25.3779H32.6001C32.915 27.1138 34.3872 28.2563 36.3208 28.2563ZM36.3867 22.895C35.1709 22.895 34.3066 22.0308 34.3066 20.8223C34.3066 19.6431 35.2148 18.7422 36.394 18.7422C37.5732 18.7422 38.4814 19.6577 38.4814 20.8516C38.4814 22.0308 37.5952 22.895 36.3867 22.895Z" fill="black"/>
<path d="M43.6966 28.1538C44.3924 28.1538 44.8685 27.6558 44.8685 26.9966C44.8685 26.3301 44.3924 25.8394 43.6966 25.8394C43.0081 25.8394 42.5247 26.3301 42.5247 26.9966C42.5247 27.6558 43.0081 28.1538 43.6966 28.1538ZM43.6966 22.6606C44.3924 22.6606 44.8685 22.1699 44.8685 21.5107C44.8685 20.8442 44.3924 20.3535 43.6966 20.3535C43.0081 20.3535 42.5247 20.8442 42.5247 21.5107C42.5247 22.1699 43.0081 22.6606 43.6966 22.6606Z" fill="black"/>
<path d="M51.7242 28H53.5333V26.0298H54.9615V24.4331H53.5333V17.4312H50.8673C48.9996 20.2437 47.5128 22.5947 46.5606 24.3452V26.0298H51.7242V28ZM48.3111 24.3672C49.5416 22.1992 50.6402 20.4634 51.651 18.9692H51.7535V24.4771H48.3111V24.3672Z" fill="black"/>
<path d="M58.9901 28H60.8798V17.4312H58.9975L56.2362 19.3647V21.1812L58.8656 19.3354H58.9901V28Z" fill="black"/>
<rect x="36.5" y="91.5" width="40" height="40" rx="11.5" fill="white" stroke="#E8ECF4"/>
<rect x="36.5" y="91.5" width="40" height="40" rx="11.5" fill="white" stroke="#E8ECF4"/>
<path d="M59.1576 104.367C59.0656 104.275 58.9564 104.202 58.8362 104.152C58.716 104.102 58.5871 104.076 58.4569 104.076C58.3268 104.076 58.1979 104.102 58.0777 104.152C57.9574 104.202 57.8482 104.275 57.7563 104.367L51.1776 110.946C51.1042 111.019 51.0459 111.106 51.0062 111.202C50.9665 111.298 50.946 111.4 50.946 111.504C50.946 111.608 50.9665 111.71 51.0062 111.806C51.0459 111.902 51.1042 111.989 51.1776 112.062L57.7563 118.641C58.1442 119.029 58.7696 119.029 59.1576 118.641C59.5455 118.253 59.5455 117.627 59.1576 117.24L53.4259 111.5L59.1655 105.76C59.5455 105.38 59.5455 104.747 59.1576 104.367Z" fill="#1E232C" stroke="#1E232C" stroke-width="0.2"/>
<rect x="68" y="723" width="259" height="48" rx="8" fill="#31732B"/>
<path d="M186.361 751V741.2H189.497C190.02 741.2 190.491 741.328 190.911 741.585C191.331 741.837 191.665 742.18 191.912 742.614C192.164 743.043 192.29 743.526 192.29 744.063C192.29 744.604 192.162 745.092 191.905 745.526C191.653 745.96 191.315 746.303 190.89 746.555C190.47 746.807 190.006 746.933 189.497 746.933H187.341V751H186.361ZM187.341 745.953H189.42C189.766 745.953 190.081 745.869 190.365 745.701C190.655 745.528 190.883 745.297 191.051 745.008C191.224 744.714 191.31 744.383 191.31 744.014C191.31 743.645 191.224 743.316 191.051 743.027C190.883 742.733 190.655 742.502 190.365 742.334C190.081 742.161 189.766 742.075 189.42 742.075H187.341V745.953ZM198.869 744H199.849V751H198.869L198.834 749.698C198.606 750.141 198.286 750.501 197.875 750.776C197.465 751.047 196.975 751.182 196.405 751.182C195.892 751.182 195.411 751.086 194.963 750.895C194.515 750.699 194.121 750.431 193.78 750.09C193.44 749.749 193.174 749.355 192.982 748.907C192.791 748.459 192.695 747.978 192.695 747.465C192.695 746.961 192.789 746.487 192.975 746.044C193.167 745.601 193.428 745.211 193.759 744.875C194.095 744.539 194.483 744.278 194.921 744.091C195.365 743.9 195.838 743.804 196.342 743.804C196.926 743.804 197.434 743.944 197.868 744.224C198.302 744.499 198.648 744.861 198.904 745.309L198.869 744ZM196.384 750.23C196.884 750.23 197.313 750.109 197.672 749.866C198.032 749.619 198.307 749.287 198.498 748.872C198.694 748.457 198.792 747.999 198.792 747.5C198.792 746.987 198.694 746.525 198.498 746.114C198.302 745.699 198.025 745.37 197.665 745.127C197.306 744.884 196.879 744.763 196.384 744.763C195.89 744.763 195.437 744.887 195.026 745.134C194.62 745.377 194.296 745.706 194.053 746.121C193.815 746.536 193.696 746.996 193.696 747.5C193.696 748.009 193.82 748.471 194.067 748.886C194.315 749.297 194.641 749.623 195.047 749.866C195.458 750.109 195.904 750.23 196.384 750.23ZM205.881 744H206.917L203.088 754.5H202.045L203.319 751L200.806 744H201.877L203.809 749.649L205.881 744Z" fill="white"/>
<path d="M298 291L292 285L293.4 283.6L298 288.175L302.6 283.6L304 285L298 291ZM298 285L292 279L293.4 277.6L298 282.175L302.6 277.6L304 279L298 285Z" fill="black" fill-opacity="0.34"/>
<path d="M122.046 191V181.2H123.026V191H122.046ZM134.38 186.667V191H133.4V186.863C133.4 186.48 133.306 186.133 133.12 185.82C132.933 185.507 132.683 185.258 132.371 185.071C132.058 184.884 131.71 184.791 131.328 184.791C130.95 184.791 130.602 184.884 130.285 185.071C129.972 185.258 129.722 185.507 129.536 185.82C129.349 186.133 129.256 186.48 129.256 186.863V191H128.276V184H129.256V184.966C129.503 184.611 129.825 184.329 130.222 184.119C130.618 183.909 131.05 183.804 131.517 183.804C132.044 183.804 132.525 183.932 132.959 184.189C133.393 184.446 133.738 184.791 133.995 185.225C134.251 185.659 134.38 186.14 134.38 186.667ZM138.725 191.182C138.081 191.182 137.493 191.016 136.961 190.685C136.433 190.354 136.011 189.91 135.694 189.355C135.381 188.795 135.225 188.177 135.225 187.5C135.225 186.987 135.316 186.508 135.498 186.065C135.68 185.617 135.929 185.225 136.247 184.889C136.569 184.548 136.942 184.282 137.367 184.091C137.791 183.9 138.244 183.804 138.725 183.804C139.243 183.804 139.719 183.907 140.153 184.112C140.591 184.317 140.967 184.604 141.28 184.973C141.597 185.342 141.835 185.773 141.994 186.268C142.157 186.763 142.225 187.297 142.197 187.871H136.261C136.317 188.314 136.457 188.711 136.681 189.061C136.909 189.411 137.199 189.689 137.549 189.894C137.903 190.095 138.295 190.197 138.725 190.202C139.191 190.202 139.611 190.081 139.985 189.838C140.363 189.595 140.666 189.262 140.895 188.837L141.889 189.068C141.609 189.689 141.186 190.197 140.622 190.594C140.057 190.986 139.425 191.182 138.725 191.182ZM136.233 187.08H141.21C141.177 186.646 141.044 186.249 140.811 185.89C140.582 185.526 140.286 185.237 139.922 185.022C139.558 184.803 139.159 184.693 138.725 184.693C138.291 184.693 137.894 184.8 137.535 185.015C137.175 185.225 136.881 185.512 136.653 185.876C136.424 186.235 136.284 186.637 136.233 187.08ZM146.408 191.182C145.764 191.182 145.176 191.016 144.644 190.685C144.117 190.354 143.695 189.91 143.377 189.355C143.065 188.795 142.908 188.177 142.908 187.5C142.908 186.987 142.999 186.508 143.181 186.065C143.363 185.617 143.613 185.225 143.93 184.889C144.252 184.548 144.626 184.282 145.05 184.091C145.475 183.9 145.928 183.804 146.408 183.804C146.926 183.804 147.402 183.907 147.836 184.112C148.275 184.317 148.651 184.604 148.963 184.973C149.281 185.342 149.519 185.773 149.677 186.268C149.841 186.763 149.908 187.297 149.88 187.871H143.944C144 188.314 144.14 188.711 144.364 189.061C144.593 189.411 144.882 189.689 145.232 189.894C145.587 190.095 145.979 190.197 146.408 190.202C146.875 190.202 147.295 190.081 147.668 189.838C148.046 189.595 148.35 189.262 148.578 188.837L149.572 189.068C149.292 189.689 148.87 190.197 148.305 190.594C147.741 190.986 147.108 191.182 146.408 191.182ZM143.916 187.08H148.893C148.861 186.646 148.728 186.249 148.494 185.89C148.266 185.526 147.969 185.237 147.605 185.022C147.241 184.803 146.842 184.693 146.408 184.693C145.974 184.693 145.578 184.8 145.218 185.015C144.859 185.225 144.565 185.512 144.336 185.876C144.108 186.235 143.968 186.637 143.916 187.08ZM156.773 180.5H157.753V191H156.773V189.691C156.53 190.139 156.197 190.501 155.772 190.776C155.352 191.047 154.853 191.182 154.274 191.182C153.765 191.182 153.289 191.086 152.846 190.895C152.403 190.704 152.011 190.44 151.67 190.104C151.334 189.763 151.07 189.371 150.879 188.928C150.688 188.485 150.592 188.009 150.592 187.5C150.592 186.991 150.688 186.515 150.879 186.072C151.07 185.624 151.334 185.232 151.67 184.896C152.011 184.555 152.403 184.289 152.846 184.098C153.289 183.907 153.765 183.811 154.274 183.811C154.853 183.811 155.352 183.949 155.772 184.224C156.197 184.495 156.53 184.852 156.773 185.295V180.5ZM154.281 190.23C154.78 190.23 155.21 190.109 155.569 189.866C155.928 189.619 156.204 189.287 156.395 188.872C156.591 188.457 156.689 187.999 156.689 187.5C156.689 186.987 156.591 186.525 156.395 186.114C156.199 185.699 155.921 185.37 155.562 185.127C155.203 184.884 154.776 184.763 154.281 184.763C153.786 184.763 153.336 184.887 152.93 185.134C152.524 185.377 152.2 185.706 151.957 186.121C151.714 186.536 151.593 186.996 151.593 187.5C151.593 188.009 151.717 188.471 151.964 188.886C152.211 189.297 152.538 189.623 152.944 189.866C153.355 190.109 153.8 190.23 154.281 190.23ZM168.551 184H169.531V191H168.551L168.516 189.698C168.287 190.141 167.968 190.501 167.557 190.776C167.146 191.047 166.656 191.182 166.087 191.182C165.574 191.182 165.093 191.086 164.645 190.895C164.197 190.699 163.803 190.431 163.462 190.09C163.121 189.749 162.855 189.355 162.664 188.907C162.473 188.459 162.377 187.978 162.377 187.465C162.377 186.961 162.47 186.487 162.657 186.044C162.848 185.601 163.11 185.211 163.441 184.875C163.777 184.539 164.164 184.278 164.603 184.091C165.046 183.9 165.52 183.804 166.024 183.804C166.607 183.804 167.116 183.944 167.55 184.224C167.984 184.499 168.329 184.861 168.586 185.309L168.551 184ZM166.066 190.23C166.565 190.23 166.995 190.109 167.354 189.866C167.713 189.619 167.989 189.287 168.18 188.872C168.376 188.457 168.474 187.999 168.474 187.5C168.474 186.987 168.376 186.525 168.18 186.114C167.984 185.699 167.706 185.37 167.347 185.127C166.988 184.884 166.561 184.763 166.066 184.763C165.571 184.763 165.119 184.887 164.708 185.134C164.302 185.377 163.978 185.706 163.735 186.121C163.497 186.536 163.378 186.996 163.378 187.5C163.378 188.009 163.502 188.471 163.749 188.886C163.996 189.297 164.323 189.623 164.729 189.866C165.14 190.109 165.585 190.23 166.066 190.23ZM180.056 180.5H181.036V191H180.056V189.691C179.813 190.139 179.48 190.501 179.055 190.776C178.635 191.047 178.136 191.182 177.557 191.182C177.048 191.182 176.572 191.086 176.129 190.895C175.686 190.704 175.294 190.44 174.953 190.104C174.617 189.763 174.353 189.371 174.162 188.928C173.971 188.485 173.875 188.009 173.875 187.5C173.875 186.991 173.971 186.515 174.162 186.072C174.353 185.624 174.617 185.232 174.953 184.896C175.294 184.555 175.686 184.289 176.129 184.098C176.572 183.907 177.048 183.811 177.557 183.811C178.136 183.811 178.635 183.949 179.055 184.224C179.48 184.495 179.813 184.852 180.056 185.295V180.5ZM177.564 190.23C178.063 190.23 178.493 190.109 178.852 189.866C179.211 189.619 179.487 189.287 179.678 188.872C179.874 188.457 179.972 187.999 179.972 187.5C179.972 186.987 179.874 186.525 179.678 186.114C179.482 185.699 179.204 185.37 178.845 185.127C178.486 184.884 178.059 184.763 177.564 184.763C177.069 184.763 176.619 184.887 176.213 185.134C175.807 185.377 175.483 185.706 175.24 186.121C174.997 186.536 174.876 186.996 174.876 187.5C174.876 188.009 175 188.471 175.247 188.886C175.494 189.297 175.821 189.623 176.227 189.866C176.638 190.109 177.083 190.23 177.564 190.23ZM182.717 191V184H183.697V184.966C183.944 184.611 184.266 184.329 184.663 184.119C185.06 183.909 185.491 183.804 185.958 183.804C186.229 183.804 186.49 183.839 186.742 183.909L186.343 184.882C186.147 184.821 185.956 184.791 185.769 184.791C185.391 184.791 185.043 184.884 184.726 185.071C184.413 185.258 184.164 185.507 183.977 185.82C183.79 186.133 183.697 186.48 183.697 186.863V191H182.717ZM187.625 184H188.605V191H187.625V184ZM188.122 182.775C187.963 182.775 187.828 182.724 187.716 182.621C187.609 182.514 187.555 182.381 187.555 182.222C187.555 182.063 187.609 181.933 187.716 181.83C187.828 181.723 187.963 181.669 188.122 181.669C188.276 181.669 188.407 181.723 188.514 181.83C188.626 181.933 188.682 182.063 188.682 182.222C188.682 182.381 188.628 182.514 188.521 182.621C188.414 182.724 188.281 182.775 188.122 182.775ZM193.576 191H192.33L189.775 183.979H190.818L192.953 189.852L195.088 183.979H196.131L193.576 191ZM200.098 191.182C199.454 191.182 198.866 191.016 198.334 190.685C197.806 190.354 197.384 189.91 197.067 189.355C196.754 188.795 196.598 188.177 196.598 187.5C196.598 186.987 196.689 186.508 196.871 186.065C197.053 185.617 197.302 185.225 197.62 184.889C197.942 184.548 198.315 184.282 198.74 184.091C199.164 183.9 199.617 183.804 200.098 183.804C200.616 183.804 201.092 183.907 201.526 184.112C201.964 184.317 202.34 184.604 202.653 184.973C202.97 185.342 203.208 185.773 203.367 186.268C203.53 186.763 203.598 187.297 203.57 187.871H197.634C197.69 188.314 197.83 188.711 198.054 189.061C198.282 189.411 198.572 189.689 198.922 189.894C199.276 190.095 199.668 190.197 200.098 190.202C200.564 190.202 200.984 190.081 201.358 189.838C201.736 189.595 202.039 189.262 202.268 188.837L203.262 189.068C202.982 189.689 202.559 190.197 201.995 190.594C201.43 190.986 200.798 191.182 200.098 191.182ZM197.606 187.08H202.583C202.55 186.646 202.417 186.249 202.184 185.89C201.955 185.526 201.659 185.237 201.295 185.022C200.931 184.803 200.532 184.693 200.098 184.693C199.664 184.693 199.267 184.8 198.908 185.015C198.548 185.225 198.254 185.512 198.026 185.876C197.797 186.235 197.657 186.637 197.606 187.08ZM204.77 191V184H205.75V184.966C205.997 184.611 206.319 184.329 206.716 184.119C207.112 183.909 207.544 183.804 208.011 183.804C208.281 183.804 208.543 183.839 208.795 183.909L208.396 184.882C208.2 184.821 208.008 184.791 207.822 184.791C207.444 184.791 207.096 184.884 206.779 185.071C206.466 185.258 206.216 185.507 206.03 185.82C205.843 186.133 205.75 186.48 205.75 186.863V191H204.77Z" fill="black"/>
<rect x="76" y="173" width="30" height="30" rx="8" fill="#D9D9D9"/>
</svg>
