<svg width="390" height="844" viewBox="0 0 390 844" fill="none" xmlns="http://www.w3.org/2000/svg">
<rect width="390" height="844" fill="white"/>
<g clip-path="url(#clip0_21_392)">
<path d="M241.481 320.998C243.026 319.2 244.108 317.051 244.634 314.74C245.16 312.429 245.115 310.024 244.501 307.734C243.888 305.444 242.725 303.339 241.113 301.6C239.501 299.862 237.49 298.543 235.253 297.758C235.692 295.428 235.555 293.026 234.855 290.761C234.155 288.496 232.913 286.436 231.236 284.76C229.56 283.084 227.5 281.842 225.235 281.143C222.97 280.443 220.568 280.306 218.239 280.745C217.454 278.508 216.135 276.496 214.397 274.884C212.658 273.272 210.552 272.109 208.262 271.495C205.972 270.882 203.567 270.837 201.256 271.364C198.944 271.891 196.796 272.974 194.998 274.519C193.2 272.975 191.052 271.893 188.74 271.366C186.429 270.84 184.024 270.886 181.734 271.499C179.444 272.113 177.339 273.276 175.601 274.887C173.862 276.499 172.543 278.51 171.758 280.747C169.428 280.309 167.027 280.446 164.762 281.147C162.498 281.847 160.438 283.089 158.762 284.765C157.086 286.442 155.845 288.501 155.145 290.766C154.445 293.031 154.309 295.432 154.747 297.762C152.511 298.547 150.499 299.866 148.888 301.605C147.276 303.343 146.113 305.449 145.5 307.738C144.886 310.028 144.84 312.433 145.367 314.744C145.893 317.056 146.975 319.204 148.519 321.002C146.975 322.801 145.892 324.949 145.366 327.261C144.839 329.572 144.885 331.977 145.499 334.267C146.113 336.557 147.276 338.663 148.888 340.401C150.5 342.14 152.512 343.458 154.749 344.243C154.311 346.572 154.447 348.974 155.147 351.239C155.846 353.504 157.088 355.564 158.765 357.24C160.441 358.916 162.501 360.157 164.766 360.857C167.031 361.556 169.433 361.692 171.762 361.253C172.547 363.49 173.866 365.501 175.605 367.113C177.343 368.724 179.449 369.887 181.739 370.501C184.028 371.114 186.433 371.16 188.745 370.634C191.056 370.108 193.204 369.025 195.003 367.481C196.801 369.026 198.949 370.108 201.261 370.635C203.572 371.161 205.978 371.116 208.267 370.502C210.557 369.888 212.663 368.724 214.401 367.112C216.14 365.5 217.458 363.488 218.243 361.251C220.573 361.69 222.974 361.553 225.239 360.854C227.504 360.154 229.564 358.912 231.24 357.236C232.916 355.559 234.158 353.499 234.858 351.234C235.558 348.97 235.694 346.568 235.256 344.238C237.492 343.453 239.504 342.134 241.116 340.396C242.727 338.657 243.89 336.552 244.504 334.262C245.117 331.972 245.162 329.567 244.636 327.255C244.109 324.944 243.026 322.796 241.481 320.998Z" fill="#18C07A"/>
<path d="M186.025 340.084L172.13 326.198C171.603 325.67 171.307 324.954 171.307 324.208C171.307 323.462 171.603 322.746 172.13 322.218L173.818 320.528C174.346 320 175.062 319.704 175.809 319.704C176.555 319.704 177.271 320 177.799 320.528L187.899 330.621L211.686 305.344C212.197 304.801 212.904 304.483 213.65 304.46C214.396 304.437 215.12 304.712 215.664 305.223L217.398 306.859C217.941 307.37 218.259 308.077 218.282 308.824C218.305 309.57 218.03 310.295 217.519 310.839L190.072 340.021C189.814 340.297 189.503 340.517 189.157 340.67C188.812 340.823 188.439 340.905 188.062 340.911C187.684 340.916 187.309 340.846 186.959 340.704C186.609 340.562 186.291 340.352 186.025 340.084Z" fill="white"/>
</g>
<path d="M107.757 446.5H109.242L105.687 452.252V457H104.427V452.252L100.872 446.5H102.357L105.057 450.872L107.757 446.5ZM112.591 457.195C111.901 457.195 111.271 457.017 110.701 456.662C110.136 456.307 109.684 455.832 109.344 455.237C109.009 454.637 108.841 453.975 108.841 453.25C108.841 452.7 108.939 452.187 109.134 451.712C109.329 451.232 109.596 450.812 109.936 450.452C110.281 450.087 110.681 449.802 111.136 449.597C111.591 449.392 112.076 449.29 112.591 449.29C113.281 449.29 113.909 449.467 114.474 449.822C115.044 450.177 115.496 450.655 115.831 451.255C116.171 451.855 116.341 452.52 116.341 453.25C116.341 453.795 116.244 454.305 116.049 454.78C115.854 455.255 115.584 455.675 115.239 456.04C114.899 456.4 114.501 456.682 114.046 456.887C113.596 457.093 113.111 457.195 112.591 457.195ZM112.591 455.935C113.061 455.935 113.484 455.812 113.859 455.567C114.239 455.317 114.536 454.99 114.751 454.585C114.971 454.175 115.081 453.73 115.081 453.25C115.081 452.76 114.969 452.31 114.744 451.9C114.524 451.49 114.226 451.162 113.851 450.917C113.476 450.672 113.056 450.55 112.591 450.55C112.121 450.55 111.699 450.675 111.324 450.925C110.949 451.17 110.651 451.497 110.431 451.907C110.211 452.317 110.101 452.765 110.101 453.25C110.101 453.75 110.214 454.205 110.439 454.615C110.664 455.02 110.966 455.342 111.346 455.582C111.726 455.817 112.141 455.935 112.591 455.935ZM117.18 454.15V449.5H118.44V453.872C118.44 454.252 118.532 454.597 118.717 454.907C118.902 455.217 119.15 455.465 119.46 455.65C119.775 455.83 120.12 455.92 120.495 455.92C120.875 455.92 121.217 455.83 121.522 455.65C121.832 455.465 122.08 455.217 122.265 454.907C122.45 454.597 122.542 454.252 122.542 453.872V449.5H123.802L123.81 457H122.55L122.542 456.047C122.277 456.397 121.942 456.677 121.537 456.887C121.132 457.093 120.695 457.195 120.225 457.195C119.665 457.195 119.152 457.06 118.687 456.79C118.227 456.515 117.86 456.147 117.585 455.687C117.315 455.227 117.18 454.715 117.18 454.15ZM125.317 457V449.5H126.577V450.437C126.842 450.087 127.177 449.81 127.582 449.605C127.987 449.395 128.427 449.29 128.902 449.29C129.192 449.29 129.472 449.327 129.742 449.402L129.232 450.662C129.027 450.597 128.827 450.565 128.632 450.565C128.257 450.565 127.912 450.657 127.597 450.842C127.287 451.022 127.039 451.267 126.854 451.577C126.669 451.887 126.577 452.232 126.577 452.612V457H125.317ZM140.436 445.75H141.696V457H140.436V455.725C140.181 456.165 139.839 456.52 139.409 456.79C138.979 457.06 138.474 457.195 137.894 457.195C137.349 457.195 136.839 457.093 136.364 456.887C135.889 456.682 135.469 456.4 135.104 456.04C134.744 455.675 134.461 455.255 134.256 454.78C134.051 454.305 133.949 453.795 133.949 453.25C133.949 452.705 134.051 452.195 134.256 451.72C134.461 451.24 134.744 450.82 135.104 450.46C135.469 450.095 135.889 449.81 136.364 449.605C136.839 449.4 137.349 449.297 137.894 449.297C138.474 449.297 138.979 449.432 139.409 449.702C139.839 449.972 140.181 450.327 140.436 450.767V445.75ZM137.909 455.972C138.404 455.972 138.831 455.852 139.191 455.612C139.556 455.367 139.836 455.037 140.031 454.622C140.231 454.207 140.331 453.75 140.331 453.25C140.331 452.74 140.231 452.28 140.031 451.87C139.831 451.455 139.549 451.127 139.184 450.887C138.824 450.642 138.399 450.52 137.909 450.52C137.414 450.52 136.964 450.642 136.559 450.887C136.159 451.132 135.839 451.462 135.599 451.877C135.359 452.287 135.239 452.745 135.239 453.25C135.239 453.755 135.361 454.215 135.606 454.63C135.851 455.04 136.176 455.367 136.581 455.612C136.986 455.852 137.429 455.972 137.909 455.972ZM146.722 457.195C146.032 457.195 145.402 457.017 144.832 456.662C144.267 456.307 143.814 455.832 143.474 455.237C143.139 454.637 142.972 453.975 142.972 453.25C142.972 452.7 143.069 452.187 143.264 451.712C143.459 451.232 143.727 450.812 144.067 450.452C144.412 450.087 144.812 449.802 145.267 449.597C145.722 449.392 146.207 449.29 146.722 449.29C147.287 449.29 147.804 449.405 148.274 449.635C148.749 449.86 149.154 450.175 149.489 450.58C149.829 450.985 150.082 451.455 150.247 451.99C150.417 452.525 150.479 453.097 150.434 453.707H144.314C144.374 454.132 144.514 454.512 144.734 454.847C144.954 455.177 145.234 455.44 145.574 455.635C145.919 455.83 146.302 455.93 146.722 455.935C147.172 455.935 147.579 455.82 147.944 455.59C148.309 455.355 148.604 455.035 148.829 454.63L150.112 454.93C149.812 455.595 149.359 456.14 148.754 456.565C148.149 456.985 147.472 457.195 146.722 457.195ZM144.277 452.717H149.167C149.127 452.297 148.992 451.915 148.762 451.57C148.532 451.22 148.239 450.94 147.884 450.73C147.529 450.52 147.142 450.415 146.722 450.415C146.302 450.415 145.917 450.517 145.567 450.722C145.217 450.927 144.927 451.205 144.697 451.555C144.472 451.9 144.332 452.287 144.277 452.717ZM152.958 460.75H151.698V449.5H152.958V450.782C153.213 450.342 153.553 449.987 153.978 449.717C154.403 449.442 154.908 449.305 155.493 449.305C156.038 449.305 156.548 449.407 157.023 449.612C157.503 449.817 157.923 450.102 158.283 450.467C158.643 450.827 158.926 451.245 159.131 451.72C159.336 452.195 159.438 452.705 159.438 453.25C159.438 453.795 159.336 454.307 159.131 454.787C158.926 455.267 158.643 455.69 158.283 456.055C157.923 456.415 157.503 456.697 157.023 456.902C156.548 457.108 156.038 457.21 155.493 457.21C154.908 457.21 154.403 457.075 153.978 456.805C153.553 456.53 153.213 456.172 152.958 455.732V460.75ZM155.478 450.527C154.993 450.527 154.568 450.65 154.203 450.895C153.838 451.14 153.556 451.467 153.356 451.877C153.161 452.287 153.063 452.745 153.063 453.25C153.063 453.75 153.161 454.207 153.356 454.622C153.556 455.037 153.836 455.367 154.196 455.612C154.561 455.857 154.988 455.98 155.478 455.98C155.963 455.98 156.408 455.86 156.813 455.62C157.218 455.375 157.543 455.047 157.788 454.637C158.033 454.222 158.156 453.76 158.156 453.25C158.156 452.75 158.036 452.295 157.796 451.885C157.556 451.47 157.233 451.14 156.828 450.895C156.423 450.65 155.973 450.527 155.478 450.527ZM163.949 457.195C163.259 457.195 162.629 457.017 162.059 456.662C161.494 456.307 161.041 455.832 160.701 455.237C160.366 454.637 160.199 453.975 160.199 453.25C160.199 452.7 160.296 452.187 160.491 451.712C160.686 451.232 160.954 450.812 161.294 450.452C161.639 450.087 162.039 449.802 162.494 449.597C162.949 449.392 163.434 449.29 163.949 449.29C164.639 449.29 165.266 449.467 165.831 449.822C166.401 450.177 166.854 450.655 167.189 451.255C167.529 451.855 167.699 452.52 167.699 453.25C167.699 453.795 167.601 454.305 167.406 454.78C167.211 455.255 166.941 455.675 166.596 456.04C166.256 456.4 165.859 456.682 165.404 456.887C164.954 457.093 164.469 457.195 163.949 457.195ZM163.949 455.935C164.419 455.935 164.841 455.812 165.216 455.567C165.596 455.317 165.894 454.99 166.109 454.585C166.329 454.175 166.439 453.73 166.439 453.25C166.439 452.76 166.326 452.31 166.101 451.9C165.881 451.49 165.584 451.162 165.209 450.917C164.834 450.672 164.414 450.55 163.949 450.55C163.479 450.55 163.056 450.675 162.681 450.925C162.306 451.17 162.009 451.497 161.789 451.907C161.569 452.317 161.459 452.765 161.459 453.25C161.459 453.75 161.571 454.205 161.796 454.615C162.021 455.02 162.324 455.342 162.704 455.582C163.084 455.817 163.499 455.935 163.949 455.935ZM171.256 457.143C170.851 457.128 170.456 457.053 170.071 456.917C169.691 456.777 169.356 456.59 169.066 456.355C168.781 456.115 168.574 455.84 168.444 455.53L169.524 455.065C169.599 455.235 169.734 455.395 169.929 455.545C170.124 455.695 170.349 455.815 170.604 455.905C170.859 455.995 171.116 456.04 171.376 456.04C171.651 456.04 171.909 455.997 172.149 455.912C172.389 455.827 172.584 455.702 172.734 455.537C172.889 455.367 172.966 455.165 172.966 454.93C172.966 454.68 172.881 454.485 172.711 454.345C172.546 454.2 172.336 454.087 172.081 454.007C171.831 453.922 171.576 453.842 171.316 453.767C170.801 453.637 170.341 453.482 169.936 453.302C169.531 453.117 169.211 452.885 168.976 452.605C168.746 452.32 168.631 451.957 168.631 451.517C168.631 451.052 168.759 450.65 169.014 450.31C169.274 449.97 169.614 449.707 170.034 449.522C170.454 449.337 170.904 449.245 171.384 449.245C171.989 449.245 172.541 449.375 173.041 449.635C173.541 449.895 173.914 450.247 174.159 450.692L173.146 451.285C173.061 451.105 172.931 450.947 172.756 450.812C172.581 450.672 172.381 450.562 172.156 450.482C171.931 450.402 171.701 450.36 171.466 450.355C171.176 450.345 170.904 450.382 170.649 450.467C170.399 450.552 170.196 450.682 170.041 450.857C169.891 451.027 169.816 451.24 169.816 451.495C169.816 451.745 169.896 451.935 170.056 452.065C170.221 452.195 170.434 452.3 170.694 452.38C170.959 452.455 171.246 452.542 171.556 452.642C172.011 452.787 172.436 452.955 172.831 453.145C173.226 453.335 173.544 453.572 173.784 453.857C174.029 454.142 174.149 454.495 174.144 454.915C174.144 455.375 174.006 455.777 173.731 456.122C173.456 456.462 173.099 456.722 172.659 456.902C172.224 457.083 171.756 457.163 171.256 457.143ZM175.326 449.5H176.586V457H175.326V449.5ZM175.971 448.277C175.771 448.277 175.604 448.212 175.469 448.082C175.334 447.952 175.266 447.79 175.266 447.595C175.266 447.4 175.334 447.237 175.469 447.107C175.604 446.977 175.769 446.912 175.964 446.912C176.159 446.912 176.324 446.977 176.459 447.107C176.594 447.237 176.661 447.4 176.661 447.595C176.661 447.79 176.594 447.952 176.459 448.082C176.329 448.212 176.166 448.277 175.971 448.277ZM182.273 450.76H180.57L180.563 457H179.303L179.31 450.76H178.02V449.5H179.31L179.303 447.145H180.563L180.57 449.5H182.273V450.76ZM193.851 452.335V457H192.591V452.612C192.591 452.232 192.498 451.887 192.313 451.577C192.128 451.267 191.881 451.022 191.571 450.842C191.261 450.657 190.916 450.565 190.536 450.565C190.161 450.565 189.816 450.657 189.501 450.842C189.191 451.022 188.943 451.267 188.758 451.577C188.573 451.887 188.481 452.232 188.481 452.612V457H187.221V445.75H188.481V450.437C188.746 450.087 189.081 449.81 189.486 449.605C189.891 449.395 190.331 449.29 190.806 449.29C191.366 449.29 191.876 449.427 192.336 449.702C192.801 449.972 193.168 450.337 193.438 450.797C193.713 451.257 193.851 451.77 193.851 452.335ZM201.234 449.5H202.494V457H201.234L201.182 455.732C200.947 456.167 200.622 456.52 200.207 456.79C199.797 457.06 199.307 457.195 198.737 457.195C198.187 457.195 197.672 457.093 197.192 456.887C196.712 456.677 196.287 456.39 195.917 456.025C195.552 455.655 195.267 455.23 195.062 454.75C194.857 454.27 194.754 453.752 194.754 453.197C194.754 452.662 194.854 452.157 195.054 451.682C195.254 451.207 195.532 450.792 195.887 450.437C196.247 450.077 196.662 449.797 197.132 449.597C197.602 449.392 198.107 449.29 198.647 449.29C199.237 449.29 199.754 449.43 200.199 449.71C200.644 449.985 201.004 450.342 201.279 450.782L201.234 449.5ZM198.714 455.972C199.209 455.972 199.637 455.852 199.997 455.612C200.362 455.367 200.642 455.037 200.837 454.622C201.037 454.207 201.137 453.75 201.137 453.25C201.137 452.74 201.037 452.28 200.837 451.87C200.637 451.455 200.354 451.127 199.989 450.887C199.629 450.642 199.204 450.52 198.714 450.52C198.219 450.52 197.769 450.642 197.364 450.887C196.959 451.132 196.637 451.462 196.397 451.877C196.162 452.287 196.044 452.745 196.044 453.25C196.044 453.755 196.167 454.215 196.412 454.63C196.657 455.04 196.982 455.367 197.387 455.612C197.792 455.852 198.234 455.972 198.714 455.972ZM206.281 457.143C205.876 457.128 205.481 457.053 205.096 456.917C204.716 456.777 204.381 456.59 204.091 456.355C203.806 456.115 203.598 455.84 203.468 455.53L204.548 455.065C204.623 455.235 204.758 455.395 204.953 455.545C205.148 455.695 205.373 455.815 205.628 455.905C205.883 455.995 206.141 456.04 206.401 456.04C206.676 456.04 206.933 455.997 207.173 455.912C207.413 455.827 207.608 455.702 207.758 455.537C207.913 455.367 207.991 455.165 207.991 454.93C207.991 454.68 207.906 454.485 207.736 454.345C207.571 454.2 207.361 454.087 207.106 454.007C206.856 453.922 206.601 453.842 206.341 453.767C205.826 453.637 205.366 453.482 204.961 453.302C204.556 453.117 204.236 452.885 204.001 452.605C203.771 452.32 203.656 451.957 203.656 451.517C203.656 451.052 203.783 450.65 204.038 450.31C204.298 449.97 204.638 449.707 205.058 449.522C205.478 449.337 205.928 449.245 206.408 449.245C207.013 449.245 207.566 449.375 208.066 449.635C208.566 449.895 208.938 450.247 209.183 450.692L208.171 451.285C208.086 451.105 207.956 450.947 207.781 450.812C207.606 450.672 207.406 450.562 207.181 450.482C206.956 450.402 206.726 450.36 206.491 450.355C206.201 450.345 205.928 450.382 205.673 450.467C205.423 450.552 205.221 450.682 205.066 450.857C204.916 451.027 204.841 451.24 204.841 451.495C204.841 451.745 204.921 451.935 205.081 452.065C205.246 452.195 205.458 452.3 205.718 452.38C205.983 452.455 206.271 452.542 206.581 452.642C207.036 452.787 207.461 452.955 207.856 453.145C208.251 453.335 208.568 453.572 208.808 453.857C209.053 454.142 209.173 454.495 209.168 454.915C209.168 455.375 209.031 455.777 208.756 456.122C208.481 456.462 208.123 456.722 207.683 456.902C207.248 457.083 206.781 457.163 206.281 457.143ZM217.852 449.29C218.582 449.29 219.244 449.467 219.839 449.822C220.439 450.177 220.917 450.655 221.272 451.255C221.627 451.85 221.804 452.512 221.804 453.242C221.804 453.787 221.702 454.3 221.497 454.78C221.292 455.255 221.007 455.675 220.642 456.04C220.282 456.4 219.862 456.682 219.382 456.887C218.907 457.093 218.397 457.195 217.852 457.195C217.272 457.195 216.767 457.06 216.337 456.79C215.912 456.515 215.572 456.157 215.317 455.717V457H214.057V445.75H215.317V450.767C215.572 450.327 215.912 449.972 216.337 449.702C216.767 449.427 217.272 449.29 217.852 449.29ZM217.837 455.965C218.332 455.965 218.782 455.842 219.187 455.597C219.592 455.352 219.914 455.025 220.154 454.615C220.394 454.2 220.514 453.742 220.514 453.242C220.514 452.732 220.392 452.272 220.147 451.862C219.902 451.447 219.577 451.12 219.172 450.88C218.767 450.635 218.322 450.512 217.837 450.512C217.347 450.512 216.919 450.635 216.554 450.88C216.194 451.125 215.914 451.455 215.714 451.87C215.519 452.285 215.422 452.742 215.422 453.242C215.422 453.747 215.519 454.207 215.714 454.622C215.914 455.032 216.197 455.36 216.562 455.605C216.927 455.845 217.352 455.965 217.837 455.965ZM226.307 457.195C225.617 457.195 224.987 457.017 224.417 456.662C223.852 456.307 223.399 455.832 223.059 455.237C222.724 454.637 222.557 453.975 222.557 453.25C222.557 452.7 222.654 452.187 222.849 451.712C223.044 451.232 223.312 450.812 223.652 450.452C223.997 450.087 224.397 449.802 224.852 449.597C225.307 449.392 225.792 449.29 226.307 449.29C226.872 449.29 227.389 449.405 227.859 449.635C228.334 449.86 228.739 450.175 229.074 450.58C229.414 450.985 229.667 451.455 229.832 451.99C230.002 452.525 230.064 453.097 230.019 453.707H223.899C223.959 454.132 224.099 454.512 224.319 454.847C224.539 455.177 224.819 455.44 225.159 455.635C225.504 455.83 225.887 455.93 226.307 455.935C226.757 455.935 227.164 455.82 227.529 455.59C227.894 455.355 228.189 455.035 228.414 454.63L229.697 454.93C229.397 455.595 228.944 456.14 228.339 456.565C227.734 456.985 227.057 457.195 226.307 457.195ZM223.862 452.717H228.752C228.712 452.297 228.577 451.915 228.347 451.57C228.117 451.22 227.824 450.94 227.469 450.73C227.114 450.52 226.727 450.415 226.307 450.415C225.887 450.415 225.502 450.517 225.152 450.722C224.802 450.927 224.512 451.205 224.282 451.555C224.057 451.9 223.917 452.287 223.862 452.717ZM234.539 457.195C233.849 457.195 233.219 457.017 232.649 456.662C232.084 456.307 231.632 455.832 231.292 455.237C230.957 454.637 230.789 453.975 230.789 453.25C230.789 452.7 230.887 452.187 231.082 451.712C231.277 451.232 231.544 450.812 231.884 450.452C232.229 450.087 232.629 449.802 233.084 449.597C233.539 449.392 234.024 449.29 234.539 449.29C235.104 449.29 235.622 449.405 236.092 449.635C236.567 449.86 236.972 450.175 237.307 450.58C237.647 450.985 237.899 451.455 238.064 451.99C238.234 452.525 238.297 453.097 238.252 453.707H232.132C232.192 454.132 232.332 454.512 232.552 454.847C232.772 455.177 233.052 455.44 233.392 455.635C233.737 455.83 234.119 455.93 234.539 455.935C234.989 455.935 235.397 455.82 235.762 455.59C236.127 455.355 236.422 455.035 236.647 454.63L237.929 454.93C237.629 455.595 237.177 456.14 236.572 456.565C235.967 456.985 235.289 457.195 234.539 457.195ZM232.094 452.717H236.984C236.944 452.297 236.809 451.915 236.579 451.57C236.349 451.22 236.057 450.94 235.702 450.73C235.347 450.52 234.959 450.415 234.539 450.415C234.119 450.415 233.734 450.517 233.384 450.722C233.034 450.927 232.744 451.205 232.514 451.555C232.289 451.9 232.149 452.287 232.094 452.717ZM246.146 452.335V457H244.886V452.612C244.886 452.232 244.793 451.887 244.608 451.577C244.423 451.267 244.176 451.022 243.866 450.842C243.556 450.657 243.211 450.565 242.831 450.565C242.456 450.565 242.111 450.657 241.796 450.842C241.486 451.022 241.238 451.267 241.053 451.577C240.868 451.887 240.776 452.232 240.776 452.612V457H239.516V449.5H240.776V450.437C241.041 450.087 241.376 449.81 241.781 449.605C242.186 449.395 242.626 449.29 243.101 449.29C243.661 449.29 244.171 449.427 244.631 449.702C245.096 449.972 245.463 450.337 245.733 450.797C246.008 451.257 246.146 451.77 246.146 452.335ZM251.249 457V449.5H252.509V450.437C252.774 450.087 253.107 449.81 253.507 449.605C253.912 449.395 254.352 449.29 254.827 449.29C255.382 449.29 255.889 449.425 256.349 449.695C256.809 449.965 257.172 450.322 257.437 450.767C257.702 450.322 258.062 449.965 258.517 449.695C258.977 449.425 259.482 449.29 260.032 449.29C260.597 449.29 261.109 449.427 261.569 449.702C262.029 449.972 262.394 450.337 262.664 450.797C262.939 451.257 263.077 451.77 263.077 452.335V457H261.817V452.635C261.817 452.265 261.727 451.922 261.547 451.607C261.367 451.292 261.124 451.04 260.819 450.85C260.514 450.66 260.177 450.565 259.807 450.565C259.437 450.565 259.099 450.655 258.794 450.835C258.489 451.01 258.247 451.255 258.067 451.57C257.887 451.88 257.797 452.235 257.797 452.635V457H256.537V452.635C256.537 452.235 256.447 451.88 256.267 451.57C256.087 451.255 255.842 451.01 255.532 450.835C255.227 450.655 254.889 450.565 254.519 450.565C254.154 450.565 253.817 450.66 253.507 450.85C253.202 451.04 252.959 451.292 252.779 451.607C252.599 451.922 252.509 452.265 252.509 452.635V457H251.249ZM270.463 449.5H271.723V457H270.463L270.41 455.732C270.175 456.167 269.85 456.52 269.435 456.79C269.025 457.06 268.535 457.195 267.965 457.195C267.415 457.195 266.9 457.093 266.42 456.887C265.94 456.677 265.515 456.39 265.145 456.025C264.78 455.655 264.495 455.23 264.29 454.75C264.085 454.27 263.983 453.752 263.983 453.197C263.983 452.662 264.083 452.157 264.283 451.682C264.483 451.207 264.76 450.792 265.115 450.437C265.475 450.077 265.89 449.797 266.36 449.597C266.83 449.392 267.335 449.29 267.875 449.29C268.465 449.29 268.983 449.43 269.428 449.71C269.873 449.985 270.233 450.342 270.508 450.782L270.463 449.5ZM267.943 455.972C268.438 455.972 268.865 455.852 269.225 455.612C269.59 455.367 269.87 455.037 270.065 454.622C270.265 454.207 270.365 453.75 270.365 453.25C270.365 452.74 270.265 452.28 270.065 451.87C269.865 451.455 269.583 451.127 269.218 450.887C268.858 450.642 268.433 450.52 267.943 450.52C267.448 450.52 266.998 450.642 266.593 450.887C266.188 451.132 265.865 451.462 265.625 451.877C265.39 452.287 265.273 452.745 265.273 453.25C265.273 453.755 265.395 454.215 265.64 454.63C265.885 455.04 266.21 455.367 266.615 455.612C267.02 455.852 267.463 455.972 267.943 455.972ZM279.113 445.75H280.373V457H279.113V455.725C278.858 456.165 278.515 456.52 278.085 456.79C277.655 457.06 277.15 457.195 276.57 457.195C276.025 457.195 275.515 457.093 275.04 456.887C274.565 456.682 274.145 456.4 273.78 456.04C273.42 455.675 273.138 455.255 272.933 454.78C272.728 454.305 272.625 453.795 272.625 453.25C272.625 452.705 272.728 452.195 272.933 451.72C273.138 451.24 273.42 450.82 273.78 450.46C274.145 450.095 274.565 449.81 275.04 449.605C275.515 449.4 276.025 449.297 276.57 449.297C277.15 449.297 277.655 449.432 278.085 449.702C278.515 449.972 278.858 450.327 279.113 450.767V445.75ZM276.585 455.972C277.08 455.972 277.508 455.852 277.868 455.612C278.233 455.367 278.513 455.037 278.708 454.622C278.908 454.207 279.008 453.75 279.008 453.25C279.008 452.74 278.908 452.28 278.708 451.87C278.508 451.455 278.225 451.127 277.86 450.887C277.5 450.642 277.075 450.52 276.585 450.52C276.09 450.52 275.64 450.642 275.235 450.887C274.835 451.132 274.515 451.462 274.275 451.877C274.035 452.287 273.915 452.745 273.915 453.25C273.915 453.755 274.038 454.215 274.283 454.63C274.528 455.04 274.853 455.367 275.258 455.612C275.663 455.852 276.105 455.972 276.585 455.972ZM285.399 457.195C284.709 457.195 284.079 457.017 283.509 456.662C282.944 456.307 282.491 455.832 282.151 455.237C281.816 454.637 281.649 453.975 281.649 453.25C281.649 452.7 281.746 452.187 281.941 451.712C282.136 451.232 282.404 450.812 282.744 450.452C283.089 450.087 283.489 449.802 283.944 449.597C284.399 449.392 284.884 449.29 285.399 449.29C285.964 449.29 286.481 449.405 286.951 449.635C287.426 449.86 287.831 450.175 288.166 450.58C288.506 450.985 288.759 451.455 288.924 451.99C289.094 452.525 289.156 453.097 289.111 453.707H282.991C283.051 454.132 283.191 454.512 283.411 454.847C283.631 455.177 283.911 455.44 284.251 455.635C284.596 455.83 284.979 455.93 285.399 455.935C285.849 455.935 286.256 455.82 286.621 455.59C286.986 455.355 287.281 455.035 287.506 454.63L288.789 454.93C288.489 455.595 288.036 456.14 287.431 456.565C286.826 456.985 286.149 457.195 285.399 457.195ZM282.954 452.717H287.844C287.804 452.297 287.669 451.915 287.439 451.57C287.209 451.22 286.916 450.94 286.561 450.73C286.206 450.52 285.819 450.415 285.399 450.415C284.979 450.415 284.594 450.517 284.244 450.722C283.894 450.927 283.604 451.205 283.374 451.555C283.149 451.9 283.009 452.287 282.954 452.717ZM158.271 480.143C157.866 480.128 157.471 480.053 157.086 479.917C156.706 479.777 156.371 479.59 156.081 479.355C155.796 479.115 155.588 478.84 155.458 478.53L156.538 478.065C156.613 478.235 156.748 478.395 156.943 478.545C157.138 478.695 157.363 478.815 157.618 478.905C157.873 478.995 158.131 479.04 158.391 479.04C158.666 479.04 158.923 478.997 159.163 478.912C159.403 478.827 159.598 478.702 159.748 478.537C159.903 478.367 159.981 478.165 159.981 477.93C159.981 477.68 159.896 477.485 159.726 477.345C159.561 477.2 159.351 477.087 159.096 477.007C158.846 476.922 158.591 476.842 158.331 476.767C157.816 476.637 157.356 476.482 156.951 476.302C156.546 476.117 156.226 475.885 155.991 475.605C155.761 475.32 155.646 474.957 155.646 474.517C155.646 474.052 155.773 473.65 156.028 473.31C156.288 472.97 156.628 472.707 157.048 472.522C157.468 472.337 157.918 472.245 158.398 472.245C159.003 472.245 159.556 472.375 160.056 472.635C160.556 472.895 160.928 473.247 161.173 473.692L160.161 474.285C160.076 474.105 159.946 473.947 159.771 473.812C159.596 473.672 159.396 473.562 159.171 473.482C158.946 473.402 158.716 473.36 158.481 473.355C158.191 473.345 157.918 473.382 157.663 473.467C157.413 473.552 157.211 473.682 157.056 473.857C156.906 474.027 156.831 474.24 156.831 474.495C156.831 474.745 156.911 474.935 157.071 475.065C157.236 475.195 157.448 475.3 157.708 475.38C157.973 475.455 158.261 475.542 158.571 475.642C159.026 475.787 159.451 475.955 159.846 476.145C160.241 476.335 160.558 476.572 160.798 476.857C161.043 477.142 161.163 477.495 161.158 477.915C161.158 478.375 161.021 478.777 160.746 479.122C160.471 479.462 160.113 479.722 159.673 479.902C159.238 480.083 158.771 480.163 158.271 480.143ZM162.143 477.15V472.5H163.403V476.872C163.403 477.252 163.495 477.597 163.68 477.907C163.865 478.217 164.113 478.465 164.423 478.65C164.738 478.83 165.083 478.92 165.458 478.92C165.838 478.92 166.18 478.83 166.485 478.65C166.795 478.465 167.043 478.217 167.228 477.907C167.413 477.597 167.505 477.252 167.505 476.872V472.5H168.765L168.773 480H167.513L167.505 479.047C167.24 479.397 166.905 479.677 166.5 479.887C166.095 480.093 165.658 480.195 165.188 480.195C164.628 480.195 164.115 480.06 163.65 479.79C163.19 479.515 162.823 479.147 162.548 478.687C162.278 478.227 162.143 477.715 162.143 477.15ZM175.374 478.02L176.499 478.627C176.159 479.102 175.727 479.482 175.202 479.767C174.682 480.052 174.117 480.195 173.507 480.195C172.817 480.195 172.187 480.017 171.617 479.662C171.052 479.307 170.599 478.832 170.259 478.237C169.924 477.637 169.757 476.975 169.757 476.25C169.757 475.7 169.854 475.187 170.049 474.712C170.244 474.232 170.512 473.812 170.852 473.452C171.197 473.087 171.597 472.802 172.052 472.597C172.507 472.392 172.992 472.29 173.507 472.29C174.117 472.29 174.682 472.432 175.202 472.717C175.727 473.002 176.159 473.385 176.499 473.865L175.374 474.472C175.134 474.177 174.849 473.95 174.519 473.79C174.189 473.63 173.852 473.55 173.507 473.55C173.042 473.55 172.619 473.675 172.239 473.925C171.864 474.17 171.567 474.497 171.347 474.907C171.127 475.317 171.017 475.765 171.017 476.25C171.017 476.735 171.127 477.182 171.347 477.592C171.572 477.997 171.872 478.322 172.247 478.567C172.627 478.812 173.047 478.935 173.507 478.935C173.877 478.935 174.224 478.85 174.549 478.68C174.874 478.51 175.149 478.29 175.374 478.02ZM182.889 478.02L184.014 478.627C183.674 479.102 183.241 479.482 182.716 479.767C182.196 480.052 181.631 480.195 181.021 480.195C180.331 480.195 179.701 480.017 179.131 479.662C178.566 479.307 178.114 478.832 177.774 478.237C177.439 477.637 177.271 476.975 177.271 476.25C177.271 475.7 177.369 475.187 177.564 474.712C177.759 474.232 178.026 473.812 178.366 473.452C178.711 473.087 179.111 472.802 179.566 472.597C180.021 472.392 180.506 472.29 181.021 472.29C181.631 472.29 182.196 472.432 182.716 472.717C183.241 473.002 183.674 473.385 184.014 473.865L182.889 474.472C182.649 474.177 182.364 473.95 182.034 473.79C181.704 473.63 181.366 473.55 181.021 473.55C180.556 473.55 180.134 473.675 179.754 473.925C179.379 474.17 179.081 474.497 178.861 474.907C178.641 475.317 178.531 475.765 178.531 476.25C178.531 476.735 178.641 477.182 178.861 477.592C179.086 477.997 179.386 478.322 179.761 478.567C180.141 478.812 180.561 478.935 181.021 478.935C181.391 478.935 181.739 478.85 182.064 478.68C182.389 478.51 182.664 478.29 182.889 478.02ZM188.536 480.195C187.846 480.195 187.216 480.017 186.646 479.662C186.081 479.307 185.628 478.832 185.288 478.237C184.953 477.637 184.786 476.975 184.786 476.25C184.786 475.7 184.883 475.187 185.078 474.712C185.273 474.232 185.541 473.812 185.881 473.452C186.226 473.087 186.626 472.802 187.081 472.597C187.536 472.392 188.021 472.29 188.536 472.29C189.101 472.29 189.618 472.405 190.088 472.635C190.563 472.86 190.968 473.175 191.303 473.58C191.643 473.985 191.896 474.455 192.061 474.99C192.231 475.525 192.293 476.097 192.248 476.707H186.128C186.188 477.132 186.328 477.512 186.548 477.847C186.768 478.177 187.048 478.44 187.388 478.635C187.733 478.83 188.116 478.93 188.536 478.935C188.986 478.935 189.393 478.82 189.758 478.59C190.123 478.355 190.418 478.035 190.643 477.63L191.926 477.93C191.626 478.595 191.173 479.14 190.568 479.565C189.963 479.985 189.286 480.195 188.536 480.195ZM186.091 475.717H190.981C190.941 475.297 190.806 474.915 190.576 474.57C190.346 474.22 190.053 473.94 189.698 473.73C189.343 473.52 188.956 473.415 188.536 473.415C188.116 473.415 187.731 473.517 187.381 473.722C187.031 473.927 186.741 474.205 186.511 474.555C186.286 474.9 186.146 475.287 186.091 475.717ZM195.829 480.143C195.424 480.128 195.029 480.053 194.644 479.917C194.264 479.777 193.929 479.59 193.639 479.355C193.354 479.115 193.147 478.84 193.017 478.53L194.097 478.065C194.172 478.235 194.307 478.395 194.502 478.545C194.697 478.695 194.922 478.815 195.177 478.905C195.432 478.995 195.689 479.04 195.949 479.04C196.224 479.04 196.482 478.997 196.722 478.912C196.962 478.827 197.157 478.702 197.307 478.537C197.462 478.367 197.539 478.165 197.539 477.93C197.539 477.68 197.454 477.485 197.284 477.345C197.119 477.2 196.909 477.087 196.654 477.007C196.404 476.922 196.149 476.842 195.889 476.767C195.374 476.637 194.914 476.482 194.509 476.302C194.104 476.117 193.784 475.885 193.549 475.605C193.319 475.32 193.204 474.957 193.204 474.517C193.204 474.052 193.332 473.65 193.587 473.31C193.847 472.97 194.187 472.707 194.607 472.522C195.027 472.337 195.477 472.245 195.957 472.245C196.562 472.245 197.114 472.375 197.614 472.635C198.114 472.895 198.487 473.247 198.732 473.692L197.719 474.285C197.634 474.105 197.504 473.947 197.329 473.812C197.154 473.672 196.954 473.562 196.729 473.482C196.504 473.402 196.274 473.36 196.039 473.355C195.749 473.345 195.477 473.382 195.222 473.467C194.972 473.552 194.769 473.682 194.614 473.857C194.464 474.027 194.389 474.24 194.389 474.495C194.389 474.745 194.469 474.935 194.629 475.065C194.794 475.195 195.007 475.3 195.267 475.38C195.532 475.455 195.819 475.542 196.129 475.642C196.584 475.787 197.009 475.955 197.404 476.145C197.799 476.335 198.117 476.572 198.357 476.857C198.602 477.142 198.722 477.495 198.717 477.915C198.717 478.375 198.579 478.777 198.304 479.122C198.029 479.462 197.672 479.722 197.232 479.902C196.797 480.083 196.329 480.163 195.829 480.143ZM202.289 480.143C201.884 480.128 201.489 480.053 201.104 479.917C200.724 479.777 200.389 479.59 200.099 479.355C199.814 479.115 199.607 478.84 199.477 478.53L200.557 478.065C200.632 478.235 200.767 478.395 200.962 478.545C201.157 478.695 201.382 478.815 201.637 478.905C201.892 478.995 202.149 479.04 202.409 479.04C202.684 479.04 202.942 478.997 203.182 478.912C203.422 478.827 203.617 478.702 203.767 478.537C203.922 478.367 203.999 478.165 203.999 477.93C203.999 477.68 203.914 477.485 203.744 477.345C203.579 477.2 203.369 477.087 203.114 477.007C202.864 476.922 202.609 476.842 202.349 476.767C201.834 476.637 201.374 476.482 200.969 476.302C200.564 476.117 200.244 475.885 200.009 475.605C199.779 475.32 199.664 474.957 199.664 474.517C199.664 474.052 199.792 473.65 200.047 473.31C200.307 472.97 200.647 472.707 201.067 472.522C201.487 472.337 201.937 472.245 202.417 472.245C203.022 472.245 203.574 472.375 204.074 472.635C204.574 472.895 204.947 473.247 205.192 473.692L204.179 474.285C204.094 474.105 203.964 473.947 203.789 473.812C203.614 473.672 203.414 473.562 203.189 473.482C202.964 473.402 202.734 473.36 202.499 473.355C202.209 473.345 201.937 473.382 201.682 473.467C201.432 473.552 201.229 473.682 201.074 473.857C200.924 474.027 200.849 474.24 200.849 474.495C200.849 474.745 200.929 474.935 201.089 475.065C201.254 475.195 201.467 475.3 201.727 475.38C201.992 475.455 202.279 475.542 202.589 475.642C203.044 475.787 203.469 475.955 203.864 476.145C204.259 476.335 204.577 476.572 204.817 476.857C205.062 477.142 205.182 477.495 205.177 477.915C205.177 478.375 205.039 478.777 204.764 479.122C204.489 479.462 204.132 479.722 203.692 479.902C203.257 480.083 202.789 480.163 202.289 480.143ZM208.164 470.647V472.5H210.362V473.76H208.164V480H206.904V473.76H205.937V472.5H206.904V470.647C206.904 470.262 206.997 469.915 207.182 469.605C207.372 469.29 207.624 469.04 207.939 468.855C208.259 468.665 208.609 468.57 208.989 468.57C209.269 468.57 209.542 468.627 209.807 468.742C210.072 468.852 210.307 469.017 210.512 469.237L209.612 470.13C209.542 470.035 209.449 469.962 209.334 469.912C209.224 469.857 209.109 469.83 208.989 469.83C208.764 469.83 208.569 469.91 208.404 470.07C208.244 470.23 208.164 470.422 208.164 470.647ZM211.464 477.15V472.5H212.724V476.872C212.724 477.252 212.817 477.597 213.002 477.907C213.187 478.217 213.434 478.465 213.744 478.65C214.059 478.83 214.404 478.92 214.779 478.92C215.159 478.92 215.502 478.83 215.807 478.65C216.117 478.465 216.364 478.217 216.549 477.907C216.734 477.597 216.827 477.252 216.827 476.872V472.5H218.087L218.094 480H216.834L216.827 479.047C216.562 479.397 216.227 479.677 215.822 479.887C215.417 480.093 214.979 480.195 214.509 480.195C213.949 480.195 213.437 480.06 212.972 479.79C212.512 479.515 212.144 479.147 211.869 478.687C211.599 478.227 211.464 477.715 211.464 477.15ZM219.689 480V468.75H220.949V480H219.689ZM222.751 480V468.75H224.011V480H222.751ZM230.657 472.5H231.992L227.889 483.75H226.554L227.912 480L225.219 472.5H226.599L228.542 478.267L230.657 472.5ZM233.314 480.195C233.124 480.195 232.961 480.128 232.826 479.992C232.696 479.857 232.631 479.692 232.631 479.497C232.631 479.312 232.696 479.152 232.826 479.017C232.961 478.882 233.124 478.815 233.314 478.815C233.509 478.815 233.674 478.882 233.809 479.017C233.944 479.152 234.011 479.312 234.011 479.497C234.011 479.692 233.944 479.857 233.809 479.992C233.674 480.128 233.509 480.195 233.314 480.195Z" fill="#8391A1"/>
<path d="M53.8587 406.5H57.0307V426H53.8587V424.375C53.4427 424.956 52.9184 425.428 52.2857 425.792C51.653 426.156 50.9207 426.338 50.0887 426.338C49.144 426.338 48.26 426.16 47.4367 425.805C46.6134 425.45 45.8854 424.96 45.2527 424.336C44.6287 423.703 44.139 422.975 43.7837 422.152C43.4284 421.329 43.2507 420.445 43.2507 419.5C43.2507 418.555 43.4284 417.671 43.7837 416.848C44.139 416.025 44.6287 415.301 45.2527 414.677C45.8854 414.044 46.6134 413.55 47.4367 413.195C48.26 412.84 49.144 412.662 50.0887 412.662C50.9207 412.662 51.653 412.844 52.2857 413.208C52.9184 413.563 53.4427 414.036 53.8587 414.625V406.5ZM50.1277 423.283C50.8037 423.283 51.4017 423.114 51.9217 422.776C52.4417 422.438 52.849 421.983 53.1437 421.411C53.4384 420.83 53.5857 420.193 53.5857 419.5C53.5857 418.798 53.4384 418.161 53.1437 417.589C52.849 417.008 52.4374 416.549 51.9087 416.211C51.3887 415.873 50.795 415.704 50.1277 415.704C49.4604 415.704 48.8494 415.877 48.2947 416.224C47.7487 416.562 47.311 417.017 46.9817 417.589C46.661 418.161 46.5007 418.798 46.5007 419.5C46.5007 420.202 46.6654 420.839 46.9947 421.411C47.324 421.983 47.7617 422.438 48.3077 422.776C48.8624 423.114 49.469 423.283 50.1277 423.283ZM65.6706 426.338C64.4746 426.338 63.3826 426.03 62.3946 425.415C61.4153 424.8 60.631 423.972 60.0416 422.932C59.461 421.892 59.1706 420.744 59.1706 419.487C59.1706 418.542 59.3396 417.658 59.6776 416.835C60.0156 416.003 60.4793 415.275 61.0686 414.651C61.6666 414.018 62.36 413.524 63.1486 413.169C63.9373 412.814 64.778 412.636 65.6706 412.636C66.6846 412.636 67.612 412.853 68.4526 413.286C69.302 413.711 70.0213 414.296 70.6106 415.041C71.2 415.786 71.629 416.636 71.8976 417.589C72.1663 418.542 72.227 419.539 72.0796 420.579H62.5766C62.698 421.064 62.8973 421.502 63.1746 421.892C63.452 422.273 63.803 422.581 64.2276 422.815C64.6523 423.04 65.1333 423.157 65.6706 423.166C66.2253 423.175 66.728 423.045 67.1786 422.776C67.638 422.499 68.0193 422.126 68.3226 421.658L71.5596 422.412C71.031 423.565 70.2423 424.509 69.1936 425.246C68.145 425.974 66.9706 426.338 65.6706 426.338ZM62.4726 418.2H68.8686C68.7733 417.68 68.5696 417.212 68.2576 416.796C67.9543 416.371 67.5773 416.033 67.1266 415.782C66.676 415.531 66.1906 415.405 65.6706 415.405C65.1506 415.405 64.6696 415.531 64.2276 415.782C63.7856 416.025 63.4086 416.358 63.0966 416.783C62.7933 417.199 62.5853 417.671 62.4726 418.2ZM77.3668 432.5H74.1948V413H77.3668V414.651C77.7914 414.062 78.3114 413.585 78.9268 413.221C79.5508 412.848 80.2788 412.662 81.1108 412.662C82.0641 412.662 82.9524 412.84 83.7758 413.195C84.5991 413.55 85.3228 414.044 85.9468 414.677C86.5794 415.301 87.0691 416.025 87.4158 416.848C87.7711 417.671 87.9488 418.555 87.9488 419.5C87.9488 420.445 87.7711 421.333 87.4158 422.165C87.0691 422.997 86.5794 423.729 85.9468 424.362C85.3228 424.986 84.5991 425.476 83.7758 425.831C82.9524 426.186 82.0641 426.364 81.1108 426.364C80.2788 426.364 79.5508 426.182 78.9268 425.818C78.3114 425.445 77.7914 424.964 77.3668 424.375V432.5ZM81.0718 415.717C80.4131 415.717 79.8238 415.89 79.3038 416.237C78.7838 416.575 78.3764 417.03 78.0818 417.602C77.7871 418.174 77.6398 418.807 77.6398 419.5C77.6398 420.193 77.7871 420.83 78.0818 421.411C78.3764 421.983 78.7838 422.442 79.3038 422.789C79.8238 423.127 80.4131 423.296 81.0718 423.296C81.7391 423.296 82.3501 423.127 82.9048 422.789C83.4594 422.451 83.9014 421.996 84.2308 421.424C84.5601 420.843 84.7248 420.202 84.7248 419.5C84.7248 418.807 84.5601 418.174 84.2308 417.602C83.9014 417.03 83.4594 416.575 82.9048 416.237C82.3588 415.89 81.7478 415.717 81.0718 415.717ZM95.7585 426.338C94.5625 426.338 93.4705 426.03 92.4825 425.415C91.5032 424.8 90.7188 423.976 90.1295 422.945C89.5488 421.905 89.2585 420.757 89.2585 419.5C89.2585 418.547 89.4275 417.658 89.7655 416.835C90.1035 416.003 90.5672 415.275 91.1565 414.651C91.7545 414.018 92.4478 413.524 93.2365 413.169C94.0252 412.814 94.8658 412.636 95.7585 412.636C96.9545 412.636 98.0422 412.944 99.0215 413.559C100.01 414.174 100.794 415.002 101.375 416.042C101.964 417.082 102.259 418.235 102.259 419.5C102.259 420.445 102.09 421.329 101.752 422.152C101.414 422.975 100.946 423.703 100.348 424.336C99.7582 424.96 99.0692 425.45 98.2805 425.805C97.5005 426.16 96.6598 426.338 95.7585 426.338ZM95.7585 423.166C96.3912 423.166 96.9588 422.997 97.4615 422.659C97.9642 422.321 98.3585 421.875 98.6445 421.32C98.9392 420.765 99.0865 420.159 99.0865 419.5C99.0865 418.824 98.9348 418.209 98.6315 417.654C98.3368 417.091 97.9338 416.644 97.4225 416.315C96.9198 415.977 96.3652 415.808 95.7585 415.808C95.1345 415.808 94.5712 415.977 94.0685 416.315C93.5658 416.653 93.1672 417.104 92.8725 417.667C92.5778 418.23 92.4305 418.841 92.4305 419.5C92.4305 420.185 92.5822 420.804 92.8855 421.359C93.1888 421.914 93.5918 422.356 94.0945 422.685C94.6058 423.006 95.1605 423.166 95.7585 423.166ZM108.219 426.234C107.543 426.191 106.889 426.056 106.256 425.831C105.632 425.597 105.078 425.281 104.592 424.882C104.107 424.483 103.734 424.007 103.474 423.452L106.152 422.308C106.256 422.481 106.425 422.668 106.659 422.867C106.893 423.058 107.171 423.218 107.491 423.348C107.821 423.478 108.18 423.543 108.57 423.543C108.9 423.543 109.212 423.5 109.506 423.413C109.81 423.318 110.052 423.175 110.234 422.984C110.425 422.793 110.52 422.546 110.52 422.243C110.52 421.922 110.408 421.675 110.182 421.502C109.966 421.32 109.688 421.186 109.35 421.099C109.021 421.004 108.7 420.917 108.388 420.839C107.565 420.674 106.798 420.419 106.087 420.072C105.385 419.725 104.818 419.279 104.384 418.733C103.96 418.178 103.747 417.511 103.747 416.731C103.747 415.873 103.973 415.132 104.423 414.508C104.883 413.884 105.476 413.403 106.204 413.065C106.941 412.727 107.734 412.558 108.583 412.558C109.615 412.558 110.559 412.775 111.417 413.208C112.284 413.633 112.969 414.235 113.471 415.015L110.962 416.497C110.841 416.289 110.672 416.098 110.455 415.925C110.239 415.743 109.992 415.596 109.714 415.483C109.437 415.362 109.147 415.292 108.843 415.275C108.453 415.258 108.098 415.292 107.777 415.379C107.457 415.466 107.197 415.613 106.997 415.821C106.807 416.029 106.711 416.306 106.711 416.653C106.711 416.982 106.841 417.229 107.101 417.394C107.361 417.55 107.673 417.671 108.037 417.758C108.41 417.845 108.765 417.94 109.103 418.044C109.866 418.295 110.581 418.603 111.248 418.967C111.924 419.331 112.466 419.777 112.873 420.306C113.281 420.835 113.476 421.467 113.458 422.204C113.458 423.045 113.207 423.781 112.704 424.414C112.202 425.038 111.552 425.515 110.754 425.844C109.966 426.173 109.121 426.303 108.219 426.234ZM115.378 413H118.55V426H115.378V413ZM116.99 411.323C116.522 411.323 116.128 411.171 115.807 410.868C115.487 410.556 115.326 410.166 115.326 409.698C115.326 409.239 115.487 408.853 115.807 408.541C116.128 408.229 116.518 408.073 116.977 408.073C117.437 408.073 117.822 408.229 118.134 408.541C118.455 408.853 118.615 409.239 118.615 409.698C118.615 410.166 118.459 410.556 118.147 410.868C117.835 411.171 117.45 411.323 116.99 411.323ZM128.643 416.172H126.121V426H122.949V416.172H121.025V413H122.949V408.918H126.121V413H128.643V416.172ZM137.24 426V413H140.412V414.157C140.854 413.689 141.382 413.321 141.998 413.052C142.613 412.775 143.276 412.636 143.987 412.636C144.888 412.636 145.716 412.848 146.47 413.273C147.232 413.698 147.839 414.265 148.29 414.976C148.749 414.265 149.356 413.698 150.11 413.273C150.864 412.848 151.691 412.636 152.593 412.636C153.546 412.636 154.408 412.87 155.18 413.338C155.96 413.797 156.579 414.417 157.039 415.197C157.507 415.968 157.741 416.831 157.741 417.784V426H154.569V418.629C154.569 418.126 154.443 417.667 154.192 417.251C153.949 416.826 153.62 416.488 153.204 416.237C152.796 415.977 152.337 415.847 151.826 415.847C151.314 415.847 150.851 415.973 150.435 416.224C150.027 416.467 149.698 416.796 149.447 417.212C149.195 417.628 149.07 418.1 149.07 418.629V426H145.898V418.629C145.898 418.1 145.776 417.628 145.534 417.212C145.291 416.796 144.962 416.467 144.546 416.224C144.13 415.973 143.666 415.847 143.155 415.847C142.652 415.847 142.193 415.977 141.777 416.237C141.361 416.488 141.027 416.826 140.776 417.251C140.533 417.667 140.412 418.126 140.412 418.629V426H137.24ZM169.893 413H173.065V426H169.893L169.75 424.388C169.395 424.969 168.923 425.441 168.333 425.805C167.753 426.16 167.064 426.338 166.266 426.338C165.304 426.338 164.403 426.156 163.562 425.792C162.722 425.428 161.981 424.925 161.339 424.284C160.707 423.643 160.208 422.902 159.844 422.061C159.489 421.22 159.311 420.319 159.311 419.357C159.311 418.43 159.48 417.559 159.818 416.744C160.165 415.929 160.646 415.214 161.261 414.599C161.877 413.984 162.587 413.503 163.393 413.156C164.199 412.809 165.066 412.636 165.993 412.636C166.851 412.636 167.618 412.827 168.294 413.208C168.979 413.589 169.56 414.075 170.036 414.664L169.893 413ZM166.188 423.283C166.864 423.283 167.462 423.114 167.982 422.776C168.502 422.438 168.91 421.983 169.204 421.411C169.499 420.83 169.646 420.193 169.646 419.5C169.646 418.798 169.499 418.161 169.204 417.589C168.91 417.008 168.498 416.549 167.969 416.211C167.449 415.873 166.856 415.704 166.188 415.704C165.521 415.704 164.91 415.877 164.355 416.224C163.809 416.562 163.372 417.017 163.042 417.589C162.722 418.161 162.561 418.798 162.561 419.5C162.561 420.202 162.726 420.839 163.055 421.411C163.385 421.983 163.822 422.438 164.368 422.776C164.923 423.114 165.53 423.283 166.188 423.283ZM185.23 406.5H188.402V426H185.23V424.375C184.814 424.956 184.289 425.428 183.657 425.792C183.024 426.156 182.292 426.338 181.46 426.338C180.515 426.338 179.631 426.16 178.808 425.805C177.984 425.45 177.256 424.96 176.624 424.336C176 423.703 175.51 422.975 175.155 422.152C174.799 421.329 174.622 420.445 174.622 419.5C174.622 418.555 174.799 417.671 175.155 416.848C175.51 416.025 176 415.301 176.624 414.677C177.256 414.044 177.984 413.55 178.808 413.195C179.631 412.84 180.515 412.662 181.46 412.662C182.292 412.662 183.024 412.844 183.657 413.208C184.289 413.563 184.814 414.036 185.23 414.625V406.5ZM181.499 423.283C182.175 423.283 182.773 423.114 183.293 422.776C183.813 422.438 184.22 421.983 184.515 421.411C184.809 420.83 184.957 420.193 184.957 419.5C184.957 418.798 184.809 418.161 184.515 417.589C184.22 417.008 183.808 416.549 183.28 416.211C182.76 415.873 182.166 415.704 181.499 415.704C180.831 415.704 180.22 415.877 179.666 416.224C179.12 416.562 178.682 417.017 178.353 417.589C178.032 418.161 177.872 418.798 177.872 419.5C177.872 420.202 178.036 420.839 178.366 421.411C178.695 421.983 179.133 422.438 179.679 422.776C180.233 423.114 180.84 423.283 181.499 423.283ZM197.042 426.338C195.846 426.338 194.754 426.03 193.766 425.415C192.786 424.8 192.002 423.972 191.413 422.932C190.832 421.892 190.542 420.744 190.542 419.487C190.542 418.542 190.711 417.658 191.049 416.835C191.387 416.003 191.85 415.275 192.44 414.651C193.038 414.018 193.731 413.524 194.52 413.169C195.308 412.814 196.149 412.636 197.042 412.636C198.056 412.636 198.983 412.853 199.824 413.286C200.673 413.711 201.392 414.296 201.982 415.041C202.571 415.786 203 416.636 203.269 417.589C203.537 418.542 203.598 419.539 203.451 420.579H193.948C194.069 421.064 194.268 421.502 194.546 421.892C194.823 422.273 195.174 422.581 195.599 422.815C196.023 423.04 196.504 423.157 197.042 423.166C197.596 423.175 198.099 423.045 198.55 422.776C199.009 422.499 199.39 422.126 199.694 421.658L202.931 422.412C202.402 423.565 201.613 424.509 200.565 425.246C199.516 425.974 198.342 426.338 197.042 426.338ZM193.844 418.2H200.24C200.144 417.68 199.941 417.212 199.629 416.796C199.325 416.371 198.948 416.033 198.498 415.782C198.047 415.531 197.562 415.405 197.042 415.405C196.522 415.405 196.041 415.531 195.599 415.782C195.157 416.025 194.78 416.358 194.468 416.783C194.164 417.199 193.956 417.671 193.844 418.2ZM215.952 426.234C215.276 426.191 214.621 426.056 213.989 425.831C213.365 425.597 212.81 425.281 212.325 424.882C211.839 424.483 211.467 424.007 211.207 423.452L213.885 422.308C213.989 422.481 214.158 422.668 214.392 422.867C214.626 423.058 214.903 423.218 215.224 423.348C215.553 423.478 215.913 423.543 216.303 423.543C216.632 423.543 216.944 423.5 217.239 423.413C217.542 423.318 217.785 423.175 217.967 422.984C218.157 422.793 218.253 422.546 218.253 422.243C218.253 421.922 218.14 421.675 217.915 421.502C217.698 421.32 217.421 421.186 217.083 421.099C216.753 421.004 216.433 420.917 216.121 420.839C215.297 420.674 214.53 420.419 213.82 420.072C213.118 419.725 212.55 419.279 212.117 418.733C211.692 418.178 211.48 417.511 211.48 416.731C211.48 415.873 211.705 415.132 212.156 414.508C212.615 413.884 213.209 413.403 213.937 413.065C214.673 412.727 215.466 412.558 216.316 412.558C217.347 412.558 218.292 412.775 219.15 413.208C220.016 413.633 220.701 414.235 221.204 415.015L218.695 416.497C218.573 416.289 218.404 416.098 218.188 415.925C217.971 415.743 217.724 415.596 217.447 415.483C217.169 415.362 216.879 415.292 216.576 415.275C216.186 415.258 215.83 415.292 215.51 415.379C215.189 415.466 214.929 415.613 214.73 415.821C214.539 416.029 214.444 416.306 214.444 416.653C214.444 416.982 214.574 417.229 214.834 417.394C215.094 417.55 215.406 417.671 215.77 417.758C216.142 417.845 216.498 417.94 216.836 418.044C217.598 418.295 218.313 418.603 218.981 418.967C219.657 419.331 220.198 419.777 220.606 420.306C221.013 420.835 221.208 421.467 221.191 422.204C221.191 423.045 220.939 423.781 220.437 424.414C219.934 425.038 219.284 425.515 218.487 425.844C217.698 426.173 216.853 426.303 215.952 426.234ZM222.895 421.19V413H226.067V420.358C226.067 420.869 226.193 421.337 226.444 421.762C226.696 422.178 227.029 422.512 227.445 422.763C227.87 423.006 228.334 423.127 228.836 423.127C229.356 423.127 229.824 423.006 230.24 422.763C230.656 422.512 230.99 422.178 231.241 421.762C231.493 421.337 231.618 420.869 231.618 420.358V413H234.79L234.803 426H231.631L231.618 424.817C231.168 425.285 230.635 425.658 230.019 425.935C229.404 426.204 228.745 426.338 228.043 426.338C227.099 426.338 226.236 426.108 225.456 425.649C224.676 425.181 224.052 424.561 223.584 423.79C223.125 423.01 222.895 422.143 222.895 421.19ZM245.263 422.087L248.123 423.634C247.525 424.449 246.775 425.103 245.874 425.597C244.972 426.091 243.989 426.338 242.923 426.338C241.727 426.338 240.635 426.03 239.647 425.415C238.667 424.8 237.883 423.976 237.294 422.945C236.713 421.905 236.423 420.757 236.423 419.5C236.423 418.547 236.592 417.658 236.93 416.835C237.268 416.003 237.731 415.275 238.321 414.651C238.919 414.018 239.612 413.524 240.401 413.169C241.189 412.814 242.03 412.636 242.923 412.636C243.989 412.636 244.972 412.883 245.874 413.377C246.775 413.871 247.525 414.534 248.123 415.366L245.263 416.9C244.959 416.553 244.6 416.285 244.184 416.094C243.776 415.903 243.356 415.808 242.923 415.808C242.299 415.808 241.735 415.981 241.233 416.328C240.73 416.666 240.331 417.117 240.037 417.68C239.742 418.235 239.595 418.841 239.595 419.5C239.595 420.15 239.742 420.757 240.037 421.32C240.331 421.875 240.73 422.321 241.233 422.659C241.735 422.997 242.299 423.166 242.923 423.166C243.373 423.166 243.802 423.071 244.21 422.88C244.617 422.681 244.968 422.416 245.263 422.087ZM258.11 422.087L260.97 423.634C260.372 424.449 259.623 425.103 258.721 425.597C257.82 426.091 256.836 426.338 255.77 426.338C254.574 426.338 253.482 426.03 252.494 425.415C251.515 424.8 250.731 423.976 250.141 422.945C249.561 421.905 249.27 420.757 249.27 419.5C249.27 418.547 249.439 417.658 249.777 416.835C250.115 416.003 250.579 415.275 251.168 414.651C251.766 414.018 252.46 413.524 253.248 413.169C254.037 412.814 254.878 412.636 255.77 412.636C256.836 412.636 257.82 412.883 258.721 413.377C259.623 413.871 260.372 414.534 260.97 415.366L258.11 416.9C257.807 416.553 257.447 416.285 257.031 416.094C256.624 415.903 256.204 415.808 255.77 415.808C255.146 415.808 254.583 415.981 254.08 416.328C253.578 416.666 253.179 417.117 252.884 417.68C252.59 418.235 252.442 418.841 252.442 419.5C252.442 420.15 252.59 420.757 252.884 421.32C253.179 421.875 253.578 422.321 254.08 422.659C254.583 422.997 255.146 423.166 255.77 423.166C256.221 423.166 256.65 423.071 257.057 422.88C257.465 422.681 257.816 422.416 258.11 422.087ZM268.618 426.338C267.422 426.338 266.33 426.03 265.342 425.415C264.363 424.8 263.578 423.972 262.989 422.932C262.408 421.892 262.118 420.744 262.118 419.487C262.118 418.542 262.287 417.658 262.625 416.835C262.963 416.003 263.427 415.275 264.016 414.651C264.614 414.018 265.307 413.524 266.096 413.169C266.885 412.814 267.725 412.636 268.618 412.636C269.632 412.636 270.559 412.853 271.4 413.286C272.249 413.711 272.969 414.296 273.558 415.041C274.147 415.786 274.576 416.636 274.845 417.589C275.114 418.542 275.174 419.539 275.027 420.579H265.524C265.645 421.064 265.845 421.502 266.122 421.892C266.399 422.273 266.75 422.581 267.175 422.815C267.6 423.04 268.081 423.157 268.618 423.166C269.173 423.175 269.675 423.045 270.126 422.776C270.585 422.499 270.967 422.126 271.27 421.658L274.507 422.412C273.978 423.565 273.19 424.509 272.141 425.246C271.092 425.974 269.918 426.338 268.618 426.338ZM265.42 418.2H271.816C271.721 417.68 271.517 417.212 271.205 416.796C270.902 416.371 270.525 416.033 270.074 415.782C269.623 415.531 269.138 415.405 268.618 415.405C268.098 415.405 267.617 415.531 267.175 415.782C266.733 416.025 266.356 416.358 266.044 416.783C265.741 417.199 265.533 417.671 265.42 418.2ZM281.079 426.234C280.403 426.191 279.748 426.056 279.116 425.831C278.492 425.597 277.937 425.281 277.452 424.882C276.966 424.483 276.594 424.007 276.334 423.452L279.012 422.308C279.116 422.481 279.285 422.668 279.519 422.867C279.753 423.058 280.03 423.218 280.351 423.348C280.68 423.478 281.04 423.543 281.43 423.543C281.759 423.543 282.071 423.5 282.366 423.413C282.669 423.318 282.912 423.175 283.094 422.984C283.284 422.793 283.38 422.546 283.38 422.243C283.38 421.922 283.267 421.675 283.042 421.502C282.825 421.32 282.548 421.186 282.21 421.099C281.88 421.004 281.56 420.917 281.248 420.839C280.424 420.674 279.657 420.419 278.947 420.072C278.245 419.725 277.677 419.279 277.244 418.733C276.819 418.178 276.607 417.511 276.607 416.731C276.607 415.873 276.832 415.132 277.283 414.508C277.742 413.884 278.336 413.403 279.064 413.065C279.8 412.727 280.593 412.558 281.443 412.558C282.474 412.558 283.419 412.775 284.277 413.208C285.143 413.633 285.828 414.235 286.331 415.015L283.822 416.497C283.7 416.289 283.531 416.098 283.315 415.925C283.098 415.743 282.851 415.596 282.574 415.483C282.296 415.362 282.006 415.292 281.703 415.275C281.313 415.258 280.957 415.292 280.637 415.379C280.316 415.466 280.056 415.613 279.857 415.821C279.666 416.029 279.571 416.306 279.571 416.653C279.571 416.982 279.701 417.229 279.961 417.394C280.221 417.55 280.533 417.671 280.897 417.758C281.269 417.845 281.625 417.94 281.963 418.044C282.725 418.295 283.44 418.603 284.108 418.967C284.784 419.331 285.325 419.777 285.733 420.306C286.14 420.835 286.335 421.467 286.318 422.204C286.318 423.045 286.066 423.781 285.564 424.414C285.061 425.038 284.411 425.515 283.614 425.844C282.825 426.173 281.98 426.303 281.079 426.234ZM292.377 426.234C291.701 426.191 291.047 426.056 290.414 425.831C289.79 425.597 289.236 425.281 288.75 424.882C288.265 424.483 287.892 424.007 287.632 423.452L290.31 422.308C290.414 422.481 290.583 422.668 290.817 422.867C291.051 423.058 291.329 423.218 291.649 423.348C291.979 423.478 292.338 423.543 292.728 423.543C293.058 423.543 293.37 423.5 293.664 423.413C293.968 423.318 294.21 423.175 294.392 422.984C294.583 422.793 294.678 422.546 294.678 422.243C294.678 421.922 294.566 421.675 294.34 421.502C294.124 421.32 293.846 421.186 293.508 421.099C293.179 421.004 292.858 420.917 292.546 420.839C291.723 420.674 290.956 420.419 290.245 420.072C289.543 419.725 288.976 419.279 288.542 418.733C288.118 418.178 287.905 417.511 287.905 416.731C287.905 415.873 288.131 415.132 288.581 414.508C289.041 413.884 289.634 413.403 290.362 413.065C291.099 412.727 291.892 412.558 292.741 412.558C293.773 412.558 294.717 412.775 295.575 413.208C296.442 413.633 297.127 414.235 297.629 415.015L295.12 416.497C294.999 416.289 294.83 416.098 294.613 415.925C294.397 415.743 294.15 415.596 293.872 415.483C293.595 415.362 293.305 415.292 293.001 415.275C292.611 415.258 292.256 415.292 291.935 415.379C291.615 415.466 291.355 415.613 291.155 415.821C290.965 416.029 290.869 416.306 290.869 416.653C290.869 416.982 290.999 417.229 291.259 417.394C291.519 417.55 291.831 417.671 292.195 417.758C292.568 417.845 292.923 417.94 293.261 418.044C294.024 418.295 294.739 418.603 295.406 418.967C296.082 419.331 296.624 419.777 297.031 420.306C297.439 420.835 297.634 421.467 297.616 422.204C297.616 423.045 297.365 423.781 296.862 424.414C296.36 425.038 295.71 425.515 294.912 425.844C294.124 426.173 293.279 426.303 292.377 426.234ZM303.52 410.27V413H307.069V416.172H303.52V426H300.348V416.172H298.931V413H300.348V410.27C300.348 409.525 300.53 408.844 300.894 408.229C301.267 407.605 301.765 407.111 302.389 406.747C303.013 406.374 303.702 406.188 304.456 406.188C305.002 406.188 305.544 406.301 306.081 406.526C306.619 406.751 307.095 407.098 307.511 407.566L305.223 409.802C305.145 409.655 305.033 409.546 304.885 409.477C304.747 409.399 304.604 409.36 304.456 409.36C304.205 409.36 303.984 409.451 303.793 409.633C303.611 409.806 303.52 410.019 303.52 410.27ZM308.919 421.19V413H312.091V420.358C312.091 420.869 312.217 421.337 312.468 421.762C312.719 422.178 313.053 422.512 313.469 422.763C313.894 423.006 314.357 423.127 314.86 423.127C315.38 423.127 315.848 423.006 316.264 422.763C316.68 422.512 317.014 422.178 317.265 421.762C317.516 421.337 317.642 420.869 317.642 420.358V413H320.814L320.827 426H317.655L317.642 424.817C317.191 425.285 316.658 425.658 316.043 425.935C315.428 426.204 314.769 426.338 314.067 426.338C313.122 426.338 312.26 426.108 311.48 425.649C310.7 425.181 310.076 424.561 309.608 423.79C309.149 423.01 308.919 422.143 308.919 421.19ZM323.505 426V406.5H326.677V426H323.505ZM329.802 426V406.5H332.974V426H329.802ZM344.128 413H347.495L340.384 432.5H337.017L339.37 426L334.69 413H338.161L340.956 421.658L344.128 413Z" fill="#1E232C"/>
<rect x="30" y="516" width="330" height="56" rx="8" fill="#1E232C"/>
<path d="M150.192 549V538.5H153.919C154.459 538.5 154.947 538.61 155.382 538.83C155.822 539.05 156.169 539.367 156.424 539.782C156.684 540.192 156.814 540.685 156.814 541.26C156.814 541.54 156.769 541.815 156.679 542.085C156.589 542.355 156.462 542.592 156.297 542.797C156.132 543.002 155.932 543.147 155.697 543.232C156.017 543.312 156.282 543.457 156.492 543.667C156.707 543.872 156.877 544.112 157.002 544.387C157.127 544.662 157.214 544.947 157.264 545.242C157.319 545.537 157.347 545.817 157.347 546.082C157.347 546.642 157.212 547.142 156.942 547.582C156.672 548.022 156.309 548.37 155.854 548.625C155.404 548.875 154.907 549 154.362 549H150.192ZM151.752 547.65H154.212C154.532 547.65 154.822 547.57 155.082 547.41C155.347 547.25 155.557 547.03 155.712 546.75C155.867 546.465 155.944 546.145 155.944 545.79C155.944 545.48 155.867 545.187 155.712 544.912C155.557 544.632 155.347 544.407 155.082 544.237C154.822 544.067 154.532 543.982 154.212 543.982H151.752V547.65ZM151.752 542.655H153.754C154.164 542.655 154.517 542.53 154.812 542.28C155.107 542.03 155.254 541.687 155.254 541.253C155.254 540.787 155.107 540.44 154.812 540.21C154.517 539.975 154.164 539.857 153.754 539.857H151.752V542.655ZM164.332 541.5H165.892V549H164.325L164.265 547.912C164.045 548.297 163.747 548.607 163.372 548.842C162.997 549.077 162.555 549.195 162.045 549.195C161.495 549.195 160.977 549.093 160.492 548.887C160.007 548.677 159.58 548.387 159.21 548.017C158.845 547.647 158.56 547.222 158.355 546.742C158.15 546.257 158.047 545.737 158.047 545.182C158.047 544.647 158.147 544.145 158.347 543.675C158.547 543.2 158.825 542.785 159.18 542.43C159.535 542.075 159.945 541.797 160.41 541.597C160.88 541.392 161.382 541.29 161.917 541.29C162.462 541.29 162.942 541.415 163.357 541.665C163.777 541.91 164.125 542.225 164.4 542.61L164.332 541.5ZM162.007 547.687C162.447 547.687 162.832 547.58 163.162 547.365C163.492 547.145 163.747 546.85 163.927 546.48C164.112 546.11 164.205 545.7 164.205 545.25C164.205 544.795 164.112 544.382 163.927 544.012C163.742 543.642 163.485 543.35 163.155 543.135C162.83 542.915 162.447 542.805 162.007 542.805C161.572 542.805 161.175 542.915 160.815 543.135C160.455 543.355 160.17 543.65 159.96 544.02C159.75 544.39 159.645 544.8 159.645 545.25C159.645 545.705 159.752 546.117 159.967 546.487C160.187 546.852 160.475 547.145 160.83 547.365C161.19 547.58 161.582 547.687 162.007 547.687ZM172.14 546.87L173.535 547.627C173.195 548.102 172.762 548.482 172.237 548.767C171.717 549.052 171.152 549.195 170.542 549.195C169.852 549.195 169.222 549.017 168.652 548.662C168.087 548.307 167.635 547.832 167.295 547.237C166.96 546.637 166.792 545.975 166.792 545.25C166.792 544.7 166.89 544.187 167.085 543.712C167.28 543.232 167.547 542.812 167.887 542.452C168.232 542.087 168.632 541.802 169.087 541.597C169.542 541.392 170.027 541.29 170.542 541.29C171.152 541.29 171.717 541.432 172.237 541.717C172.762 542.002 173.195 542.385 173.535 542.865L172.14 543.622C171.93 543.372 171.685 543.182 171.405 543.052C171.125 542.917 170.837 542.85 170.542 542.85C170.132 542.85 169.76 542.962 169.425 543.187C169.095 543.407 168.832 543.7 168.637 544.065C168.447 544.425 168.352 544.82 168.352 545.25C168.352 545.675 168.45 546.07 168.645 546.435C168.84 546.795 169.102 547.085 169.432 547.305C169.767 547.525 170.137 547.635 170.542 547.635C170.852 547.635 171.147 547.565 171.427 547.425C171.707 547.285 171.945 547.1 172.14 546.87ZM181.111 549H179.311L177.466 545.82L176.258 547.26V549H174.698V537.75H176.258V544.837L179.048 541.5H181.088L178.531 544.552L181.111 549ZM190.055 543.06H188.48L188.472 549H186.912L186.92 543.06H185.727V541.5H186.92L186.912 539.145H188.472L188.48 541.5H190.055V543.06ZM194.522 549.195C193.832 549.195 193.202 549.017 192.632 548.662C192.067 548.307 191.614 547.832 191.274 547.237C190.939 546.637 190.772 545.975 190.772 545.25C190.772 544.7 190.869 544.187 191.064 543.712C191.259 543.232 191.527 542.812 191.867 542.452C192.212 542.087 192.612 541.802 193.067 541.597C193.522 541.392 194.007 541.29 194.522 541.29C195.212 541.29 195.839 541.467 196.404 541.822C196.974 542.177 197.427 542.655 197.762 543.255C198.102 543.855 198.272 544.52 198.272 545.25C198.272 545.795 198.174 546.305 197.979 546.78C197.784 547.255 197.514 547.675 197.169 548.04C196.829 548.4 196.432 548.682 195.977 548.887C195.527 549.093 195.042 549.195 194.522 549.195ZM194.522 547.635C194.937 547.635 195.309 547.525 195.639 547.305C195.969 547.085 196.229 546.795 196.419 546.435C196.614 546.07 196.712 545.675 196.712 545.25C196.712 544.815 196.612 544.415 196.412 544.05C196.217 543.685 195.954 543.395 195.624 543.18C195.294 542.96 194.927 542.85 194.522 542.85C194.112 542.85 193.739 542.96 193.404 543.18C193.074 543.4 192.812 543.692 192.617 544.057C192.427 544.422 192.332 544.82 192.332 545.25C192.332 545.695 192.432 546.097 192.632 546.457C192.832 546.817 193.097 547.105 193.427 547.32C193.762 547.53 194.127 547.635 194.522 547.635ZM209.526 538.5H211.086V549H209.526V544.155H204.779V549H203.219V538.5H204.779V542.595H209.526V538.5ZM216.084 549.195C215.394 549.195 214.764 549.017 214.194 548.662C213.629 548.307 213.177 547.832 212.837 547.237C212.502 546.637 212.334 545.975 212.334 545.25C212.334 544.7 212.432 544.187 212.627 543.712C212.822 543.232 213.089 542.812 213.429 542.452C213.774 542.087 214.174 541.802 214.629 541.597C215.084 541.392 215.569 541.29 216.084 541.29C216.774 541.29 217.402 541.467 217.967 541.822C218.537 542.177 218.989 542.655 219.324 543.255C219.664 543.855 219.834 544.52 219.834 545.25C219.834 545.795 219.737 546.305 219.542 546.78C219.347 547.255 219.077 547.675 218.732 548.04C218.392 548.4 217.994 548.682 217.539 548.887C217.089 549.093 216.604 549.195 216.084 549.195ZM216.084 547.635C216.499 547.635 216.872 547.525 217.202 547.305C217.532 547.085 217.792 546.795 217.982 546.435C218.177 546.07 218.274 545.675 218.274 545.25C218.274 544.815 218.174 544.415 217.974 544.05C217.779 543.685 217.517 543.395 217.187 543.18C216.857 542.96 216.489 542.85 216.084 542.85C215.674 542.85 215.302 542.96 214.967 543.18C214.637 543.4 214.374 543.692 214.179 544.057C213.989 544.422 213.894 544.82 213.894 545.25C213.894 545.695 213.994 546.097 214.194 546.457C214.394 546.817 214.659 547.105 214.989 547.32C215.324 547.53 215.689 547.635 216.084 547.635ZM221.046 549V541.5H222.606V542.295C222.866 541.985 223.183 541.74 223.558 541.56C223.938 541.38 224.348 541.29 224.788 541.29C225.323 541.29 225.816 541.42 226.266 541.68C226.716 541.935 227.073 542.275 227.338 542.7C227.603 542.275 227.956 541.935 228.396 541.68C228.841 541.42 229.331 541.29 229.866 541.29C230.421 541.29 230.926 541.425 231.381 541.695C231.836 541.965 232.198 542.327 232.468 542.782C232.738 543.237 232.873 543.742 232.873 544.297V549H231.313V544.695C231.313 544.365 231.233 544.062 231.073 543.787C230.913 543.512 230.698 543.29 230.428 543.12C230.158 542.95 229.858 542.865 229.528 542.865C229.198 542.865 228.898 542.945 228.628 543.105C228.358 543.265 228.143 543.482 227.983 543.757C227.823 544.032 227.743 544.345 227.743 544.695V549H226.183V544.695C226.183 544.345 226.103 544.032 225.943 543.757C225.783 543.482 225.566 543.265 225.291 543.105C225.021 542.945 224.721 542.865 224.391 542.865C224.066 542.865 223.766 542.95 223.491 543.12C223.221 543.29 223.006 543.512 222.846 543.787C222.686 544.062 222.606 544.365 222.606 544.695V549H221.046ZM237.53 549.195C236.84 549.195 236.21 549.017 235.64 548.662C235.075 548.307 234.622 547.832 234.282 547.237C233.947 546.637 233.78 545.975 233.78 545.25C233.78 544.7 233.877 544.187 234.072 543.712C234.267 543.232 234.535 542.812 234.875 542.452C235.22 542.087 235.62 541.802 236.075 541.597C236.53 541.392 237.015 541.29 237.53 541.29C238.105 541.29 238.632 541.41 239.112 541.65C239.592 541.885 240.002 542.212 240.342 542.632C240.682 543.047 240.932 543.527 241.092 544.072C241.252 544.612 241.3 545.187 241.235 545.797H235.452C235.517 546.142 235.642 546.455 235.827 546.735C236.017 547.01 236.257 547.227 236.547 547.387C236.842 547.547 237.17 547.63 237.53 547.635C237.91 547.635 238.255 547.54 238.565 547.35C238.88 547.16 239.137 546.897 239.337 546.562L240.92 546.93C240.62 547.595 240.167 548.14 239.562 548.565C238.957 548.985 238.28 549.195 237.53 549.195ZM235.4 544.605H239.66C239.61 544.245 239.482 543.92 239.277 543.63C239.077 543.335 238.825 543.102 238.52 542.932C238.22 542.757 237.89 542.67 237.53 542.67C237.175 542.67 236.845 542.755 236.54 542.925C236.24 543.095 235.99 543.327 235.79 543.622C235.595 543.912 235.465 544.24 235.4 544.605Z" fill="white"/>
<path opacity="0.35" d="M351.5 20C351.5 18.8034 352.47 17.8334 353.667 17.8334H370.333C371.53 17.8334 372.5 18.8034 372.5 20V26C372.5 27.1967 371.53 28.1667 370.333 28.1667H353.667C352.47 28.1667 351.5 27.1967 351.5 26V20Z" stroke="black"/>
<path opacity="0.4" d="M374 21.0001V25.0001C374.805 24.6613 375.328 23.8732 375.328 23.0001C375.328 22.1269 374.805 21.3388 374 21.0001Z" fill="black"/>
<path d="M353 20.6667C353 19.9303 353.597 19.3334 354.333 19.3334H369.667C370.403 19.3334 371 19.9303 371 20.6667V25.3334C371 26.0698 370.403 26.6667 369.667 26.6667H354.333C353.597 26.6667 353 26.0698 353 25.3334V20.6667Z" fill="black"/>
<path fill-rule="evenodd" clip-rule="evenodd" d="M338.331 19.608C340.547 19.6081 342.678 20.4596 344.284 21.9863C344.405 22.1042 344.598 22.1027 344.717 21.983L345.873 20.8163C345.934 20.7556 345.967 20.6734 345.967 20.5878C345.966 20.5022 345.932 20.4204 345.871 20.3603C341.656 16.3208 335.006 16.3208 330.791 20.3603C330.73 20.4203 330.695 20.5021 330.694 20.5877C330.694 20.6733 330.727 20.7556 330.788 20.8163L331.944 21.983C332.063 22.1029 332.256 22.1044 332.377 21.9863C333.983 20.4595 336.115 19.608 338.331 19.608ZM338.331 23.4037C339.548 23.4036 340.722 23.8561 341.625 24.6733C341.747 24.7893 341.939 24.7868 342.058 24.6677L343.213 23.501C343.274 23.4398 343.307 23.3568 343.307 23.2705C343.306 23.1843 343.27 23.102 343.208 23.042C340.46 20.4856 336.204 20.4856 333.456 23.042C333.394 23.102 333.358 23.1843 333.358 23.2706C333.357 23.3569 333.391 23.4399 333.452 23.501L334.606 24.6677C334.725 24.7868 334.917 24.7893 335.039 24.6733C335.941 23.8567 337.114 23.4042 338.331 23.4037ZM340.644 25.9575C340.646 26.044 340.612 26.1274 340.55 26.188L338.553 28.2037C338.494 28.2629 338.414 28.2963 338.331 28.2963C338.248 28.2963 338.168 28.2629 338.109 28.2037L336.112 26.188C336.05 26.1274 336.016 26.0439 336.018 25.9574C336.02 25.8709 336.057 25.789 336.121 25.731C337.397 24.6521 339.265 24.6521 340.541 25.731C340.605 25.7891 340.642 25.871 340.644 25.9575Z" fill="black"/>
<path fill-rule="evenodd" clip-rule="evenodd" d="M324.667 17.6666H323.667C323.115 17.6666 322.667 18.1143 322.667 18.6666V27.3333C322.667 27.8856 323.115 28.3333 323.667 28.3333H324.667C325.219 28.3333 325.667 27.8856 325.667 27.3333V18.6666C325.667 18.1143 325.219 17.6666 324.667 17.6666ZM319 20H320C320.553 20 321 20.4477 321 21V27.3333C321 27.8856 320.553 28.3333 320 28.3333H319C318.448 28.3333 318 27.8856 318 27.3333V21C318 20.4477 318.448 20 319 20ZM315.334 22.3333H314.334C313.781 22.3333 313.334 22.781 313.334 23.3333V27.3333C313.334 27.8856 313.781 28.3333 314.334 28.3333H315.334C315.886 28.3333 316.334 27.8856 316.334 27.3333V23.3333C316.334 22.781 315.886 22.3333 315.334 22.3333ZM310.667 24.3333H309.667C309.115 24.3333 308.667 24.781 308.667 25.3333V27.3333C308.667 27.8856 309.115 28.3333 309.667 28.3333H310.667C311.219 28.3333 311.667 27.8856 311.667 27.3333V25.3333C311.667 24.781 311.219 24.3333 310.667 24.3333Z" fill="black"/>
<path d="M36.3208 28.2563C39.0088 28.2563 40.6055 26.1543 40.6055 22.5947C40.6055 21.2544 40.3491 20.1265 39.8584 19.2549C39.1479 17.8999 37.9248 17.1675 36.3794 17.1675C34.0796 17.1675 32.4536 18.7129 32.4536 20.8809C32.4536 22.917 33.9185 24.3965 35.9326 24.3965C37.1704 24.3965 38.1738 23.8179 38.6719 22.8145H38.6938C38.6938 22.8145 38.7231 22.8145 38.7305 22.8145C38.7451 22.8145 38.7964 22.8145 38.7964 22.8145C38.7964 25.2314 37.8809 26.6743 36.3354 26.6743C35.4272 26.6743 34.7241 26.1763 34.4824 25.3779H32.6001C32.915 27.1138 34.3872 28.2563 36.3208 28.2563ZM36.3867 22.895C35.1709 22.895 34.3066 22.0308 34.3066 20.8223C34.3066 19.6431 35.2148 18.7422 36.394 18.7422C37.5732 18.7422 38.4814 19.6577 38.4814 20.8516C38.4814 22.0308 37.5952 22.895 36.3867 22.895Z" fill="black"/>
<path d="M43.6966 28.1538C44.3924 28.1538 44.8685 27.6558 44.8685 26.9966C44.8685 26.3301 44.3924 25.8394 43.6966 25.8394C43.0081 25.8394 42.5247 26.3301 42.5247 26.9966C42.5247 27.6558 43.0081 28.1538 43.6966 28.1538ZM43.6966 22.6606C44.3924 22.6606 44.8685 22.1699 44.8685 21.5107C44.8685 20.8442 44.3924 20.3535 43.6966 20.3535C43.0081 20.3535 42.5247 20.8442 42.5247 21.5107C42.5247 22.1699 43.0081 22.6606 43.6966 22.6606Z" fill="black"/>
<path d="M51.7242 28H53.5333V26.0298H54.9615V24.4331H53.5333V17.4312H50.8673C48.9996 20.2437 47.5128 22.5947 46.5606 24.3452V26.0298H51.7242V28ZM48.3111 24.3672C49.5416 22.1992 50.6402 20.4634 51.651 18.9692H51.7535V24.4771H48.3111V24.3672Z" fill="black"/>
<path d="M58.9901 28H60.8798V17.4312H58.9975L56.2362 19.3647V21.1812L58.8656 19.3354H58.9901V28Z" fill="black"/>
<defs>
<clipPath id="clip0_21_392">
<rect width="100" height="100" fill="white" transform="translate(145 271)"/>
</clipPath>
</defs>
</svg>
