<svg width="390" height="844" viewBox="0 0 390 844" fill="none" xmlns="http://www.w3.org/2000/svg">
<rect width="390" height="844" fill="white"/>
<path d="M31.55 168.39C30.13 168.39 28.795 168.11 27.545 167.55C26.295 166.98 25.195 166.195 24.245 165.195C23.295 164.195 22.55 163.04 22.01 161.73C21.47 160.41 21.2 159 21.2 157.5C21.2 156 21.47 154.595 22.01 153.285C22.55 151.965 23.295 150.805 24.245 149.805C25.195 148.805 26.295 148.025 27.545 147.465C28.795 146.895 30.13 146.61 31.55 146.61C32.98 146.61 34.32 146.895 35.57 147.465C36.82 148.025 37.92 148.805 38.87 149.805C39.82 150.805 40.56 151.965 41.09 153.285C41.63 154.595 41.9 156 41.9 157.5C41.9 159 41.63 160.41 41.09 161.73C40.56 163.04 39.82 164.195 38.87 165.195C37.92 166.195 36.82 166.98 35.57 167.55C34.32 168.11 32.98 168.39 31.55 168.39ZM31.55 164.73C32.47 164.73 33.335 164.54 34.145 164.16C34.955 163.78 35.665 163.26 36.275 162.6C36.895 161.93 37.375 161.16 37.715 160.29C38.065 159.42 38.24 158.49 38.24 157.5C38.24 156.51 38.065 155.58 37.715 154.71C37.365 153.83 36.88 153.06 36.26 152.4C35.65 151.74 34.94 151.22 34.13 150.84C33.33 150.46 32.47 150.27 31.55 150.27C30.63 150.27 29.765 150.46 28.955 150.84C28.145 151.22 27.43 151.745 26.81 152.415C26.2 153.075 25.72 153.84 25.37 154.71C25.03 155.58 24.86 156.51 24.86 157.5C24.86 158.5 25.035 159.435 25.385 160.305C25.735 161.175 26.215 161.945 26.825 162.615C27.445 163.275 28.155 163.795 28.955 164.175C29.765 164.545 30.63 164.73 31.55 164.73ZM59.2848 147V150.66H52.8648V168H49.2048V150.66H42.7848V147H59.2848ZM61.9813 168V147H69.4813C70.6213 147 71.6513 147.285 72.5713 147.855C73.5013 148.425 74.2363 149.19 74.7763 150.15C75.3163 151.11 75.5863 152.165 75.5863 153.315C75.5863 154.495 75.3063 155.565 74.7463 156.525C74.1963 157.475 73.4563 158.235 72.5263 158.805C71.5963 159.365 70.5813 159.645 69.4813 159.645H65.6413V168H61.9813ZM65.6413 155.985H69.0913C69.6113 155.985 70.0863 155.855 70.5163 155.595C70.9463 155.335 71.2863 154.985 71.5363 154.545C71.7963 154.105 71.9263 153.615 71.9263 153.075C71.9263 152.525 71.7963 152.03 71.5363 151.59C71.2863 151.15 70.9463 150.8 70.5163 150.54C70.0863 150.28 69.6113 150.15 69.0913 150.15H65.6413V155.985ZM92.2346 168L84.6146 147H88.4996L94.5746 163.725L100.665 147H104.535L96.9146 168H92.2346ZM111.275 168.39C109.895 168.39 108.635 168.035 107.495 167.325C106.365 166.615 105.46 165.66 104.78 164.46C104.11 163.26 103.775 161.935 103.775 160.485C103.775 159.395 103.97 158.375 104.36 157.425C104.75 156.465 105.285 155.625 105.965 154.905C106.655 154.175 107.455 153.605 108.365 153.195C109.275 152.785 110.245 152.58 111.275 152.58C112.445 152.58 113.515 152.83 114.485 153.33C115.465 153.82 116.295 154.495 116.975 155.355C117.655 156.215 118.15 157.195 118.46 158.295C118.77 159.395 118.84 160.545 118.67 161.745H107.705C107.845 162.305 108.075 162.81 108.395 163.26C108.715 163.7 109.12 164.055 109.61 164.325C110.1 164.585 110.655 164.72 111.275 164.73C111.915 164.74 112.495 164.59 113.015 164.28C113.545 163.96 113.985 163.53 114.335 162.99L118.07 163.86C117.46 165.19 116.55 166.28 115.34 167.13C114.13 167.97 112.775 168.39 111.275 168.39ZM107.585 159H114.965C114.855 158.4 114.62 157.86 114.26 157.38C113.91 156.89 113.475 156.5 112.955 156.21C112.435 155.92 111.875 155.775 111.275 155.775C110.675 155.775 110.12 155.92 109.61 156.21C109.1 156.49 108.665 156.875 108.305 157.365C107.955 157.845 107.715 158.39 107.585 159ZM120.826 168L120.811 153H124.471L124.486 154.335C124.996 153.795 125.606 153.37 126.316 153.06C127.026 152.74 127.791 152.58 128.611 152.58C129.161 152.58 129.711 152.66 130.261 152.82L128.821 156.51C128.441 156.36 128.061 156.285 127.681 156.285C127.091 156.285 126.551 156.43 126.061 156.72C125.581 157 125.196 157.385 124.906 157.875C124.626 158.355 124.486 158.89 124.486 159.48V168H120.826ZM131.585 153H135.245V168H131.585V153ZM133.445 151.065C132.905 151.065 132.45 150.89 132.08 150.54C131.71 150.18 131.525 149.73 131.525 149.19C131.525 148.66 131.71 148.215 132.08 147.855C132.45 147.495 132.9 147.315 133.43 147.315C133.96 147.315 134.405 147.495 134.765 147.855C135.135 148.215 135.32 148.66 135.32 149.19C135.32 149.73 135.14 150.18 134.78 150.54C134.42 150.89 133.975 151.065 133.445 151.065ZM142.795 149.85V153H146.89V156.66H142.795V168H139.135V156.66H137.5V153H139.135V149.85C139.135 148.99 139.345 148.205 139.765 147.495C140.195 146.775 140.77 146.205 141.49 145.785C142.21 145.355 143.005 145.14 143.875 145.14C144.505 145.14 145.13 145.27 145.75 145.53C146.37 145.79 146.92 146.19 147.4 146.73L144.76 149.31C144.67 149.14 144.54 149.015 144.37 148.935C144.21 148.845 144.045 148.8 143.875 148.8C143.585 148.8 143.33 148.905 143.11 149.115C142.9 149.315 142.795 149.56 142.795 149.85ZM148.944 153H152.604V168H148.944V153ZM150.804 151.065C150.264 151.065 149.809 150.89 149.439 150.54C149.069 150.18 148.884 149.73 148.884 149.19C148.884 148.66 149.069 148.215 149.439 147.855C149.809 147.495 150.259 147.315 150.789 147.315C151.319 147.315 151.764 147.495 152.124 147.855C152.494 148.215 152.679 148.66 152.679 149.19C152.679 149.73 152.499 150.18 152.139 150.54C151.779 150.89 151.334 151.065 150.804 151.065ZM164.858 163.485L168.158 165.27C167.468 166.21 166.603 166.965 165.563 167.535C164.523 168.105 163.388 168.39 162.158 168.39C160.778 168.39 159.518 168.035 158.378 167.325C157.248 166.615 156.343 165.665 155.663 164.475C154.993 163.275 154.658 161.95 154.658 160.5C154.658 159.4 154.853 158.375 155.243 157.425C155.633 156.465 156.168 155.625 156.848 154.905C157.538 154.175 158.338 153.605 159.248 153.195C160.158 152.785 161.128 152.58 162.158 152.58C163.388 152.58 164.523 152.865 165.563 153.435C166.603 154.005 167.468 154.77 168.158 155.73L164.858 157.5C164.508 157.1 164.093 156.79 163.613 156.57C163.143 156.35 162.658 156.24 162.158 156.24C161.438 156.24 160.788 156.44 160.208 156.84C159.628 157.23 159.168 157.75 158.828 158.4C158.488 159.04 158.318 159.74 158.318 160.5C158.318 161.25 158.488 161.95 158.828 162.6C159.168 163.24 159.628 163.755 160.208 164.145C160.788 164.535 161.438 164.73 162.158 164.73C162.678 164.73 163.173 164.62 163.643 164.4C164.113 164.17 164.518 163.865 164.858 163.485ZM181.392 153H185.052V168H181.392L181.227 166.14C180.817 166.81 180.272 167.355 179.592 167.775C178.922 168.185 178.127 168.39 177.207 168.39C176.097 168.39 175.057 168.18 174.087 167.76C173.117 167.34 172.262 166.76 171.522 166.02C170.792 165.28 170.217 164.425 169.797 163.455C169.387 162.485 169.182 161.445 169.182 160.335C169.182 159.265 169.377 158.26 169.767 157.32C170.167 156.38 170.722 155.555 171.432 154.845C172.142 154.135 172.962 153.58 173.892 153.18C174.822 152.78 175.822 152.58 176.892 152.58C177.882 152.58 178.767 152.8 179.547 153.24C180.337 153.68 181.007 154.24 181.557 154.92L181.392 153ZM177.117 164.865C177.897 164.865 178.587 164.67 179.187 164.28C179.787 163.89 180.257 163.365 180.597 162.705C180.937 162.035 181.107 161.3 181.107 160.5C181.107 159.69 180.937 158.955 180.597 158.295C180.257 157.625 179.782 157.095 179.172 156.705C178.572 156.315 177.887 156.12 177.117 156.12C176.347 156.12 175.642 156.32 175.002 156.72C174.372 157.11 173.867 157.635 173.487 158.295C173.117 158.955 172.932 159.69 172.932 160.5C172.932 161.31 173.122 162.045 173.502 162.705C173.882 163.365 174.387 163.89 175.017 164.28C175.657 164.67 176.357 164.865 177.117 164.865ZM195.781 156.66H192.871V168H189.211V156.66H186.991V153H189.211V148.29H192.871V153H195.781V156.66ZM197.959 153H201.619V168H197.959V153ZM199.819 151.065C199.279 151.065 198.824 150.89 198.454 150.54C198.084 150.18 197.899 149.73 197.899 149.19C197.899 148.66 198.084 148.215 198.454 147.855C198.824 147.495 199.274 147.315 199.804 147.315C200.334 147.315 200.779 147.495 201.139 147.855C201.509 148.215 201.694 148.66 201.694 149.19C201.694 149.73 201.514 150.18 201.154 150.54C200.794 150.89 200.349 151.065 199.819 151.065ZM211.173 168.39C209.793 168.39 208.533 168.035 207.393 167.325C206.263 166.615 205.358 165.665 204.678 164.475C204.008 163.275 203.673 161.95 203.673 160.5C203.673 159.4 203.868 158.375 204.258 157.425C204.648 156.465 205.183 155.625 205.863 154.905C206.553 154.175 207.353 153.605 208.263 153.195C209.173 152.785 210.143 152.58 211.173 152.58C212.553 152.58 213.808 152.935 214.938 153.645C216.078 154.355 216.983 155.31 217.653 156.51C218.333 157.71 218.673 159.04 218.673 160.5C218.673 161.59 218.478 162.61 218.088 163.56C217.698 164.51 217.158 165.35 216.468 166.08C215.788 166.8 214.993 167.365 214.083 167.775C213.183 168.185 212.213 168.39 211.173 168.39ZM211.173 164.73C211.903 164.73 212.558 164.535 213.138 164.145C213.718 163.755 214.173 163.24 214.503 162.6C214.843 161.96 215.013 161.26 215.013 160.5C215.013 159.72 214.838 159.01 214.488 158.37C214.148 157.72 213.683 157.205 213.093 156.825C212.513 156.435 211.873 156.24 211.173 156.24C210.453 156.24 209.803 156.435 209.223 156.825C208.643 157.215 208.183 157.735 207.843 158.385C207.503 159.035 207.333 159.74 207.333 160.5C207.333 161.29 207.508 162.005 207.858 162.645C208.208 163.285 208.673 163.795 209.253 164.175C209.843 164.545 210.483 164.73 211.173 164.73ZM234.448 158.52V168H230.788V159.48C230.788 158.89 230.643 158.355 230.353 157.875C230.063 157.385 229.673 157 229.183 156.72C228.703 156.43 228.168 156.285 227.578 156.285C226.988 156.285 226.448 156.43 225.958 156.72C225.478 157 225.093 157.385 224.803 157.875C224.523 158.355 224.383 158.89 224.383 159.48V168H220.723L220.708 153H224.368L224.383 154.335C224.893 153.795 225.503 153.37 226.213 153.06C226.923 152.74 227.688 152.58 228.508 152.58C229.598 152.58 230.593 152.85 231.493 153.39C232.393 153.92 233.108 154.635 233.638 155.535C234.178 156.425 234.448 157.42 234.448 158.52Z" fill="#1E232C"/>
<path d="M20.96 205V193.8H27.832V195.144H22.304V198.328H26.832V199.672H22.304V203.656H27.832V205H20.96ZM36.657 200.024V205H35.313V200.32C35.313 199.915 35.2143 199.547 35.017 199.216C34.8197 198.885 34.5557 198.624 34.225 198.432C33.8943 198.235 33.5263 198.136 33.121 198.136C32.721 198.136 32.353 198.235 32.017 198.432C31.6863 198.624 31.4223 198.885 31.225 199.216C31.0277 199.547 30.929 199.915 30.929 200.32V205H29.585V197H30.929V198C31.2117 197.627 31.569 197.331 32.001 197.112C32.433 196.888 32.9023 196.776 33.409 196.776C34.0063 196.776 34.5503 196.923 35.041 197.216C35.537 197.504 35.929 197.893 36.217 198.384C36.5103 198.875 36.657 199.421 36.657 200.024ZM42.4009 198.344H40.5849L40.5769 205H39.2329L39.2409 198.344H37.8649V197H39.2409L39.2329 194.488H40.5769L40.5849 197H42.4009V198.344ZM47.1519 205.208C46.4159 205.208 45.7439 205.019 45.1359 204.64C44.5332 204.261 44.0505 203.755 43.6879 203.12C43.3305 202.48 43.1519 201.773 43.1519 201C43.1519 200.413 43.2559 199.867 43.4639 199.36C43.6719 198.848 43.9572 198.4 44.3199 198.016C44.6879 197.627 45.1145 197.323 45.5999 197.104C46.0852 196.885 46.6025 196.776 47.1519 196.776C47.7545 196.776 48.3065 196.899 48.8079 197.144C49.3145 197.384 49.7465 197.72 50.1039 198.152C50.4665 198.584 50.7359 199.085 50.9119 199.656C51.0932 200.227 51.1599 200.837 51.1119 201.488H44.5839C44.6479 201.941 44.7972 202.347 45.0319 202.704C45.2665 203.056 45.5652 203.336 45.9279 203.544C46.2959 203.752 46.7039 203.859 47.1519 203.864C47.6319 203.864 48.0665 203.741 48.4559 203.496C48.8452 203.245 49.1599 202.904 49.3999 202.472L50.7679 202.792C50.4479 203.501 49.9652 204.083 49.3199 204.536C48.6745 204.984 47.9519 205.208 47.1519 205.208ZM44.5439 200.432H49.7599C49.7172 199.984 49.5732 199.576 49.3279 199.208C49.0825 198.835 48.7705 198.536 48.3919 198.312C48.0132 198.088 47.5999 197.976 47.1519 197.976C46.7039 197.976 46.2932 198.085 45.9199 198.304C45.5465 198.523 45.2372 198.819 44.9919 199.192C44.7519 199.56 44.6025 199.973 44.5439 200.432ZM52.46 205V197H53.804V198C54.0867 197.627 54.444 197.331 54.876 197.112C55.308 196.888 55.7773 196.776 56.284 196.776C56.5933 196.776 56.892 196.816 57.18 196.896L56.636 198.24C56.4173 198.171 56.204 198.136 55.996 198.136C55.596 198.136 55.228 198.235 54.892 198.432C54.5613 198.624 54.2973 198.885 54.1 199.216C53.9027 199.547 53.804 199.915 53.804 200.32V205H52.46ZM66.2915 198.344H64.4755L64.4675 205H63.1235L63.1315 198.344H61.7555V197H63.1315L63.1235 194.488H64.4675L64.4755 197H66.2915V198.344ZM74.7976 200.024V205H73.4536V200.32C73.4536 199.915 73.355 199.547 73.1576 199.216C72.9603 198.885 72.6963 198.624 72.3656 198.432C72.035 198.235 71.667 198.136 71.2616 198.136C70.8616 198.136 70.4936 198.235 70.1576 198.432C69.827 198.624 69.563 198.885 69.3656 199.216C69.1683 199.547 69.0696 199.915 69.0696 200.32V205H67.7256V193H69.0696V198C69.3523 197.627 69.7096 197.331 70.1416 197.112C70.5736 196.888 71.043 196.776 71.5496 196.776C72.147 196.776 72.691 196.923 73.1816 197.216C73.6776 197.504 74.0696 197.893 74.3576 198.384C74.651 198.875 74.7976 199.421 74.7976 200.024ZM79.7613 205.208C79.0253 205.208 78.3533 205.019 77.7453 204.64C77.1426 204.261 76.6599 203.755 76.2973 203.12C75.9399 202.48 75.7613 201.773 75.7613 201C75.7613 200.413 75.8653 199.867 76.0733 199.36C76.2813 198.848 76.5666 198.4 76.9293 198.016C77.2973 197.627 77.7239 197.323 78.2093 197.104C78.6946 196.885 79.2119 196.776 79.7613 196.776C80.3639 196.776 80.9159 196.899 81.4173 197.144C81.9239 197.384 82.3559 197.72 82.7133 198.152C83.0759 198.584 83.3453 199.085 83.5213 199.656C83.7026 200.227 83.7693 200.837 83.7213 201.488H77.1933C77.2573 201.941 77.4066 202.347 77.6413 202.704C77.8759 203.056 78.1746 203.336 78.5373 203.544C78.9053 203.752 79.3133 203.859 79.7613 203.864C80.2413 203.864 80.6759 203.741 81.0653 203.496C81.4546 203.245 81.7693 202.904 82.0093 202.472L83.3773 202.792C83.0573 203.501 82.5746 204.083 81.9293 204.536C81.2839 204.984 80.5613 205.208 79.7613 205.208ZM77.1533 200.432H82.3693C82.3266 199.984 82.1826 199.576 81.9373 199.208C81.6919 198.835 81.3799 198.536 81.0013 198.312C80.6226 198.088 80.2093 197.976 79.7613 197.976C79.3133 197.976 78.9026 198.085 78.5293 198.304C78.1559 198.523 77.8466 198.819 77.6013 199.192C77.3613 199.56 77.2119 199.973 77.1533 200.432ZM93.1825 205H91.4625L88.5425 196.984H89.9745L92.3185 203.44L94.6625 196.984H96.0945L93.1825 205ZM100.605 205.208C99.869 205.208 99.197 205.019 98.589 204.64C97.9863 204.261 97.5037 203.755 97.141 203.12C96.7837 202.48 96.605 201.773 96.605 201C96.605 200.413 96.709 199.867 96.917 199.36C97.125 198.848 97.4103 198.4 97.773 198.016C98.141 197.627 98.5677 197.323 99.053 197.104C99.5383 196.885 100.056 196.776 100.605 196.776C101.208 196.776 101.76 196.899 102.261 197.144C102.768 197.384 103.2 197.72 103.557 198.152C103.92 198.584 104.189 199.085 104.365 199.656C104.546 200.227 104.613 200.837 104.565 201.488H98.037C98.101 201.941 98.2503 202.347 98.485 202.704C98.7197 203.056 99.0183 203.336 99.381 203.544C99.749 203.752 100.157 203.859 100.605 203.864C101.085 203.864 101.52 203.741 101.909 203.496C102.298 203.245 102.613 202.904 102.853 202.472L104.221 202.792C103.901 203.501 103.418 204.083 102.773 204.536C102.128 204.984 101.405 205.208 100.605 205.208ZM97.997 200.432H103.213C103.17 199.984 103.026 199.576 102.781 199.208C102.536 198.835 102.224 198.536 101.845 198.312C101.466 198.088 101.053 197.976 100.605 197.976C100.157 197.976 99.7463 198.085 99.373 198.304C98.9997 198.523 98.6903 198.819 98.445 199.192C98.205 199.56 98.0557 199.973 97.997 200.432ZM105.913 205V197H107.257V198C107.54 197.627 107.897 197.331 108.329 197.112C108.761 196.888 109.23 196.776 109.737 196.776C110.046 196.776 110.345 196.816 110.633 196.896L110.089 198.24C109.87 198.171 109.657 198.136 109.449 198.136C109.049 198.136 108.681 198.235 108.345 198.432C108.014 198.624 107.75 198.885 107.553 199.216C107.356 199.547 107.257 199.915 107.257 200.32V205H105.913ZM111.616 197H112.96V205H111.616V197ZM112.304 195.696C112.091 195.696 111.912 195.627 111.768 195.488C111.624 195.349 111.552 195.176 111.552 194.968C111.552 194.76 111.624 194.587 111.768 194.448C111.912 194.309 112.088 194.24 112.296 194.24C112.504 194.24 112.68 194.309 112.824 194.448C112.968 194.587 113.04 194.76 113.04 194.968C113.04 195.176 112.968 195.349 112.824 195.488C112.686 195.627 112.512 195.696 112.304 195.696ZM116.698 195.024V197H119.042V198.344H116.698V205H115.354V198.344H114.322V197H115.354V195.024C115.354 194.613 115.453 194.243 115.65 193.912C115.853 193.576 116.122 193.309 116.458 193.112C116.799 192.909 117.173 192.808 117.578 192.808C117.877 192.808 118.167 192.869 118.45 192.992C118.733 193.109 118.983 193.285 119.202 193.52L118.242 194.472C118.167 194.371 118.069 194.293 117.946 194.24C117.829 194.181 117.706 194.152 117.578 194.152C117.338 194.152 117.13 194.237 116.954 194.408C116.783 194.579 116.698 194.784 116.698 195.024ZM120.273 197H121.617V205H120.273V197ZM120.961 195.696C120.747 195.696 120.569 195.627 120.425 195.488C120.281 195.349 120.209 195.176 120.209 194.968C120.209 194.76 120.281 194.587 120.425 194.448C120.569 194.309 120.745 194.24 120.953 194.24C121.161 194.24 121.337 194.309 121.481 194.448C121.625 194.587 121.697 194.76 121.697 194.968C121.697 195.176 121.625 195.349 121.481 195.488C121.342 195.627 121.169 195.696 120.961 195.696ZM128.941 202.888L130.141 203.536C129.778 204.043 129.317 204.448 128.757 204.752C128.202 205.056 127.599 205.208 126.949 205.208C126.213 205.208 125.541 205.019 124.933 204.64C124.33 204.261 123.847 203.755 123.485 203.12C123.127 202.48 122.949 201.773 122.949 201C122.949 200.413 123.053 199.867 123.261 199.36C123.469 198.848 123.754 198.4 124.117 198.016C124.485 197.627 124.911 197.323 125.397 197.104C125.882 196.885 126.399 196.776 126.949 196.776C127.599 196.776 128.202 196.928 128.757 197.232C129.317 197.536 129.778 197.944 130.141 198.456L128.941 199.104C128.685 198.789 128.381 198.547 128.029 198.376C127.677 198.205 127.317 198.12 126.949 198.12C126.453 198.12 126.002 198.253 125.597 198.52C125.197 198.781 124.879 199.131 124.645 199.568C124.41 200.005 124.293 200.483 124.293 201C124.293 201.517 124.41 201.995 124.645 202.432C124.885 202.864 125.205 203.211 125.605 203.472C126.01 203.733 126.458 203.864 126.949 203.864C127.343 203.864 127.714 203.773 128.061 203.592C128.407 203.411 128.701 203.176 128.941 202.888ZM137.876 197H139.22V205H137.876L137.82 203.648C137.57 204.112 137.223 204.488 136.78 204.776C136.343 205.064 135.82 205.208 135.212 205.208C134.626 205.208 134.076 205.099 133.564 204.88C133.052 204.656 132.599 204.349 132.204 203.96C131.815 203.565 131.511 203.112 131.292 202.6C131.074 202.088 130.964 201.536 130.964 200.944C130.964 200.373 131.071 199.835 131.284 199.328C131.498 198.821 131.794 198.379 132.172 198C132.556 197.616 132.999 197.317 133.5 197.104C134.002 196.885 134.54 196.776 135.116 196.776C135.746 196.776 136.298 196.925 136.772 197.224C137.247 197.517 137.631 197.899 137.924 198.368L137.876 197ZM135.188 203.904C135.716 203.904 136.172 203.776 136.556 203.52C136.946 203.259 137.244 202.907 137.452 202.464C137.666 202.021 137.772 201.533 137.772 201C137.772 200.456 137.666 199.965 137.452 199.528C137.239 199.085 136.938 198.736 136.548 198.48C136.164 198.219 135.711 198.088 135.188 198.088C134.66 198.088 134.18 198.219 133.748 198.48C133.316 198.741 132.972 199.093 132.716 199.536C132.466 199.973 132.34 200.461 132.34 201C132.34 201.539 132.471 202.029 132.732 202.472C132.994 202.909 133.34 203.259 133.772 203.52C134.204 203.776 134.676 203.904 135.188 203.904ZM144.963 198.344H143.147L143.139 205H141.795L141.803 198.344H140.427V197H141.803L141.795 194.488H143.139L143.147 197H144.963V198.344ZM146.319 197H147.663V205H146.319V197ZM147.007 195.696C146.794 195.696 146.615 195.627 146.471 195.488C146.327 195.349 146.255 195.176 146.255 194.968C146.255 194.76 146.327 194.587 146.471 194.448C146.615 194.309 146.791 194.24 146.999 194.24C147.207 194.24 147.383 194.309 147.527 194.448C147.671 194.587 147.743 194.76 147.743 194.968C147.743 195.176 147.671 195.349 147.527 195.488C147.389 195.627 147.215 195.696 147.007 195.696ZM152.996 205.208C152.26 205.208 151.588 205.019 150.98 204.64C150.377 204.261 149.894 203.755 149.532 203.12C149.174 202.48 148.996 201.773 148.996 201C148.996 200.413 149.1 199.867 149.308 199.36C149.516 198.848 149.801 198.4 150.164 198.016C150.532 197.627 150.958 197.323 151.444 197.104C151.929 196.885 152.446 196.776 152.996 196.776C153.732 196.776 154.401 196.965 155.004 197.344C155.612 197.723 156.094 198.232 156.452 198.872C156.814 199.512 156.996 200.221 156.996 201C156.996 201.581 156.892 202.125 156.684 202.632C156.476 203.139 156.188 203.587 155.82 203.976C155.457 204.36 155.033 204.661 154.548 204.88C154.068 205.099 153.55 205.208 152.996 205.208ZM152.996 203.864C153.497 203.864 153.948 203.733 154.348 203.472C154.753 203.205 155.07 202.856 155.3 202.424C155.534 201.987 155.652 201.512 155.652 201C155.652 200.477 155.532 199.997 155.292 199.56C155.057 199.123 154.74 198.773 154.34 198.512C153.94 198.251 153.492 198.12 152.996 198.12C152.494 198.12 152.044 198.253 151.644 198.52C151.244 198.781 150.926 199.131 150.692 199.568C150.457 200.005 150.34 200.483 150.34 201C150.34 201.533 150.46 202.019 150.7 202.456C150.94 202.888 151.262 203.232 151.668 203.488C152.073 203.739 152.516 203.864 152.996 203.864ZM165.391 200.024V205H164.047V200.32C164.047 199.915 163.949 199.547 163.751 199.216C163.554 198.885 163.29 198.624 162.959 198.432C162.629 198.235 162.261 198.136 161.855 198.136C161.455 198.136 161.087 198.235 160.751 198.432C160.421 198.624 160.157 198.885 159.959 199.216C159.762 199.547 159.663 199.915 159.663 200.32V205H158.319V197H159.663V198C159.946 197.627 160.303 197.331 160.735 197.112C161.167 196.888 161.637 196.776 162.143 196.776C162.741 196.776 163.285 196.923 163.775 197.216C164.271 197.504 164.663 197.893 164.951 198.384C165.245 198.875 165.391 199.421 165.391 200.024ZM176.347 202.888L177.547 203.536C177.184 204.043 176.723 204.448 176.163 204.752C175.608 205.056 175.006 205.208 174.355 205.208C173.619 205.208 172.947 205.019 172.339 204.64C171.736 204.261 171.254 203.755 170.891 203.12C170.534 202.48 170.355 201.773 170.355 201C170.355 200.413 170.459 199.867 170.667 199.36C170.875 198.848 171.16 198.4 171.523 198.016C171.891 197.627 172.318 197.323 172.803 197.104C173.288 196.885 173.806 196.776 174.355 196.776C175.006 196.776 175.608 196.928 176.163 197.232C176.723 197.536 177.184 197.944 177.547 198.456L176.347 199.104C176.091 198.789 175.787 198.547 175.435 198.376C175.083 198.205 174.723 198.12 174.355 198.12C173.859 198.12 173.408 198.253 173.003 198.52C172.603 198.781 172.286 199.131 172.051 199.568C171.816 200.005 171.699 200.483 171.699 201C171.699 201.517 171.816 201.995 172.051 202.432C172.291 202.864 172.611 203.211 173.011 203.472C173.416 203.733 173.864 203.864 174.355 203.864C174.75 203.864 175.12 203.773 175.467 203.592C175.814 203.411 176.107 203.176 176.347 202.888ZM182.371 205.208C181.635 205.208 180.963 205.019 180.355 204.64C179.752 204.261 179.269 203.755 178.907 203.12C178.549 202.48 178.371 201.773 178.371 201C178.371 200.413 178.475 199.867 178.683 199.36C178.891 198.848 179.176 198.4 179.539 198.016C179.907 197.627 180.333 197.323 180.819 197.104C181.304 196.885 181.821 196.776 182.371 196.776C183.107 196.776 183.776 196.965 184.379 197.344C184.987 197.723 185.469 198.232 185.827 198.872C186.189 199.512 186.371 200.221 186.371 201C186.371 201.581 186.267 202.125 186.059 202.632C185.851 203.139 185.563 203.587 185.195 203.976C184.832 204.36 184.408 204.661 183.923 204.88C183.443 205.099 182.925 205.208 182.371 205.208ZM182.371 203.864C182.872 203.864 183.323 203.733 183.723 203.472C184.128 203.205 184.445 202.856 184.675 202.424C184.909 201.987 185.027 201.512 185.027 201C185.027 200.477 184.907 199.997 184.667 199.56C184.432 199.123 184.115 198.773 183.715 198.512C183.315 198.251 182.867 198.12 182.371 198.12C181.869 198.12 181.419 198.253 181.019 198.52C180.619 198.781 180.301 199.131 180.067 199.568C179.832 200.005 179.715 200.483 179.715 201C179.715 201.533 179.835 202.019 180.075 202.456C180.315 202.888 180.637 203.232 181.043 203.488C181.448 203.739 181.891 203.864 182.371 203.864ZM194.088 193H195.432V205H194.088V203.64C193.816 204.109 193.45 204.488 192.992 204.776C192.533 205.064 191.994 205.208 191.376 205.208C190.794 205.208 190.25 205.099 189.744 204.88C189.237 204.661 188.789 204.36 188.4 203.976C188.016 203.587 187.714 203.139 187.496 202.632C187.277 202.125 187.168 201.581 187.168 201C187.168 200.419 187.277 199.875 187.496 199.368C187.714 198.856 188.016 198.408 188.4 198.024C188.789 197.635 189.237 197.331 189.744 197.112C190.25 196.893 190.794 196.784 191.376 196.784C191.994 196.784 192.533 196.928 192.992 197.216C193.45 197.504 193.816 197.883 194.088 198.352V193ZM191.391 203.904C191.92 203.904 192.376 203.776 192.76 203.52C193.149 203.259 193.448 202.907 193.656 202.464C193.869 202.021 193.976 201.533 193.976 201C193.976 200.456 193.869 199.965 193.656 199.528C193.442 199.085 193.141 198.736 192.752 198.48C192.368 198.219 191.914 198.088 191.391 198.088C190.864 198.088 190.384 198.219 189.952 198.48C189.525 198.741 189.184 199.093 188.928 199.536C188.672 199.973 188.544 200.461 188.544 201C188.544 201.539 188.674 202.029 188.936 202.472C189.197 202.909 189.544 203.259 189.976 203.52C190.408 203.776 190.88 203.904 191.391 203.904ZM200.793 205.208C200.057 205.208 199.385 205.019 198.777 204.64C198.174 204.261 197.691 203.755 197.329 203.12C196.971 202.48 196.793 201.773 196.793 201C196.793 200.413 196.897 199.867 197.105 199.36C197.313 198.848 197.598 198.4 197.961 198.016C198.329 197.627 198.755 197.323 199.241 197.104C199.726 196.885 200.243 196.776 200.793 196.776C201.395 196.776 201.947 196.899 202.449 197.144C202.955 197.384 203.387 197.72 203.745 198.152C204.107 198.584 204.377 199.085 204.553 199.656C204.734 200.227 204.801 200.837 204.753 201.488H198.225C198.289 201.941 198.438 202.347 198.673 202.704C198.907 203.056 199.206 203.336 199.569 203.544C199.937 203.752 200.345 203.859 200.793 203.864C201.273 203.864 201.707 203.741 202.097 203.496C202.486 203.245 202.801 202.904 203.041 202.472L204.409 202.792C204.089 203.501 203.606 204.083 202.961 204.536C202.315 204.984 201.593 205.208 200.793 205.208ZM198.185 200.432H203.401C203.358 199.984 203.214 199.576 202.969 199.208C202.723 198.835 202.411 198.536 202.033 198.312C201.654 198.088 201.241 197.976 200.793 197.976C200.345 197.976 199.934 198.085 199.561 198.304C199.187 198.523 198.878 198.819 198.633 199.192C198.393 199.56 198.243 199.973 198.185 200.432ZM213.614 205H212.254L209.574 197H210.886L212.95 203.104L214.99 197H216.374L218.422 203.104L220.462 197H221.79L219.11 205H217.742L215.67 198.84L213.614 205ZM226.293 205.208C225.557 205.208 224.885 205.019 224.277 204.64C223.674 204.261 223.191 203.755 222.829 203.12C222.471 202.48 222.293 201.773 222.293 201C222.293 200.413 222.397 199.867 222.605 199.36C222.813 198.848 223.098 198.4 223.461 198.016C223.829 197.627 224.255 197.323 224.741 197.104C225.226 196.885 225.743 196.776 226.293 196.776C226.895 196.776 227.447 196.899 227.949 197.144C228.455 197.384 228.887 197.72 229.245 198.152C229.607 198.584 229.877 199.085 230.053 199.656C230.234 200.227 230.301 200.837 230.253 201.488H223.725C223.789 201.941 223.938 202.347 224.173 202.704C224.407 203.056 224.706 203.336 225.069 203.544C225.437 203.752 225.845 203.859 226.293 203.864C226.773 203.864 227.207 203.741 227.597 203.496C227.986 203.245 228.301 202.904 228.541 202.472L229.909 202.792C229.589 203.501 229.106 204.083 228.461 204.536C227.815 204.984 227.093 205.208 226.293 205.208ZM223.685 200.432H228.901C228.858 199.984 228.714 199.576 228.469 199.208C228.223 198.835 227.911 198.536 227.533 198.312C227.154 198.088 226.741 197.976 226.293 197.976C225.845 197.976 225.434 198.085 225.061 198.304C224.687 198.523 224.378 198.819 224.133 199.192C223.893 199.56 223.743 199.973 223.685 200.432ZM233.954 209V207.656C234.327 207.656 234.66 207.573 234.954 207.408C235.252 207.243 235.487 207.013 235.658 206.72C235.828 206.432 235.914 206.109 235.914 205.752V197H237.258V205.752C237.258 206.349 237.114 206.893 236.826 207.384C236.538 207.875 236.143 208.267 235.642 208.56C235.146 208.853 234.583 209 233.954 209ZM236.602 195.696C236.388 195.696 236.21 195.627 236.066 195.488C235.922 195.349 235.85 195.176 235.85 194.968C235.85 194.76 235.922 194.587 236.066 194.448C236.21 194.309 236.386 194.24 236.594 194.24C236.802 194.24 236.978 194.309 237.122 194.448C237.266 194.587 237.338 194.76 237.338 194.968C237.338 195.176 237.266 195.349 237.122 195.488C236.983 195.627 236.81 195.696 236.602 195.696ZM238.718 201.96V197H240.062V201.664C240.062 202.069 240.161 202.437 240.358 202.768C240.555 203.099 240.819 203.363 241.15 203.56C241.486 203.752 241.854 203.848 242.254 203.848C242.659 203.848 243.025 203.752 243.35 203.56C243.681 203.363 243.945 203.099 244.142 202.768C244.339 202.437 244.438 202.069 244.438 201.664V197H245.782L245.79 205H244.446L244.438 203.984C244.155 204.357 243.798 204.656 243.366 204.88C242.934 205.099 242.467 205.208 241.966 205.208C241.369 205.208 240.822 205.064 240.326 204.776C239.835 204.483 239.443 204.091 239.15 203.6C238.862 203.109 238.718 202.563 238.718 201.96ZM249.838 205.152C249.406 205.136 248.984 205.056 248.574 204.912C248.168 204.763 247.811 204.563 247.502 204.312C247.198 204.056 246.976 203.763 246.838 203.432L247.99 202.936C248.07 203.117 248.214 203.288 248.422 203.448C248.63 203.608 248.87 203.736 249.142 203.832C249.414 203.928 249.688 203.976 249.966 203.976C250.259 203.976 250.534 203.931 250.79 203.84C251.046 203.749 251.254 203.616 251.414 203.44C251.579 203.259 251.662 203.043 251.662 202.792C251.662 202.525 251.571 202.317 251.39 202.168C251.214 202.013 250.99 201.893 250.718 201.808C250.451 201.717 250.179 201.632 249.902 201.552C249.352 201.413 248.862 201.248 248.43 201.056C247.998 200.859 247.656 200.611 247.406 200.312C247.16 200.008 247.038 199.621 247.038 199.152C247.038 198.656 247.174 198.227 247.446 197.864C247.723 197.501 248.086 197.221 248.534 197.024C248.982 196.827 249.462 196.728 249.974 196.728C250.619 196.728 251.208 196.867 251.742 197.144C252.275 197.421 252.672 197.797 252.934 198.272L251.854 198.904C251.763 198.712 251.624 198.544 251.438 198.4C251.251 198.251 251.038 198.133 250.798 198.048C250.558 197.963 250.312 197.917 250.062 197.912C249.752 197.901 249.462 197.941 249.19 198.032C248.923 198.123 248.707 198.261 248.542 198.448C248.382 198.629 248.302 198.856 248.302 199.128C248.302 199.395 248.387 199.597 248.558 199.736C248.734 199.875 248.96 199.987 249.238 200.072C249.52 200.152 249.827 200.245 250.158 200.352C250.643 200.507 251.096 200.685 251.518 200.888C251.939 201.091 252.278 201.344 252.534 201.648C252.795 201.952 252.923 202.328 252.918 202.776C252.918 203.267 252.771 203.696 252.478 204.064C252.184 204.427 251.803 204.704 251.334 204.896C250.87 205.088 250.371 205.173 249.838 205.152ZM258.432 198.344H256.616L256.608 205H255.264L255.272 198.344H253.896V197H255.272L255.264 194.488H256.608L256.616 197H258.432V198.344ZM266.15 205.152C265.718 205.136 265.297 205.056 264.886 204.912C264.481 204.763 264.123 204.563 263.814 204.312C263.51 204.056 263.289 203.763 263.15 203.432L264.302 202.936C264.382 203.117 264.526 203.288 264.734 203.448C264.942 203.608 265.182 203.736 265.454 203.832C265.726 203.928 266.001 203.976 266.278 203.976C266.571 203.976 266.846 203.931 267.102 203.84C267.358 203.749 267.566 203.616 267.726 203.44C267.891 203.259 267.974 203.043 267.974 202.792C267.974 202.525 267.883 202.317 267.702 202.168C267.526 202.013 267.302 201.893 267.03 201.808C266.763 201.717 266.491 201.632 266.214 201.552C265.665 201.413 265.174 201.248 264.742 201.056C264.31 200.859 263.969 200.611 263.718 200.312C263.473 200.008 263.35 199.621 263.35 199.152C263.35 198.656 263.486 198.227 263.758 197.864C264.035 197.501 264.398 197.221 264.846 197.024C265.294 196.827 265.774 196.728 266.286 196.728C266.931 196.728 267.521 196.867 268.054 197.144C268.587 197.421 268.985 197.797 269.246 198.272L268.166 198.904C268.075 198.712 267.937 198.544 267.75 198.4C267.563 198.251 267.35 198.133 267.11 198.048C266.87 197.963 266.625 197.917 266.374 197.912C266.065 197.901 265.774 197.941 265.502 198.032C265.235 198.123 265.019 198.261 264.854 198.448C264.694 198.629 264.614 198.856 264.614 199.128C264.614 199.395 264.699 199.597 264.87 199.736C265.046 199.875 265.273 199.987 265.55 200.072C265.833 200.152 266.139 200.245 266.47 200.352C266.955 200.507 267.409 200.685 267.83 200.888C268.251 201.091 268.59 201.344 268.846 201.648C269.107 201.952 269.235 202.328 269.23 202.776C269.23 203.267 269.083 203.696 268.79 204.064C268.497 204.427 268.115 204.704 267.646 204.896C267.182 205.088 266.683 205.173 266.15 205.152ZM274.043 205.208C273.307 205.208 272.635 205.019 272.027 204.64C271.424 204.261 270.941 203.755 270.579 203.12C270.221 202.48 270.043 201.773 270.043 201C270.043 200.413 270.147 199.867 270.355 199.36C270.563 198.848 270.848 198.4 271.211 198.016C271.579 197.627 272.005 197.323 272.491 197.104C272.976 196.885 273.493 196.776 274.043 196.776C274.645 196.776 275.197 196.899 275.699 197.144C276.205 197.384 276.637 197.72 276.995 198.152C277.357 198.584 277.627 199.085 277.803 199.656C277.984 200.227 278.051 200.837 278.003 201.488H271.475C271.539 201.941 271.688 202.347 271.923 202.704C272.157 203.056 272.456 203.336 272.819 203.544C273.187 203.752 273.595 203.859 274.043 203.864C274.523 203.864 274.957 203.741 275.347 203.496C275.736 203.245 276.051 202.904 276.291 202.472L277.659 202.792C277.339 203.501 276.856 204.083 276.211 204.536C275.565 204.984 274.843 205.208 274.043 205.208ZM271.435 200.432H276.651C276.608 199.984 276.464 199.576 276.219 199.208C275.973 198.835 275.661 198.536 275.283 198.312C274.904 198.088 274.491 197.976 274.043 197.976C273.595 197.976 273.184 198.085 272.811 198.304C272.437 198.523 272.128 198.819 271.883 199.192C271.643 199.56 271.493 199.973 271.435 200.432ZM286.423 200.024V205H285.079V200.32C285.079 199.915 284.98 199.547 284.783 199.216C284.585 198.885 284.321 198.624 283.991 198.432C283.66 198.235 283.292 198.136 282.887 198.136C282.487 198.136 282.119 198.235 281.783 198.432C281.452 198.624 281.188 198.885 280.991 199.216C280.793 199.547 280.695 199.915 280.695 200.32V205H279.351V197H280.695V198C280.977 197.627 281.335 197.331 281.767 197.112C282.199 196.888 282.668 196.776 283.175 196.776C283.772 196.776 284.316 196.923 284.807 197.216C285.303 197.504 285.695 197.893 285.983 198.384C286.276 198.875 286.423 199.421 286.423 200.024ZM292.167 198.344H290.351L290.343 205H288.999L289.007 198.344H287.631V197H289.007L288.999 194.488H290.343L290.351 197H292.167V198.344ZM300.964 205.208C300.228 205.208 299.556 205.019 298.948 204.64C298.346 204.261 297.863 203.755 297.5 203.12C297.143 202.48 296.964 201.773 296.964 201C296.964 200.413 297.068 199.867 297.276 199.36C297.484 198.848 297.77 198.4 298.132 198.016C298.5 197.627 298.927 197.323 299.412 197.104C299.898 196.885 300.415 196.776 300.964 196.776C301.7 196.776 302.37 196.965 302.972 197.344C303.58 197.723 304.063 198.232 304.42 198.872C304.783 199.512 304.964 200.221 304.964 201C304.964 201.581 304.86 202.125 304.652 202.632C304.444 203.139 304.156 203.587 303.788 203.976C303.426 204.36 303.002 204.661 302.516 204.88C302.036 205.099 301.519 205.208 300.964 205.208ZM300.964 203.864C301.466 203.864 301.916 203.733 302.316 203.472C302.722 203.205 303.039 202.856 303.268 202.424C303.503 201.987 303.62 201.512 303.62 201C303.62 200.477 303.5 199.997 303.26 199.56C303.026 199.123 302.708 198.773 302.308 198.512C301.908 198.251 301.46 198.12 300.964 198.12C300.463 198.12 300.012 198.253 299.612 198.52C299.212 198.781 298.895 199.131 298.66 199.568C298.426 200.005 298.308 200.483 298.308 201C298.308 201.533 298.428 202.019 298.668 202.456C298.908 202.888 299.231 203.232 299.636 203.488C300.042 203.739 300.484 203.864 300.964 203.864ZM313.36 200.024V205H312.016V200.32C312.016 199.915 311.917 199.547 311.72 199.216C311.523 198.885 311.259 198.624 310.928 198.432C310.597 198.235 310.229 198.136 309.824 198.136C309.424 198.136 309.056 198.235 308.72 198.432C308.389 198.624 308.125 198.885 307.928 199.216C307.731 199.547 307.632 199.915 307.632 200.32V205H306.288V197H307.632V198C307.915 197.627 308.272 197.331 308.704 197.112C309.136 196.888 309.605 196.776 310.112 196.776C310.709 196.776 311.253 196.923 311.744 197.216C312.24 197.504 312.632 197.893 312.92 198.384C313.213 198.875 313.36 199.421 313.36 200.024ZM324.284 197H325.708L321.332 209H319.908L321.356 205L318.484 197H319.956L322.028 203.152L324.284 197ZM330.261 205.208C329.525 205.208 328.853 205.019 328.245 204.64C327.643 204.261 327.16 203.755 326.797 203.12C326.44 202.48 326.261 201.773 326.261 201C326.261 200.413 326.365 199.867 326.573 199.36C326.781 198.848 327.067 198.4 327.429 198.016C327.797 197.627 328.224 197.323 328.709 197.104C329.195 196.885 329.712 196.776 330.261 196.776C330.997 196.776 331.667 196.965 332.269 197.344C332.877 197.723 333.36 198.232 333.717 198.872C334.08 199.512 334.261 200.221 334.261 201C334.261 201.581 334.157 202.125 333.949 202.632C333.741 203.139 333.453 203.587 333.085 203.976C332.723 204.36 332.299 204.661 331.813 204.88C331.333 205.099 330.816 205.208 330.261 205.208ZM330.261 203.864C330.763 203.864 331.213 203.733 331.613 203.472C332.019 203.205 332.336 202.856 332.565 202.424C332.8 201.987 332.917 201.512 332.917 201C332.917 200.477 332.797 199.997 332.557 199.56C332.323 199.123 332.005 198.773 331.605 198.512C331.205 198.251 330.757 198.12 330.261 198.12C329.76 198.12 329.309 198.253 328.909 198.52C328.509 198.781 328.192 199.131 327.957 199.568C327.723 200.005 327.605 200.483 327.605 201C327.605 201.533 327.725 202.019 327.965 202.456C328.205 202.888 328.528 203.232 328.933 203.488C329.339 203.739 329.781 203.864 330.261 203.864ZM335.156 201.96V197H336.5V201.664C336.5 202.069 336.598 202.437 336.796 202.768C336.993 203.099 337.257 203.363 337.588 203.56C337.924 203.752 338.292 203.848 338.692 203.848C339.097 203.848 339.462 203.752 339.788 203.56C340.118 203.363 340.382 203.099 340.58 202.768C340.777 202.437 340.876 202.069 340.876 201.664V197H342.22L342.228 205H340.884L340.876 203.984C340.593 204.357 340.236 204.656 339.804 204.88C339.372 205.099 338.905 205.208 338.404 205.208C337.806 205.208 337.26 205.064 336.764 204.776C336.273 204.483 335.881 204.091 335.588 203.6C335.3 203.109 335.156 202.563 335.156 201.96ZM343.835 205V197H345.179V198C345.462 197.627 345.819 197.331 346.251 197.112C346.683 196.888 347.152 196.776 347.659 196.776C347.968 196.776 348.267 196.816 348.555 196.896L348.011 198.24C347.792 198.171 347.579 198.136 347.371 198.136C346.971 198.136 346.603 198.235 346.267 198.432C345.936 198.624 345.672 198.885 345.475 199.216C345.278 199.547 345.179 199.915 345.179 200.32V205H343.835ZM24.48 229.208C23.744 229.208 23.072 229.019 22.464 228.64C21.8613 228.261 21.3787 227.755 21.016 227.12C20.6587 226.48 20.48 225.773 20.48 225C20.48 224.413 20.584 223.867 20.792 223.36C21 222.848 21.2853 222.4 21.648 222.016C22.016 221.627 22.4427 221.323 22.928 221.104C23.4133 220.885 23.9307 220.776 24.48 220.776C25.0827 220.776 25.6347 220.899 26.136 221.144C26.6427 221.384 27.0747 221.72 27.432 222.152C27.7947 222.584 28.064 223.085 28.24 223.656C28.4213 224.227 28.488 224.837 28.44 225.488H21.912C21.976 225.941 22.1253 226.347 22.36 226.704C22.5947 227.056 22.8933 227.336 23.256 227.544C23.624 227.752 24.032 227.859 24.48 227.864C24.96 227.864 25.3947 227.741 25.784 227.496C26.1733 227.245 26.488 226.904 26.728 226.472L28.096 226.792C27.776 227.501 27.2933 228.083 26.648 228.536C26.0027 228.984 25.28 229.208 24.48 229.208ZM21.872 224.432H27.088C27.0453 223.984 26.9013 223.576 26.656 223.208C26.4107 222.835 26.0987 222.536 25.72 222.312C25.3413 222.088 24.928 221.976 24.48 221.976C24.032 221.976 23.6213 222.085 23.248 222.304C22.8747 222.523 22.5653 222.819 22.32 223.192C22.08 223.56 21.9307 223.973 21.872 224.432ZM29.7881 229V221H31.1321V222C31.4148 221.627 31.7695 221.331 32.1961 221.112C32.6281 220.888 33.0975 220.776 33.6041 220.776C34.1961 220.776 34.7375 220.92 35.2281 221.208C35.7188 221.496 36.1055 221.877 36.3881 222.352C36.6708 221.877 37.0548 221.496 37.5401 221.208C38.0308 220.92 38.5695 220.776 39.1561 220.776C39.7588 220.776 40.3055 220.923 40.7961 221.216C41.2868 221.504 41.6761 221.893 41.9641 222.384C42.2575 222.875 42.4041 223.421 42.4041 224.024V229H41.0601V224.344C41.0601 223.949 40.9641 223.584 40.7721 223.248C40.5801 222.912 40.3215 222.643 39.9961 222.44C39.6708 222.237 39.3108 222.136 38.9161 222.136C38.5215 222.136 38.1615 222.232 37.8361 222.424C37.5108 222.611 37.2521 222.872 37.0601 223.208C36.8681 223.539 36.7721 223.917 36.7721 224.344V229H35.4281V224.344C35.4281 223.917 35.3321 223.539 35.1401 223.208C34.9481 222.872 34.6868 222.611 34.3561 222.424C34.0308 222.232 33.6708 222.136 33.2761 222.136C32.8868 222.136 32.5268 222.237 32.1961 222.44C31.8708 222.643 31.6121 222.912 31.4201 223.248C31.2281 223.584 31.1321 223.949 31.1321 224.344V229H29.7881ZM50.2826 221H51.6266V229H50.2826L50.2266 227.648C49.976 228.112 49.6293 228.488 49.1866 228.776C48.7493 229.064 48.2266 229.208 47.6186 229.208C47.032 229.208 46.4826 229.099 45.9706 228.88C45.4586 228.656 45.0053 228.349 44.6106 227.96C44.2213 227.565 43.9173 227.112 43.6986 226.6C43.48 226.088 43.3706 225.536 43.3706 224.944C43.3706 224.373 43.4773 223.835 43.6906 223.328C43.904 222.821 44.2 222.379 44.5786 222C44.9626 221.616 45.4053 221.317 45.9066 221.104C46.408 220.885 46.9466 220.776 47.5226 220.776C48.152 220.776 48.704 220.925 49.1786 221.224C49.6533 221.517 50.0373 221.899 50.3306 222.368L50.2826 221ZM47.5946 227.904C48.1226 227.904 48.5786 227.776 48.9626 227.52C49.352 227.259 49.6506 226.907 49.8586 226.464C50.072 226.021 50.1786 225.533 50.1786 225C50.1786 224.456 50.072 223.965 49.8586 223.528C49.6453 223.085 49.344 222.736 48.9546 222.48C48.5706 222.219 48.1173 222.088 47.5946 222.088C47.0666 222.088 46.5866 222.219 46.1546 222.48C45.7226 222.741 45.3786 223.093 45.1226 223.536C44.872 223.973 44.7466 224.461 44.7466 225C44.7466 225.539 44.8773 226.029 45.1386 226.472C45.4 226.909 45.7466 227.259 46.1786 227.52C46.6106 227.776 47.0826 227.904 47.5946 227.904ZM53.2256 221H54.5696V229H53.2256V221ZM53.9136 219.696C53.7003 219.696 53.5216 219.627 53.3776 219.488C53.2336 219.349 53.1616 219.176 53.1616 218.968C53.1616 218.76 53.2336 218.587 53.3776 218.448C53.5216 218.309 53.6976 218.24 53.9056 218.24C54.1136 218.24 54.2896 218.309 54.4336 218.448C54.5776 218.587 54.6496 218.76 54.6496 218.968C54.6496 219.176 54.5776 219.349 54.4336 219.488C54.295 219.627 54.1216 219.696 53.9136 219.696ZM56.5381 229V217H57.8821V229H56.5381ZM70.0795 221H71.4235V229H70.0795L70.0235 227.648C69.7728 228.112 69.4262 228.488 68.9835 228.776C68.5462 229.064 68.0235 229.208 67.4155 229.208C66.8288 229.208 66.2795 229.099 65.7675 228.88C65.2555 228.656 64.8022 228.349 64.4075 227.96C64.0182 227.565 63.7142 227.112 63.4955 226.6C63.2768 226.088 63.1675 225.536 63.1675 224.944C63.1675 224.373 63.2742 223.835 63.4875 223.328C63.7008 222.821 63.9968 222.379 64.3755 222C64.7595 221.616 65.2022 221.317 65.7035 221.104C66.2048 220.885 66.7435 220.776 67.3195 220.776C67.9488 220.776 68.5008 220.925 68.9755 221.224C69.4502 221.517 69.8342 221.899 70.1275 222.368L70.0795 221ZM67.3915 227.904C67.9195 227.904 68.3755 227.776 68.7595 227.52C69.1488 227.259 69.4475 226.907 69.6555 226.464C69.8688 226.021 69.9755 225.533 69.9755 225C69.9755 224.456 69.8688 223.965 69.6555 223.528C69.4422 223.085 69.1408 222.736 68.7515 222.48C68.3675 222.219 67.9142 222.088 67.3915 222.088C66.8635 222.088 66.3835 222.219 65.9515 222.48C65.5195 222.741 65.1755 223.093 64.9195 223.536C64.6688 223.973 64.5435 224.461 64.5435 225C64.5435 225.539 64.6742 226.029 64.9355 226.472C65.1968 226.909 65.5435 227.259 65.9755 227.52C66.4075 227.776 66.8795 227.904 67.3915 227.904ZM79.3063 217H80.6503V229H79.3063V227.64C79.0343 228.109 78.6689 228.488 78.2103 228.776C77.7516 229.064 77.2129 229.208 76.5943 229.208C76.0129 229.208 75.4689 229.099 74.9623 228.88C74.4556 228.661 74.0076 228.36 73.6183 227.976C73.2343 227.587 72.9329 227.139 72.7143 226.632C72.4956 226.125 72.3863 225.581 72.3863 225C72.3863 224.419 72.4956 223.875 72.7143 223.368C72.9329 222.856 73.2343 222.408 73.6183 222.024C74.0076 221.635 74.4556 221.331 74.9623 221.112C75.4689 220.893 76.0129 220.784 76.5943 220.784C77.2129 220.784 77.7516 220.928 78.2103 221.216C78.6689 221.504 79.0343 221.883 79.3063 222.352V217ZM76.6102 227.904C77.1383 227.904 77.5943 227.776 77.9783 227.52C78.3676 227.259 78.6663 226.907 78.8743 226.464C79.0876 226.021 79.1943 225.533 79.1943 225C79.1943 224.456 79.0876 223.965 78.8743 223.528C78.6609 223.085 78.3596 222.736 77.9703 222.48C77.5863 222.219 77.1329 222.088 76.6102 222.088C76.0823 222.088 75.6023 222.219 75.1703 222.48C74.7436 222.741 74.4023 223.093 74.1463 223.536C73.8903 223.973 73.7623 224.461 73.7623 225C73.7623 225.539 73.8929 226.029 74.1543 226.472C74.4156 226.909 74.7623 227.259 75.1943 227.52C75.6263 227.776 76.0983 227.904 76.6102 227.904ZM88.9313 217H90.2753V229H88.9313V227.64C88.6593 228.109 88.2939 228.488 87.8353 228.776C87.3766 229.064 86.8379 229.208 86.2193 229.208C85.6379 229.208 85.0939 229.099 84.5873 228.88C84.0806 228.661 83.6326 228.36 83.2433 227.976C82.8593 227.587 82.5579 227.139 82.3393 226.632C82.1206 226.125 82.0113 225.581 82.0113 225C82.0113 224.419 82.1206 223.875 82.3393 223.368C82.5579 222.856 82.8593 222.408 83.2433 222.024C83.6326 221.635 84.0806 221.331 84.5873 221.112C85.0939 220.893 85.6379 220.784 86.2193 220.784C86.8379 220.784 87.3766 220.928 87.8353 221.216C88.2939 221.504 88.6593 221.883 88.9313 222.352V217ZM86.2352 227.904C86.7633 227.904 87.2193 227.776 87.6033 227.52C87.9926 227.259 88.2913 226.907 88.4993 226.464C88.7126 226.021 88.8193 225.533 88.8193 225C88.8193 224.456 88.7126 223.965 88.4993 223.528C88.2859 223.085 87.9846 222.736 87.5953 222.48C87.2113 222.219 86.7579 222.088 86.2352 222.088C85.7073 222.088 85.2273 222.219 84.7953 222.48C84.3686 222.741 84.0273 223.093 83.7713 223.536C83.5153 223.973 83.3873 224.461 83.3873 225C83.3873 225.539 83.5179 226.029 83.7793 226.472C84.0406 226.909 84.3873 227.259 84.8193 227.52C85.2513 227.776 85.7233 227.904 86.2352 227.904ZM92.1944 229V221H93.5384V222C93.821 221.627 94.1784 221.331 94.6104 221.112C95.0424 220.888 95.5117 220.776 96.0184 220.776C96.3277 220.776 96.6264 220.816 96.9144 220.896L96.3704 222.24C96.1517 222.171 95.9384 222.136 95.7304 222.136C95.3304 222.136 94.9624 222.235 94.6264 222.432C94.2957 222.624 94.0317 222.885 93.8344 223.216C93.637 223.547 93.5384 223.915 93.5384 224.32V229H92.1944ZM101.011 229.208C100.275 229.208 99.6033 229.019 98.9953 228.64C98.3926 228.261 97.9099 227.755 97.5473 227.12C97.1899 226.48 97.0113 225.773 97.0113 225C97.0113 224.413 97.1153 223.867 97.3233 223.36C97.5313 222.848 97.8166 222.4 98.1793 222.016C98.5473 221.627 98.9739 221.323 99.4593 221.104C99.9446 220.885 100.462 220.776 101.011 220.776C101.614 220.776 102.166 220.899 102.667 221.144C103.174 221.384 103.606 221.72 103.963 222.152C104.326 222.584 104.595 223.085 104.771 223.656C104.953 224.227 105.019 224.837 104.971 225.488H98.4433C98.5073 225.941 98.6566 226.347 98.8913 226.704C99.1259 227.056 99.4246 227.336 99.7873 227.544C100.155 227.752 100.563 227.859 101.011 227.864C101.491 227.864 101.926 227.741 102.315 227.496C102.705 227.245 103.019 226.904 103.259 226.472L104.627 226.792C104.307 227.501 103.825 228.083 103.179 228.536C102.534 228.984 101.811 229.208 101.011 229.208ZM98.4033 224.432H103.619C103.577 223.984 103.433 223.576 103.187 223.208C102.942 222.835 102.63 222.536 102.251 222.312C101.873 222.088 101.459 221.976 101.011 221.976C100.563 221.976 100.153 222.085 99.7793 222.304C99.4059 222.523 99.0966 222.819 98.8513 223.192C98.6113 223.56 98.4619 223.973 98.4033 224.432ZM108.791 229.152C108.359 229.136 107.937 229.056 107.527 228.912C107.121 228.763 106.764 228.563 106.455 228.312C106.151 228.056 105.929 227.763 105.791 227.432L106.943 226.936C107.023 227.117 107.167 227.288 107.375 227.448C107.583 227.608 107.823 227.736 108.095 227.832C108.367 227.928 108.641 227.976 108.919 227.976C109.212 227.976 109.487 227.931 109.743 227.84C109.999 227.749 110.207 227.616 110.367 227.44C110.532 227.259 110.615 227.043 110.615 226.792C110.615 226.525 110.524 226.317 110.343 226.168C110.167 226.013 109.943 225.893 109.671 225.808C109.404 225.717 109.132 225.632 108.855 225.552C108.305 225.413 107.815 225.248 107.383 225.056C106.951 224.859 106.609 224.611 106.359 224.312C106.113 224.008 105.991 223.621 105.991 223.152C105.991 222.656 106.127 222.227 106.399 221.864C106.676 221.501 107.039 221.221 107.487 221.024C107.935 220.827 108.415 220.728 108.927 220.728C109.572 220.728 110.161 220.867 110.695 221.144C111.228 221.421 111.625 221.797 111.887 222.272L110.807 222.904C110.716 222.712 110.577 222.544 110.391 222.4C110.204 222.251 109.991 222.133 109.751 222.048C109.511 221.963 109.265 221.917 109.015 221.912C108.705 221.901 108.415 221.941 108.143 222.032C107.876 222.123 107.66 222.261 107.495 222.448C107.335 222.629 107.255 222.856 107.255 223.128C107.255 223.395 107.34 223.597 107.511 223.736C107.687 223.875 107.913 223.987 108.191 224.072C108.473 224.152 108.78 224.245 109.111 224.352C109.596 224.507 110.049 224.685 110.471 224.888C110.892 225.091 111.231 225.344 111.487 225.648C111.748 225.952 111.876 226.328 111.871 226.776C111.871 227.267 111.724 227.696 111.431 228.064C111.137 228.427 110.756 228.704 110.287 228.896C109.823 229.088 109.324 229.173 108.791 229.152ZM115.681 229.152C115.249 229.136 114.828 229.056 114.417 228.912C114.012 228.763 113.655 228.563 113.345 228.312C113.041 228.056 112.82 227.763 112.681 227.432L113.833 226.936C113.913 227.117 114.057 227.288 114.265 227.448C114.473 227.608 114.713 227.736 114.985 227.832C115.257 227.928 115.532 227.976 115.809 227.976C116.103 227.976 116.377 227.931 116.633 227.84C116.889 227.749 117.097 227.616 117.257 227.44C117.423 227.259 117.505 227.043 117.505 226.792C117.505 226.525 117.415 226.317 117.233 226.168C117.057 226.013 116.833 225.893 116.561 225.808C116.295 225.717 116.023 225.632 115.745 225.552C115.196 225.413 114.705 225.248 114.273 225.056C113.841 224.859 113.5 224.611 113.249 224.312C113.004 224.008 112.881 223.621 112.881 223.152C112.881 222.656 113.017 222.227 113.289 221.864C113.567 221.501 113.929 221.221 114.377 221.024C114.825 220.827 115.305 220.728 115.817 220.728C116.463 220.728 117.052 220.867 117.585 221.144C118.119 221.421 118.516 221.797 118.777 222.272L117.697 222.904C117.607 222.712 117.468 222.544 117.281 222.4C117.095 222.251 116.881 222.133 116.641 222.048C116.401 221.963 116.156 221.917 115.905 221.912C115.596 221.901 115.305 221.941 115.033 222.032C114.767 222.123 114.551 222.261 114.385 222.448C114.225 222.629 114.145 222.856 114.145 223.128C114.145 223.395 114.231 223.597 114.401 223.736C114.577 223.875 114.804 223.987 115.081 224.072C115.364 224.152 115.671 224.245 116.001 224.352C116.487 224.507 116.94 224.685 117.361 224.888C117.783 225.091 118.121 225.344 118.377 225.648C118.639 225.952 118.767 226.328 118.761 226.776C118.761 227.267 118.615 227.696 118.321 228.064C118.028 228.427 117.647 228.704 117.177 228.896C116.713 229.088 116.215 229.173 115.681 229.152ZM120.493 229.208C120.29 229.208 120.117 229.136 119.973 228.992C119.834 228.848 119.765 228.672 119.765 228.464C119.765 228.267 119.834 228.096 119.973 227.952C120.117 227.808 120.29 227.736 120.493 227.736C120.701 227.736 120.877 227.808 121.021 227.952C121.165 228.096 121.237 228.267 121.237 228.464C121.237 228.672 121.165 228.848 121.021 228.992C120.877 229.136 120.701 229.208 120.493 229.208Z" fill="#838BA1"/>
<path opacity="0.35" d="M351.5 20C351.5 18.8034 352.47 17.8334 353.667 17.8334H370.333C371.53 17.8334 372.5 18.8034 372.5 20V26C372.5 27.1967 371.53 28.1667 370.333 28.1667H353.667C352.47 28.1667 351.5 27.1967 351.5 26V20Z" stroke="black"/>
<path opacity="0.4" d="M374 21.0001V25.0001C374.805 24.6613 375.328 23.8732 375.328 23.0001C375.328 22.1269 374.805 21.3388 374 21.0001Z" fill="black"/>
<path d="M353 20.6667C353 19.9303 353.597 19.3334 354.333 19.3334H369.667C370.403 19.3334 371 19.9303 371 20.6667V25.3334C371 26.0698 370.403 26.6667 369.667 26.6667H354.333C353.597 26.6667 353 26.0698 353 25.3334V20.6667Z" fill="black"/>
<path fill-rule="evenodd" clip-rule="evenodd" d="M338.33 19.608C340.546 19.6081 342.677 20.4596 344.283 21.9863C344.404 22.1042 344.598 22.1027 344.717 21.983L345.873 20.8163C345.933 20.7556 345.967 20.6734 345.966 20.5878C345.966 20.5022 345.931 20.4204 345.87 20.3603C341.655 16.3208 335.005 16.3208 330.79 20.3603C330.729 20.4203 330.694 20.5021 330.694 20.5877C330.693 20.6733 330.727 20.7556 330.787 20.8163L331.943 21.983C332.062 22.1029 332.256 22.1044 332.377 21.9863C333.983 20.4595 336.114 19.608 338.33 19.608ZM338.33 23.4037C339.548 23.4036 340.722 23.8561 341.624 24.6733C341.746 24.7893 341.939 24.7868 342.058 24.6677L343.212 23.501C343.273 23.4398 343.307 23.3568 343.306 23.2705C343.305 23.1843 343.27 23.102 343.208 23.042C340.459 20.4856 336.204 20.4856 333.455 23.042C333.393 23.102 333.358 23.1843 333.357 23.2706C333.356 23.3569 333.39 23.4399 333.451 23.501L334.605 24.6677C334.724 24.7868 334.917 24.7893 335.039 24.6733C335.941 23.8567 337.114 23.4042 338.33 23.4037ZM340.643 25.9575C340.645 26.044 340.611 26.1274 340.549 26.188L338.552 28.2037C338.493 28.2629 338.414 28.2963 338.33 28.2963C338.247 28.2963 338.167 28.2629 338.109 28.2037L336.111 26.188C336.049 26.1274 336.015 26.0439 336.017 25.9574C336.019 25.8709 336.056 25.789 336.121 25.731C337.396 24.6521 339.264 24.6521 340.54 25.731C340.604 25.7891 340.642 25.871 340.643 25.9575Z" fill="black"/>
<path fill-rule="evenodd" clip-rule="evenodd" d="M324.667 17.6666H323.667C323.114 17.6666 322.667 18.1143 322.667 18.6666V27.3333C322.667 27.8856 323.114 28.3333 323.667 28.3333H324.667C325.219 28.3333 325.667 27.8856 325.667 27.3333V18.6666C325.667 18.1143 325.219 17.6666 324.667 17.6666ZM319 20H320C320.552 20 321 20.4477 321 21V27.3333C321 27.8856 320.552 28.3333 320 28.3333H319C318.448 28.3333 318 27.8856 318 27.3333V21C318 20.4477 318.448 20 319 20ZM315.333 22.3333H314.333C313.781 22.3333 313.333 22.781 313.333 23.3333V27.3333C313.333 27.8856 313.781 28.3333 314.333 28.3333H315.333C315.886 28.3333 316.333 27.8856 316.333 27.3333V23.3333C316.333 22.781 315.886 22.3333 315.333 22.3333ZM310.667 24.3333H309.667C309.114 24.3333 308.667 24.781 308.667 25.3333V27.3333C308.667 27.8856 309.114 28.3333 309.667 28.3333H310.667C311.219 28.3333 311.667 27.8856 311.667 27.3333V25.3333C311.667 24.781 311.219 24.3333 310.667 24.3333Z" fill="black"/>
<path d="M36.3207 28.2563C39.0087 28.2563 40.6053 26.1543 40.6053 22.5947C40.6053 21.2544 40.349 20.1265 39.8583 19.2549C39.1478 17.8999 37.9247 17.1675 36.3793 17.1675C34.0795 17.1675 32.4535 18.7129 32.4535 20.8809C32.4535 22.917 33.9183 24.3965 35.9325 24.3965C37.1703 24.3965 38.1737 23.8179 38.6718 22.8145H38.6937C38.6937 22.8145 38.723 22.8145 38.7303 22.8145C38.745 22.8145 38.7963 22.8145 38.7963 22.8145C38.7963 25.2314 37.8807 26.6743 36.3353 26.6743C35.4271 26.6743 34.724 26.1763 34.4823 25.3779H32.6C32.9149 27.1138 34.3871 28.2563 36.3207 28.2563ZM36.3866 22.895C35.1708 22.895 34.3065 22.0308 34.3065 20.8223C34.3065 19.6431 35.2147 18.7422 36.3939 18.7422C37.5731 18.7422 38.4813 19.6577 38.4813 20.8516C38.4813 22.0308 37.5951 22.895 36.3866 22.895Z" fill="black"/>
<path d="M43.6965 28.1538C44.3923 28.1538 44.8683 27.6558 44.8683 26.9966C44.8683 26.3301 44.3923 25.8394 43.6965 25.8394C43.008 25.8394 42.5246 26.3301 42.5246 26.9966C42.5246 27.6558 43.008 28.1538 43.6965 28.1538ZM43.6965 22.6606C44.3923 22.6606 44.8683 22.1699 44.8683 21.5107C44.8683 20.8442 44.3923 20.3535 43.6965 20.3535C43.008 20.3535 42.5246 20.8442 42.5246 21.5107C42.5246 22.1699 43.008 22.6606 43.6965 22.6606Z" fill="black"/>
<path d="M51.7241 28H53.5332V26.0298H54.9614V24.4331H53.5332V17.4312H50.8672C48.9995 20.2437 47.5127 22.5947 46.5605 24.3452V26.0298H51.7241V28ZM48.311 24.3672C49.5415 22.1992 50.6401 20.4634 51.6509 18.9692H51.7534V24.4771H48.311V24.3672Z" fill="black"/>
<path d="M58.99 28H60.8797V17.4312H58.9973L56.2361 19.3647V21.1812L58.8655 19.3354H58.99V28Z" fill="black"/>
<rect x="36.5" y="71.5" width="40" height="40" rx="11.5" fill="white" stroke="#E8ECF4"/>
<path d="M59.1575 84.3671C59.0656 84.2749 58.9564 84.2018 58.8362 84.1519C58.7159 84.102 58.587 84.0764 58.4569 84.0764C58.3267 84.0764 58.1978 84.102 58.0776 84.1519C57.9574 84.2018 57.8482 84.2749 57.7563 84.3671L51.1775 90.9458C51.1041 91.0191 51.0459 91.1061 51.0062 91.2018C50.9664 91.2976 50.946 91.4003 50.946 91.504C50.946 91.6076 50.9664 91.7103 51.0062 91.8061C51.0459 91.9018 51.1041 91.9888 51.1775 92.0621L57.7563 98.6408C58.1442 99.0287 58.7696 99.0287 59.1575 98.6408C59.5454 98.2529 59.5454 97.6275 59.1575 97.2396L53.4258 91.5L59.1654 85.7604C59.5454 85.3804 59.5454 84.7471 59.1575 84.3671Z" fill="#1E232C" stroke="#1E232C" stroke-width="0.2"/>
<rect x="284.372" y="292.5" width="68.1278" height="59" rx="7.5" fill="#F7F8F9" stroke="#E8ECF4"/>
<rect x="197.415" y="292.5" width="68.1278" height="59" rx="7.5" fill="white" stroke="#35C2C1"/>
<path d="M232.209 330.286C231.314 330.286 230.5 330.081 229.767 329.67C229.033 329.252 228.399 328.676 227.864 327.943C227.336 327.21 226.929 326.363 226.643 325.402C226.357 324.434 226.214 323.4 226.214 322.3C226.214 321.2 226.357 320.17 226.643 319.209C226.929 318.241 227.336 317.39 227.864 316.657C228.399 315.924 229.033 315.352 229.767 314.941C230.5 314.523 231.314 314.314 232.209 314.314C233.103 314.314 233.917 314.523 234.651 314.941C235.384 315.352 236.011 315.924 236.532 316.657C237.06 317.39 237.467 318.241 237.753 319.209C238.046 320.17 238.193 321.2 238.193 322.3C238.193 323.4 238.046 324.434 237.753 325.402C237.467 326.363 237.06 327.21 236.532 327.943C236.011 328.676 235.384 329.252 234.651 329.67C233.917 330.081 233.103 330.286 232.209 330.286ZM232.209 327.602C232.993 327.602 233.642 327.353 234.156 326.854C234.669 326.355 235.05 325.703 235.3 324.896C235.549 324.089 235.674 323.224 235.674 322.3C235.674 321.325 235.542 320.437 235.278 319.638C235.014 318.831 234.625 318.19 234.112 317.713C233.598 317.236 232.964 316.998 232.209 316.998C231.615 316.998 231.098 317.145 230.658 317.438C230.225 317.724 229.866 318.116 229.58 318.615C229.294 319.114 229.081 319.682 228.942 320.32C228.802 320.951 228.733 321.611 228.733 322.3C228.733 323.217 228.857 324.082 229.107 324.896C229.363 325.703 229.748 326.355 230.262 326.854C230.782 327.353 231.431 327.602 232.209 327.602Z" fill="#1E232C"/>
<rect x="23.6" y="292.6" width="67.9278" height="58.8" rx="7.4" fill="white" stroke="#35C2C1" stroke-width="1.2"/>
<path d="M57.6887 330.286C56.6987 330.286 55.804 330.048 55.0047 329.571C54.2053 329.087 53.571 328.445 53.1017 327.646C52.6397 326.847 52.4087 325.97 52.4087 325.017H55.0927C55.0927 325.494 55.21 325.93 55.4447 326.326C55.6793 326.715 55.991 327.026 56.3797 327.261C56.7757 327.488 57.212 327.602 57.6887 327.602C58.1653 327.602 58.598 327.488 58.9867 327.261C59.3753 327.026 59.687 326.715 59.9217 326.326C60.1563 325.93 60.2737 325.494 60.2737 325.017C60.2737 324.54 60.171 324.104 59.9657 323.708C59.7677 323.305 59.4413 322.986 58.9867 322.751C58.5393 322.509 57.9453 322.388 57.2047 322.388H53.2447L54.8727 314.6H62.4407V317.284H57.0507L56.5557 319.704L57.6447 319.715C58.686 319.752 59.6063 320.005 60.4057 320.474C61.205 320.943 61.8283 321.574 62.2757 322.366C62.7303 323.151 62.9577 324.034 62.9577 325.017C62.9577 325.736 62.822 326.414 62.5507 327.052C62.2793 327.69 61.9017 328.251 61.4177 328.735C60.9337 329.219 60.3727 329.6 59.7347 329.879C59.104 330.15 58.422 330.286 57.6887 330.286Z" fill="#1E232C"/>
<rect x="110.767" y="292.6" width="67.9278" height="58.8" rx="7.4" fill="white" stroke="#35C2C1" stroke-width="1.2"/>
<path d="M143.597 330V317.284H141.661L142.387 314.6H146.281V330H143.597Z" fill="#1E232C"/>
<rect x="23" y="382" width="330" height="56" rx="8" fill="#1E232C"/>
<path d="M172.803 415L168.993 404.5H170.643L173.778 413.147L176.928 404.5H178.578L174.768 415H172.803ZM182.204 415.195C181.514 415.195 180.884 415.017 180.314 414.662C179.749 414.307 179.297 413.832 178.957 413.237C178.622 412.637 178.454 411.975 178.454 411.25C178.454 410.7 178.552 410.187 178.747 409.712C178.942 409.232 179.209 408.812 179.549 408.452C179.894 408.087 180.294 407.802 180.749 407.597C181.204 407.392 181.689 407.29 182.204 407.29C182.779 407.29 183.307 407.41 183.787 407.65C184.267 407.885 184.677 408.212 185.017 408.632C185.357 409.047 185.607 409.527 185.767 410.072C185.927 410.612 185.974 411.187 185.909 411.797H180.127C180.192 412.142 180.317 412.455 180.502 412.735C180.692 413.01 180.932 413.227 181.222 413.387C181.517 413.547 181.844 413.63 182.204 413.635C182.584 413.635 182.929 413.54 183.239 413.35C183.554 413.16 183.812 412.897 184.012 412.562L185.594 412.93C185.294 413.595 184.842 414.14 184.237 414.565C183.632 414.985 182.954 415.195 182.204 415.195ZM180.074 410.605H184.334C184.284 410.245 184.157 409.92 183.952 409.63C183.752 409.335 183.499 409.102 183.194 408.932C182.894 408.757 182.564 408.67 182.204 408.67C181.849 408.67 181.519 408.755 181.214 408.925C180.914 409.095 180.664 409.327 180.464 409.622C180.269 409.912 180.139 410.24 180.074 410.605ZM187.151 415V407.5H188.711V408.295C188.971 407.985 189.291 407.74 189.671 407.56C190.051 407.38 190.461 407.29 190.901 407.29C191.181 407.29 191.459 407.327 191.734 407.402L191.111 408.977C190.916 408.902 190.721 408.865 190.526 408.865C190.196 408.865 189.894 408.947 189.619 409.112C189.344 409.272 189.124 409.49 188.959 409.765C188.794 410.04 188.711 410.345 188.711 410.68V415H187.151ZM192.601 407.5H194.161V415H192.601V407.5ZM193.396 406.412C193.156 406.412 192.956 406.335 192.796 406.18C192.636 406.025 192.556 405.83 192.556 405.595C192.556 405.365 192.636 405.172 192.796 405.017C192.956 404.857 193.153 404.777 193.388 404.777C193.618 404.777 193.813 404.857 193.973 405.017C194.133 405.172 194.213 405.365 194.213 405.595C194.213 405.83 194.133 406.025 193.973 406.18C193.818 406.335 193.626 406.412 193.396 406.412ZM197.883 405.797V407.5H199.998V409.06H197.883V415H196.323V409.06H195.43V407.5H196.323V405.797C196.323 405.387 196.423 405.015 196.623 404.68C196.823 404.34 197.09 404.07 197.425 403.87C197.765 403.67 198.143 403.57 198.558 403.57C198.858 403.57 199.15 403.63 199.435 403.75C199.72 403.87 199.975 404.055 200.2 404.305L199.083 405.407C199.028 405.317 198.95 405.25 198.85 405.205C198.755 405.155 198.658 405.13 198.558 405.13C198.373 405.13 198.213 405.195 198.078 405.325C197.948 405.455 197.883 405.612 197.883 405.797ZM206.264 407.5H207.929L203.819 418.75H202.161L203.519 415L200.826 407.5H202.529L204.299 412.862L206.264 407.5Z" fill="white"/>
<path d="M89.2212 777V766.5H92.6937C93.4187 766.5 94.0987 766.637 94.7337 766.912C95.3687 767.182 95.9262 767.56 96.4062 768.045C96.8862 768.525 97.2612 769.082 97.5312 769.717C97.8062 770.347 97.9437 771.025 97.9437 771.75C97.9437 772.475 97.8062 773.155 97.5312 773.79C97.2612 774.42 96.8862 774.977 96.4062 775.462C95.9262 775.942 95.3687 776.32 94.7337 776.595C94.0987 776.865 93.4187 777 92.6937 777H89.2212ZM90.4812 775.74H92.6937C93.2437 775.74 93.7587 775.637 94.2387 775.432C94.7237 775.222 95.1487 774.935 95.5137 774.57C95.8787 774.205 96.1637 773.782 96.3687 773.302C96.5787 772.817 96.6837 772.3 96.6837 771.75C96.6837 771.2 96.5787 770.685 96.3687 770.205C96.1637 769.72 95.8762 769.295 95.5062 768.93C95.1412 768.565 94.7187 768.28 94.2387 768.075C93.7587 767.865 93.2437 767.76 92.6937 767.76H90.4812V775.74ZM99.3761 769.5H100.636V777H99.3761V769.5ZM100.021 768.277C99.8211 768.277 99.6536 768.212 99.5186 768.082C99.3836 767.952 99.3161 767.79 99.3161 767.595C99.3161 767.4 99.3836 767.237 99.5186 767.107C99.6536 766.977 99.8186 766.912 100.014 766.912C100.209 766.912 100.374 766.977 100.509 767.107C100.644 767.237 100.711 767.4 100.711 767.595C100.711 767.79 100.644 767.952 100.509 768.082C100.379 768.212 100.216 768.277 100.021 768.277ZM108.523 765.75H109.783V777H108.523V775.725C108.268 776.165 107.925 776.52 107.495 776.79C107.065 777.06 106.56 777.195 105.98 777.195C105.435 777.195 104.925 777.093 104.45 776.887C103.975 776.682 103.555 776.4 103.19 776.04C102.83 775.675 102.548 775.255 102.343 774.78C102.138 774.305 102.035 773.795 102.035 773.25C102.035 772.705 102.138 772.195 102.343 771.72C102.548 771.24 102.83 770.82 103.19 770.46C103.555 770.095 103.975 769.81 104.45 769.605C104.925 769.4 105.435 769.297 105.98 769.297C106.56 769.297 107.065 769.432 107.495 769.702C107.925 769.972 108.268 770.327 108.523 770.767V765.75ZM105.995 775.972C106.49 775.972 106.918 775.852 107.278 775.612C107.643 775.367 107.923 775.037 108.118 774.622C108.318 774.207 108.418 773.75 108.418 773.25C108.418 772.74 108.318 772.28 108.118 771.87C107.918 771.455 107.635 771.127 107.27 770.887C106.91 770.642 106.485 770.52 105.995 770.52C105.5 770.52 105.05 770.642 104.645 770.887C104.245 771.132 103.925 771.462 103.685 771.877C103.445 772.287 103.325 772.745 103.325 773.25C103.325 773.755 103.448 774.215 103.693 774.63C103.938 775.04 104.263 775.367 104.668 775.612C105.073 775.852 105.515 775.972 105.995 775.972ZM118.362 772.335V777H117.102V772.612C117.102 772.232 117.009 771.887 116.824 771.577C116.639 771.267 116.392 771.022 116.082 770.842C115.772 770.657 115.427 770.565 115.047 770.565C114.672 770.565 114.327 770.657 114.012 770.842C113.702 771.022 113.454 771.267 113.269 771.577C113.084 771.887 112.992 772.232 112.992 772.612V777H111.732V769.5H112.992V770.437C113.257 770.087 113.592 769.81 113.997 769.605C114.402 769.395 114.842 769.29 115.317 769.29C115.877 769.29 116.387 769.427 116.847 769.702C117.312 769.972 117.679 770.337 117.949 770.797C118.224 771.257 118.362 771.77 118.362 772.335ZM119.529 770.415L119.994 766.5H121.254L120.369 770.415H119.529ZM126.639 770.76H124.937L124.929 777H123.669L123.677 770.76H122.387V769.5H123.677L123.669 767.145H124.929L124.937 769.5H126.639V770.76ZM131.887 777V769.5H133.147V770.437C133.412 770.087 133.747 769.81 134.152 769.605C134.557 769.395 134.997 769.29 135.472 769.29C135.762 769.29 136.042 769.327 136.312 769.402L135.802 770.662C135.597 770.597 135.397 770.565 135.202 770.565C134.827 770.565 134.482 770.657 134.167 770.842C133.857 771.022 133.61 771.267 133.425 771.577C133.24 771.887 133.147 772.232 133.147 772.612V777H131.887ZM140.303 777.195C139.613 777.195 138.983 777.017 138.413 776.662C137.848 776.307 137.396 775.832 137.056 775.237C136.721 774.637 136.553 773.975 136.553 773.25C136.553 772.7 136.651 772.187 136.846 771.712C137.041 771.232 137.308 770.812 137.648 770.452C137.993 770.087 138.393 769.802 138.848 769.597C139.303 769.392 139.788 769.29 140.303 769.29C140.868 769.29 141.386 769.405 141.856 769.635C142.331 769.86 142.736 770.175 143.071 770.58C143.411 770.985 143.663 771.455 143.828 771.99C143.998 772.525 144.061 773.097 144.016 773.707H137.896C137.956 774.132 138.096 774.512 138.316 774.847C138.536 775.177 138.816 775.44 139.156 775.635C139.501 775.83 139.883 775.93 140.303 775.935C140.753 775.935 141.161 775.82 141.526 775.59C141.891 775.355 142.186 775.035 142.411 774.63L143.693 774.93C143.393 775.595 142.941 776.14 142.336 776.565C141.731 776.985 141.053 777.195 140.303 777.195ZM137.858 772.717H142.748C142.708 772.297 142.573 771.915 142.343 771.57C142.113 771.22 141.821 770.94 141.466 770.73C141.111 770.52 140.723 770.415 140.303 770.415C139.883 770.415 139.498 770.517 139.148 770.722C138.798 770.927 138.508 771.205 138.278 771.555C138.053 771.9 137.913 772.287 137.858 772.717ZM150.553 775.02L151.678 775.627C151.338 776.102 150.906 776.482 150.381 776.767C149.861 777.052 149.296 777.195 148.686 777.195C147.996 777.195 147.366 777.017 146.796 776.662C146.231 776.307 145.778 775.832 145.438 775.237C145.103 774.637 144.936 773.975 144.936 773.25C144.936 772.7 145.033 772.187 145.228 771.712C145.423 771.232 145.691 770.812 146.031 770.452C146.376 770.087 146.776 769.802 147.231 769.597C147.686 769.392 148.171 769.29 148.686 769.29C149.296 769.29 149.861 769.432 150.381 769.717C150.906 770.002 151.338 770.385 151.678 770.865L150.553 771.472C150.313 771.177 150.028 770.95 149.698 770.79C149.368 770.63 149.031 770.55 148.686 770.55C148.221 770.55 147.798 770.675 147.418 770.925C147.043 771.17 146.746 771.497 146.526 771.907C146.306 772.317 146.196 772.765 146.196 773.25C146.196 773.735 146.306 774.182 146.526 774.592C146.751 774.997 147.051 775.322 147.426 775.567C147.806 775.812 148.226 775.935 148.686 775.935C149.056 775.935 149.403 775.85 149.728 775.68C150.053 775.51 150.328 775.29 150.553 775.02ZM156.35 777.195C155.66 777.195 155.03 777.017 154.46 776.662C153.895 776.307 153.443 775.832 153.103 775.237C152.768 774.637 152.6 773.975 152.6 773.25C152.6 772.7 152.698 772.187 152.893 771.712C153.088 771.232 153.355 770.812 153.695 770.452C154.04 770.087 154.44 769.802 154.895 769.597C155.35 769.392 155.835 769.29 156.35 769.29C156.915 769.29 157.433 769.405 157.903 769.635C158.378 769.86 158.783 770.175 159.118 770.58C159.458 770.985 159.71 771.455 159.875 771.99C160.045 772.525 160.108 773.097 160.063 773.707H153.943C154.003 774.132 154.143 774.512 154.363 774.847C154.583 775.177 154.863 775.44 155.203 775.635C155.548 775.83 155.93 775.93 156.35 775.935C156.8 775.935 157.208 775.82 157.573 775.59C157.938 775.355 158.233 775.035 158.458 774.63L159.74 774.93C159.44 775.595 158.988 776.14 158.383 776.565C157.778 776.985 157.1 777.195 156.35 777.195ZM153.905 772.717H158.795C158.755 772.297 158.62 771.915 158.39 771.57C158.16 771.22 157.868 770.94 157.513 770.73C157.158 770.52 156.77 770.415 156.35 770.415C155.93 770.415 155.545 770.517 155.195 770.722C154.845 770.927 154.555 771.205 154.325 771.555C154.1 771.9 153.96 772.287 153.905 772.717ZM161.374 769.5H162.634V777H161.374V769.5ZM162.019 768.277C161.819 768.277 161.652 768.212 161.517 768.082C161.382 767.952 161.314 767.79 161.314 767.595C161.314 767.4 161.382 767.237 161.517 767.107C161.652 766.977 161.817 766.912 162.012 766.912C162.207 766.912 162.372 766.977 162.507 767.107C162.642 767.237 162.709 767.4 162.709 767.595C162.709 767.79 162.642 767.952 162.507 768.082C162.377 768.212 162.214 768.277 162.019 768.277ZM168.354 777H166.741L164.004 769.485H165.346L167.544 775.537L169.741 769.485H171.084L168.354 777ZM175.462 777.195C174.772 777.195 174.142 777.017 173.572 776.662C173.007 776.307 172.555 775.832 172.215 775.237C171.88 774.637 171.712 773.975 171.712 773.25C171.712 772.7 171.81 772.187 172.005 771.712C172.2 771.232 172.467 770.812 172.807 770.452C173.152 770.087 173.552 769.802 174.007 769.597C174.462 769.392 174.947 769.29 175.462 769.29C176.027 769.29 176.545 769.405 177.015 769.635C177.49 769.86 177.895 770.175 178.23 770.58C178.57 770.985 178.822 771.455 178.987 771.99C179.157 772.525 179.22 773.097 179.175 773.707H173.055C173.115 774.132 173.255 774.512 173.475 774.847C173.695 775.177 173.975 775.44 174.315 775.635C174.66 775.83 175.042 775.93 175.462 775.935C175.912 775.935 176.32 775.82 176.685 775.59C177.05 775.355 177.345 775.035 177.57 774.63L178.852 774.93C178.552 775.595 178.1 776.14 177.495 776.565C176.89 776.985 176.212 777.195 175.462 777.195ZM173.017 772.717H177.907C177.867 772.297 177.732 771.915 177.502 771.57C177.272 771.22 176.98 770.94 176.625 770.73C176.27 770.52 175.882 770.415 175.462 770.415C175.042 770.415 174.657 770.517 174.307 770.722C173.957 770.927 173.667 771.205 173.437 771.555C173.212 771.9 173.072 772.287 173.017 772.717ZM186.582 765.75H187.842V777H186.582V775.725C186.327 776.165 185.985 776.52 185.555 776.79C185.125 777.06 184.62 777.195 184.04 777.195C183.495 777.195 182.985 777.093 182.51 776.887C182.035 776.682 181.615 776.4 181.25 776.04C180.89 775.675 180.607 775.255 180.402 774.78C180.197 774.305 180.095 773.795 180.095 773.25C180.095 772.705 180.197 772.195 180.402 771.72C180.607 771.24 180.89 770.82 181.25 770.46C181.615 770.095 182.035 769.81 182.51 769.605C182.985 769.4 183.495 769.297 184.04 769.297C184.62 769.297 185.125 769.432 185.555 769.702C185.985 769.972 186.327 770.327 186.582 770.767V765.75ZM184.055 775.972C184.55 775.972 184.977 775.852 185.337 775.612C185.702 775.367 185.982 775.037 186.177 774.622C186.377 774.207 186.477 773.75 186.477 773.25C186.477 772.74 186.377 772.28 186.177 771.87C185.977 771.455 185.695 771.127 185.33 770.887C184.97 770.642 184.545 770.52 184.055 770.52C183.56 770.52 183.11 770.642 182.705 770.887C182.305 771.132 181.985 771.462 181.745 771.877C181.505 772.287 181.385 772.745 181.385 773.25C181.385 773.755 181.507 774.215 181.752 774.63C181.997 775.04 182.322 775.367 182.727 775.612C183.132 775.852 183.575 775.972 184.055 775.972ZM198.713 775.02L199.838 775.627C199.498 776.102 199.065 776.482 198.54 776.767C198.02 777.052 197.455 777.195 196.845 777.195C196.155 777.195 195.525 777.017 194.955 776.662C194.39 776.307 193.938 775.832 193.598 775.237C193.263 774.637 193.095 773.975 193.095 773.25C193.095 772.7 193.193 772.187 193.388 771.712C193.583 771.232 193.85 770.812 194.19 770.452C194.535 770.087 194.935 769.802 195.39 769.597C195.845 769.392 196.33 769.29 196.845 769.29C197.455 769.29 198.02 769.432 198.54 769.717C199.065 770.002 199.498 770.385 199.838 770.865L198.713 771.472C198.473 771.177 198.188 770.95 197.858 770.79C197.528 770.63 197.19 770.55 196.845 770.55C196.38 770.55 195.958 770.675 195.578 770.925C195.203 771.17 194.905 771.497 194.685 771.907C194.465 772.317 194.355 772.765 194.355 773.25C194.355 773.735 194.465 774.182 194.685 774.592C194.91 774.997 195.21 775.322 195.585 775.567C195.965 775.812 196.385 775.935 196.845 775.935C197.215 775.935 197.563 775.85 197.888 775.68C198.213 775.51 198.488 775.29 198.713 775.02ZM204.51 777.195C203.82 777.195 203.19 777.017 202.62 776.662C202.055 776.307 201.602 775.832 201.262 775.237C200.927 774.637 200.76 773.975 200.76 773.25C200.76 772.7 200.857 772.187 201.052 771.712C201.247 771.232 201.515 770.812 201.855 770.452C202.2 770.087 202.6 769.802 203.055 769.597C203.51 769.392 203.995 769.29 204.51 769.29C205.2 769.29 205.827 769.467 206.392 769.822C206.962 770.177 207.415 770.655 207.75 771.255C208.09 771.855 208.26 772.52 208.26 773.25C208.26 773.795 208.162 774.305 207.967 774.78C207.772 775.255 207.502 775.675 207.157 776.04C206.817 776.4 206.42 776.682 205.965 776.887C205.515 777.093 205.03 777.195 204.51 777.195ZM204.51 775.935C204.98 775.935 205.402 775.812 205.777 775.567C206.157 775.317 206.455 774.99 206.67 774.585C206.89 774.175 207 773.73 207 773.25C207 772.76 206.887 772.31 206.662 771.9C206.442 771.49 206.145 771.162 205.77 770.917C205.395 770.672 204.975 770.55 204.51 770.55C204.04 770.55 203.617 770.675 203.242 770.925C202.867 771.17 202.57 771.497 202.35 771.907C202.13 772.317 202.02 772.765 202.02 773.25C202.02 773.75 202.132 774.205 202.357 774.615C202.582 775.02 202.885 775.342 203.265 775.582C203.645 775.817 204.06 775.935 204.51 775.935ZM215.644 765.75H216.904V777H215.644V775.725C215.389 776.165 215.047 776.52 214.617 776.79C214.187 777.06 213.682 777.195 213.102 777.195C212.557 777.195 212.047 777.093 211.572 776.887C211.097 776.682 210.677 776.4 210.312 776.04C209.952 775.675 209.669 775.255 209.464 774.78C209.259 774.305 209.157 773.795 209.157 773.25C209.157 772.705 209.259 772.195 209.464 771.72C209.669 771.24 209.952 770.82 210.312 770.46C210.677 770.095 211.097 769.81 211.572 769.605C212.047 769.4 212.557 769.297 213.102 769.297C213.682 769.297 214.187 769.432 214.617 769.702C215.047 769.972 215.389 770.327 215.644 770.767V765.75ZM213.117 775.972C213.612 775.972 214.039 775.852 214.399 775.612C214.764 775.367 215.044 775.037 215.239 774.622C215.439 774.207 215.539 773.75 215.539 773.25C215.539 772.74 215.439 772.28 215.239 771.87C215.039 771.455 214.757 771.127 214.392 770.887C214.032 770.642 213.607 770.52 213.117 770.52C212.622 770.52 212.172 770.642 211.767 770.887C211.367 771.132 211.047 771.462 210.807 771.877C210.567 772.287 210.447 772.745 210.447 773.25C210.447 773.755 210.569 774.215 210.814 774.63C211.059 775.04 211.384 775.367 211.789 775.612C212.194 775.852 212.637 775.972 213.117 775.972ZM222.08 777.195C221.39 777.195 220.76 777.017 220.19 776.662C219.625 776.307 219.173 775.832 218.833 775.237C218.498 774.637 218.33 773.975 218.33 773.25C218.33 772.7 218.428 772.187 218.623 771.712C218.818 771.232 219.085 770.812 219.425 770.452C219.77 770.087 220.17 769.802 220.625 769.597C221.08 769.392 221.565 769.29 222.08 769.29C222.645 769.29 223.163 769.405 223.633 769.635C224.108 769.86 224.513 770.175 224.848 770.58C225.188 770.985 225.44 771.455 225.605 771.99C225.775 772.525 225.838 773.097 225.793 773.707H219.673C219.733 774.132 219.873 774.512 220.093 774.847C220.313 775.177 220.593 775.44 220.933 775.635C221.278 775.83 221.66 775.93 222.08 775.935C222.53 775.935 222.938 775.82 223.303 775.59C223.668 775.355 223.963 775.035 224.188 774.63L225.47 774.93C225.17 775.595 224.718 776.14 224.113 776.565C223.508 776.985 222.83 777.195 222.08 777.195ZM219.635 772.717H224.525C224.485 772.297 224.35 771.915 224.12 771.57C223.89 771.22 223.598 770.94 223.243 770.73C222.888 770.52 222.5 770.415 222.08 770.415C221.66 770.415 221.275 770.517 220.925 770.722C220.575 770.927 220.285 771.205 220.055 771.555C219.83 771.9 219.69 772.287 219.635 772.717ZM229.597 773.497C229.597 772.982 229.724 772.51 229.979 772.08C230.239 771.65 230.597 771.31 231.052 771.06C231.342 770.91 231.569 770.687 231.734 770.392C231.899 770.092 231.982 769.765 231.982 769.41C231.982 769.065 231.897 768.752 231.727 768.472C231.562 768.192 231.337 767.97 231.052 767.805C230.772 767.64 230.462 767.557 230.122 767.557C229.782 767.557 229.469 767.64 229.184 767.805C228.904 767.97 228.682 768.192 228.517 768.472C228.352 768.752 228.269 769.065 228.269 769.41H227.009C227.009 768.835 227.149 768.312 227.429 767.842C227.709 767.372 228.084 766.997 228.554 766.717C229.029 766.437 229.552 766.297 230.122 766.297C230.697 766.297 231.219 766.437 231.689 766.717C232.164 766.997 232.542 767.372 232.822 767.842C233.102 768.312 233.242 768.835 233.242 769.41C233.242 769.995 233.099 770.535 232.814 771.03C232.529 771.525 232.139 771.907 231.644 772.177C231.399 772.307 231.207 772.49 231.067 772.725C230.927 772.955 230.857 773.212 230.857 773.497H229.597ZM230.227 777.195C230.032 777.195 229.867 777.128 229.732 776.992C229.597 776.852 229.529 776.687 229.529 776.497C229.529 776.307 229.597 776.147 229.732 776.017C229.867 775.882 230.032 775.815 230.227 775.815C230.417 775.815 230.579 775.882 230.714 776.017C230.849 776.147 230.917 776.307 230.917 776.497C230.917 776.687 230.849 776.852 230.714 776.992C230.579 777.128 230.417 777.195 230.227 777.195Z" fill="#1E232C"/>
<path d="M238.947 777V766.5H242.974C243.544 766.5 244.059 766.642 244.519 766.927C244.979 767.212 245.344 767.595 245.614 768.075C245.884 768.55 246.019 769.077 246.019 769.657C246.019 770.132 245.932 770.57 245.757 770.97C245.587 771.365 245.347 771.707 245.037 771.997C244.732 772.287 244.379 772.507 243.979 772.657L246.492 777H244.384L241.954 772.822H240.777V777H238.947ZM240.777 770.992H242.764C243.024 770.992 243.262 770.927 243.477 770.797C243.692 770.667 243.864 770.492 243.994 770.272C244.124 770.052 244.189 769.807 244.189 769.537C244.189 769.262 244.124 769.015 243.994 768.795C243.864 768.575 243.692 768.4 243.477 768.27C243.262 768.14 243.024 768.075 242.764 768.075H240.777V770.992ZM250.864 777.195C250.174 777.195 249.544 777.017 248.974 776.662C248.409 776.307 247.956 775.83 247.616 775.23C247.281 774.63 247.114 773.967 247.114 773.242C247.114 772.697 247.211 772.187 247.406 771.712C247.601 771.232 247.869 770.812 248.209 770.452C248.554 770.087 248.954 769.802 249.409 769.597C249.864 769.392 250.349 769.29 250.864 769.29C251.449 769.29 251.984 769.415 252.469 769.665C252.959 769.91 253.374 770.247 253.714 770.677C254.054 771.107 254.301 771.597 254.456 772.147C254.611 772.697 254.646 773.272 254.561 773.872H249.079C249.149 774.152 249.264 774.405 249.424 774.63C249.584 774.85 249.786 775.027 250.031 775.162C250.276 775.292 250.554 775.36 250.864 775.365C251.184 775.37 251.474 775.295 251.734 775.14C251.999 774.98 252.219 774.765 252.394 774.495L254.261 774.93C253.956 775.595 253.501 776.14 252.896 776.565C252.291 776.985 251.614 777.195 250.864 777.195ZM249.019 772.5H252.709C252.654 772.2 252.536 771.93 252.356 771.69C252.181 771.445 251.964 771.25 251.704 771.105C251.444 770.96 251.164 770.887 250.864 770.887C250.564 770.887 250.286 770.96 250.031 771.105C249.776 771.245 249.559 771.437 249.379 771.682C249.204 771.922 249.084 772.195 249.019 772.5ZM258.203 777.135C257.813 777.11 257.435 777.033 257.07 776.902C256.71 776.767 256.39 776.585 256.11 776.355C255.83 776.125 255.615 775.85 255.465 775.53L257.01 774.87C257.07 774.97 257.168 775.077 257.303 775.192C257.438 775.302 257.598 775.395 257.783 775.47C257.973 775.545 258.18 775.582 258.405 775.582C258.595 775.582 258.775 775.557 258.945 775.507C259.12 775.452 259.26 775.37 259.365 775.26C259.475 775.15 259.53 775.007 259.53 774.832C259.53 774.647 259.465 774.505 259.335 774.405C259.21 774.3 259.05 774.222 258.855 774.172C258.665 774.117 258.48 774.067 258.3 774.022C257.825 773.927 257.383 773.78 256.973 773.58C256.568 773.38 256.24 773.122 255.99 772.807C255.745 772.487 255.623 772.102 255.623 771.652C255.623 771.157 255.753 770.73 256.013 770.37C256.278 770.01 256.62 769.732 257.04 769.537C257.465 769.342 257.923 769.245 258.413 769.245C259.008 769.245 259.553 769.37 260.048 769.62C260.548 769.865 260.943 770.212 261.233 770.662L259.785 771.517C259.715 771.397 259.618 771.287 259.493 771.187C259.368 771.082 259.225 770.997 259.065 770.932C258.905 770.862 258.738 770.822 258.563 770.812C258.338 770.802 258.133 770.822 257.948 770.872C257.763 770.922 257.613 771.007 257.498 771.127C257.388 771.247 257.333 771.407 257.333 771.607C257.333 771.797 257.408 771.94 257.558 772.035C257.708 772.125 257.888 772.195 258.098 772.245C258.313 772.295 258.518 772.35 258.713 772.41C259.153 772.555 259.565 772.732 259.95 772.942C260.34 773.152 260.653 773.41 260.888 773.715C261.123 774.02 261.235 774.385 261.225 774.81C261.225 775.295 261.08 775.72 260.79 776.085C260.5 776.445 260.125 776.72 259.665 776.91C259.21 777.1 258.723 777.175 258.203 777.135ZM265.842 777.195C265.152 777.195 264.522 777.017 263.952 776.662C263.387 776.307 262.934 775.83 262.594 775.23C262.259 774.63 262.092 773.967 262.092 773.242C262.092 772.697 262.189 772.187 262.384 771.712C262.579 771.232 262.847 770.812 263.187 770.452C263.532 770.087 263.932 769.802 264.387 769.597C264.842 769.392 265.327 769.29 265.842 769.29C266.427 769.29 266.962 769.415 267.447 769.665C267.937 769.91 268.352 770.247 268.692 770.677C269.032 771.107 269.279 771.597 269.434 772.147C269.589 772.697 269.624 773.272 269.539 773.872H264.057C264.127 774.152 264.242 774.405 264.402 774.63C264.562 774.85 264.764 775.027 265.009 775.162C265.254 775.292 265.532 775.36 265.842 775.365C266.162 775.37 266.452 775.295 266.712 775.14C266.977 774.98 267.197 774.765 267.372 774.495L269.239 774.93C268.934 775.595 268.479 776.14 267.874 776.565C267.269 776.985 266.592 777.195 265.842 777.195ZM263.997 772.5H267.687C267.632 772.2 267.514 771.93 267.334 771.69C267.159 771.445 266.942 771.25 266.682 771.105C266.422 770.96 266.142 770.887 265.842 770.887C265.542 770.887 265.264 770.96 265.009 771.105C264.754 771.245 264.537 771.437 264.357 771.682C264.182 771.922 264.062 772.195 263.997 772.5ZM277.779 772.26V777H275.949V772.74C275.949 772.445 275.877 772.177 275.732 771.937C275.587 771.692 275.392 771.5 275.147 771.36C274.907 771.215 274.639 771.142 274.344 771.142C274.049 771.142 273.779 771.215 273.534 771.36C273.294 771.5 273.102 771.692 272.957 771.937C272.817 772.177 272.747 772.445 272.747 772.74V777H270.917L270.909 769.5H272.739L272.747 770.167C273.002 769.897 273.307 769.685 273.662 769.53C274.017 769.37 274.399 769.29 274.809 769.29C275.354 769.29 275.852 769.425 276.302 769.695C276.752 769.96 277.109 770.317 277.374 770.767C277.644 771.212 277.779 771.71 277.779 772.26ZM284.947 765.75H286.777V777H284.947V776.062C284.707 776.397 284.405 776.67 284.04 776.88C283.675 777.09 283.252 777.195 282.772 777.195C282.227 777.195 281.717 777.093 281.242 776.887C280.767 776.682 280.347 776.4 279.982 776.04C279.622 775.675 279.34 775.255 279.135 774.78C278.93 774.305 278.827 773.795 278.827 773.25C278.827 772.705 278.93 772.195 279.135 771.72C279.34 771.245 279.622 770.827 279.982 770.467C280.347 770.102 280.767 769.817 281.242 769.612C281.717 769.407 282.227 769.305 282.772 769.305C283.252 769.305 283.675 769.41 284.04 769.62C284.405 769.825 284.707 770.097 284.947 770.437V765.75ZM282.795 775.432C283.185 775.432 283.53 775.335 283.83 775.14C284.13 774.945 284.365 774.682 284.535 774.352C284.705 774.017 284.79 773.65 284.79 773.25C284.79 772.845 284.705 772.477 284.535 772.147C284.365 771.812 284.127 771.547 283.822 771.352C283.522 771.157 283.18 771.06 282.795 771.06C282.41 771.06 282.057 771.16 281.737 771.36C281.422 771.555 281.17 771.817 280.98 772.147C280.795 772.477 280.702 772.845 280.702 773.25C280.702 773.655 280.797 774.022 280.987 774.352C281.177 774.682 281.43 774.945 281.745 775.14C282.065 775.335 282.415 775.432 282.795 775.432Z" fill="#35C2C1"/>
</svg>
