<svg width="390" height="844" viewBox="0 0 390 844" fill="none" xmlns="http://www.w3.org/2000/svg">
<rect width="390" height="844" fill="white"/>
<g clip-path="url(#clip0_5_336)">
<path d="M241.481 320.998C243.025 319.2 244.107 317.051 244.634 314.74C245.16 312.429 245.114 310.024 244.501 307.734C243.887 305.444 242.724 303.339 241.113 301.6C239.501 299.862 237.49 298.543 235.253 297.758C235.691 295.428 235.554 293.026 234.854 290.761C234.154 288.496 232.912 286.436 231.236 284.76C229.559 283.084 227.499 281.842 225.234 281.143C222.969 280.443 220.568 280.306 218.238 280.745C217.454 278.508 216.135 276.496 214.396 274.884C212.658 273.272 210.552 272.109 208.262 271.495C205.972 270.882 203.567 270.837 201.255 271.364C198.944 271.891 196.796 272.974 194.998 274.519C193.199 272.975 191.051 271.893 188.74 271.366C186.428 270.84 184.023 270.886 181.734 271.499C179.444 272.113 177.339 273.276 175.6 274.887C173.862 276.499 172.542 278.51 171.757 280.747C169.428 280.309 167.026 280.446 164.762 281.147C162.497 281.847 160.438 283.089 158.762 284.765C157.086 286.442 155.844 288.501 155.144 290.766C154.445 293.031 154.308 295.432 154.747 297.762C152.51 298.547 150.499 299.866 148.887 301.605C147.276 303.343 146.113 305.449 145.499 307.738C144.885 310.028 144.84 312.433 145.366 314.744C145.892 317.056 146.975 319.204 148.519 321.002C146.974 322.801 145.892 324.949 145.365 327.261C144.839 329.572 144.884 331.977 145.498 334.267C146.112 336.557 147.276 338.663 148.888 340.401C150.5 342.14 152.512 343.458 154.749 344.243C154.31 346.572 154.446 348.974 155.146 351.239C155.846 353.504 157.088 355.564 158.764 357.24C160.44 358.916 162.501 360.157 164.766 360.857C167.031 361.556 169.432 361.692 171.762 361.253C172.547 363.49 173.866 365.501 175.604 367.113C177.343 368.724 179.448 369.887 181.738 370.501C184.028 371.114 186.433 371.16 188.744 370.634C191.055 370.108 193.204 369.025 195.002 367.481C196.8 369.026 198.949 370.108 201.26 370.635C203.572 371.161 205.977 371.116 208.267 370.502C210.557 369.888 212.662 368.724 214.401 367.112C216.139 365.5 217.458 363.488 218.242 361.251C220.572 361.69 222.974 361.553 225.239 360.854C227.504 360.154 229.563 358.912 231.24 357.236C232.916 355.559 234.158 353.499 234.858 351.234C235.557 348.97 235.694 346.568 235.255 344.238C237.492 343.453 239.504 342.134 241.115 340.396C242.727 338.657 243.89 336.552 244.503 334.262C245.116 331.972 245.162 329.567 244.635 327.255C244.108 324.944 243.026 322.796 241.481 320.998Z" fill="#18C07A"/>
<path d="M186.024 340.084L172.13 326.198C171.603 325.67 171.307 324.954 171.307 324.208C171.307 323.462 171.603 322.746 172.13 322.218L173.818 320.528C174.346 320 175.062 319.704 175.808 319.704C176.555 319.704 177.271 320 177.799 320.528L187.899 330.621L211.685 305.344C212.197 304.801 212.904 304.483 213.65 304.46C214.395 304.437 215.12 304.712 215.664 305.223L217.397 306.859C217.941 307.37 218.259 308.077 218.282 308.824C218.305 309.57 218.03 310.295 217.519 310.839L190.072 340.021C189.814 340.297 189.503 340.517 189.157 340.67C188.812 340.823 188.439 340.905 188.062 340.911C187.684 340.916 187.309 340.846 186.959 340.704C186.609 340.562 186.291 340.352 186.024 340.084Z" fill="white"/>
</g>
<path d="M90.3916 446.5H91.8766L88.3216 452.252V457H87.0616V452.252L83.5066 446.5H84.9916L87.6916 450.872L90.3916 446.5ZM95.2254 457.195C94.5354 457.195 93.9054 457.017 93.3354 456.662C92.7704 456.307 92.3179 455.832 91.9779 455.237C91.6429 454.637 91.4754 453.975 91.4754 453.25C91.4754 452.7 91.5729 452.187 91.7679 451.712C91.9629 451.232 92.2304 450.812 92.5704 450.452C92.9154 450.087 93.3154 449.802 93.7704 449.597C94.2254 449.392 94.7104 449.29 95.2254 449.29C95.9154 449.29 96.5429 449.467 97.1079 449.822C97.6779 450.177 98.1304 450.655 98.4654 451.255C98.8054 451.855 98.9754 452.52 98.9754 453.25C98.9754 453.795 98.8779 454.305 98.6829 454.78C98.4879 455.255 98.2179 455.675 97.8729 456.04C97.5329 456.4 97.1354 456.682 96.6804 456.887C96.2304 457.093 95.7454 457.195 95.2254 457.195ZM95.2254 455.935C95.6954 455.935 96.1179 455.812 96.4929 455.567C96.8729 455.317 97.1704 454.99 97.3854 454.585C97.6054 454.175 97.7154 453.73 97.7154 453.25C97.7154 452.76 97.6029 452.31 97.3779 451.9C97.1579 451.49 96.8604 451.162 96.4854 450.917C96.1104 450.672 95.6904 450.55 95.2254 450.55C94.7554 450.55 94.3329 450.675 93.9579 450.925C93.5829 451.17 93.2854 451.497 93.0654 451.907C92.8454 452.317 92.7354 452.765 92.7354 453.25C92.7354 453.75 92.8479 454.205 93.0729 454.615C93.2979 455.02 93.6004 455.342 93.9804 455.582C94.3604 455.817 94.7754 455.935 95.2254 455.935ZM99.8139 454.15V449.5H101.074V453.872C101.074 454.252 101.166 454.597 101.351 454.907C101.536 455.217 101.784 455.465 102.094 455.65C102.409 455.83 102.754 455.92 103.129 455.92C103.509 455.92 103.851 455.83 104.156 455.65C104.466 455.465 104.714 455.217 104.899 454.907C105.084 454.597 105.176 454.252 105.176 453.872V449.5H106.436L106.444 457H105.184L105.176 456.047C104.911 456.397 104.576 456.677 104.171 456.887C103.766 457.093 103.329 457.195 102.859 457.195C102.299 457.195 101.786 457.06 101.321 456.79C100.861 456.515 100.494 456.147 100.219 455.687C99.9489 455.227 99.8139 454.715 99.8139 454.15ZM107.951 457V449.5H109.211V450.437C109.476 450.087 109.811 449.81 110.216 449.605C110.621 449.395 111.061 449.29 111.536 449.29C111.826 449.29 112.106 449.327 112.376 449.402L111.866 450.662C111.661 450.597 111.461 450.565 111.266 450.565C110.891 450.565 110.546 450.657 110.231 450.842C109.921 451.022 109.673 451.267 109.488 451.577C109.303 451.887 109.211 452.232 109.211 452.612V457H107.951ZM118.293 460.75H117.033V449.5H118.293V450.782C118.548 450.342 118.888 449.987 119.313 449.717C119.738 449.442 120.243 449.305 120.828 449.305C121.373 449.305 121.883 449.407 122.358 449.612C122.838 449.817 123.258 450.102 123.618 450.467C123.978 450.827 124.26 451.245 124.465 451.72C124.67 452.195 124.773 452.705 124.773 453.25C124.773 453.795 124.67 454.307 124.465 454.787C124.26 455.267 123.978 455.69 123.618 456.055C123.258 456.415 122.838 456.697 122.358 456.902C121.883 457.108 121.373 457.21 120.828 457.21C120.243 457.21 119.738 457.075 119.313 456.805C118.888 456.53 118.548 456.172 118.293 455.732V460.75ZM120.813 450.527C120.328 450.527 119.903 450.65 119.538 450.895C119.173 451.14 118.89 451.467 118.69 451.877C118.495 452.287 118.398 452.745 118.398 453.25C118.398 453.75 118.495 454.207 118.69 454.622C118.89 455.037 119.17 455.367 119.53 455.612C119.895 455.857 120.323 455.98 120.813 455.98C121.298 455.98 121.743 455.86 122.148 455.62C122.553 455.375 122.878 455.047 123.123 454.637C123.368 454.222 123.49 453.76 123.49 453.25C123.49 452.75 123.37 452.295 123.13 451.885C122.89 451.47 122.568 451.14 122.163 450.895C121.758 450.65 121.308 450.527 120.813 450.527ZM132.013 449.5H133.273V457H132.013L131.961 455.732C131.726 456.167 131.401 456.52 130.986 456.79C130.576 457.06 130.086 457.195 129.516 457.195C128.966 457.195 128.451 457.093 127.971 456.887C127.491 456.677 127.066 456.39 126.696 456.025C126.331 455.655 126.046 455.23 125.841 454.75C125.636 454.27 125.533 453.752 125.533 453.197C125.533 452.662 125.633 452.157 125.833 451.682C126.033 451.207 126.311 450.792 126.666 450.437C127.026 450.077 127.441 449.797 127.911 449.597C128.381 449.392 128.886 449.29 129.426 449.29C130.016 449.29 130.533 449.43 130.978 449.71C131.423 449.985 131.783 450.342 132.058 450.782L132.013 449.5ZM129.493 455.972C129.988 455.972 130.416 455.852 130.776 455.612C131.141 455.367 131.421 455.037 131.616 454.622C131.816 454.207 131.916 453.75 131.916 453.25C131.916 452.74 131.816 452.28 131.616 451.87C131.416 451.455 131.133 451.127 130.768 450.887C130.408 450.642 129.983 450.52 129.493 450.52C128.998 450.52 128.548 450.642 128.143 450.887C127.738 451.132 127.416 451.462 127.176 451.877C126.941 452.287 126.823 452.745 126.823 453.25C126.823 453.755 126.946 454.215 127.191 454.63C127.436 455.04 127.761 455.367 128.166 455.612C128.571 455.852 129.013 455.972 129.493 455.972ZM137.06 457.143C136.655 457.128 136.26 457.053 135.875 456.917C135.495 456.777 135.16 456.59 134.87 456.355C134.585 456.115 134.377 455.84 134.247 455.53L135.327 455.065C135.402 455.235 135.537 455.395 135.732 455.545C135.927 455.695 136.152 455.815 136.407 455.905C136.662 455.995 136.92 456.04 137.18 456.04C137.455 456.04 137.712 455.997 137.952 455.912C138.192 455.827 138.387 455.702 138.537 455.537C138.692 455.367 138.77 455.165 138.77 454.93C138.77 454.68 138.685 454.485 138.515 454.345C138.35 454.2 138.14 454.087 137.885 454.007C137.635 453.922 137.38 453.842 137.12 453.767C136.605 453.637 136.145 453.482 135.74 453.302C135.335 453.117 135.015 452.885 134.78 452.605C134.55 452.32 134.435 451.957 134.435 451.517C134.435 451.052 134.562 450.65 134.817 450.31C135.077 449.97 135.417 449.707 135.837 449.522C136.257 449.337 136.707 449.245 137.187 449.245C137.792 449.245 138.345 449.375 138.845 449.635C139.345 449.895 139.717 450.247 139.962 450.692L138.95 451.285C138.865 451.105 138.735 450.947 138.56 450.812C138.385 450.672 138.185 450.562 137.96 450.482C137.735 450.402 137.505 450.36 137.27 450.355C136.98 450.345 136.707 450.382 136.452 450.467C136.202 450.552 136 450.682 135.845 450.857C135.695 451.027 135.62 451.24 135.62 451.495C135.62 451.745 135.7 451.935 135.86 452.065C136.025 452.195 136.237 452.3 136.497 452.38C136.762 452.455 137.05 452.542 137.36 452.642C137.815 452.787 138.24 452.955 138.635 453.145C139.03 453.335 139.347 453.572 139.587 453.857C139.832 454.142 139.952 454.495 139.947 454.915C139.947 455.375 139.81 455.777 139.535 456.122C139.26 456.462 138.902 456.722 138.462 456.902C138.027 457.083 137.56 457.163 137.06 457.143ZM143.52 457.143C143.115 457.128 142.72 457.053 142.335 456.917C141.955 456.777 141.62 456.59 141.33 456.355C141.045 456.115 140.837 455.84 140.707 455.53L141.787 455.065C141.862 455.235 141.997 455.395 142.192 455.545C142.387 455.695 142.612 455.815 142.867 455.905C143.122 455.995 143.38 456.04 143.64 456.04C143.915 456.04 144.172 455.997 144.412 455.912C144.652 455.827 144.847 455.702 144.997 455.537C145.152 455.367 145.23 455.165 145.23 454.93C145.23 454.68 145.145 454.485 144.975 454.345C144.81 454.2 144.6 454.087 144.345 454.007C144.095 453.922 143.84 453.842 143.58 453.767C143.065 453.637 142.605 453.482 142.2 453.302C141.795 453.117 141.475 452.885 141.24 452.605C141.01 452.32 140.895 451.957 140.895 451.517C140.895 451.052 141.022 450.65 141.277 450.31C141.537 449.97 141.877 449.707 142.297 449.522C142.717 449.337 143.167 449.245 143.647 449.245C144.252 449.245 144.805 449.375 145.305 449.635C145.805 449.895 146.177 450.247 146.422 450.692L145.41 451.285C145.325 451.105 145.195 450.947 145.02 450.812C144.845 450.672 144.645 450.562 144.42 450.482C144.195 450.402 143.965 450.36 143.73 450.355C143.44 450.345 143.167 450.382 142.912 450.467C142.662 450.552 142.46 450.682 142.305 450.857C142.155 451.027 142.08 451.24 142.08 451.495C142.08 451.745 142.16 451.935 142.32 452.065C142.485 452.195 142.697 452.3 142.957 452.38C143.222 452.455 143.51 452.542 143.82 452.642C144.275 452.787 144.7 452.955 145.095 453.145C145.49 453.335 145.807 453.572 146.047 453.857C146.292 454.142 146.412 454.495 146.407 454.915C146.407 455.375 146.27 455.777 145.995 456.122C145.72 456.462 145.362 456.722 144.922 456.902C144.487 457.083 144.02 457.163 143.52 457.143ZM150.854 457H149.579L147.066 449.5H148.296L150.231 455.222L152.144 449.5H153.441L155.361 455.222L157.274 449.5H158.519L156.006 457H154.724L152.781 451.225L150.854 457ZM162.74 457.195C162.05 457.195 161.42 457.017 160.85 456.662C160.285 456.307 159.833 455.832 159.493 455.237C159.158 454.637 158.99 453.975 158.99 453.25C158.99 452.7 159.088 452.187 159.283 451.712C159.478 451.232 159.745 450.812 160.085 450.452C160.43 450.087 160.83 449.802 161.285 449.597C161.74 449.392 162.225 449.29 162.74 449.29C163.43 449.29 164.058 449.467 164.623 449.822C165.193 450.177 165.645 450.655 165.98 451.255C166.32 451.855 166.49 452.52 166.49 453.25C166.49 453.795 166.393 454.305 166.198 454.78C166.003 455.255 165.733 455.675 165.388 456.04C165.048 456.4 164.65 456.682 164.195 456.887C163.745 457.093 163.26 457.195 162.74 457.195ZM162.74 455.935C163.21 455.935 163.633 455.812 164.008 455.567C164.388 455.317 164.685 454.99 164.9 454.585C165.12 454.175 165.23 453.73 165.23 453.25C165.23 452.76 165.118 452.31 164.893 451.9C164.673 451.49 164.375 451.162 164 450.917C163.625 450.672 163.205 450.55 162.74 450.55C162.27 450.55 161.848 450.675 161.473 450.925C161.098 451.17 160.8 451.497 160.58 451.907C160.36 452.317 160.25 452.765 160.25 453.25C160.25 453.75 160.363 454.205 160.588 454.615C160.813 455.02 161.115 455.342 161.495 455.582C161.875 455.817 162.29 455.935 162.74 455.935ZM167.731 457V449.5H168.991V450.437C169.256 450.087 169.591 449.81 169.996 449.605C170.401 449.395 170.841 449.29 171.316 449.29C171.606 449.29 171.886 449.327 172.156 449.402L171.646 450.662C171.441 450.597 171.241 450.565 171.046 450.565C170.671 450.565 170.326 450.657 170.011 450.842C169.701 451.022 169.454 451.267 169.269 451.577C169.084 451.887 168.991 452.232 168.991 452.612V457H167.731ZM178.734 445.75H179.994V457H178.734V455.725C178.479 456.165 178.137 456.52 177.707 456.79C177.277 457.06 176.772 457.195 176.192 457.195C175.647 457.195 175.137 457.093 174.662 456.887C174.187 456.682 173.767 456.4 173.402 456.04C173.042 455.675 172.759 455.255 172.554 454.78C172.349 454.305 172.247 453.795 172.247 453.25C172.247 452.705 172.349 452.195 172.554 451.72C172.759 451.24 173.042 450.82 173.402 450.46C173.767 450.095 174.187 449.81 174.662 449.605C175.137 449.4 175.647 449.297 176.192 449.297C176.772 449.297 177.277 449.432 177.707 449.702C178.137 449.972 178.479 450.327 178.734 450.767V445.75ZM176.207 455.972C176.702 455.972 177.129 455.852 177.489 455.612C177.854 455.367 178.134 455.037 178.329 454.622C178.529 454.207 178.629 453.75 178.629 453.25C178.629 452.74 178.529 452.28 178.329 451.87C178.129 451.455 177.847 451.127 177.482 450.887C177.122 450.642 176.697 450.52 176.207 450.52C175.712 450.52 175.262 450.642 174.857 450.887C174.457 451.132 174.137 451.462 173.897 451.877C173.657 452.287 173.537 452.745 173.537 453.25C173.537 453.755 173.659 454.215 173.904 454.63C174.149 455.04 174.474 455.367 174.879 455.612C175.284 455.852 175.727 455.972 176.207 455.972ZM192.027 452.335V457H190.767V452.612C190.767 452.232 190.675 451.887 190.49 451.577C190.305 451.267 190.057 451.022 189.747 450.842C189.437 450.657 189.092 450.565 188.712 450.565C188.337 450.565 187.992 450.657 187.677 450.842C187.367 451.022 187.12 451.267 186.935 451.577C186.75 451.887 186.657 452.232 186.657 452.612V457H185.397V445.75H186.657V450.437C186.922 450.087 187.257 449.81 187.662 449.605C188.067 449.395 188.507 449.29 188.982 449.29C189.542 449.29 190.052 449.427 190.512 449.702C190.977 449.972 191.345 450.337 191.615 450.797C191.89 451.257 192.027 451.77 192.027 452.335ZM199.41 449.5H200.67V457H199.41L199.358 455.732C199.123 456.167 198.798 456.52 198.383 456.79C197.973 457.06 197.483 457.195 196.913 457.195C196.363 457.195 195.848 457.093 195.368 456.887C194.888 456.677 194.463 456.39 194.093 456.025C193.728 455.655 193.443 455.23 193.238 454.75C193.033 454.27 192.93 453.752 192.93 453.197C192.93 452.662 193.03 452.157 193.23 451.682C193.43 451.207 193.708 450.792 194.063 450.437C194.423 450.077 194.838 449.797 195.308 449.597C195.778 449.392 196.283 449.29 196.823 449.29C197.413 449.29 197.93 449.43 198.375 449.71C198.82 449.985 199.18 450.342 199.455 450.782L199.41 449.5ZM196.89 455.972C197.385 455.972 197.813 455.852 198.173 455.612C198.538 455.367 198.818 455.037 199.013 454.622C199.213 454.207 199.313 453.75 199.313 453.25C199.313 452.74 199.213 452.28 199.013 451.87C198.813 451.455 198.53 451.127 198.165 450.887C197.805 450.642 197.38 450.52 196.89 450.52C196.395 450.52 195.945 450.642 195.54 450.887C195.135 451.132 194.813 451.462 194.573 451.877C194.338 452.287 194.22 452.745 194.22 453.25C194.22 453.755 194.343 454.215 194.588 454.63C194.833 455.04 195.158 455.367 195.563 455.612C195.968 455.852 196.41 455.972 196.89 455.972ZM204.457 457.143C204.052 457.128 203.657 457.053 203.272 456.917C202.892 456.777 202.557 456.59 202.267 456.355C201.982 456.115 201.775 455.84 201.645 455.53L202.725 455.065C202.8 455.235 202.935 455.395 203.13 455.545C203.325 455.695 203.55 455.815 203.805 455.905C204.06 455.995 204.317 456.04 204.577 456.04C204.852 456.04 205.11 455.997 205.35 455.912C205.59 455.827 205.785 455.702 205.935 455.537C206.09 455.367 206.167 455.165 206.167 454.93C206.167 454.68 206.082 454.485 205.912 454.345C205.747 454.2 205.537 454.087 205.282 454.007C205.032 453.922 204.777 453.842 204.517 453.767C204.002 453.637 203.542 453.482 203.137 453.302C202.732 453.117 202.412 452.885 202.177 452.605C201.947 452.32 201.832 451.957 201.832 451.517C201.832 451.052 201.96 450.65 202.215 450.31C202.475 449.97 202.815 449.707 203.235 449.522C203.655 449.337 204.105 449.245 204.585 449.245C205.19 449.245 205.742 449.375 206.242 449.635C206.742 449.895 207.115 450.247 207.36 450.692L206.347 451.285C206.262 451.105 206.132 450.947 205.957 450.812C205.782 450.672 205.582 450.562 205.357 450.482C205.132 450.402 204.902 450.36 204.667 450.355C204.377 450.345 204.105 450.382 203.85 450.467C203.6 450.552 203.397 450.682 203.242 450.857C203.092 451.027 203.017 451.24 203.017 451.495C203.017 451.745 203.097 451.935 203.257 452.065C203.422 452.195 203.635 452.3 203.895 452.38C204.16 452.455 204.447 452.542 204.757 452.642C205.212 452.787 205.637 452.955 206.032 453.145C206.427 453.335 206.745 453.572 206.985 453.857C207.23 454.142 207.35 454.495 207.345 454.915C207.345 455.375 207.207 455.777 206.932 456.122C206.657 456.462 206.3 456.722 205.86 456.902C205.425 457.083 204.957 457.163 204.457 457.143ZM216.028 449.29C216.758 449.29 217.421 449.467 218.016 449.822C218.616 450.177 219.093 450.655 219.448 451.255C219.803 451.85 219.981 452.512 219.981 453.242C219.981 453.787 219.878 454.3 219.673 454.78C219.468 455.255 219.183 455.675 218.818 456.04C218.458 456.4 218.038 456.682 217.558 456.887C217.083 457.093 216.573 457.195 216.028 457.195C215.448 457.195 214.943 457.06 214.513 456.79C214.088 456.515 213.748 456.157 213.493 455.717V457H212.233V445.75H213.493V450.767C213.748 450.327 214.088 449.972 214.513 449.702C214.943 449.427 215.448 449.29 216.028 449.29ZM216.013 455.965C216.508 455.965 216.958 455.842 217.363 455.597C217.768 455.352 218.091 455.025 218.331 454.615C218.571 454.2 218.691 453.742 218.691 453.242C218.691 452.732 218.568 452.272 218.323 451.862C218.078 451.447 217.753 451.12 217.348 450.88C216.943 450.635 216.498 450.512 216.013 450.512C215.523 450.512 215.096 450.635 214.731 450.88C214.371 451.125 214.091 451.455 213.891 451.87C213.696 452.285 213.598 452.742 213.598 453.242C213.598 453.747 213.696 454.207 213.891 454.622C214.091 455.032 214.373 455.36 214.738 455.605C215.103 455.845 215.528 455.965 216.013 455.965ZM224.483 457.195C223.793 457.195 223.163 457.017 222.593 456.662C222.028 456.307 221.576 455.832 221.236 455.237C220.901 454.637 220.733 453.975 220.733 453.25C220.733 452.7 220.831 452.187 221.026 451.712C221.221 451.232 221.488 450.812 221.828 450.452C222.173 450.087 222.573 449.802 223.028 449.597C223.483 449.392 223.968 449.29 224.483 449.29C225.048 449.29 225.566 449.405 226.036 449.635C226.511 449.86 226.916 450.175 227.251 450.58C227.591 450.985 227.843 451.455 228.008 451.99C228.178 452.525 228.241 453.097 228.196 453.707H222.076C222.136 454.132 222.276 454.512 222.496 454.847C222.716 455.177 222.996 455.44 223.336 455.635C223.681 455.83 224.063 455.93 224.483 455.935C224.933 455.935 225.341 455.82 225.706 455.59C226.071 455.355 226.366 455.035 226.591 454.63L227.873 454.93C227.573 455.595 227.121 456.14 226.516 456.565C225.911 456.985 225.233 457.195 224.483 457.195ZM222.038 452.717H226.928C226.888 452.297 226.753 451.915 226.523 451.57C226.293 451.22 226.001 450.94 225.646 450.73C225.291 450.52 224.903 450.415 224.483 450.415C224.063 450.415 223.678 450.517 223.328 450.722C222.978 450.927 222.688 451.205 222.458 451.555C222.233 451.9 222.093 452.287 222.038 452.717ZM232.716 457.195C232.026 457.195 231.396 457.017 230.826 456.662C230.261 456.307 229.808 455.832 229.468 455.237C229.133 454.637 228.966 453.975 228.966 453.25C228.966 452.7 229.063 452.187 229.258 451.712C229.453 451.232 229.721 450.812 230.061 450.452C230.406 450.087 230.806 449.802 231.261 449.597C231.716 449.392 232.201 449.29 232.716 449.29C233.281 449.29 233.798 449.405 234.268 449.635C234.743 449.86 235.148 450.175 235.483 450.58C235.823 450.985 236.076 451.455 236.241 451.99C236.411 452.525 236.473 453.097 236.428 453.707H230.308C230.368 454.132 230.508 454.512 230.728 454.847C230.948 455.177 231.228 455.44 231.568 455.635C231.913 455.83 232.296 455.93 232.716 455.935C233.166 455.935 233.573 455.82 233.938 455.59C234.303 455.355 234.598 455.035 234.823 454.63L236.106 454.93C235.806 455.595 235.353 456.14 234.748 456.565C234.143 456.985 233.466 457.195 232.716 457.195ZM230.271 452.717H235.161C235.121 452.297 234.986 451.915 234.756 451.57C234.526 451.22 234.233 450.94 233.878 450.73C233.523 450.52 233.136 450.415 232.716 450.415C232.296 450.415 231.911 450.517 231.561 450.722C231.211 450.927 230.921 451.205 230.691 451.555C230.466 451.9 230.326 452.287 230.271 452.717ZM244.322 452.335V457H243.062V452.612C243.062 452.232 242.969 451.887 242.784 451.577C242.599 451.267 242.352 451.022 242.042 450.842C241.732 450.657 241.387 450.565 241.007 450.565C240.632 450.565 240.287 450.657 239.972 450.842C239.662 451.022 239.414 451.267 239.229 451.577C239.044 451.887 238.952 452.232 238.952 452.612V457H237.692V449.5H238.952V450.437C239.217 450.087 239.552 449.81 239.957 449.605C240.362 449.395 240.802 449.29 241.277 449.29C241.837 449.29 242.347 449.427 242.807 449.702C243.272 449.972 243.639 450.337 243.909 450.797C244.184 451.257 244.322 451.77 244.322 452.335ZM254.593 455.02L255.718 455.627C255.378 456.102 254.945 456.482 254.42 456.767C253.9 457.052 253.335 457.195 252.725 457.195C252.035 457.195 251.405 457.017 250.835 456.662C250.27 456.307 249.818 455.832 249.478 455.237C249.143 454.637 248.975 453.975 248.975 453.25C248.975 452.7 249.073 452.187 249.268 451.712C249.463 451.232 249.73 450.812 250.07 450.452C250.415 450.087 250.815 449.802 251.27 449.597C251.725 449.392 252.21 449.29 252.725 449.29C253.335 449.29 253.9 449.432 254.42 449.717C254.945 450.002 255.378 450.385 255.718 450.865L254.593 451.472C254.353 451.177 254.068 450.95 253.738 450.79C253.408 450.63 253.07 450.55 252.725 450.55C252.26 450.55 251.838 450.675 251.458 450.925C251.083 451.17 250.785 451.497 250.565 451.907C250.345 452.317 250.235 452.765 250.235 453.25C250.235 453.735 250.345 454.182 250.565 454.592C250.79 454.997 251.09 455.322 251.465 455.567C251.845 455.812 252.265 455.935 252.725 455.935C253.095 455.935 253.443 455.85 253.768 455.68C254.093 455.51 254.368 455.29 254.593 455.02ZM263.57 452.335V457H262.31V452.612C262.31 452.232 262.218 451.887 262.033 451.577C261.848 451.267 261.6 451.022 261.29 450.842C260.98 450.657 260.635 450.565 260.255 450.565C259.88 450.565 259.535 450.657 259.22 450.842C258.91 451.022 258.663 451.267 258.478 451.577C258.293 451.887 258.2 452.232 258.2 452.612V457H256.94V445.75H258.2V450.437C258.465 450.087 258.8 449.81 259.205 449.605C259.61 449.395 260.05 449.29 260.525 449.29C261.085 449.29 261.595 449.427 262.055 449.702C262.52 449.972 262.888 450.337 263.158 450.797C263.433 451.257 263.57 451.77 263.57 452.335ZM270.953 449.5H272.213V457H270.953L270.901 455.732C270.666 456.167 270.341 456.52 269.926 456.79C269.516 457.06 269.026 457.195 268.456 457.195C267.906 457.195 267.391 457.093 266.911 456.887C266.431 456.677 266.006 456.39 265.636 456.025C265.271 455.655 264.986 455.23 264.781 454.75C264.576 454.27 264.473 453.752 264.473 453.197C264.473 452.662 264.573 452.157 264.773 451.682C264.973 451.207 265.251 450.792 265.606 450.437C265.966 450.077 266.381 449.797 266.851 449.597C267.321 449.392 267.826 449.29 268.366 449.29C268.956 449.29 269.473 449.43 269.918 449.71C270.363 449.985 270.723 450.342 270.998 450.782L270.953 449.5ZM268.433 455.972C268.928 455.972 269.356 455.852 269.716 455.612C270.081 455.367 270.361 455.037 270.556 454.622C270.756 454.207 270.856 453.75 270.856 453.25C270.856 452.74 270.756 452.28 270.556 451.87C270.356 451.455 270.073 451.127 269.708 450.887C269.348 450.642 268.923 450.52 268.433 450.52C267.938 450.52 267.488 450.642 267.083 450.887C266.678 451.132 266.356 451.462 266.116 451.877C265.881 452.287 265.763 452.745 265.763 453.25C265.763 453.755 265.886 454.215 266.131 454.63C266.376 455.04 266.701 455.367 267.106 455.612C267.511 455.852 267.953 455.972 268.433 455.972ZM280.343 452.335V457H279.083V452.612C279.083 452.232 278.99 451.887 278.805 451.577C278.62 451.267 278.373 451.022 278.063 450.842C277.753 450.657 277.408 450.565 277.028 450.565C276.653 450.565 276.308 450.657 275.993 450.842C275.683 451.022 275.435 451.267 275.25 451.577C275.065 451.887 274.973 452.232 274.973 452.612V457H273.713V449.5H274.973V450.437C275.238 450.087 275.573 449.81 275.978 449.605C276.383 449.395 276.823 449.29 277.298 449.29C277.858 449.29 278.368 449.427 278.828 449.702C279.293 449.972 279.66 450.337 279.93 450.797C280.205 451.257 280.343 451.77 280.343 452.335ZM287.553 449.5H288.813V457.24C288.813 457.735 288.706 458.195 288.491 458.62C288.281 459.05 287.996 459.423 287.636 459.738C287.276 460.058 286.866 460.305 286.406 460.48C285.946 460.66 285.466 460.75 284.966 460.75C284.446 460.75 283.943 460.633 283.458 460.398C282.973 460.168 282.548 459.858 282.183 459.468C281.823 459.083 281.563 458.65 281.403 458.17L282.558 457.645C282.653 457.99 282.823 458.3 283.068 458.575C283.318 458.855 283.608 459.075 283.938 459.235C284.273 459.4 284.616 459.483 284.966 459.483C285.296 459.483 285.613 459.425 285.918 459.31C286.228 459.195 286.506 459.035 286.751 458.83C287.001 458.63 287.196 458.393 287.336 458.118C287.481 457.848 287.553 457.555 287.553 457.24V455.747C287.298 456.177 286.961 456.527 286.541 456.797C286.126 457.063 285.641 457.195 285.086 457.195C284.556 457.195 284.058 457.093 283.593 456.887C283.128 456.682 282.721 456.4 282.371 456.04C282.021 455.675 281.746 455.255 281.546 454.78C281.346 454.305 281.246 453.795 281.246 453.25C281.246 452.705 281.346 452.195 281.546 451.72C281.746 451.24 282.021 450.82 282.371 450.46C282.721 450.095 283.128 449.81 283.593 449.605C284.058 449.4 284.556 449.297 285.086 449.297C285.641 449.297 286.126 449.43 286.541 449.695C286.961 449.96 287.298 450.31 287.553 450.745V449.5ZM285.093 455.972C285.578 455.972 285.998 455.847 286.353 455.597C286.713 455.347 286.991 455.015 287.186 454.6C287.381 454.185 287.478 453.735 287.478 453.25C287.478 452.75 287.378 452.295 287.178 451.885C286.983 451.47 286.706 451.14 286.346 450.895C285.991 450.645 285.573 450.52 285.093 450.52C284.623 450.52 284.193 450.642 283.803 450.887C283.413 451.132 283.103 451.462 282.873 451.877C282.648 452.287 282.536 452.745 282.536 453.25C282.536 453.755 282.651 454.215 282.881 454.63C283.116 455.04 283.426 455.367 283.811 455.612C284.201 455.852 284.628 455.972 285.093 455.972ZM293.814 457.195C293.124 457.195 292.494 457.017 291.924 456.662C291.359 456.307 290.907 455.832 290.567 455.237C290.232 454.637 290.064 453.975 290.064 453.25C290.064 452.7 290.162 452.187 290.357 451.712C290.552 451.232 290.819 450.812 291.159 450.452C291.504 450.087 291.904 449.802 292.359 449.597C292.814 449.392 293.299 449.29 293.814 449.29C294.379 449.29 294.897 449.405 295.367 449.635C295.842 449.86 296.247 450.175 296.582 450.58C296.922 450.985 297.174 451.455 297.339 451.99C297.509 452.525 297.572 453.097 297.527 453.707H291.407C291.467 454.132 291.607 454.512 291.827 454.847C292.047 455.177 292.327 455.44 292.667 455.635C293.012 455.83 293.394 455.93 293.814 455.935C294.264 455.935 294.672 455.82 295.037 455.59C295.402 455.355 295.697 455.035 295.922 454.63L297.204 454.93C296.904 455.595 296.452 456.14 295.847 456.565C295.242 456.985 294.564 457.195 293.814 457.195ZM291.369 452.717H296.259C296.219 452.297 296.084 451.915 295.854 451.57C295.624 451.22 295.332 450.94 294.977 450.73C294.622 450.52 294.234 450.415 293.814 450.415C293.394 450.415 293.009 450.517 292.659 450.722C292.309 450.927 292.019 451.205 291.789 451.555C291.564 451.9 291.424 452.287 291.369 452.717ZM304.784 445.75H306.044V457H304.784V455.725C304.529 456.165 304.187 456.52 303.757 456.79C303.327 457.06 302.822 457.195 302.242 457.195C301.697 457.195 301.187 457.093 300.712 456.887C300.237 456.682 299.817 456.4 299.452 456.04C299.092 455.675 298.809 455.255 298.604 454.78C298.399 454.305 298.297 453.795 298.297 453.25C298.297 452.705 298.399 452.195 298.604 451.72C298.809 451.24 299.092 450.82 299.452 450.46C299.817 450.095 300.237 449.81 300.712 449.605C301.187 449.4 301.697 449.297 302.242 449.297C302.822 449.297 303.327 449.432 303.757 449.702C304.187 449.972 304.529 450.327 304.784 450.767V445.75ZM302.257 455.972C302.752 455.972 303.179 455.852 303.539 455.612C303.904 455.367 304.184 455.037 304.379 454.622C304.579 454.207 304.679 453.75 304.679 453.25C304.679 452.74 304.579 452.28 304.379 451.87C304.179 451.455 303.897 451.127 303.532 450.887C303.172 450.642 302.747 450.52 302.257 450.52C301.762 450.52 301.312 450.642 300.907 450.887C300.507 451.132 300.187 451.462 299.947 451.877C299.707 452.287 299.587 452.745 299.587 453.25C299.587 453.755 299.709 454.215 299.954 454.63C300.199 455.04 300.524 455.367 300.929 455.612C301.334 455.852 301.777 455.972 302.257 455.972ZM158.271 480.143C157.866 480.128 157.471 480.053 157.086 479.917C156.706 479.777 156.371 479.59 156.081 479.355C155.796 479.115 155.588 478.84 155.458 478.53L156.538 478.065C156.613 478.235 156.748 478.395 156.943 478.545C157.138 478.695 157.363 478.815 157.618 478.905C157.873 478.995 158.131 479.04 158.391 479.04C158.666 479.04 158.923 478.997 159.163 478.912C159.403 478.827 159.598 478.702 159.748 478.537C159.903 478.367 159.981 478.165 159.981 477.93C159.981 477.68 159.896 477.485 159.726 477.345C159.561 477.2 159.351 477.087 159.096 477.007C158.846 476.922 158.591 476.842 158.331 476.767C157.816 476.637 157.356 476.482 156.951 476.302C156.546 476.117 156.226 475.885 155.991 475.605C155.761 475.32 155.646 474.957 155.646 474.517C155.646 474.052 155.773 473.65 156.028 473.31C156.288 472.97 156.628 472.707 157.048 472.522C157.468 472.337 157.918 472.245 158.398 472.245C159.003 472.245 159.556 472.375 160.056 472.635C160.556 472.895 160.928 473.247 161.173 473.692L160.161 474.285C160.076 474.105 159.946 473.947 159.771 473.812C159.596 473.672 159.396 473.562 159.171 473.482C158.946 473.402 158.716 473.36 158.481 473.355C158.191 473.345 157.918 473.382 157.663 473.467C157.413 473.552 157.211 473.682 157.056 473.857C156.906 474.027 156.831 474.24 156.831 474.495C156.831 474.745 156.911 474.935 157.071 475.065C157.236 475.195 157.448 475.3 157.708 475.38C157.973 475.455 158.261 475.542 158.571 475.642C159.026 475.787 159.451 475.955 159.846 476.145C160.241 476.335 160.558 476.572 160.798 476.857C161.043 477.142 161.163 477.495 161.158 477.915C161.158 478.375 161.021 478.777 160.746 479.122C160.471 479.462 160.113 479.722 159.673 479.902C159.238 480.083 158.771 480.163 158.271 480.143ZM162.143 477.15V472.5H163.403V476.872C163.403 477.252 163.495 477.597 163.68 477.907C163.865 478.217 164.113 478.465 164.423 478.65C164.738 478.83 165.083 478.92 165.458 478.92C165.838 478.92 166.18 478.83 166.485 478.65C166.795 478.465 167.043 478.217 167.228 477.907C167.413 477.597 167.505 477.252 167.505 476.872V472.5H168.765L168.773 480H167.513L167.505 479.047C167.24 479.397 166.905 479.677 166.5 479.887C166.095 480.093 165.658 480.195 165.188 480.195C164.628 480.195 164.115 480.06 163.65 479.79C163.19 479.515 162.823 479.147 162.548 478.687C162.278 478.227 162.143 477.715 162.143 477.15ZM175.374 478.02L176.499 478.627C176.159 479.102 175.727 479.482 175.202 479.767C174.682 480.052 174.117 480.195 173.507 480.195C172.817 480.195 172.187 480.017 171.617 479.662C171.052 479.307 170.599 478.832 170.259 478.237C169.924 477.637 169.757 476.975 169.757 476.25C169.757 475.7 169.854 475.187 170.049 474.712C170.244 474.232 170.512 473.812 170.852 473.452C171.197 473.087 171.597 472.802 172.052 472.597C172.507 472.392 172.992 472.29 173.507 472.29C174.117 472.29 174.682 472.432 175.202 472.717C175.727 473.002 176.159 473.385 176.499 473.865L175.374 474.472C175.134 474.177 174.849 473.95 174.519 473.79C174.189 473.63 173.852 473.55 173.507 473.55C173.042 473.55 172.619 473.675 172.239 473.925C171.864 474.17 171.567 474.497 171.347 474.907C171.127 475.317 171.017 475.765 171.017 476.25C171.017 476.735 171.127 477.182 171.347 477.592C171.572 477.997 171.872 478.322 172.247 478.567C172.627 478.812 173.047 478.935 173.507 478.935C173.877 478.935 174.224 478.85 174.549 478.68C174.874 478.51 175.149 478.29 175.374 478.02ZM182.889 478.02L184.014 478.627C183.674 479.102 183.241 479.482 182.716 479.767C182.196 480.052 181.631 480.195 181.021 480.195C180.331 480.195 179.701 480.017 179.131 479.662C178.566 479.307 178.114 478.832 177.774 478.237C177.439 477.637 177.271 476.975 177.271 476.25C177.271 475.7 177.369 475.187 177.564 474.712C177.759 474.232 178.026 473.812 178.366 473.452C178.711 473.087 179.111 472.802 179.566 472.597C180.021 472.392 180.506 472.29 181.021 472.29C181.631 472.29 182.196 472.432 182.716 472.717C183.241 473.002 183.674 473.385 184.014 473.865L182.889 474.472C182.649 474.177 182.364 473.95 182.034 473.79C181.704 473.63 181.366 473.55 181.021 473.55C180.556 473.55 180.134 473.675 179.754 473.925C179.379 474.17 179.081 474.497 178.861 474.907C178.641 475.317 178.531 475.765 178.531 476.25C178.531 476.735 178.641 477.182 178.861 477.592C179.086 477.997 179.386 478.322 179.761 478.567C180.141 478.812 180.561 478.935 181.021 478.935C181.391 478.935 181.739 478.85 182.064 478.68C182.389 478.51 182.664 478.29 182.889 478.02ZM188.536 480.195C187.846 480.195 187.216 480.017 186.646 479.662C186.081 479.307 185.628 478.832 185.288 478.237C184.953 477.637 184.786 476.975 184.786 476.25C184.786 475.7 184.883 475.187 185.078 474.712C185.273 474.232 185.541 473.812 185.881 473.452C186.226 473.087 186.626 472.802 187.081 472.597C187.536 472.392 188.021 472.29 188.536 472.29C189.101 472.29 189.618 472.405 190.088 472.635C190.563 472.86 190.968 473.175 191.303 473.58C191.643 473.985 191.896 474.455 192.061 474.99C192.231 475.525 192.293 476.097 192.248 476.707H186.128C186.188 477.132 186.328 477.512 186.548 477.847C186.768 478.177 187.048 478.44 187.388 478.635C187.733 478.83 188.116 478.93 188.536 478.935C188.986 478.935 189.393 478.82 189.758 478.59C190.123 478.355 190.418 478.035 190.643 477.63L191.926 477.93C191.626 478.595 191.173 479.14 190.568 479.565C189.963 479.985 189.286 480.195 188.536 480.195ZM186.091 475.717H190.981C190.941 475.297 190.806 474.915 190.576 474.57C190.346 474.22 190.053 473.94 189.698 473.73C189.343 473.52 188.956 473.415 188.536 473.415C188.116 473.415 187.731 473.517 187.381 473.722C187.031 473.927 186.741 474.205 186.511 474.555C186.286 474.9 186.146 475.287 186.091 475.717ZM195.829 480.143C195.424 480.128 195.029 480.053 194.644 479.917C194.264 479.777 193.929 479.59 193.639 479.355C193.354 479.115 193.147 478.84 193.017 478.53L194.097 478.065C194.172 478.235 194.307 478.395 194.502 478.545C194.697 478.695 194.922 478.815 195.177 478.905C195.432 478.995 195.689 479.04 195.949 479.04C196.224 479.04 196.482 478.997 196.722 478.912C196.962 478.827 197.157 478.702 197.307 478.537C197.462 478.367 197.539 478.165 197.539 477.93C197.539 477.68 197.454 477.485 197.284 477.345C197.119 477.2 196.909 477.087 196.654 477.007C196.404 476.922 196.149 476.842 195.889 476.767C195.374 476.637 194.914 476.482 194.509 476.302C194.104 476.117 193.784 475.885 193.549 475.605C193.319 475.32 193.204 474.957 193.204 474.517C193.204 474.052 193.332 473.65 193.587 473.31C193.847 472.97 194.187 472.707 194.607 472.522C195.027 472.337 195.477 472.245 195.957 472.245C196.562 472.245 197.114 472.375 197.614 472.635C198.114 472.895 198.487 473.247 198.732 473.692L197.719 474.285C197.634 474.105 197.504 473.947 197.329 473.812C197.154 473.672 196.954 473.562 196.729 473.482C196.504 473.402 196.274 473.36 196.039 473.355C195.749 473.345 195.477 473.382 195.222 473.467C194.972 473.552 194.769 473.682 194.614 473.857C194.464 474.027 194.389 474.24 194.389 474.495C194.389 474.745 194.469 474.935 194.629 475.065C194.794 475.195 195.007 475.3 195.267 475.38C195.532 475.455 195.819 475.542 196.129 475.642C196.584 475.787 197.009 475.955 197.404 476.145C197.799 476.335 198.117 476.572 198.357 476.857C198.602 477.142 198.722 477.495 198.717 477.915C198.717 478.375 198.579 478.777 198.304 479.122C198.029 479.462 197.672 479.722 197.232 479.902C196.797 480.083 196.329 480.163 195.829 480.143ZM202.289 480.143C201.884 480.128 201.489 480.053 201.104 479.917C200.724 479.777 200.389 479.59 200.099 479.355C199.814 479.115 199.607 478.84 199.477 478.53L200.557 478.065C200.632 478.235 200.767 478.395 200.962 478.545C201.157 478.695 201.382 478.815 201.637 478.905C201.892 478.995 202.149 479.04 202.409 479.04C202.684 479.04 202.942 478.997 203.182 478.912C203.422 478.827 203.617 478.702 203.767 478.537C203.922 478.367 203.999 478.165 203.999 477.93C203.999 477.68 203.914 477.485 203.744 477.345C203.579 477.2 203.369 477.087 203.114 477.007C202.864 476.922 202.609 476.842 202.349 476.767C201.834 476.637 201.374 476.482 200.969 476.302C200.564 476.117 200.244 475.885 200.009 475.605C199.779 475.32 199.664 474.957 199.664 474.517C199.664 474.052 199.792 473.65 200.047 473.31C200.307 472.97 200.647 472.707 201.067 472.522C201.487 472.337 201.937 472.245 202.417 472.245C203.022 472.245 203.574 472.375 204.074 472.635C204.574 472.895 204.947 473.247 205.192 473.692L204.179 474.285C204.094 474.105 203.964 473.947 203.789 473.812C203.614 473.672 203.414 473.562 203.189 473.482C202.964 473.402 202.734 473.36 202.499 473.355C202.209 473.345 201.937 473.382 201.682 473.467C201.432 473.552 201.229 473.682 201.074 473.857C200.924 474.027 200.849 474.24 200.849 474.495C200.849 474.745 200.929 474.935 201.089 475.065C201.254 475.195 201.467 475.3 201.727 475.38C201.992 475.455 202.279 475.542 202.589 475.642C203.044 475.787 203.469 475.955 203.864 476.145C204.259 476.335 204.577 476.572 204.817 476.857C205.062 477.142 205.182 477.495 205.177 477.915C205.177 478.375 205.039 478.777 204.764 479.122C204.489 479.462 204.132 479.722 203.692 479.902C203.257 480.083 202.789 480.163 202.289 480.143ZM208.164 470.647V472.5H210.362V473.76H208.164V480H206.904V473.76H205.937V472.5H206.904V470.647C206.904 470.262 206.997 469.915 207.182 469.605C207.372 469.29 207.624 469.04 207.939 468.855C208.259 468.665 208.609 468.57 208.989 468.57C209.269 468.57 209.542 468.627 209.807 468.742C210.072 468.852 210.307 469.017 210.512 469.237L209.612 470.13C209.542 470.035 209.449 469.962 209.334 469.912C209.224 469.857 209.109 469.83 208.989 469.83C208.764 469.83 208.569 469.91 208.404 470.07C208.244 470.23 208.164 470.422 208.164 470.647ZM211.464 477.15V472.5H212.724V476.872C212.724 477.252 212.817 477.597 213.002 477.907C213.187 478.217 213.434 478.465 213.744 478.65C214.059 478.83 214.404 478.92 214.779 478.92C215.159 478.92 215.502 478.83 215.807 478.65C216.117 478.465 216.364 478.217 216.549 477.907C216.734 477.597 216.827 477.252 216.827 476.872V472.5H218.087L218.094 480H216.834L216.827 479.047C216.562 479.397 216.227 479.677 215.822 479.887C215.417 480.093 214.979 480.195 214.509 480.195C213.949 480.195 213.437 480.06 212.972 479.79C212.512 479.515 212.144 479.147 211.869 478.687C211.599 478.227 211.464 477.715 211.464 477.15ZM219.689 480V468.75H220.949V480H219.689ZM222.751 480V468.75H224.011V480H222.751ZM230.657 472.5H231.992L227.889 483.75H226.554L227.912 480L225.219 472.5H226.599L228.542 478.267L230.657 472.5ZM233.314 480.195C233.124 480.195 232.961 480.128 232.826 479.992C232.696 479.857 232.631 479.692 232.631 479.497C232.631 479.312 232.696 479.152 232.826 479.017C232.961 478.882 233.124 478.815 233.314 478.815C233.509 478.815 233.674 478.882 233.809 479.017C233.944 479.152 234.011 479.312 234.011 479.497C234.011 479.692 233.944 479.857 233.809 479.992C233.674 480.128 233.509 480.195 233.314 480.195Z" fill="#8391A1"/>
<path d="M80.6518 426V407.8H87.1518C88.1398 407.8 89.0325 408.047 89.8298 408.541C90.6358 409.035 91.2728 409.698 91.7408 410.53C92.2088 411.362 92.4428 412.276 92.4428 413.273C92.4428 414.296 92.2001 415.223 91.7148 416.055C91.2381 416.878 90.5968 417.537 89.7908 418.031C88.9848 418.516 88.1051 418.759 87.1518 418.759H83.8238V426H80.6518ZM83.8238 415.587H86.8138C87.2645 415.587 87.6761 415.474 88.0488 415.249C88.4215 415.024 88.7161 414.72 88.9328 414.339C89.1581 413.958 89.2708 413.533 89.2708 413.065C89.2708 412.588 89.1581 412.159 88.9328 411.778C88.7161 411.397 88.4215 411.093 88.0488 410.868C87.6761 410.643 87.2645 410.53 86.8138 410.53H83.8238V415.587ZM103.733 413H106.905V426H103.733L103.59 424.388C103.235 424.969 102.762 425.441 102.173 425.805C101.592 426.16 100.903 426.338 100.106 426.338C99.1441 426.338 98.2428 426.156 97.4021 425.792C96.5614 425.428 95.8204 424.925 95.1791 424.284C94.5464 423.643 94.0481 422.902 93.6841 422.061C93.3288 421.22 93.1511 420.319 93.1511 419.357C93.1511 418.43 93.3201 417.559 93.6581 416.744C94.0048 415.929 94.4858 415.214 95.1011 414.599C95.7164 413.984 96.4271 413.503 97.2331 413.156C98.0391 412.809 98.9058 412.636 99.8331 412.636C100.691 412.636 101.458 412.827 102.134 413.208C102.819 413.589 103.399 414.075 103.876 414.664L103.733 413ZM100.028 423.283C100.704 423.283 101.302 423.114 101.822 422.776C102.342 422.438 102.749 421.983 103.044 421.411C103.339 420.83 103.486 420.193 103.486 419.5C103.486 418.798 103.339 418.161 103.044 417.589C102.749 417.008 102.338 416.549 101.809 416.211C101.289 415.873 100.695 415.704 100.028 415.704C99.3608 415.704 98.7498 415.877 98.1951 416.224C97.6491 416.562 97.2114 417.017 96.8821 417.589C96.5614 418.161 96.4011 418.798 96.4011 419.5C96.4011 420.202 96.5658 420.839 96.8951 421.411C97.2244 421.983 97.6621 422.438 98.2081 422.776C98.7628 423.114 99.3694 423.283 100.028 423.283ZM113.331 426.234C112.655 426.191 112 426.056 111.368 425.831C110.744 425.597 110.189 425.281 109.704 424.882C109.218 424.483 108.846 424.007 108.586 423.452L111.264 422.308C111.368 422.481 111.537 422.668 111.771 422.867C112.005 423.058 112.282 423.218 112.603 423.348C112.932 423.478 113.292 423.543 113.682 423.543C114.011 423.543 114.323 423.5 114.618 423.413C114.921 423.318 115.164 423.175 115.346 422.984C115.536 422.793 115.632 422.546 115.632 422.243C115.632 421.922 115.519 421.675 115.294 421.502C115.077 421.32 114.8 421.186 114.462 421.099C114.132 421.004 113.812 420.917 113.5 420.839C112.676 420.674 111.909 420.419 111.199 420.072C110.497 419.725 109.929 419.279 109.496 418.733C109.071 418.178 108.859 417.511 108.859 416.731C108.859 415.873 109.084 415.132 109.535 414.508C109.994 413.884 110.588 413.403 111.316 413.065C112.052 412.727 112.845 412.558 113.695 412.558C114.726 412.558 115.671 412.775 116.529 413.208C117.395 413.633 118.08 414.235 118.583 415.015L116.074 416.497C115.952 416.289 115.783 416.098 115.567 415.925C115.35 415.743 115.103 415.596 114.826 415.483C114.548 415.362 114.258 415.292 113.955 415.275C113.565 415.258 113.209 415.292 112.889 415.379C112.568 415.466 112.308 415.613 112.109 415.821C111.918 416.029 111.823 416.306 111.823 416.653C111.823 416.982 111.953 417.229 112.213 417.394C112.473 417.55 112.785 417.671 113.149 417.758C113.521 417.845 113.877 417.94 114.215 418.044C114.977 418.295 115.692 418.603 116.36 418.967C117.036 419.331 117.577 419.777 117.985 420.306C118.392 420.835 118.587 421.467 118.57 422.204C118.57 423.045 118.318 423.781 117.816 424.414C117.313 425.038 116.663 425.515 115.866 425.844C115.077 426.173 114.232 426.303 113.331 426.234ZM124.629 426.234C123.953 426.191 123.299 426.056 122.666 425.831C122.042 425.597 121.488 425.281 121.002 424.882C120.517 424.483 120.144 424.007 119.884 423.452L122.562 422.308C122.666 422.481 122.835 422.668 123.069 422.867C123.303 423.058 123.581 423.218 123.901 423.348C124.231 423.478 124.59 423.543 124.98 423.543C125.31 423.543 125.622 423.5 125.916 423.413C126.22 423.318 126.462 423.175 126.644 422.984C126.835 422.793 126.93 422.546 126.93 422.243C126.93 421.922 126.818 421.675 126.592 421.502C126.376 421.32 126.098 421.186 125.76 421.099C125.431 421.004 125.11 420.917 124.798 420.839C123.975 420.674 123.208 420.419 122.497 420.072C121.795 419.725 121.228 419.279 120.794 418.733C120.37 418.178 120.157 417.511 120.157 416.731C120.157 415.873 120.383 415.132 120.833 414.508C121.293 413.884 121.886 413.403 122.614 413.065C123.351 412.727 124.144 412.558 124.993 412.558C126.025 412.558 126.969 412.775 127.827 413.208C128.694 413.633 129.379 414.235 129.881 415.015L127.372 416.497C127.251 416.289 127.082 416.098 126.865 415.925C126.649 415.743 126.402 415.596 126.124 415.483C125.847 415.362 125.557 415.292 125.253 415.275C124.863 415.258 124.508 415.292 124.187 415.379C123.867 415.466 123.607 415.613 123.407 415.821C123.217 416.029 123.121 416.306 123.121 416.653C123.121 416.982 123.251 417.229 123.511 417.394C123.771 417.55 124.083 417.671 124.447 417.758C124.82 417.845 125.175 417.94 125.513 418.044C126.276 418.295 126.991 418.603 127.658 418.967C128.334 419.331 128.876 419.777 129.283 420.306C129.691 420.835 129.886 421.467 129.868 422.204C129.868 423.045 129.617 423.781 129.114 424.414C128.612 425.038 127.962 425.515 127.164 425.844C126.376 426.173 125.531 426.303 124.629 426.234ZM138.293 426H135.147L130.805 413H133.912L136.733 421.411L139.541 413H142.674L145.482 421.411L148.303 413H151.41L147.068 426H143.922L141.101 417.55L138.293 426ZM158.557 426.338C157.361 426.338 156.269 426.03 155.281 425.415C154.302 424.8 153.518 423.976 152.928 422.945C152.348 421.905 152.057 420.757 152.057 419.5C152.057 418.547 152.226 417.658 152.564 416.835C152.902 416.003 153.366 415.275 153.955 414.651C154.553 414.018 155.247 413.524 156.035 413.169C156.824 412.814 157.665 412.636 158.557 412.636C159.753 412.636 160.841 412.944 161.82 413.559C162.808 414.174 163.593 415.002 164.173 416.042C164.763 417.082 165.057 418.235 165.057 419.5C165.057 420.445 164.888 421.329 164.55 422.152C164.212 422.975 163.744 423.703 163.146 424.336C162.557 424.96 161.868 425.45 161.079 425.805C160.299 426.16 159.459 426.338 158.557 426.338ZM158.557 423.166C159.19 423.166 159.758 422.997 160.26 422.659C160.763 422.321 161.157 421.875 161.443 421.32C161.738 420.765 161.885 420.159 161.885 419.5C161.885 418.824 161.734 418.209 161.43 417.654C161.136 417.091 160.733 416.644 160.221 416.315C159.719 415.977 159.164 415.808 158.557 415.808C157.933 415.808 157.37 415.977 156.867 416.315C156.365 416.653 155.966 417.104 155.671 417.667C155.377 418.23 155.229 418.841 155.229 419.5C155.229 420.185 155.381 420.804 155.684 421.359C155.988 421.914 156.391 422.356 156.893 422.685C157.405 423.006 157.959 423.166 158.557 423.166ZM167.094 426L167.081 413H170.253L170.266 414.157C170.708 413.689 171.237 413.321 171.852 413.052C172.468 412.775 173.131 412.636 173.841 412.636C174.318 412.636 174.795 412.705 175.271 412.844L174.023 416.042C173.694 415.912 173.365 415.847 173.035 415.847C172.524 415.847 172.056 415.973 171.631 416.224C171.215 416.467 170.882 416.8 170.63 417.225C170.388 417.641 170.266 418.105 170.266 418.616V426H167.094ZM185.949 406.5H189.121V426H185.949V424.375C185.533 424.956 185.008 425.428 184.376 425.792C183.743 426.156 183.011 426.338 182.179 426.338C181.234 426.338 180.35 426.16 179.527 425.805C178.703 425.45 177.975 424.96 177.343 424.336C176.719 423.703 176.229 422.975 175.874 422.152C175.518 421.329 175.341 420.445 175.341 419.5C175.341 418.555 175.518 417.671 175.874 416.848C176.229 416.025 176.719 415.301 177.343 414.677C177.975 414.044 178.703 413.55 179.527 413.195C180.35 412.84 181.234 412.662 182.179 412.662C183.011 412.662 183.743 412.844 184.376 413.208C185.008 413.563 185.533 414.036 185.949 414.625V406.5ZM182.218 423.283C182.894 423.283 183.492 423.114 184.012 422.776C184.532 422.438 184.939 421.983 185.234 421.411C185.528 420.83 185.676 420.193 185.676 419.5C185.676 418.798 185.528 418.161 185.234 417.589C184.939 417.008 184.527 416.549 183.999 416.211C183.479 415.873 182.885 415.704 182.218 415.704C181.55 415.704 180.939 415.877 180.385 416.224C179.839 416.562 179.401 417.017 179.072 417.589C178.751 418.161 178.591 418.798 178.591 419.5C178.591 420.202 178.755 420.839 179.085 421.411C179.414 421.983 179.852 422.438 180.398 422.776C180.952 423.114 181.559 423.283 182.218 423.283ZM206.914 426.338C205.683 426.338 204.526 426.095 203.443 425.61C202.359 425.116 201.406 424.436 200.583 423.569C199.768 422.702 199.127 421.701 198.659 420.566C198.199 419.422 197.97 418.2 197.97 416.9C197.97 415.591 198.199 414.369 198.659 413.234C199.127 412.09 199.768 411.089 200.583 410.231C201.406 409.364 202.359 408.688 203.443 408.203C204.526 407.709 205.683 407.462 206.914 407.462C208.387 407.462 209.743 407.804 210.983 408.489C212.222 409.165 213.249 410.071 214.064 411.206L211.23 412.727C210.718 412.094 210.081 411.587 209.319 411.206C208.565 410.825 207.763 410.634 206.914 410.634C206.116 410.634 205.367 410.799 204.665 411.128C203.963 411.449 203.347 411.899 202.819 412.48C202.29 413.052 201.878 413.719 201.584 414.482C201.289 415.236 201.142 416.042 201.142 416.9C201.142 417.767 201.289 418.577 201.584 419.331C201.887 420.085 202.303 420.752 202.832 421.333C203.36 421.905 203.971 422.356 204.665 422.685C205.367 423.006 206.116 423.166 206.914 423.166C207.78 423.166 208.586 422.975 209.332 422.594C210.086 422.204 210.718 421.693 211.23 421.06L214.064 422.594C213.249 423.721 212.222 424.626 210.983 425.311C209.743 425.996 208.387 426.338 206.914 426.338ZM228.425 417.784V426H225.253V418.616C225.253 418.105 225.127 417.641 224.876 417.225C224.625 416.8 224.287 416.467 223.862 416.224C223.446 415.973 222.982 415.847 222.471 415.847C221.96 415.847 221.492 415.973 221.067 416.224C220.651 416.467 220.317 416.8 220.066 417.225C219.823 417.641 219.702 418.105 219.702 418.616V426H216.53L216.517 406.5H219.689L219.702 414.157C220.144 413.689 220.673 413.321 221.288 413.052C221.903 412.775 222.566 412.636 223.277 412.636C224.222 412.636 225.084 412.87 225.864 413.338C226.644 413.797 227.264 414.417 227.723 415.197C228.191 415.968 228.425 416.831 228.425 417.784ZM240.563 413H243.735V426H240.563L240.42 424.388C240.065 424.969 239.593 425.441 239.003 425.805C238.423 426.16 237.734 426.338 236.936 426.338C235.974 426.338 235.073 426.156 234.232 425.792C233.392 425.428 232.651 424.925 232.009 424.284C231.377 423.643 230.878 422.902 230.514 422.061C230.159 421.22 229.981 420.319 229.981 419.357C229.981 418.43 230.15 417.559 230.488 416.744C230.835 415.929 231.316 415.214 231.931 414.599C232.547 413.984 233.257 413.503 234.063 413.156C234.869 412.809 235.736 412.636 236.663 412.636C237.521 412.636 238.288 412.827 238.964 413.208C239.649 413.589 240.23 414.075 240.706 414.664L240.563 413ZM236.858 423.283C237.534 423.283 238.132 423.114 238.652 422.776C239.172 422.438 239.58 421.983 239.874 421.411C240.169 420.83 240.316 420.193 240.316 419.5C240.316 418.798 240.169 418.161 239.874 417.589C239.58 417.008 239.168 416.549 238.639 416.211C238.119 415.873 237.526 415.704 236.858 415.704C236.191 415.704 235.58 415.877 235.025 416.224C234.479 416.562 234.042 417.017 233.712 417.589C233.392 418.161 233.231 418.798 233.231 419.5C233.231 420.202 233.396 420.839 233.725 421.411C234.055 421.983 234.492 422.438 235.038 422.776C235.593 423.114 236.2 423.283 236.858 423.283ZM258.234 417.784V426H255.062V418.616C255.062 418.105 254.936 417.641 254.685 417.225C254.433 416.8 254.095 416.467 253.671 416.224C253.255 415.973 252.791 415.847 252.28 415.847C251.768 415.847 251.3 415.973 250.876 416.224C250.46 416.467 250.126 416.8 249.875 417.225C249.632 417.641 249.511 418.105 249.511 418.616V426H246.339L246.326 413H249.498L249.511 414.157C249.953 413.689 250.481 413.321 251.097 413.052C251.712 412.775 252.375 412.636 253.086 412.636C254.03 412.636 254.893 412.87 255.673 413.338C256.453 413.797 257.072 414.417 257.532 415.197C258 415.968 258.234 416.831 258.234 417.784ZM270.216 413H273.388V426.247C273.388 427.183 273.197 428.032 272.816 428.795C272.434 429.566 271.914 430.225 271.256 430.771C270.597 431.326 269.843 431.75 268.994 432.045C268.144 432.348 267.252 432.5 266.316 432.5C265.406 432.5 264.53 432.314 263.69 431.941C262.849 431.568 262.104 431.057 261.454 430.407C260.812 429.766 260.323 429.033 259.985 428.21L262.884 426.897C263.057 427.374 263.317 427.79 263.664 428.145C264.019 428.509 264.426 428.791 264.886 428.99C265.345 429.198 265.822 429.302 266.316 429.302C266.818 429.302 267.299 429.233 267.759 429.094C268.227 428.955 268.647 428.752 269.02 428.483C269.392 428.223 269.683 427.902 269.891 427.521C270.107 427.148 270.216 426.724 270.216 426.247V424.414C269.808 424.986 269.297 425.45 268.682 425.805C268.066 426.16 267.356 426.338 266.55 426.338C265.614 426.338 264.738 426.16 263.924 425.805C263.109 425.45 262.39 424.96 261.766 424.336C261.15 423.703 260.665 422.975 260.31 422.152C259.963 421.329 259.79 420.445 259.79 419.5C259.79 418.555 259.963 417.671 260.31 416.848C260.665 416.025 261.15 415.301 261.766 414.677C262.39 414.044 263.109 413.55 263.924 413.195C264.738 412.84 265.614 412.662 266.55 412.662C267.356 412.662 268.066 412.84 268.682 413.195C269.297 413.542 269.808 414.001 270.216 414.573V413ZM266.589 423.283C267.256 423.283 267.845 423.114 268.357 422.776C268.877 422.429 269.284 421.97 269.579 421.398C269.873 420.817 270.021 420.185 270.021 419.5C270.021 418.807 269.869 418.174 269.566 417.602C269.271 417.03 268.864 416.571 268.344 416.224C267.832 415.877 267.247 415.704 266.589 415.704C265.939 415.704 265.345 415.877 264.808 416.224C264.27 416.562 263.841 417.017 263.521 417.589C263.2 418.161 263.04 418.798 263.04 419.5C263.04 420.202 263.2 420.839 263.521 421.411C263.841 421.983 264.27 422.438 264.808 422.776C265.345 423.114 265.939 423.283 266.589 423.283ZM281.93 426.338C280.734 426.338 279.642 426.03 278.654 425.415C277.675 424.8 276.891 423.972 276.301 422.932C275.721 421.892 275.43 420.744 275.43 419.487C275.43 418.542 275.599 417.658 275.937 416.835C276.275 416.003 276.739 415.275 277.328 414.651C277.926 414.018 278.62 413.524 279.408 413.169C280.197 412.814 281.038 412.636 281.93 412.636C282.944 412.636 283.872 412.853 284.712 413.286C285.562 413.711 286.281 414.296 286.87 415.041C287.46 415.786 287.889 416.636 288.157 417.589C288.426 418.542 288.487 419.539 288.339 420.579H278.836C278.958 421.064 279.157 421.502 279.434 421.892C279.712 422.273 280.063 422.581 280.487 422.815C280.912 423.04 281.393 423.157 281.93 423.166C282.485 423.175 282.988 423.045 283.438 422.776C283.898 422.499 284.279 422.126 284.582 421.658L287.819 422.412C287.291 423.565 286.502 424.509 285.453 425.246C284.405 425.974 283.23 426.338 281.93 426.338ZM278.732 418.2H285.128C285.033 417.68 284.829 417.212 284.517 416.796C284.214 416.371 283.837 416.033 283.386 415.782C282.936 415.531 282.45 415.405 281.93 415.405C281.41 415.405 280.929 415.531 280.487 415.782C280.045 416.025 279.668 416.358 279.356 416.783C279.053 417.199 278.845 417.671 278.732 418.2ZM300.333 406.5H303.505V426H300.333V424.375C299.917 424.956 299.393 425.428 298.76 425.792C298.128 426.156 297.395 426.338 296.563 426.338C295.619 426.338 294.735 426.16 293.911 425.805C293.088 425.45 292.36 424.96 291.727 424.336C291.103 423.703 290.614 422.975 290.258 422.152C289.903 421.329 289.725 420.445 289.725 419.5C289.725 418.555 289.903 417.671 290.258 416.848C290.614 416.025 291.103 415.301 291.727 414.677C292.36 414.044 293.088 413.55 293.911 413.195C294.735 412.84 295.619 412.662 296.563 412.662C297.395 412.662 298.128 412.844 298.76 413.208C299.393 413.563 299.917 414.036 300.333 414.625V406.5ZM296.602 423.283C297.278 423.283 297.876 423.114 298.396 422.776C298.916 422.438 299.324 421.983 299.618 421.411C299.913 420.83 300.06 420.193 300.06 419.5C300.06 418.798 299.913 418.161 299.618 417.589C299.324 417.008 298.912 416.549 298.383 416.211C297.863 415.873 297.27 415.704 296.602 415.704C295.935 415.704 295.324 415.877 294.769 416.224C294.223 416.562 293.786 417.017 293.456 417.589C293.136 418.161 292.975 418.798 292.975 419.5C292.975 420.202 293.14 420.839 293.469 421.411C293.799 421.983 294.236 422.438 294.782 422.776C295.337 423.114 295.944 423.283 296.602 423.283ZM306.394 420.54V407.8H309.072V420.54H306.394ZM307.746 426.338C307.287 426.338 306.897 426.178 306.576 425.857C306.264 425.536 306.108 425.146 306.108 424.687C306.108 424.236 306.264 423.855 306.576 423.543C306.897 423.231 307.287 423.075 307.746 423.075C308.188 423.075 308.565 423.231 308.877 423.543C309.189 423.855 309.345 424.236 309.345 424.687C309.345 425.146 309.189 425.536 308.877 425.857C308.565 426.178 308.188 426.338 307.746 426.338Z" fill="#1E232C"/>
<rect x="30" y="516" width="330" height="56" rx="8" fill="#1E232C"/>
<path d="M150.192 549V538.5H153.919C154.459 538.5 154.947 538.61 155.382 538.83C155.822 539.05 156.169 539.367 156.424 539.782C156.684 540.192 156.814 540.685 156.814 541.26C156.814 541.54 156.769 541.815 156.679 542.085C156.589 542.355 156.462 542.592 156.297 542.797C156.132 543.002 155.932 543.147 155.697 543.232C156.017 543.312 156.282 543.457 156.492 543.667C156.707 543.872 156.877 544.112 157.002 544.387C157.127 544.662 157.214 544.947 157.264 545.242C157.319 545.537 157.347 545.817 157.347 546.082C157.347 546.642 157.212 547.142 156.942 547.582C156.672 548.022 156.309 548.37 155.854 548.625C155.404 548.875 154.907 549 154.362 549H150.192ZM151.752 547.65H154.212C154.532 547.65 154.822 547.57 155.082 547.41C155.347 547.25 155.557 547.03 155.712 546.75C155.867 546.465 155.944 546.145 155.944 545.79C155.944 545.48 155.867 545.187 155.712 544.912C155.557 544.632 155.347 544.407 155.082 544.237C154.822 544.067 154.532 543.982 154.212 543.982H151.752V547.65ZM151.752 542.655H153.754C154.164 542.655 154.517 542.53 154.812 542.28C155.107 542.03 155.254 541.687 155.254 541.253C155.254 540.787 155.107 540.44 154.812 540.21C154.517 539.975 154.164 539.857 153.754 539.857H151.752V542.655ZM164.332 541.5H165.892V549H164.325L164.265 547.912C164.045 548.297 163.747 548.607 163.372 548.842C162.997 549.077 162.555 549.195 162.045 549.195C161.495 549.195 160.977 549.093 160.492 548.887C160.007 548.677 159.58 548.387 159.21 548.017C158.845 547.647 158.56 547.222 158.355 546.742C158.15 546.257 158.047 545.737 158.047 545.182C158.047 544.647 158.147 544.145 158.347 543.675C158.547 543.2 158.825 542.785 159.18 542.43C159.535 542.075 159.945 541.797 160.41 541.597C160.88 541.392 161.382 541.29 161.917 541.29C162.462 541.29 162.942 541.415 163.357 541.665C163.777 541.91 164.125 542.225 164.4 542.61L164.332 541.5ZM162.007 547.687C162.447 547.687 162.832 547.58 163.162 547.365C163.492 547.145 163.747 546.85 163.927 546.48C164.112 546.11 164.205 545.7 164.205 545.25C164.205 544.795 164.112 544.382 163.927 544.012C163.742 543.642 163.485 543.35 163.155 543.135C162.83 542.915 162.447 542.805 162.007 542.805C161.572 542.805 161.175 542.915 160.815 543.135C160.455 543.355 160.17 543.65 159.96 544.02C159.75 544.39 159.645 544.8 159.645 545.25C159.645 545.705 159.752 546.117 159.967 546.487C160.187 546.852 160.475 547.145 160.83 547.365C161.19 547.58 161.582 547.687 162.007 547.687ZM172.14 546.87L173.535 547.627C173.195 548.102 172.762 548.482 172.237 548.767C171.717 549.052 171.152 549.195 170.542 549.195C169.852 549.195 169.222 549.017 168.652 548.662C168.087 548.307 167.635 547.832 167.295 547.237C166.96 546.637 166.792 545.975 166.792 545.25C166.792 544.7 166.89 544.187 167.085 543.712C167.28 543.232 167.547 542.812 167.887 542.452C168.232 542.087 168.632 541.802 169.087 541.597C169.542 541.392 170.027 541.29 170.542 541.29C171.152 541.29 171.717 541.432 172.237 541.717C172.762 542.002 173.195 542.385 173.535 542.865L172.14 543.622C171.93 543.372 171.685 543.182 171.405 543.052C171.125 542.917 170.837 542.85 170.542 542.85C170.132 542.85 169.76 542.962 169.425 543.187C169.095 543.407 168.832 543.7 168.637 544.065C168.447 544.425 168.352 544.82 168.352 545.25C168.352 545.675 168.45 546.07 168.645 546.435C168.84 546.795 169.102 547.085 169.432 547.305C169.767 547.525 170.137 547.635 170.542 547.635C170.852 547.635 171.147 547.565 171.427 547.425C171.707 547.285 171.945 547.1 172.14 546.87ZM181.111 549H179.311L177.466 545.82L176.258 547.26V549H174.698V537.75H176.258V544.837L179.048 541.5H181.088L178.531 544.552L181.111 549ZM190.055 543.06H188.48L188.472 549H186.912L186.92 543.06H185.727V541.5H186.92L186.912 539.145H188.472L188.48 541.5H190.055V543.06ZM194.522 549.195C193.832 549.195 193.202 549.017 192.632 548.662C192.067 548.307 191.614 547.832 191.274 547.237C190.939 546.637 190.772 545.975 190.772 545.25C190.772 544.7 190.869 544.187 191.064 543.712C191.259 543.232 191.527 542.812 191.867 542.452C192.212 542.087 192.612 541.802 193.067 541.597C193.522 541.392 194.007 541.29 194.522 541.29C195.212 541.29 195.839 541.467 196.404 541.822C196.974 542.177 197.427 542.655 197.762 543.255C198.102 543.855 198.272 544.52 198.272 545.25C198.272 545.795 198.174 546.305 197.979 546.78C197.784 547.255 197.514 547.675 197.169 548.04C196.829 548.4 196.432 548.682 195.977 548.887C195.527 549.093 195.042 549.195 194.522 549.195ZM194.522 547.635C194.937 547.635 195.309 547.525 195.639 547.305C195.969 547.085 196.229 546.795 196.419 546.435C196.614 546.07 196.712 545.675 196.712 545.25C196.712 544.815 196.612 544.415 196.412 544.05C196.217 543.685 195.954 543.395 195.624 543.18C195.294 542.96 194.927 542.85 194.522 542.85C194.112 542.85 193.739 542.96 193.404 543.18C193.074 543.4 192.812 543.692 192.617 544.057C192.427 544.422 192.332 544.82 192.332 545.25C192.332 545.695 192.432 546.097 192.632 546.457C192.832 546.817 193.097 547.105 193.427 547.32C193.762 547.53 194.127 547.635 194.522 547.635ZM209.526 538.5H211.086V549H209.526V544.155H204.779V549H203.219V538.5H204.779V542.595H209.526V538.5ZM216.084 549.195C215.394 549.195 214.764 549.017 214.194 548.662C213.629 548.307 213.177 547.832 212.837 547.237C212.502 546.637 212.334 545.975 212.334 545.25C212.334 544.7 212.432 544.187 212.627 543.712C212.822 543.232 213.089 542.812 213.429 542.452C213.774 542.087 214.174 541.802 214.629 541.597C215.084 541.392 215.569 541.29 216.084 541.29C216.774 541.29 217.402 541.467 217.967 541.822C218.537 542.177 218.989 542.655 219.324 543.255C219.664 543.855 219.834 544.52 219.834 545.25C219.834 545.795 219.737 546.305 219.542 546.78C219.347 547.255 219.077 547.675 218.732 548.04C218.392 548.4 217.994 548.682 217.539 548.887C217.089 549.093 216.604 549.195 216.084 549.195ZM216.084 547.635C216.499 547.635 216.872 547.525 217.202 547.305C217.532 547.085 217.792 546.795 217.982 546.435C218.177 546.07 218.274 545.675 218.274 545.25C218.274 544.815 218.174 544.415 217.974 544.05C217.779 543.685 217.517 543.395 217.187 543.18C216.857 542.96 216.489 542.85 216.084 542.85C215.674 542.85 215.302 542.96 214.967 543.18C214.637 543.4 214.374 543.692 214.179 544.057C213.989 544.422 213.894 544.82 213.894 545.25C213.894 545.695 213.994 546.097 214.194 546.457C214.394 546.817 214.659 547.105 214.989 547.32C215.324 547.53 215.689 547.635 216.084 547.635ZM221.046 549V541.5H222.606V542.295C222.866 541.985 223.183 541.74 223.558 541.56C223.938 541.38 224.348 541.29 224.788 541.29C225.323 541.29 225.816 541.42 226.266 541.68C226.716 541.935 227.073 542.275 227.338 542.7C227.603 542.275 227.956 541.935 228.396 541.68C228.841 541.42 229.331 541.29 229.866 541.29C230.421 541.29 230.926 541.425 231.381 541.695C231.836 541.965 232.198 542.327 232.468 542.782C232.738 543.237 232.873 543.742 232.873 544.297V549H231.313V544.695C231.313 544.365 231.233 544.062 231.073 543.787C230.913 543.512 230.698 543.29 230.428 543.12C230.158 542.95 229.858 542.865 229.528 542.865C229.198 542.865 228.898 542.945 228.628 543.105C228.358 543.265 228.143 543.482 227.983 543.757C227.823 544.032 227.743 544.345 227.743 544.695V549H226.183V544.695C226.183 544.345 226.103 544.032 225.943 543.757C225.783 543.482 225.566 543.265 225.291 543.105C225.021 542.945 224.721 542.865 224.391 542.865C224.066 542.865 223.766 542.95 223.491 543.12C223.221 543.29 223.006 543.512 222.846 543.787C222.686 544.062 222.606 544.365 222.606 544.695V549H221.046ZM237.53 549.195C236.84 549.195 236.21 549.017 235.64 548.662C235.075 548.307 234.622 547.832 234.282 547.237C233.947 546.637 233.78 545.975 233.78 545.25C233.78 544.7 233.877 544.187 234.072 543.712C234.267 543.232 234.535 542.812 234.875 542.452C235.22 542.087 235.62 541.802 236.075 541.597C236.53 541.392 237.015 541.29 237.53 541.29C238.105 541.29 238.632 541.41 239.112 541.65C239.592 541.885 240.002 542.212 240.342 542.632C240.682 543.047 240.932 543.527 241.092 544.072C241.252 544.612 241.3 545.187 241.235 545.797H235.452C235.517 546.142 235.642 546.455 235.827 546.735C236.017 547.01 236.257 547.227 236.547 547.387C236.842 547.547 237.17 547.63 237.53 547.635C237.91 547.635 238.255 547.54 238.565 547.35C238.88 547.16 239.137 546.897 239.337 546.562L240.92 546.93C240.62 547.595 240.167 548.14 239.562 548.565C238.957 548.985 238.28 549.195 237.53 549.195ZM235.4 544.605H239.66C239.61 544.245 239.482 543.92 239.277 543.63C239.077 543.335 238.825 543.102 238.52 542.932C238.22 542.757 237.89 542.67 237.53 542.67C237.175 542.67 236.845 542.755 236.54 542.925C236.24 543.095 235.99 543.327 235.79 543.622C235.595 543.912 235.465 544.24 235.4 544.605Z" fill="white"/>
<path opacity="0.35" d="M351.5 20C351.5 18.8034 352.47 17.8334 353.667 17.8334H370.333C371.53 17.8334 372.5 18.8034 372.5 20V26C372.5 27.1967 371.53 28.1667 370.333 28.1667H353.667C352.47 28.1667 351.5 27.1967 351.5 26V20Z" stroke="black"/>
<path opacity="0.4" d="M374 21.0001V25.0001C374.805 24.6613 375.328 23.8732 375.328 23.0001C375.328 22.1269 374.805 21.3388 374 21.0001Z" fill="black"/>
<path d="M353 20.6667C353 19.9303 353.597 19.3334 354.333 19.3334H369.667C370.403 19.3334 371 19.9303 371 20.6667V25.3334C371 26.0698 370.403 26.6667 369.667 26.6667H354.333C353.597 26.6667 353 26.0698 353 25.3334V20.6667Z" fill="black"/>
<path fill-rule="evenodd" clip-rule="evenodd" d="M338.33 19.608C340.546 19.6081 342.677 20.4596 344.283 21.9863C344.404 22.1042 344.598 22.1027 344.717 21.983L345.873 20.8163C345.933 20.7556 345.967 20.6734 345.966 20.5878C345.966 20.5022 345.931 20.4204 345.87 20.3603C341.655 16.3208 335.005 16.3208 330.79 20.3603C330.729 20.4203 330.694 20.5021 330.694 20.5877C330.693 20.6733 330.727 20.7556 330.787 20.8163L331.943 21.983C332.062 22.1029 332.256 22.1044 332.377 21.9863C333.983 20.4595 336.114 19.608 338.33 19.608ZM338.33 23.4037C339.548 23.4036 340.722 23.8561 341.624 24.6733C341.746 24.7893 341.939 24.7868 342.058 24.6677L343.212 23.501C343.273 23.4398 343.307 23.3568 343.306 23.2705C343.305 23.1843 343.27 23.102 343.208 23.042C340.459 20.4856 336.204 20.4856 333.455 23.042C333.393 23.102 333.358 23.1843 333.357 23.2706C333.356 23.3569 333.39 23.4399 333.451 23.501L334.605 24.6677C334.724 24.7868 334.917 24.7893 335.039 24.6733C335.941 23.8567 337.114 23.4042 338.33 23.4037ZM340.643 25.9575C340.645 26.044 340.611 26.1274 340.549 26.188L338.552 28.2037C338.493 28.2629 338.414 28.2963 338.33 28.2963C338.247 28.2963 338.167 28.2629 338.109 28.2037L336.111 26.188C336.049 26.1274 336.015 26.0439 336.017 25.9574C336.019 25.8709 336.056 25.789 336.121 25.731C337.396 24.6521 339.264 24.6521 340.54 25.731C340.604 25.7891 340.642 25.871 340.643 25.9575Z" fill="black"/>
<path fill-rule="evenodd" clip-rule="evenodd" d="M324.667 17.6666H323.667C323.114 17.6666 322.667 18.1143 322.667 18.6666V27.3333C322.667 27.8856 323.114 28.3333 323.667 28.3333H324.667C325.219 28.3333 325.667 27.8856 325.667 27.3333V18.6666C325.667 18.1143 325.219 17.6666 324.667 17.6666ZM319 20H320C320.552 20 321 20.4477 321 21V27.3333C321 27.8856 320.552 28.3333 320 28.3333H319C318.448 28.3333 318 27.8856 318 27.3333V21C318 20.4477 318.448 20 319 20ZM315.333 22.3333H314.333C313.781 22.3333 313.333 22.781 313.333 23.3333V27.3333C313.333 27.8856 313.781 28.3333 314.333 28.3333H315.333C315.886 28.3333 316.333 27.8856 316.333 27.3333V23.3333C316.333 22.781 315.886 22.3333 315.333 22.3333ZM310.667 24.3333H309.667C309.114 24.3333 308.667 24.781 308.667 25.3333V27.3333C308.667 27.8856 309.114 28.3333 309.667 28.3333H310.667C311.219 28.3333 311.667 27.8856 311.667 27.3333V25.3333C311.667 24.781 311.219 24.3333 310.667 24.3333Z" fill="black"/>
<path d="M36.3207 28.2563C39.0087 28.2563 40.6053 26.1543 40.6053 22.5947C40.6053 21.2544 40.349 20.1265 39.8583 19.2549C39.1478 17.8999 37.9247 17.1675 36.3793 17.1675C34.0795 17.1675 32.4535 18.7129 32.4535 20.8809C32.4535 22.917 33.9183 24.3965 35.9325 24.3965C37.1703 24.3965 38.1737 23.8179 38.6718 22.8145H38.6937C38.6937 22.8145 38.723 22.8145 38.7303 22.8145C38.745 22.8145 38.7963 22.8145 38.7963 22.8145C38.7963 25.2314 37.8807 26.6743 36.3353 26.6743C35.4271 26.6743 34.724 26.1763 34.4823 25.3779H32.6C32.9149 27.1138 34.3871 28.2563 36.3207 28.2563ZM36.3866 22.895C35.1708 22.895 34.3065 22.0308 34.3065 20.8223C34.3065 19.6431 35.2147 18.7422 36.3939 18.7422C37.5731 18.7422 38.4813 19.6577 38.4813 20.8516C38.4813 22.0308 37.5951 22.895 36.3866 22.895Z" fill="black"/>
<path d="M43.6965 28.1538C44.3923 28.1538 44.8683 27.6558 44.8683 26.9966C44.8683 26.3301 44.3923 25.8394 43.6965 25.8394C43.008 25.8394 42.5246 26.3301 42.5246 26.9966C42.5246 27.6558 43.008 28.1538 43.6965 28.1538ZM43.6965 22.6606C44.3923 22.6606 44.8683 22.1699 44.8683 21.5107C44.8683 20.8442 44.3923 20.3535 43.6965 20.3535C43.008 20.3535 42.5246 20.8442 42.5246 21.5107C42.5246 22.1699 43.008 22.6606 43.6965 22.6606Z" fill="black"/>
<path d="M51.7241 28H53.5332V26.0298H54.9614V24.4331H53.5332V17.4312H50.8672C48.9995 20.2437 47.5127 22.5947 46.5605 24.3452V26.0298H51.7241V28ZM48.311 24.3672C49.5415 22.1992 50.6401 20.4634 51.6509 18.9692H51.7534V24.4771H48.311V24.3672Z" fill="black"/>
<path d="M58.99 28H60.8797V17.4312H58.9973L56.2361 19.3647V21.1812L58.8655 19.3354H58.99V28Z" fill="black"/>
<defs>
<clipPath id="clip0_5_336">
<rect width="100" height="100" fill="white" transform="translate(145 271)"/>
</clipPath>
</defs>
</svg>
