<svg width="390" height="844" viewBox="0 0 390 844" fill="none" xmlns="http://www.w3.org/2000/svg">
<rect width="390" height="844" fill="white"/>
<g clip-path="url(#clip0_5_1505)">
<path d="M241.481 320.998C243.025 319.2 244.107 317.051 244.634 314.74C245.16 312.429 245.114 310.024 244.501 307.734C243.887 305.444 242.724 303.339 241.113 301.6C239.501 299.862 237.49 298.543 235.253 297.758C235.691 295.428 235.554 293.026 234.854 290.761C234.154 288.496 232.912 286.436 231.236 284.76C229.559 283.084 227.499 281.842 225.234 281.143C222.969 280.443 220.568 280.306 218.238 280.745C217.454 278.508 216.135 276.496 214.396 274.884C212.658 273.272 210.552 272.109 208.262 271.495C205.972 270.882 203.567 270.837 201.255 271.364C198.944 271.891 196.796 272.974 194.998 274.519C193.199 272.975 191.051 271.893 188.74 271.366C186.428 270.84 184.023 270.886 181.734 271.499C179.444 272.113 177.339 273.276 175.6 274.887C173.862 276.499 172.542 278.51 171.757 280.747C169.428 280.309 167.026 280.446 164.762 281.147C162.497 281.847 160.438 283.089 158.762 284.765C157.086 286.442 155.844 288.501 155.144 290.766C154.445 293.031 154.308 295.432 154.747 297.762C152.51 298.547 150.499 299.866 148.887 301.605C147.276 303.343 146.113 305.449 145.499 307.738C144.885 310.028 144.84 312.433 145.366 314.744C145.892 317.056 146.975 319.204 148.519 321.002C146.974 322.801 145.892 324.949 145.365 327.261C144.839 329.572 144.884 331.977 145.498 334.267C146.112 336.557 147.276 338.663 148.888 340.401C150.5 342.14 152.512 343.458 154.749 344.243C154.31 346.572 154.446 348.974 155.146 351.239C155.846 353.504 157.088 355.564 158.764 357.24C160.44 358.916 162.501 360.157 164.766 360.857C167.031 361.556 169.432 361.692 171.762 361.253C172.547 363.49 173.866 365.501 175.604 367.113C177.343 368.724 179.448 369.887 181.738 370.501C184.028 371.114 186.433 371.16 188.744 370.634C191.055 370.108 193.204 369.025 195.002 367.481C196.8 369.026 198.949 370.108 201.26 370.635C203.572 371.161 205.977 371.116 208.267 370.502C210.557 369.888 212.662 368.724 214.401 367.112C216.139 365.5 217.458 363.488 218.242 361.251C220.572 361.69 222.974 361.553 225.239 360.854C227.504 360.154 229.563 358.912 231.24 357.236C232.916 355.559 234.158 353.499 234.858 351.234C235.557 348.97 235.694 346.568 235.255 344.238C237.492 343.453 239.504 342.134 241.115 340.396C242.727 338.657 243.89 336.552 244.503 334.262C245.116 331.972 245.162 329.567 244.635 327.255C244.108 324.944 243.026 322.796 241.481 320.998Z" fill="#18C07A"/>
<path d="M186.025 340.084L172.13 326.198C171.603 325.67 171.307 324.954 171.307 324.208C171.307 323.462 171.603 322.746 172.13 322.218L173.818 320.528C174.346 320 175.062 319.704 175.809 319.704C176.555 319.704 177.271 320 177.799 320.528L187.899 330.621L211.686 305.344C212.197 304.801 212.904 304.483 213.65 304.46C214.396 304.437 215.12 304.712 215.664 305.223L217.398 306.859C217.941 307.37 218.259 308.077 218.282 308.824C218.305 309.57 218.03 310.295 217.519 310.839L190.072 340.021C189.814 340.297 189.503 340.517 189.157 340.67C188.812 340.823 188.439 340.905 188.062 340.911C187.684 340.916 187.309 340.846 186.959 340.704C186.609 340.562 186.291 340.352 186.025 340.084Z" fill="white"/>
</g>
<path d="M102.308 446.5H103.793L100.238 452.252V457H98.9781V452.252L95.4231 446.5H96.9081L99.6081 450.872L102.308 446.5ZM107.142 457.195C106.452 457.195 105.822 457.017 105.252 456.662C104.687 456.307 104.234 455.832 103.894 455.237C103.559 454.637 103.392 453.975 103.392 453.25C103.392 452.7 103.489 452.187 103.684 451.712C103.879 451.232 104.147 450.812 104.487 450.452C104.832 450.087 105.232 449.802 105.687 449.597C106.142 449.392 106.627 449.29 107.142 449.29C107.832 449.29 108.459 449.467 109.024 449.822C109.594 450.177 110.047 450.655 110.382 451.255C110.722 451.855 110.892 452.52 110.892 453.25C110.892 453.795 110.794 454.305 110.599 454.78C110.404 455.255 110.134 455.675 109.789 456.04C109.449 456.4 109.052 456.682 108.597 456.887C108.147 457.093 107.662 457.195 107.142 457.195ZM107.142 455.935C107.612 455.935 108.034 455.812 108.409 455.567C108.789 455.317 109.087 454.99 109.302 454.585C109.522 454.175 109.632 453.73 109.632 453.25C109.632 452.76 109.519 452.31 109.294 451.9C109.074 451.49 108.777 451.162 108.402 450.917C108.027 450.672 107.607 450.55 107.142 450.55C106.672 450.55 106.249 450.675 105.874 450.925C105.499 451.17 105.202 451.497 104.982 451.907C104.762 452.317 104.652 452.765 104.652 453.25C104.652 453.75 104.764 454.205 104.989 454.615C105.214 455.02 105.517 455.342 105.897 455.582C106.277 455.817 106.692 455.935 107.142 455.935ZM111.73 454.15V449.5H112.99V453.872C112.99 454.252 113.083 454.597 113.268 454.907C113.453 455.217 113.7 455.465 114.01 455.65C114.325 455.83 114.67 455.92 115.045 455.92C115.425 455.92 115.768 455.83 116.073 455.65C116.383 455.465 116.63 455.217 116.815 454.907C117 454.597 117.093 454.252 117.093 453.872V449.5H118.353L118.36 457H117.1L117.093 456.047C116.828 456.397 116.493 456.677 116.088 456.887C115.683 457.093 115.245 457.195 114.775 457.195C114.215 457.195 113.703 457.06 113.238 456.79C112.778 456.515 112.41 456.147 112.135 455.687C111.865 455.227 111.73 454.715 111.73 454.15ZM119.867 457V449.5H121.127V450.437C121.392 450.087 121.727 449.81 122.132 449.605C122.537 449.395 122.977 449.29 123.452 449.29C123.742 449.29 124.022 449.327 124.292 449.402L123.782 450.662C123.577 450.597 123.377 450.565 123.182 450.565C122.807 450.565 122.462 450.657 122.147 450.842C121.837 451.022 121.59 451.267 121.405 451.577C121.22 451.887 121.127 452.232 121.127 452.612V457H119.867ZM130.209 460.75H128.949V449.5H130.209V450.782C130.464 450.342 130.804 449.987 131.229 449.717C131.654 449.442 132.159 449.305 132.744 449.305C133.289 449.305 133.799 449.407 134.274 449.612C134.754 449.817 135.174 450.102 135.534 450.467C135.894 450.827 136.177 451.245 136.382 451.72C136.587 452.195 136.689 452.705 136.689 453.25C136.689 453.795 136.587 454.307 136.382 454.787C136.177 455.267 135.894 455.69 135.534 456.055C135.174 456.415 134.754 456.697 134.274 456.902C133.799 457.108 133.289 457.21 132.744 457.21C132.159 457.21 131.654 457.075 131.229 456.805C130.804 456.53 130.464 456.172 130.209 455.732V460.75ZM132.729 450.527C132.244 450.527 131.819 450.65 131.454 450.895C131.089 451.14 130.807 451.467 130.607 451.877C130.412 452.287 130.314 452.745 130.314 453.25C130.314 453.75 130.412 454.207 130.607 454.622C130.807 455.037 131.087 455.367 131.447 455.612C131.812 455.857 132.239 455.98 132.729 455.98C133.214 455.98 133.659 455.86 134.064 455.62C134.469 455.375 134.794 455.047 135.039 454.637C135.284 454.222 135.407 453.76 135.407 453.25C135.407 452.75 135.287 452.295 135.047 451.885C134.807 451.47 134.484 451.14 134.079 450.895C133.674 450.65 133.224 450.527 132.729 450.527ZM143.93 449.5H145.19V457H143.93L143.877 455.732C143.642 456.167 143.317 456.52 142.902 456.79C142.492 457.06 142.002 457.195 141.432 457.195C140.882 457.195 140.367 457.093 139.887 456.887C139.407 456.677 138.982 456.39 138.612 456.025C138.247 455.655 137.962 455.23 137.757 454.75C137.552 454.27 137.45 453.752 137.45 453.197C137.45 452.662 137.55 452.157 137.75 451.682C137.95 451.207 138.227 450.792 138.582 450.437C138.942 450.077 139.357 449.797 139.827 449.597C140.297 449.392 140.802 449.29 141.342 449.29C141.932 449.29 142.45 449.43 142.895 449.71C143.34 449.985 143.7 450.342 143.975 450.782L143.93 449.5ZM141.41 455.972C141.905 455.972 142.332 455.852 142.692 455.612C143.057 455.367 143.337 455.037 143.532 454.622C143.732 454.207 143.832 453.75 143.832 453.25C143.832 452.74 143.732 452.28 143.532 451.87C143.332 451.455 143.05 451.127 142.685 450.887C142.325 450.642 141.9 450.52 141.41 450.52C140.915 450.52 140.465 450.642 140.06 450.887C139.655 451.132 139.332 451.462 139.092 451.877C138.857 452.287 138.74 452.745 138.74 453.25C138.74 453.755 138.862 454.215 139.107 454.63C139.352 455.04 139.677 455.367 140.082 455.612C140.487 455.852 140.93 455.972 141.41 455.972ZM151.592 449.5H152.927L148.824 460.75H147.489L148.847 457L146.154 449.5H147.534L149.477 455.267L151.592 449.5ZM154.247 457V449.5H155.507V450.437C155.772 450.087 156.105 449.81 156.505 449.605C156.91 449.395 157.35 449.29 157.825 449.29C158.38 449.29 158.887 449.425 159.347 449.695C159.807 449.965 160.17 450.322 160.435 450.767C160.7 450.322 161.06 449.965 161.515 449.695C161.975 449.425 162.48 449.29 163.03 449.29C163.595 449.29 164.107 449.427 164.567 449.702C165.027 449.972 165.392 450.337 165.662 450.797C165.937 451.257 166.075 451.77 166.075 452.335V457H164.815V452.635C164.815 452.265 164.725 451.922 164.545 451.607C164.365 451.292 164.122 451.04 163.817 450.85C163.512 450.66 163.175 450.565 162.805 450.565C162.435 450.565 162.097 450.655 161.792 450.835C161.487 451.01 161.245 451.255 161.065 451.57C160.885 451.88 160.795 452.235 160.795 452.635V457H159.535V452.635C159.535 452.235 159.445 451.88 159.265 451.57C159.085 451.255 158.84 451.01 158.53 450.835C158.225 450.655 157.887 450.565 157.517 450.565C157.152 450.565 156.815 450.66 156.505 450.85C156.2 451.04 155.957 451.292 155.777 451.607C155.597 451.922 155.507 452.265 155.507 452.635V457H154.247ZM170.731 457.195C170.041 457.195 169.411 457.017 168.841 456.662C168.276 456.307 167.823 455.832 167.483 455.237C167.148 454.637 166.981 453.975 166.981 453.25C166.981 452.7 167.078 452.187 167.273 451.712C167.468 451.232 167.736 450.812 168.076 450.452C168.421 450.087 168.821 449.802 169.276 449.597C169.731 449.392 170.216 449.29 170.731 449.29C171.296 449.29 171.813 449.405 172.283 449.635C172.758 449.86 173.163 450.175 173.498 450.58C173.838 450.985 174.091 451.455 174.256 451.99C174.426 452.525 174.488 453.097 174.443 453.707H168.323C168.383 454.132 168.523 454.512 168.743 454.847C168.963 455.177 169.243 455.44 169.583 455.635C169.928 455.83 170.311 455.93 170.731 455.935C171.181 455.935 171.588 455.82 171.953 455.59C172.318 455.355 172.613 455.035 172.838 454.63L174.121 454.93C173.821 455.595 173.368 456.14 172.763 456.565C172.158 456.985 171.481 457.195 170.731 457.195ZM168.286 452.717H173.176C173.136 452.297 173.001 451.915 172.771 451.57C172.541 451.22 172.248 450.94 171.893 450.73C171.538 450.52 171.151 450.415 170.731 450.415C170.311 450.415 169.926 450.517 169.576 450.722C169.226 450.927 168.936 451.205 168.706 451.555C168.481 451.9 168.341 452.287 168.286 452.717ZM182.337 452.335V457H181.077V452.612C181.077 452.232 180.985 451.887 180.8 451.577C180.615 451.267 180.367 451.022 180.057 450.842C179.747 450.657 179.402 450.565 179.022 450.565C178.647 450.565 178.302 450.657 177.987 450.842C177.677 451.022 177.43 451.267 177.245 451.577C177.06 451.887 176.967 452.232 176.967 452.612V457H175.707V449.5H176.967V450.437C177.232 450.087 177.567 449.81 177.972 449.605C178.377 449.395 178.817 449.29 179.292 449.29C179.852 449.29 180.362 449.427 180.822 449.702C181.287 449.972 181.655 450.337 181.925 450.797C182.2 451.257 182.337 451.77 182.337 452.335ZM187.722 450.76H186.02L186.012 457H184.752L184.76 450.76H183.47V449.5H184.76L184.752 447.145H186.012L186.02 449.5H187.722V450.76ZM199.3 452.335V457H198.04V452.612C198.04 452.232 197.948 451.887 197.763 451.577C197.578 451.267 197.33 451.022 197.02 450.842C196.71 450.657 196.365 450.565 195.985 450.565C195.61 450.565 195.265 450.657 194.95 450.842C194.64 451.022 194.393 451.267 194.208 451.577C194.023 451.887 193.93 452.232 193.93 452.612V457H192.67V445.75H193.93V450.437C194.195 450.087 194.53 449.81 194.935 449.605C195.34 449.395 195.78 449.29 196.255 449.29C196.815 449.29 197.325 449.427 197.785 449.702C198.25 449.972 198.618 450.337 198.888 450.797C199.163 451.257 199.3 451.77 199.3 452.335ZM206.683 449.5H207.943V457H206.683L206.631 455.732C206.396 456.167 206.071 456.52 205.656 456.79C205.246 457.06 204.756 457.195 204.186 457.195C203.636 457.195 203.121 457.093 202.641 456.887C202.161 456.677 201.736 456.39 201.366 456.025C201.001 455.655 200.716 455.23 200.511 454.75C200.306 454.27 200.203 453.752 200.203 453.197C200.203 452.662 200.303 452.157 200.503 451.682C200.703 451.207 200.981 450.792 201.336 450.437C201.696 450.077 202.111 449.797 202.581 449.597C203.051 449.392 203.556 449.29 204.096 449.29C204.686 449.29 205.203 449.43 205.648 449.71C206.093 449.985 206.453 450.342 206.728 450.782L206.683 449.5ZM204.163 455.972C204.658 455.972 205.086 455.852 205.446 455.612C205.811 455.367 206.091 455.037 206.286 454.622C206.486 454.207 206.586 453.75 206.586 453.25C206.586 452.74 206.486 452.28 206.286 451.87C206.086 451.455 205.803 451.127 205.438 450.887C205.078 450.642 204.653 450.52 204.163 450.52C203.668 450.52 203.218 450.642 202.813 450.887C202.408 451.132 202.086 451.462 201.846 451.877C201.611 452.287 201.493 452.745 201.493 453.25C201.493 453.755 201.616 454.215 201.861 454.63C202.106 455.04 202.431 455.367 202.836 455.612C203.241 455.852 203.683 455.972 204.163 455.972ZM211.73 457.143C211.325 457.128 210.93 457.053 210.545 456.917C210.165 456.777 209.83 456.59 209.54 456.355C209.255 456.115 209.047 455.84 208.917 455.53L209.997 455.065C210.072 455.235 210.207 455.395 210.402 455.545C210.597 455.695 210.822 455.815 211.077 455.905C211.332 455.995 211.59 456.04 211.85 456.04C212.125 456.04 212.382 455.997 212.622 455.912C212.862 455.827 213.057 455.702 213.207 455.537C213.362 455.367 213.44 455.165 213.44 454.93C213.44 454.68 213.355 454.485 213.185 454.345C213.02 454.2 212.81 454.087 212.555 454.007C212.305 453.922 212.05 453.842 211.79 453.767C211.275 453.637 210.815 453.482 210.41 453.302C210.005 453.117 209.685 452.885 209.45 452.605C209.22 452.32 209.105 451.957 209.105 451.517C209.105 451.052 209.232 450.65 209.487 450.31C209.747 449.97 210.087 449.707 210.507 449.522C210.927 449.337 211.377 449.245 211.857 449.245C212.462 449.245 213.015 449.375 213.515 449.635C214.015 449.895 214.387 450.247 214.632 450.692L213.62 451.285C213.535 451.105 213.405 450.947 213.23 450.812C213.055 450.672 212.855 450.562 212.63 450.482C212.405 450.402 212.175 450.36 211.94 450.355C211.65 450.345 211.377 450.382 211.122 450.467C210.872 450.552 210.67 450.682 210.515 450.857C210.365 451.027 210.29 451.24 210.29 451.495C210.29 451.745 210.37 451.935 210.53 452.065C210.695 452.195 210.907 452.3 211.167 452.38C211.432 452.455 211.72 452.542 212.03 452.642C212.485 452.787 212.91 452.955 213.305 453.145C213.7 453.335 214.017 453.572 214.257 453.857C214.502 454.142 214.622 454.495 214.617 454.915C214.617 455.375 214.48 455.777 214.205 456.122C213.93 456.462 213.572 456.722 213.132 456.902C212.697 457.083 212.23 457.163 211.73 457.143ZM223.301 449.29C224.031 449.29 224.693 449.467 225.288 449.822C225.888 450.177 226.366 450.655 226.721 451.255C227.076 451.85 227.253 452.512 227.253 453.242C227.253 453.787 227.151 454.3 226.946 454.78C226.741 455.255 226.456 455.675 226.091 456.04C225.731 456.4 225.311 456.682 224.831 456.887C224.356 457.093 223.846 457.195 223.301 457.195C222.721 457.195 222.216 457.06 221.786 456.79C221.361 456.515 221.021 456.157 220.766 455.717V457H219.506V445.75H220.766V450.767C221.021 450.327 221.361 449.972 221.786 449.702C222.216 449.427 222.721 449.29 223.301 449.29ZM223.286 455.965C223.781 455.965 224.231 455.842 224.636 455.597C225.041 455.352 225.363 455.025 225.603 454.615C225.843 454.2 225.963 453.742 225.963 453.242C225.963 452.732 225.841 452.272 225.596 451.862C225.351 451.447 225.026 451.12 224.621 450.88C224.216 450.635 223.771 450.512 223.286 450.512C222.796 450.512 222.368 450.635 222.003 450.88C221.643 451.125 221.363 451.455 221.163 451.87C220.968 452.285 220.871 452.742 220.871 453.242C220.871 453.747 220.968 454.207 221.163 454.622C221.363 455.032 221.646 455.36 222.011 455.605C222.376 455.845 222.801 455.965 223.286 455.965ZM231.756 457.195C231.066 457.195 230.436 457.017 229.866 456.662C229.301 456.307 228.849 455.832 228.509 455.237C228.174 454.637 228.006 453.975 228.006 453.25C228.006 452.7 228.104 452.187 228.299 451.712C228.494 451.232 228.761 450.812 229.101 450.452C229.446 450.087 229.846 449.802 230.301 449.597C230.756 449.392 231.241 449.29 231.756 449.29C232.321 449.29 232.839 449.405 233.309 449.635C233.784 449.86 234.189 450.175 234.524 450.58C234.864 450.985 235.116 451.455 235.281 451.99C235.451 452.525 235.514 453.097 235.469 453.707H229.349C229.409 454.132 229.549 454.512 229.769 454.847C229.989 455.177 230.269 455.44 230.609 455.635C230.954 455.83 231.336 455.93 231.756 455.935C232.206 455.935 232.614 455.82 232.979 455.59C233.344 455.355 233.639 455.035 233.864 454.63L235.146 454.93C234.846 455.595 234.394 456.14 233.789 456.565C233.184 456.985 232.506 457.195 231.756 457.195ZM229.311 452.717H234.201C234.161 452.297 234.026 451.915 233.796 451.57C233.566 451.22 233.274 450.94 232.919 450.73C232.564 450.52 232.176 450.415 231.756 450.415C231.336 450.415 230.951 450.517 230.601 450.722C230.251 450.927 229.961 451.205 229.731 451.555C229.506 451.9 229.366 452.287 229.311 452.717ZM239.989 457.195C239.299 457.195 238.669 457.017 238.099 456.662C237.534 456.307 237.081 455.832 236.741 455.237C236.406 454.637 236.239 453.975 236.239 453.25C236.239 452.7 236.336 452.187 236.531 451.712C236.726 451.232 236.994 450.812 237.334 450.452C237.679 450.087 238.079 449.802 238.534 449.597C238.989 449.392 239.474 449.29 239.989 449.29C240.554 449.29 241.071 449.405 241.541 449.635C242.016 449.86 242.421 450.175 242.756 450.58C243.096 450.985 243.349 451.455 243.514 451.99C243.684 452.525 243.746 453.097 243.701 453.707H237.581C237.641 454.132 237.781 454.512 238.001 454.847C238.221 455.177 238.501 455.44 238.841 455.635C239.186 455.83 239.569 455.93 239.989 455.935C240.439 455.935 240.846 455.82 241.211 455.59C241.576 455.355 241.871 455.035 242.096 454.63L243.379 454.93C243.079 455.595 242.626 456.14 242.021 456.565C241.416 456.985 240.739 457.195 239.989 457.195ZM237.544 452.717H242.434C242.394 452.297 242.259 451.915 242.029 451.57C241.799 451.22 241.506 450.94 241.151 450.73C240.796 450.52 240.409 450.415 239.989 450.415C239.569 450.415 239.184 450.517 238.834 450.722C238.484 450.927 238.194 451.205 237.964 451.555C237.739 451.9 237.599 452.287 237.544 452.717ZM251.595 452.335V457H250.335V452.612C250.335 452.232 250.242 451.887 250.057 451.577C249.872 451.267 249.625 451.022 249.315 450.842C249.005 450.657 248.66 450.565 248.28 450.565C247.905 450.565 247.56 450.657 247.245 450.842C246.935 451.022 246.687 451.267 246.502 451.577C246.317 451.887 246.225 452.232 246.225 452.612V457H244.965V449.5H246.225V450.437C246.49 450.087 246.825 449.81 247.23 449.605C247.635 449.395 248.075 449.29 248.55 449.29C249.11 449.29 249.62 449.427 250.08 449.702C250.545 449.972 250.912 450.337 251.182 450.797C251.457 451.257 251.595 451.77 251.595 452.335ZM256.698 457V449.5H257.958V450.437C258.223 450.087 258.556 449.81 258.956 449.605C259.361 449.395 259.801 449.29 260.276 449.29C260.831 449.29 261.338 449.425 261.798 449.695C262.258 449.965 262.621 450.322 262.886 450.767C263.151 450.322 263.511 449.965 263.966 449.695C264.426 449.425 264.931 449.29 265.481 449.29C266.046 449.29 266.558 449.427 267.018 449.702C267.478 449.972 267.843 450.337 268.113 450.797C268.388 451.257 268.526 451.77 268.526 452.335V457H267.266V452.635C267.266 452.265 267.176 451.922 266.996 451.607C266.816 451.292 266.573 451.04 266.268 450.85C265.963 450.66 265.626 450.565 265.256 450.565C264.886 450.565 264.548 450.655 264.243 450.835C263.938 451.01 263.696 451.255 263.516 451.57C263.336 451.88 263.246 452.235 263.246 452.635V457H261.986V452.635C261.986 452.235 261.896 451.88 261.716 451.57C261.536 451.255 261.291 451.01 260.981 450.835C260.676 450.655 260.338 450.565 259.968 450.565C259.603 450.565 259.266 450.66 258.956 450.85C258.651 451.04 258.408 451.292 258.228 451.607C258.048 451.922 257.958 452.265 257.958 452.635V457H256.698ZM275.912 449.5H277.172V457H275.912L275.859 455.732C275.624 456.167 275.299 456.52 274.884 456.79C274.474 457.06 273.984 457.195 273.414 457.195C272.864 457.195 272.349 457.093 271.869 456.887C271.389 456.677 270.964 456.39 270.594 456.025C270.229 455.655 269.944 455.23 269.739 454.75C269.534 454.27 269.432 453.752 269.432 453.197C269.432 452.662 269.532 452.157 269.732 451.682C269.932 451.207 270.209 450.792 270.564 450.437C270.924 450.077 271.339 449.797 271.809 449.597C272.279 449.392 272.784 449.29 273.324 449.29C273.914 449.29 274.432 449.43 274.877 449.71C275.322 449.985 275.682 450.342 275.957 450.782L275.912 449.5ZM273.392 455.972C273.887 455.972 274.314 455.852 274.674 455.612C275.039 455.367 275.319 455.037 275.514 454.622C275.714 454.207 275.814 453.75 275.814 453.25C275.814 452.74 275.714 452.28 275.514 451.87C275.314 451.455 275.032 451.127 274.667 450.887C274.307 450.642 273.882 450.52 273.392 450.52C272.897 450.52 272.447 450.642 272.042 450.887C271.637 451.132 271.314 451.462 271.074 451.877C270.839 452.287 270.722 452.745 270.722 453.25C270.722 453.755 270.844 454.215 271.089 454.63C271.334 455.04 271.659 455.367 272.064 455.612C272.469 455.852 272.912 455.972 273.392 455.972ZM284.562 445.75H285.822V457H284.562V455.725C284.307 456.165 283.965 456.52 283.535 456.79C283.105 457.06 282.6 457.195 282.02 457.195C281.475 457.195 280.965 457.093 280.49 456.887C280.015 456.682 279.595 456.4 279.23 456.04C278.87 455.675 278.587 455.255 278.382 454.78C278.177 454.305 278.075 453.795 278.075 453.25C278.075 452.705 278.177 452.195 278.382 451.72C278.587 451.24 278.87 450.82 279.23 450.46C279.595 450.095 280.015 449.81 280.49 449.605C280.965 449.4 281.475 449.297 282.02 449.297C282.6 449.297 283.105 449.432 283.535 449.702C283.965 449.972 284.307 450.327 284.562 450.767V445.75ZM282.035 455.972C282.53 455.972 282.957 455.852 283.317 455.612C283.682 455.367 283.962 455.037 284.157 454.622C284.357 454.207 284.457 453.75 284.457 453.25C284.457 452.74 284.357 452.28 284.157 451.87C283.957 451.455 283.675 451.127 283.31 450.887C282.95 450.642 282.525 450.52 282.035 450.52C281.54 450.52 281.09 450.642 280.685 450.887C280.285 451.132 279.965 451.462 279.725 451.877C279.485 452.287 279.365 452.745 279.365 453.25C279.365 453.755 279.487 454.215 279.732 454.63C279.977 455.04 280.302 455.367 280.707 455.612C281.112 455.852 281.555 455.972 282.035 455.972ZM290.848 457.195C290.158 457.195 289.528 457.017 288.958 456.662C288.393 456.307 287.94 455.832 287.6 455.237C287.265 454.637 287.098 453.975 287.098 453.25C287.098 452.7 287.195 452.187 287.39 451.712C287.585 451.232 287.853 450.812 288.193 450.452C288.538 450.087 288.938 449.802 289.393 449.597C289.848 449.392 290.333 449.29 290.848 449.29C291.413 449.29 291.93 449.405 292.4 449.635C292.875 449.86 293.28 450.175 293.615 450.58C293.955 450.985 294.208 451.455 294.373 451.99C294.543 452.525 294.605 453.097 294.56 453.707H288.44C288.5 454.132 288.64 454.512 288.86 454.847C289.08 455.177 289.36 455.44 289.7 455.635C290.045 455.83 290.428 455.93 290.848 455.935C291.298 455.935 291.705 455.82 292.07 455.59C292.435 455.355 292.73 455.035 292.955 454.63L294.238 454.93C293.938 455.595 293.485 456.14 292.88 456.565C292.275 456.985 291.598 457.195 290.848 457.195ZM288.403 452.717H293.293C293.253 452.297 293.118 451.915 292.888 451.57C292.658 451.22 292.365 450.94 292.01 450.73C291.655 450.52 291.268 450.415 290.848 450.415C290.428 450.415 290.043 450.517 289.693 450.722C289.343 450.927 289.053 451.205 288.823 451.555C288.598 451.9 288.458 452.287 288.403 452.717ZM158.271 480.143C157.866 480.128 157.471 480.053 157.086 479.917C156.706 479.777 156.371 479.59 156.081 479.355C155.796 479.115 155.588 478.84 155.458 478.53L156.538 478.065C156.613 478.235 156.748 478.395 156.943 478.545C157.138 478.695 157.363 478.815 157.618 478.905C157.873 478.995 158.131 479.04 158.391 479.04C158.666 479.04 158.923 478.997 159.163 478.912C159.403 478.827 159.598 478.702 159.748 478.537C159.903 478.367 159.981 478.165 159.981 477.93C159.981 477.68 159.896 477.485 159.726 477.345C159.561 477.2 159.351 477.087 159.096 477.007C158.846 476.922 158.591 476.842 158.331 476.767C157.816 476.637 157.356 476.482 156.951 476.302C156.546 476.117 156.226 475.885 155.991 475.605C155.761 475.32 155.646 474.957 155.646 474.517C155.646 474.052 155.773 473.65 156.028 473.31C156.288 472.97 156.628 472.707 157.048 472.522C157.468 472.337 157.918 472.245 158.398 472.245C159.003 472.245 159.556 472.375 160.056 472.635C160.556 472.895 160.928 473.247 161.173 473.692L160.161 474.285C160.076 474.105 159.946 473.947 159.771 473.812C159.596 473.672 159.396 473.562 159.171 473.482C158.946 473.402 158.716 473.36 158.481 473.355C158.191 473.345 157.918 473.382 157.663 473.467C157.413 473.552 157.211 473.682 157.056 473.857C156.906 474.027 156.831 474.24 156.831 474.495C156.831 474.745 156.911 474.935 157.071 475.065C157.236 475.195 157.448 475.3 157.708 475.38C157.973 475.455 158.261 475.542 158.571 475.642C159.026 475.787 159.451 475.955 159.846 476.145C160.241 476.335 160.558 476.572 160.798 476.857C161.043 477.142 161.163 477.495 161.158 477.915C161.158 478.375 161.021 478.777 160.746 479.122C160.471 479.462 160.113 479.722 159.673 479.902C159.238 480.083 158.771 480.163 158.271 480.143ZM162.143 477.15V472.5H163.403V476.872C163.403 477.252 163.495 477.597 163.68 477.907C163.865 478.217 164.113 478.465 164.423 478.65C164.738 478.83 165.083 478.92 165.458 478.92C165.838 478.92 166.18 478.83 166.485 478.65C166.795 478.465 167.043 478.217 167.228 477.907C167.413 477.597 167.505 477.252 167.505 476.872V472.5H168.765L168.773 480H167.513L167.505 479.047C167.24 479.397 166.905 479.677 166.5 479.887C166.095 480.093 165.658 480.195 165.188 480.195C164.628 480.195 164.115 480.06 163.65 479.79C163.19 479.515 162.823 479.147 162.548 478.687C162.278 478.227 162.143 477.715 162.143 477.15ZM175.374 478.02L176.499 478.627C176.159 479.102 175.727 479.482 175.202 479.767C174.682 480.052 174.117 480.195 173.507 480.195C172.817 480.195 172.187 480.017 171.617 479.662C171.052 479.307 170.599 478.832 170.259 478.237C169.924 477.637 169.757 476.975 169.757 476.25C169.757 475.7 169.854 475.187 170.049 474.712C170.244 474.232 170.512 473.812 170.852 473.452C171.197 473.087 171.597 472.802 172.052 472.597C172.507 472.392 172.992 472.29 173.507 472.29C174.117 472.29 174.682 472.432 175.202 472.717C175.727 473.002 176.159 473.385 176.499 473.865L175.374 474.472C175.134 474.177 174.849 473.95 174.519 473.79C174.189 473.63 173.852 473.55 173.507 473.55C173.042 473.55 172.619 473.675 172.239 473.925C171.864 474.17 171.567 474.497 171.347 474.907C171.127 475.317 171.017 475.765 171.017 476.25C171.017 476.735 171.127 477.182 171.347 477.592C171.572 477.997 171.872 478.322 172.247 478.567C172.627 478.812 173.047 478.935 173.507 478.935C173.877 478.935 174.224 478.85 174.549 478.68C174.874 478.51 175.149 478.29 175.374 478.02ZM182.889 478.02L184.014 478.627C183.674 479.102 183.241 479.482 182.716 479.767C182.196 480.052 181.631 480.195 181.021 480.195C180.331 480.195 179.701 480.017 179.131 479.662C178.566 479.307 178.114 478.832 177.774 478.237C177.439 477.637 177.271 476.975 177.271 476.25C177.271 475.7 177.369 475.187 177.564 474.712C177.759 474.232 178.026 473.812 178.366 473.452C178.711 473.087 179.111 472.802 179.566 472.597C180.021 472.392 180.506 472.29 181.021 472.29C181.631 472.29 182.196 472.432 182.716 472.717C183.241 473.002 183.674 473.385 184.014 473.865L182.889 474.472C182.649 474.177 182.364 473.95 182.034 473.79C181.704 473.63 181.366 473.55 181.021 473.55C180.556 473.55 180.134 473.675 179.754 473.925C179.379 474.17 179.081 474.497 178.861 474.907C178.641 475.317 178.531 475.765 178.531 476.25C178.531 476.735 178.641 477.182 178.861 477.592C179.086 477.997 179.386 478.322 179.761 478.567C180.141 478.812 180.561 478.935 181.021 478.935C181.391 478.935 181.739 478.85 182.064 478.68C182.389 478.51 182.664 478.29 182.889 478.02ZM188.536 480.195C187.846 480.195 187.216 480.017 186.646 479.662C186.081 479.307 185.628 478.832 185.288 478.237C184.953 477.637 184.786 476.975 184.786 476.25C184.786 475.7 184.883 475.187 185.078 474.712C185.273 474.232 185.541 473.812 185.881 473.452C186.226 473.087 186.626 472.802 187.081 472.597C187.536 472.392 188.021 472.29 188.536 472.29C189.101 472.29 189.618 472.405 190.088 472.635C190.563 472.86 190.968 473.175 191.303 473.58C191.643 473.985 191.896 474.455 192.061 474.99C192.231 475.525 192.293 476.097 192.248 476.707H186.128C186.188 477.132 186.328 477.512 186.548 477.847C186.768 478.177 187.048 478.44 187.388 478.635C187.733 478.83 188.116 478.93 188.536 478.935C188.986 478.935 189.393 478.82 189.758 478.59C190.123 478.355 190.418 478.035 190.643 477.63L191.926 477.93C191.626 478.595 191.173 479.14 190.568 479.565C189.963 479.985 189.286 480.195 188.536 480.195ZM186.091 475.717H190.981C190.941 475.297 190.806 474.915 190.576 474.57C190.346 474.22 190.053 473.94 189.698 473.73C189.343 473.52 188.956 473.415 188.536 473.415C188.116 473.415 187.731 473.517 187.381 473.722C187.031 473.927 186.741 474.205 186.511 474.555C186.286 474.9 186.146 475.287 186.091 475.717ZM195.829 480.143C195.424 480.128 195.029 480.053 194.644 479.917C194.264 479.777 193.929 479.59 193.639 479.355C193.354 479.115 193.147 478.84 193.017 478.53L194.097 478.065C194.172 478.235 194.307 478.395 194.502 478.545C194.697 478.695 194.922 478.815 195.177 478.905C195.432 478.995 195.689 479.04 195.949 479.04C196.224 479.04 196.482 478.997 196.722 478.912C196.962 478.827 197.157 478.702 197.307 478.537C197.462 478.367 197.539 478.165 197.539 477.93C197.539 477.68 197.454 477.485 197.284 477.345C197.119 477.2 196.909 477.087 196.654 477.007C196.404 476.922 196.149 476.842 195.889 476.767C195.374 476.637 194.914 476.482 194.509 476.302C194.104 476.117 193.784 475.885 193.549 475.605C193.319 475.32 193.204 474.957 193.204 474.517C193.204 474.052 193.332 473.65 193.587 473.31C193.847 472.97 194.187 472.707 194.607 472.522C195.027 472.337 195.477 472.245 195.957 472.245C196.562 472.245 197.114 472.375 197.614 472.635C198.114 472.895 198.487 473.247 198.732 473.692L197.719 474.285C197.634 474.105 197.504 473.947 197.329 473.812C197.154 473.672 196.954 473.562 196.729 473.482C196.504 473.402 196.274 473.36 196.039 473.355C195.749 473.345 195.477 473.382 195.222 473.467C194.972 473.552 194.769 473.682 194.614 473.857C194.464 474.027 194.389 474.24 194.389 474.495C194.389 474.745 194.469 474.935 194.629 475.065C194.794 475.195 195.007 475.3 195.267 475.38C195.532 475.455 195.819 475.542 196.129 475.642C196.584 475.787 197.009 475.955 197.404 476.145C197.799 476.335 198.117 476.572 198.357 476.857C198.602 477.142 198.722 477.495 198.717 477.915C198.717 478.375 198.579 478.777 198.304 479.122C198.029 479.462 197.672 479.722 197.232 479.902C196.797 480.083 196.329 480.163 195.829 480.143ZM202.289 480.143C201.884 480.128 201.489 480.053 201.104 479.917C200.724 479.777 200.389 479.59 200.099 479.355C199.814 479.115 199.607 478.84 199.477 478.53L200.557 478.065C200.632 478.235 200.767 478.395 200.962 478.545C201.157 478.695 201.382 478.815 201.637 478.905C201.892 478.995 202.149 479.04 202.409 479.04C202.684 479.04 202.942 478.997 203.182 478.912C203.422 478.827 203.617 478.702 203.767 478.537C203.922 478.367 203.999 478.165 203.999 477.93C203.999 477.68 203.914 477.485 203.744 477.345C203.579 477.2 203.369 477.087 203.114 477.007C202.864 476.922 202.609 476.842 202.349 476.767C201.834 476.637 201.374 476.482 200.969 476.302C200.564 476.117 200.244 475.885 200.009 475.605C199.779 475.32 199.664 474.957 199.664 474.517C199.664 474.052 199.792 473.65 200.047 473.31C200.307 472.97 200.647 472.707 201.067 472.522C201.487 472.337 201.937 472.245 202.417 472.245C203.022 472.245 203.574 472.375 204.074 472.635C204.574 472.895 204.947 473.247 205.192 473.692L204.179 474.285C204.094 474.105 203.964 473.947 203.789 473.812C203.614 473.672 203.414 473.562 203.189 473.482C202.964 473.402 202.734 473.36 202.499 473.355C202.209 473.345 201.937 473.382 201.682 473.467C201.432 473.552 201.229 473.682 201.074 473.857C200.924 474.027 200.849 474.24 200.849 474.495C200.849 474.745 200.929 474.935 201.089 475.065C201.254 475.195 201.467 475.3 201.727 475.38C201.992 475.455 202.279 475.542 202.589 475.642C203.044 475.787 203.469 475.955 203.864 476.145C204.259 476.335 204.577 476.572 204.817 476.857C205.062 477.142 205.182 477.495 205.177 477.915C205.177 478.375 205.039 478.777 204.764 479.122C204.489 479.462 204.132 479.722 203.692 479.902C203.257 480.083 202.789 480.163 202.289 480.143ZM208.164 470.647V472.5H210.362V473.76H208.164V480H206.904V473.76H205.937V472.5H206.904V470.647C206.904 470.262 206.997 469.915 207.182 469.605C207.372 469.29 207.624 469.04 207.939 468.855C208.259 468.665 208.609 468.57 208.989 468.57C209.269 468.57 209.542 468.627 209.807 468.742C210.072 468.852 210.307 469.017 210.512 469.237L209.612 470.13C209.542 470.035 209.449 469.962 209.334 469.912C209.224 469.857 209.109 469.83 208.989 469.83C208.764 469.83 208.569 469.91 208.404 470.07C208.244 470.23 208.164 470.422 208.164 470.647ZM211.464 477.15V472.5H212.724V476.872C212.724 477.252 212.817 477.597 213.002 477.907C213.187 478.217 213.434 478.465 213.744 478.65C214.059 478.83 214.404 478.92 214.779 478.92C215.159 478.92 215.502 478.83 215.807 478.65C216.117 478.465 216.364 478.217 216.549 477.907C216.734 477.597 216.827 477.252 216.827 476.872V472.5H218.087L218.094 480H216.834L216.827 479.047C216.562 479.397 216.227 479.677 215.822 479.887C215.417 480.093 214.979 480.195 214.509 480.195C213.949 480.195 213.437 480.06 212.972 479.79C212.512 479.515 212.144 479.147 211.869 478.687C211.599 478.227 211.464 477.715 211.464 477.15ZM219.689 480V468.75H220.949V480H219.689ZM222.751 480V468.75H224.011V480H222.751ZM230.657 472.5H231.992L227.889 483.75H226.554L227.912 480L225.219 472.5H226.599L228.542 478.267L230.657 472.5ZM233.314 480.195C233.124 480.195 232.961 480.128 232.826 479.992C232.696 479.857 232.631 479.692 232.631 479.497C232.631 479.312 232.696 479.152 232.826 479.017C232.961 478.882 233.124 478.815 233.314 478.815C233.509 478.815 233.674 478.882 233.809 479.017C233.944 479.152 234.011 479.312 234.011 479.497C234.011 479.692 233.944 479.857 233.809 479.992C233.674 480.128 233.509 480.195 233.314 480.195Z" fill="#8391A1"/>
<path d="M35.8041 426V407.8H42.3041C43.2921 407.8 44.1848 408.047 44.9821 408.541C45.7881 409.035 46.4251 409.698 46.8931 410.53C47.3611 411.362 47.5951 412.276 47.5951 413.273C47.5951 414.296 47.3525 415.223 46.8671 416.055C46.3905 416.878 45.7491 417.537 44.9431 418.031C44.1371 418.516 43.2575 418.759 42.3041 418.759H38.9761V426H35.8041ZM38.9761 415.587H41.9661C42.4168 415.587 42.8285 415.474 43.2011 415.249C43.5738 415.024 43.8685 414.72 44.0851 414.339C44.3105 413.958 44.4231 413.533 44.4231 413.065C44.4231 412.588 44.3105 412.159 44.0851 411.778C43.8685 411.397 43.5738 411.093 43.2011 410.868C42.8285 410.643 42.4168 410.53 41.9661 410.53H38.9761V415.587ZM58.8854 413H62.0574V426H58.8854L58.7424 424.388C58.3871 424.969 57.9148 425.441 57.3254 425.805C56.7448 426.16 56.0558 426.338 55.2584 426.338C54.2964 426.338 53.3951 426.156 52.5544 425.792C51.7138 425.428 50.9728 424.925 50.3314 424.284C49.6988 423.643 49.2004 422.902 48.8364 422.061C48.4811 421.22 48.3034 420.319 48.3034 419.357C48.3034 418.43 48.4724 417.559 48.8104 416.744C49.1571 415.929 49.6381 415.214 50.2534 414.599C50.8688 413.984 51.5794 413.503 52.3854 413.156C53.1914 412.809 54.0581 412.636 54.9854 412.636C55.8434 412.636 56.6104 412.827 57.2864 413.208C57.9711 413.589 58.5518 414.075 59.0284 414.664L58.8854 413ZM55.1804 423.283C55.8564 423.283 56.4544 423.114 56.9744 422.776C57.4944 422.438 57.9018 421.983 58.1964 421.411C58.4911 420.83 58.6384 420.193 58.6384 419.5C58.6384 418.798 58.4911 418.161 58.1964 417.589C57.9018 417.008 57.4901 416.549 56.9614 416.211C56.4414 415.873 55.8478 415.704 55.1804 415.704C54.5131 415.704 53.9021 415.877 53.3474 416.224C52.8014 416.562 52.3638 417.017 52.0344 417.589C51.7138 418.161 51.5534 418.798 51.5534 419.5C51.5534 420.202 51.7181 420.839 52.0474 421.411C52.3768 421.983 52.8144 422.438 53.3604 422.776C53.9151 423.114 54.5218 423.283 55.1804 423.283ZM72.855 413H76.222L69.111 432.5H65.744L68.097 426L63.417 413H66.888L69.683 421.658L72.855 413ZM78.308 426V413H81.48V414.157C81.922 413.689 82.4507 413.321 83.066 413.052C83.6814 412.775 84.3444 412.636 85.055 412.636C85.9564 412.636 86.784 412.848 87.538 413.273C88.3007 413.698 88.9074 414.265 89.358 414.976C89.8174 414.265 90.424 413.698 91.178 413.273C91.932 412.848 92.7597 412.636 93.661 412.636C94.6144 412.636 95.4767 412.87 96.248 413.338C97.028 413.797 97.6477 414.417 98.107 415.197C98.575 415.968 98.809 416.831 98.809 417.784V426H95.637V418.629C95.637 418.126 95.5114 417.667 95.26 417.251C95.0174 416.826 94.688 416.488 94.272 416.237C93.8647 415.977 93.4054 415.847 92.894 415.847C92.3827 415.847 91.919 415.973 91.503 416.224C91.0957 416.467 90.7664 416.796 90.515 417.212C90.2637 417.628 90.138 418.1 90.138 418.629V426H86.966V418.629C86.966 418.1 86.8447 417.628 86.602 417.212C86.3594 416.796 86.03 416.467 85.614 416.224C85.198 415.973 84.7344 415.847 84.223 415.847C83.7204 415.847 83.261 415.977 82.845 416.237C82.429 416.488 82.0954 416.826 81.844 417.251C81.6014 417.667 81.48 418.126 81.48 418.629V426H78.308ZM106.88 426.338C105.684 426.338 104.592 426.03 103.604 425.415C102.624 424.8 101.84 423.972 101.251 422.932C100.67 421.892 100.38 420.744 100.38 419.487C100.38 418.542 100.549 417.658 100.887 416.835C101.225 416.003 101.688 415.275 102.278 414.651C102.876 414.018 103.569 413.524 104.358 413.169C105.146 412.814 105.987 412.636 106.88 412.636C107.894 412.636 108.821 412.853 109.662 413.286C110.511 413.711 111.23 414.296 111.82 415.041C112.409 415.786 112.838 416.636 113.107 417.589C113.375 418.542 113.436 419.539 113.289 420.579H103.786C103.907 421.064 104.106 421.502 104.384 421.892C104.661 422.273 105.012 422.581 105.437 422.815C105.861 423.04 106.342 423.157 106.88 423.166C107.434 423.175 107.937 423.045 108.388 422.776C108.847 422.499 109.228 422.126 109.532 421.658L112.769 422.412C112.24 423.565 111.451 424.509 110.403 425.246C109.354 425.974 108.18 426.338 106.88 426.338ZM103.682 418.2H110.078C109.982 417.68 109.779 417.212 109.467 416.796C109.163 416.371 108.786 416.033 108.336 415.782C107.885 415.531 107.4 415.405 106.88 415.405C106.36 415.405 105.879 415.531 105.437 415.782C104.995 416.025 104.618 416.358 104.306 416.783C104.002 417.199 103.794 417.671 103.682 418.2ZM127.312 417.784V426H124.14V418.616C124.14 418.105 124.014 417.641 123.763 417.225C123.511 416.8 123.173 416.467 122.749 416.224C122.333 415.973 121.869 415.847 121.358 415.847C120.846 415.847 120.378 415.973 119.954 416.224C119.538 416.467 119.204 416.8 118.953 417.225C118.71 417.641 118.589 418.105 118.589 418.616V426H115.417L115.404 413H118.576L118.589 414.157C119.031 413.689 119.559 413.321 120.175 413.052C120.79 412.775 121.453 412.636 122.164 412.636C123.108 412.636 123.971 412.87 124.751 413.338C125.531 413.797 126.15 414.417 126.61 415.197C127.078 415.968 127.312 416.831 127.312 417.784ZM136.87 416.172H134.348V426H131.176V416.172H129.252V413H131.176V408.918H134.348V413H136.87V416.172ZM145.466 426V413H148.638V414.157C149.08 413.689 149.609 413.321 150.224 413.052C150.84 412.775 151.503 412.636 152.213 412.636C153.115 412.636 153.942 412.848 154.696 413.273C155.459 413.698 156.066 414.265 156.516 414.976C156.976 414.265 157.582 413.698 158.336 413.273C159.09 412.848 159.918 412.636 160.819 412.636C161.773 412.636 162.635 412.87 163.406 413.338C164.186 413.797 164.806 414.417 165.265 415.197C165.733 415.968 165.967 416.831 165.967 417.784V426H162.795V418.629C162.795 418.126 162.67 417.667 162.418 417.251C162.176 416.826 161.846 416.488 161.43 416.237C161.023 415.977 160.564 415.847 160.052 415.847C159.541 415.847 159.077 415.973 158.661 416.224C158.254 416.467 157.925 416.796 157.673 417.212C157.422 417.628 157.296 418.1 157.296 418.629V426H154.124V418.629C154.124 418.1 154.003 417.628 153.76 417.212C153.518 416.796 153.188 416.467 152.772 416.224C152.356 415.973 151.893 415.847 151.381 415.847C150.879 415.847 150.419 415.977 150.003 416.237C149.587 416.488 149.254 416.826 149.002 417.251C148.76 417.667 148.638 418.126 148.638 418.629V426H145.466ZM178.12 413H181.292V426H178.12L177.977 424.388C177.621 424.969 177.149 425.441 176.56 425.805C175.979 426.16 175.29 426.338 174.493 426.338C173.531 426.338 172.629 426.156 171.789 425.792C170.948 425.428 170.207 424.925 169.566 424.284C168.933 423.643 168.435 422.902 168.071 422.061C167.715 421.22 167.538 420.319 167.538 419.357C167.538 418.43 167.707 417.559 168.045 416.744C168.391 415.929 168.872 415.214 169.488 414.599C170.103 413.984 170.814 413.503 171.62 413.156C172.426 412.809 173.292 412.636 174.22 412.636C175.078 412.636 175.845 412.827 176.521 413.208C177.205 413.589 177.786 414.075 178.263 414.664L178.12 413ZM174.415 423.283C175.091 423.283 175.689 423.114 176.209 422.776C176.729 422.438 177.136 421.983 177.431 421.411C177.725 420.83 177.873 420.193 177.873 419.5C177.873 418.798 177.725 418.161 177.431 417.589C177.136 417.008 176.724 416.549 176.196 416.211C175.676 415.873 175.082 415.704 174.415 415.704C173.747 415.704 173.136 415.877 172.582 416.224C172.036 416.562 171.598 417.017 171.269 417.589C170.948 418.161 170.788 418.798 170.788 419.5C170.788 420.202 170.952 420.839 171.282 421.411C171.611 421.983 172.049 422.438 172.595 422.776C173.149 423.114 173.756 423.283 174.415 423.283ZM193.456 406.5H196.628V426H193.456V424.375C193.04 424.956 192.516 425.428 191.883 425.792C191.251 426.156 190.518 426.338 189.686 426.338C188.742 426.338 187.858 426.16 187.034 425.805C186.211 425.45 185.483 424.96 184.85 424.336C184.226 423.703 183.737 422.975 183.381 422.152C183.026 421.329 182.848 420.445 182.848 419.5C182.848 418.555 183.026 417.671 183.381 416.848C183.737 416.025 184.226 415.301 184.85 414.677C185.483 414.044 186.211 413.55 187.034 413.195C187.858 412.84 188.742 412.662 189.686 412.662C190.518 412.662 191.251 412.844 191.883 413.208C192.516 413.563 193.04 414.036 193.456 414.625V406.5ZM189.725 423.283C190.401 423.283 190.999 423.114 191.519 422.776C192.039 422.438 192.447 421.983 192.741 421.411C193.036 420.83 193.183 420.193 193.183 419.5C193.183 418.798 193.036 418.161 192.741 417.589C192.447 417.008 192.035 416.549 191.506 416.211C190.986 415.873 190.393 415.704 189.725 415.704C189.058 415.704 188.447 415.877 187.892 416.224C187.346 416.562 186.909 417.017 186.579 417.589C186.259 418.161 186.098 418.798 186.098 419.5C186.098 420.202 186.263 420.839 186.592 421.411C186.922 421.983 187.359 422.438 187.905 422.776C188.46 423.114 189.067 423.283 189.725 423.283ZM205.268 426.338C204.072 426.338 202.98 426.03 201.992 425.415C201.013 424.8 200.229 423.972 199.639 422.932C199.059 421.892 198.768 420.744 198.768 419.487C198.768 418.542 198.937 417.658 199.275 416.835C199.613 416.003 200.077 415.275 200.666 414.651C201.264 414.018 201.958 413.524 202.746 413.169C203.535 412.814 204.376 412.636 205.268 412.636C206.282 412.636 207.21 412.853 208.05 413.286C208.9 413.711 209.619 414.296 210.208 415.041C210.798 415.786 211.227 416.636 211.495 417.589C211.764 418.542 211.825 419.539 211.677 420.579H202.174C202.296 421.064 202.495 421.502 202.772 421.892C203.05 422.273 203.401 422.581 203.825 422.815C204.25 423.04 204.731 423.157 205.268 423.166C205.823 423.175 206.326 423.045 206.776 422.776C207.236 422.499 207.617 422.126 207.92 421.658L211.157 422.412C210.629 423.565 209.84 424.509 208.791 425.246C207.743 425.974 206.568 426.338 205.268 426.338ZM202.07 418.2H208.466C208.371 417.68 208.167 417.212 207.855 416.796C207.552 416.371 207.175 416.033 206.724 415.782C206.274 415.531 205.788 415.405 205.268 415.405C204.748 415.405 204.267 415.531 203.825 415.782C203.383 416.025 203.006 416.358 202.694 416.783C202.391 417.199 202.183 417.671 202.07 418.2ZM224.178 426.234C223.502 426.191 222.848 426.056 222.215 425.831C221.591 425.597 221.037 425.281 220.551 424.882C220.066 424.483 219.693 424.007 219.433 423.452L222.111 422.308C222.215 422.481 222.384 422.668 222.618 422.867C222.852 423.058 223.13 423.218 223.45 423.348C223.78 423.478 224.139 423.543 224.529 423.543C224.859 423.543 225.171 423.5 225.465 423.413C225.769 423.318 226.011 423.175 226.193 422.984C226.384 422.793 226.479 422.546 226.479 422.243C226.479 421.922 226.367 421.675 226.141 421.502C225.925 421.32 225.647 421.186 225.309 421.099C224.98 421.004 224.659 420.917 224.347 420.839C223.524 420.674 222.757 420.419 222.046 420.072C221.344 419.725 220.777 419.279 220.343 418.733C219.919 418.178 219.706 417.511 219.706 416.731C219.706 415.873 219.932 415.132 220.382 414.508C220.842 413.884 221.435 413.403 222.163 413.065C222.9 412.727 223.693 412.558 224.542 412.558C225.574 412.558 226.518 412.775 227.376 413.208C228.243 413.633 228.928 414.235 229.43 415.015L226.921 416.497C226.8 416.289 226.631 416.098 226.414 415.925C226.198 415.743 225.951 415.596 225.673 415.483C225.396 415.362 225.106 415.292 224.802 415.275C224.412 415.258 224.057 415.292 223.736 415.379C223.416 415.466 223.156 415.613 222.956 415.821C222.766 416.029 222.67 416.306 222.67 416.653C222.67 416.982 222.8 417.229 223.06 417.394C223.32 417.55 223.632 417.671 223.996 417.758C224.369 417.845 224.724 417.94 225.062 418.044C225.825 418.295 226.54 418.603 227.207 418.967C227.883 419.331 228.425 419.777 228.832 420.306C229.24 420.835 229.435 421.467 229.417 422.204C229.417 423.045 229.166 423.781 228.663 424.414C228.161 425.038 227.511 425.515 226.713 425.844C225.925 426.173 225.08 426.303 224.178 426.234ZM231.122 421.19V413H234.294V420.358C234.294 420.869 234.42 421.337 234.671 421.762C234.922 422.178 235.256 422.512 235.672 422.763C236.097 423.006 236.56 423.127 237.063 423.127C237.583 423.127 238.051 423.006 238.467 422.763C238.883 422.512 239.217 422.178 239.468 421.762C239.719 421.337 239.845 420.869 239.845 420.358V413H243.017L243.03 426H239.858L239.845 424.817C239.394 425.285 238.861 425.658 238.246 425.935C237.631 426.204 236.972 426.338 236.27 426.338C235.325 426.338 234.463 426.108 233.683 425.649C232.903 425.181 232.279 424.561 231.811 423.79C231.352 423.01 231.122 422.143 231.122 421.19ZM253.489 422.087L256.349 423.634C255.751 424.449 255.001 425.103 254.1 425.597C253.199 426.091 252.215 426.338 251.149 426.338C249.953 426.338 248.861 426.03 247.873 425.415C246.894 424.8 246.109 423.976 245.52 422.945C244.939 421.905 244.649 420.757 244.649 419.5C244.649 418.547 244.818 417.658 245.156 416.835C245.494 416.003 245.958 415.275 246.547 414.651C247.145 414.018 247.838 413.524 248.627 413.169C249.416 412.814 250.256 412.636 251.149 412.636C252.215 412.636 253.199 412.883 254.1 413.377C255.001 413.871 255.751 414.534 256.349 415.366L253.489 416.9C253.186 416.553 252.826 416.285 252.41 416.094C252.003 415.903 251.582 415.808 251.149 415.808C250.525 415.808 249.962 415.981 249.459 416.328C248.956 416.666 248.558 417.117 248.263 417.68C247.968 418.235 247.821 418.841 247.821 419.5C247.821 420.15 247.968 420.757 248.263 421.32C248.558 421.875 248.956 422.321 249.459 422.659C249.962 422.997 250.525 423.166 251.149 423.166C251.6 423.166 252.029 423.071 252.436 422.88C252.843 422.681 253.194 422.416 253.489 422.087ZM266.337 422.087L269.197 423.634C268.599 424.449 267.849 425.103 266.948 425.597C266.046 426.091 265.063 426.338 263.997 426.338C262.801 426.338 261.709 426.03 260.721 425.415C259.741 424.8 258.957 423.976 258.368 422.945C257.787 421.905 257.497 420.757 257.497 419.5C257.497 418.547 257.666 417.658 258.004 416.835C258.342 416.003 258.805 415.275 259.395 414.651C259.993 414.018 260.686 413.524 261.475 413.169C262.263 412.814 263.104 412.636 263.997 412.636C265.063 412.636 266.046 412.883 266.948 413.377C267.849 413.871 268.599 414.534 269.197 415.366L266.337 416.9C266.033 416.553 265.674 416.285 265.258 416.094C264.85 415.903 264.43 415.808 263.997 415.808C263.373 415.808 262.809 415.981 262.307 416.328C261.804 416.666 261.405 417.117 261.111 417.68C260.816 418.235 260.669 418.841 260.669 419.5C260.669 420.15 260.816 420.757 261.111 421.32C261.405 421.875 261.804 422.321 262.307 422.659C262.809 422.997 263.373 423.166 263.997 423.166C264.447 423.166 264.876 423.071 265.284 422.88C265.691 422.681 266.042 422.416 266.337 422.087ZM276.844 426.338C275.648 426.338 274.556 426.03 273.568 425.415C272.589 424.8 271.805 423.972 271.215 422.932C270.635 421.892 270.344 420.744 270.344 419.487C270.344 418.542 270.513 417.658 270.851 416.835C271.189 416.003 271.653 415.275 272.242 414.651C272.84 414.018 273.534 413.524 274.322 413.169C275.111 412.814 275.952 412.636 276.844 412.636C277.858 412.636 278.786 412.853 279.626 413.286C280.476 413.711 281.195 414.296 281.784 415.041C282.374 415.786 282.803 416.636 283.071 417.589C283.34 418.542 283.401 419.539 283.253 420.579H273.75C273.872 421.064 274.071 421.502 274.348 421.892C274.626 422.273 274.977 422.581 275.401 422.815C275.826 423.04 276.307 423.157 276.844 423.166C277.399 423.175 277.902 423.045 278.352 422.776C278.812 422.499 279.193 422.126 279.496 421.658L282.733 422.412C282.205 423.565 281.416 424.509 280.367 425.246C279.319 425.974 278.144 426.338 276.844 426.338ZM273.646 418.2H280.042C279.947 417.68 279.743 417.212 279.431 416.796C279.128 416.371 278.751 416.033 278.3 415.782C277.85 415.531 277.364 415.405 276.844 415.405C276.324 415.405 275.843 415.531 275.401 415.782C274.959 416.025 274.582 416.358 274.27 416.783C273.967 417.199 273.759 417.671 273.646 418.2ZM289.305 426.234C288.629 426.191 287.975 426.056 287.342 425.831C286.718 425.597 286.163 425.281 285.678 424.882C285.193 424.483 284.82 424.007 284.56 423.452L287.238 422.308C287.342 422.481 287.511 422.668 287.745 422.867C287.979 423.058 288.256 423.218 288.577 423.348C288.906 423.478 289.266 423.543 289.656 423.543C289.985 423.543 290.297 423.5 290.592 423.413C290.895 423.318 291.138 423.175 291.32 422.984C291.511 422.793 291.606 422.546 291.606 422.243C291.606 421.922 291.493 421.675 291.268 421.502C291.051 421.32 290.774 421.186 290.436 421.099C290.107 421.004 289.786 420.917 289.474 420.839C288.651 420.674 287.884 420.419 287.173 420.072C286.471 419.725 285.903 419.279 285.47 418.733C285.045 418.178 284.833 417.511 284.833 416.731C284.833 415.873 285.058 415.132 285.509 414.508C285.968 413.884 286.562 413.403 287.29 413.065C288.027 412.727 288.82 412.558 289.669 412.558C290.7 412.558 291.645 412.775 292.503 413.208C293.37 413.633 294.054 414.235 294.557 415.015L292.048 416.497C291.927 416.289 291.758 416.098 291.541 415.925C291.324 415.743 291.077 415.596 290.8 415.483C290.523 415.362 290.232 415.292 289.929 415.275C289.539 415.258 289.184 415.292 288.863 415.379C288.542 415.466 288.282 415.613 288.083 415.821C287.892 416.029 287.797 416.306 287.797 416.653C287.797 416.982 287.927 417.229 288.187 417.394C288.447 417.55 288.759 417.671 289.123 417.758C289.496 417.845 289.851 417.94 290.189 418.044C290.952 418.295 291.667 418.603 292.334 418.967C293.01 419.331 293.552 419.777 293.959 420.306C294.366 420.835 294.561 421.467 294.544 422.204C294.544 423.045 294.293 423.781 293.79 424.414C293.287 425.038 292.637 425.515 291.84 425.844C291.051 426.173 290.206 426.303 289.305 426.234ZM300.604 426.234C299.928 426.191 299.274 426.056 298.641 425.831C298.017 425.597 297.462 425.281 296.977 424.882C296.492 424.483 296.119 424.007 295.859 423.452L298.537 422.308C298.641 422.481 298.81 422.668 299.044 422.867C299.278 423.058 299.555 423.218 299.876 423.348C300.205 423.478 300.565 423.543 300.955 423.543C301.284 423.543 301.596 423.5 301.891 423.413C302.194 423.318 302.437 423.175 302.619 422.984C302.81 422.793 302.905 422.546 302.905 422.243C302.905 421.922 302.792 421.675 302.567 421.502C302.35 421.32 302.073 421.186 301.735 421.099C301.406 421.004 301.085 420.917 300.773 420.839C299.95 420.674 299.183 420.419 298.472 420.072C297.77 419.725 297.202 419.279 296.769 418.733C296.344 418.178 296.132 417.511 296.132 416.731C296.132 415.873 296.357 415.132 296.808 414.508C297.267 413.884 297.861 413.403 298.589 413.065C299.326 412.727 300.119 412.558 300.968 412.558C301.999 412.558 302.944 412.775 303.802 413.208C304.669 413.633 305.353 414.235 305.856 415.015L303.347 416.497C303.226 416.289 303.057 416.098 302.84 415.925C302.623 415.743 302.376 415.596 302.099 415.483C301.822 415.362 301.531 415.292 301.228 415.275C300.838 415.258 300.483 415.292 300.162 415.379C299.841 415.466 299.581 415.613 299.382 415.821C299.191 416.029 299.096 416.306 299.096 416.653C299.096 416.982 299.226 417.229 299.486 417.394C299.746 417.55 300.058 417.671 300.422 417.758C300.795 417.845 301.15 417.94 301.488 418.044C302.251 418.295 302.966 418.603 303.633 418.967C304.309 419.331 304.851 419.777 305.258 420.306C305.665 420.835 305.86 421.467 305.843 422.204C305.843 423.045 305.592 423.781 305.089 424.414C304.586 425.038 303.936 425.515 303.139 425.844C302.35 426.173 301.505 426.303 300.604 426.234ZM311.747 410.27V413H315.296V416.172H311.747V426H308.575V416.172H307.158V413H308.575V410.27C308.575 409.525 308.757 408.844 309.121 408.229C309.493 407.605 309.992 407.111 310.616 406.747C311.24 406.374 311.929 406.188 312.683 406.188C313.229 406.188 313.77 406.301 314.308 406.526C314.845 406.751 315.322 407.098 315.738 407.566L313.45 409.802C313.372 409.655 313.259 409.546 313.112 409.477C312.973 409.399 312.83 409.36 312.683 409.36C312.431 409.36 312.21 409.451 312.02 409.633C311.838 409.806 311.747 410.019 311.747 410.27ZM317.145 421.19V413H320.317V420.358C320.317 420.869 320.443 421.337 320.694 421.762C320.946 422.178 321.279 422.512 321.695 422.763C322.12 423.006 322.584 423.127 323.086 423.127C323.606 423.127 324.074 423.006 324.49 422.763C324.906 422.512 325.24 422.178 325.491 421.762C325.743 421.337 325.868 420.869 325.868 420.358V413H329.04L329.053 426H325.881L325.868 424.817C325.418 425.285 324.885 425.658 324.269 425.935C323.654 426.204 322.995 426.338 322.293 426.338C321.349 426.338 320.486 426.108 319.706 425.649C318.926 425.181 318.302 424.561 317.834 423.79C317.375 423.01 317.145 422.143 317.145 421.19ZM331.732 426V406.5H334.904V426H331.732ZM338.029 426V406.5H341.201V426H338.029ZM352.355 413H355.722L348.611 432.5H345.244L347.597 426L342.917 413H346.388L349.183 421.658L352.355 413Z" fill="#1E232C"/>
<rect x="30" y="516" width="330" height="56" rx="8" fill="#1E232C"/>
<path d="M150.192 549V538.5H153.919C154.459 538.5 154.947 538.61 155.382 538.83C155.822 539.05 156.169 539.367 156.424 539.782C156.684 540.192 156.814 540.685 156.814 541.26C156.814 541.54 156.769 541.815 156.679 542.085C156.589 542.355 156.462 542.592 156.297 542.797C156.132 543.002 155.932 543.147 155.697 543.232C156.017 543.312 156.282 543.457 156.492 543.667C156.707 543.872 156.877 544.112 157.002 544.387C157.127 544.662 157.214 544.947 157.264 545.242C157.319 545.537 157.347 545.817 157.347 546.082C157.347 546.642 157.212 547.142 156.942 547.582C156.672 548.022 156.309 548.37 155.854 548.625C155.404 548.875 154.907 549 154.362 549H150.192ZM151.752 547.65H154.212C154.532 547.65 154.822 547.57 155.082 547.41C155.347 547.25 155.557 547.03 155.712 546.75C155.867 546.465 155.944 546.145 155.944 545.79C155.944 545.48 155.867 545.187 155.712 544.912C155.557 544.632 155.347 544.407 155.082 544.237C154.822 544.067 154.532 543.982 154.212 543.982H151.752V547.65ZM151.752 542.655H153.754C154.164 542.655 154.517 542.53 154.812 542.28C155.107 542.03 155.254 541.687 155.254 541.253C155.254 540.787 155.107 540.44 154.812 540.21C154.517 539.975 154.164 539.857 153.754 539.857H151.752V542.655ZM164.332 541.5H165.892V549H164.325L164.265 547.912C164.045 548.297 163.747 548.607 163.372 548.842C162.997 549.077 162.555 549.195 162.045 549.195C161.495 549.195 160.977 549.093 160.492 548.887C160.007 548.677 159.58 548.387 159.21 548.017C158.845 547.647 158.56 547.222 158.355 546.742C158.15 546.257 158.047 545.737 158.047 545.182C158.047 544.647 158.147 544.145 158.347 543.675C158.547 543.2 158.825 542.785 159.18 542.43C159.535 542.075 159.945 541.797 160.41 541.597C160.88 541.392 161.382 541.29 161.917 541.29C162.462 541.29 162.942 541.415 163.357 541.665C163.777 541.91 164.125 542.225 164.4 542.61L164.332 541.5ZM162.007 547.687C162.447 547.687 162.832 547.58 163.162 547.365C163.492 547.145 163.747 546.85 163.927 546.48C164.112 546.11 164.205 545.7 164.205 545.25C164.205 544.795 164.112 544.382 163.927 544.012C163.742 543.642 163.485 543.35 163.155 543.135C162.83 542.915 162.447 542.805 162.007 542.805C161.572 542.805 161.175 542.915 160.815 543.135C160.455 543.355 160.17 543.65 159.96 544.02C159.75 544.39 159.645 544.8 159.645 545.25C159.645 545.705 159.752 546.117 159.967 546.487C160.187 546.852 160.475 547.145 160.83 547.365C161.19 547.58 161.582 547.687 162.007 547.687ZM172.14 546.87L173.535 547.627C173.195 548.102 172.762 548.482 172.237 548.767C171.717 549.052 171.152 549.195 170.542 549.195C169.852 549.195 169.222 549.017 168.652 548.662C168.087 548.307 167.635 547.832 167.295 547.237C166.96 546.637 166.792 545.975 166.792 545.25C166.792 544.7 166.89 544.187 167.085 543.712C167.28 543.232 167.547 542.812 167.887 542.452C168.232 542.087 168.632 541.802 169.087 541.597C169.542 541.392 170.027 541.29 170.542 541.29C171.152 541.29 171.717 541.432 172.237 541.717C172.762 542.002 173.195 542.385 173.535 542.865L172.14 543.622C171.93 543.372 171.685 543.182 171.405 543.052C171.125 542.917 170.837 542.85 170.542 542.85C170.132 542.85 169.76 542.962 169.425 543.187C169.095 543.407 168.832 543.7 168.637 544.065C168.447 544.425 168.352 544.82 168.352 545.25C168.352 545.675 168.45 546.07 168.645 546.435C168.84 546.795 169.102 547.085 169.432 547.305C169.767 547.525 170.137 547.635 170.542 547.635C170.852 547.635 171.147 547.565 171.427 547.425C171.707 547.285 171.945 547.1 172.14 546.87ZM181.111 549H179.311L177.466 545.82L176.258 547.26V549H174.698V537.75H176.258V544.837L179.048 541.5H181.088L178.531 544.552L181.111 549ZM190.055 543.06H188.48L188.472 549H186.912L186.92 543.06H185.727V541.5H186.92L186.912 539.145H188.472L188.48 541.5H190.055V543.06ZM194.522 549.195C193.832 549.195 193.202 549.017 192.632 548.662C192.067 548.307 191.614 547.832 191.274 547.237C190.939 546.637 190.772 545.975 190.772 545.25C190.772 544.7 190.869 544.187 191.064 543.712C191.259 543.232 191.527 542.812 191.867 542.452C192.212 542.087 192.612 541.802 193.067 541.597C193.522 541.392 194.007 541.29 194.522 541.29C195.212 541.29 195.839 541.467 196.404 541.822C196.974 542.177 197.427 542.655 197.762 543.255C198.102 543.855 198.272 544.52 198.272 545.25C198.272 545.795 198.174 546.305 197.979 546.78C197.784 547.255 197.514 547.675 197.169 548.04C196.829 548.4 196.432 548.682 195.977 548.887C195.527 549.093 195.042 549.195 194.522 549.195ZM194.522 547.635C194.937 547.635 195.309 547.525 195.639 547.305C195.969 547.085 196.229 546.795 196.419 546.435C196.614 546.07 196.712 545.675 196.712 545.25C196.712 544.815 196.612 544.415 196.412 544.05C196.217 543.685 195.954 543.395 195.624 543.18C195.294 542.96 194.927 542.85 194.522 542.85C194.112 542.85 193.739 542.96 193.404 543.18C193.074 543.4 192.812 543.692 192.617 544.057C192.427 544.422 192.332 544.82 192.332 545.25C192.332 545.695 192.432 546.097 192.632 546.457C192.832 546.817 193.097 547.105 193.427 547.32C193.762 547.53 194.127 547.635 194.522 547.635ZM209.526 538.5H211.086V549H209.526V544.155H204.779V549H203.219V538.5H204.779V542.595H209.526V538.5ZM216.084 549.195C215.394 549.195 214.764 549.017 214.194 548.662C213.629 548.307 213.177 547.832 212.837 547.237C212.502 546.637 212.334 545.975 212.334 545.25C212.334 544.7 212.432 544.187 212.627 543.712C212.822 543.232 213.089 542.812 213.429 542.452C213.774 542.087 214.174 541.802 214.629 541.597C215.084 541.392 215.569 541.29 216.084 541.29C216.774 541.29 217.402 541.467 217.967 541.822C218.537 542.177 218.989 542.655 219.324 543.255C219.664 543.855 219.834 544.52 219.834 545.25C219.834 545.795 219.737 546.305 219.542 546.78C219.347 547.255 219.077 547.675 218.732 548.04C218.392 548.4 217.994 548.682 217.539 548.887C217.089 549.093 216.604 549.195 216.084 549.195ZM216.084 547.635C216.499 547.635 216.872 547.525 217.202 547.305C217.532 547.085 217.792 546.795 217.982 546.435C218.177 546.07 218.274 545.675 218.274 545.25C218.274 544.815 218.174 544.415 217.974 544.05C217.779 543.685 217.517 543.395 217.187 543.18C216.857 542.96 216.489 542.85 216.084 542.85C215.674 542.85 215.302 542.96 214.967 543.18C214.637 543.4 214.374 543.692 214.179 544.057C213.989 544.422 213.894 544.82 213.894 545.25C213.894 545.695 213.994 546.097 214.194 546.457C214.394 546.817 214.659 547.105 214.989 547.32C215.324 547.53 215.689 547.635 216.084 547.635ZM221.046 549V541.5H222.606V542.295C222.866 541.985 223.183 541.74 223.558 541.56C223.938 541.38 224.348 541.29 224.788 541.29C225.323 541.29 225.816 541.42 226.266 541.68C226.716 541.935 227.073 542.275 227.338 542.7C227.603 542.275 227.956 541.935 228.396 541.68C228.841 541.42 229.331 541.29 229.866 541.29C230.421 541.29 230.926 541.425 231.381 541.695C231.836 541.965 232.198 542.327 232.468 542.782C232.738 543.237 232.873 543.742 232.873 544.297V549H231.313V544.695C231.313 544.365 231.233 544.062 231.073 543.787C230.913 543.512 230.698 543.29 230.428 543.12C230.158 542.95 229.858 542.865 229.528 542.865C229.198 542.865 228.898 542.945 228.628 543.105C228.358 543.265 228.143 543.482 227.983 543.757C227.823 544.032 227.743 544.345 227.743 544.695V549H226.183V544.695C226.183 544.345 226.103 544.032 225.943 543.757C225.783 543.482 225.566 543.265 225.291 543.105C225.021 542.945 224.721 542.865 224.391 542.865C224.066 542.865 223.766 542.95 223.491 543.12C223.221 543.29 223.006 543.512 222.846 543.787C222.686 544.062 222.606 544.365 222.606 544.695V549H221.046ZM237.53 549.195C236.84 549.195 236.21 549.017 235.64 548.662C235.075 548.307 234.622 547.832 234.282 547.237C233.947 546.637 233.78 545.975 233.78 545.25C233.78 544.7 233.877 544.187 234.072 543.712C234.267 543.232 234.535 542.812 234.875 542.452C235.22 542.087 235.62 541.802 236.075 541.597C236.53 541.392 237.015 541.29 237.53 541.29C238.105 541.29 238.632 541.41 239.112 541.65C239.592 541.885 240.002 542.212 240.342 542.632C240.682 543.047 240.932 543.527 241.092 544.072C241.252 544.612 241.3 545.187 241.235 545.797H235.452C235.517 546.142 235.642 546.455 235.827 546.735C236.017 547.01 236.257 547.227 236.547 547.387C236.842 547.547 237.17 547.63 237.53 547.635C237.91 547.635 238.255 547.54 238.565 547.35C238.88 547.16 239.137 546.897 239.337 546.562L240.92 546.93C240.62 547.595 240.167 548.14 239.562 548.565C238.957 548.985 238.28 549.195 237.53 549.195ZM235.4 544.605H239.66C239.61 544.245 239.482 543.92 239.277 543.63C239.077 543.335 238.825 543.102 238.52 542.932C238.22 542.757 237.89 542.67 237.53 542.67C237.175 542.67 236.845 542.755 236.54 542.925C236.24 543.095 235.99 543.327 235.79 543.622C235.595 543.912 235.465 544.24 235.4 544.605Z" fill="white"/>
<path opacity="0.35" d="M351.5 20C351.5 18.8034 352.47 17.8334 353.667 17.8334H370.333C371.53 17.8334 372.5 18.8034 372.5 20V26C372.5 27.1967 371.53 28.1667 370.333 28.1667H353.667C352.47 28.1667 351.5 27.1967 351.5 26V20Z" stroke="black"/>
<path opacity="0.4" d="M374 21.0001V25.0001C374.805 24.6613 375.328 23.8732 375.328 23.0001C375.328 22.1269 374.805 21.3388 374 21.0001Z" fill="black"/>
<path d="M353 20.6667C353 19.9303 353.597 19.3334 354.333 19.3334H369.667C370.403 19.3334 371 19.9303 371 20.6667V25.3334C371 26.0698 370.403 26.6667 369.667 26.6667H354.333C353.597 26.6667 353 26.0698 353 25.3334V20.6667Z" fill="black"/>
<path fill-rule="evenodd" clip-rule="evenodd" d="M338.33 19.608C340.546 19.6081 342.677 20.4596 344.283 21.9863C344.404 22.1042 344.597 22.1027 344.716 21.983L345.872 20.8163C345.933 20.7556 345.966 20.6734 345.966 20.5878C345.965 20.5022 345.931 20.4204 345.87 20.3603C341.655 16.3208 335.005 16.3208 330.79 20.3603C330.729 20.4203 330.694 20.5021 330.693 20.5877C330.693 20.6733 330.726 20.7556 330.787 20.8163L331.943 21.983C332.062 22.1029 332.255 22.1044 332.376 21.9863C333.982 20.4595 336.114 19.608 338.33 19.608ZM338.33 23.4037C339.547 23.4036 340.721 23.8561 341.624 24.6733C341.746 24.7893 341.938 24.7868 342.057 24.6677L343.212 23.501C343.273 23.4398 343.307 23.3568 343.306 23.2705C343.305 23.1843 343.269 23.102 343.207 23.042C340.459 20.4856 336.203 20.4856 333.455 23.042C333.393 23.102 333.357 23.1843 333.357 23.2706C333.356 23.3569 333.39 23.4399 333.451 23.501L334.605 24.6677C334.724 24.7868 334.916 24.7893 335.038 24.6733C335.94 23.8567 337.113 23.4042 338.33 23.4037ZM340.643 25.9575C340.645 26.044 340.611 26.1274 340.549 26.188L338.552 28.2037C338.493 28.2629 338.413 28.2963 338.33 28.2963C338.247 28.2963 338.167 28.2629 338.108 28.2037L336.111 26.188C336.049 26.1274 336.015 26.0439 336.017 25.9574C336.019 25.8709 336.056 25.789 336.12 25.731C337.396 24.6521 339.264 24.6521 340.54 25.731C340.604 25.7891 340.641 25.871 340.643 25.9575Z" fill="black"/>
<path fill-rule="evenodd" clip-rule="evenodd" d="M324.667 17.6666H323.667C323.114 17.6666 322.667 18.1143 322.667 18.6666V27.3333C322.667 27.8856 323.114 28.3333 323.667 28.3333H324.667C325.219 28.3333 325.667 27.8856 325.667 27.3333V18.6666C325.667 18.1143 325.219 17.6666 324.667 17.6666ZM319 20H320C320.552 20 321 20.4477 321 21V27.3333C321 27.8856 320.552 28.3333 320 28.3333H319C318.448 28.3333 318 27.8856 318 27.3333V21C318 20.4477 318.448 20 319 20ZM315.333 22.3333H314.333C313.781 22.3333 313.333 22.781 313.333 23.3333V27.3333C313.333 27.8856 313.781 28.3333 314.333 28.3333H315.333C315.885 28.3333 316.333 27.8856 316.333 27.3333V23.3333C316.333 22.781 315.885 22.3333 315.333 22.3333ZM310.667 24.3333H309.667C309.114 24.3333 308.667 24.781 308.667 25.3333V27.3333C308.667 27.8856 309.114 28.3333 309.667 28.3333H310.667C311.219 28.3333 311.667 27.8856 311.667 27.3333V25.3333C311.667 24.781 311.219 24.3333 310.667 24.3333Z" fill="black"/>
<path d="M36.3208 28.2563C39.0088 28.2563 40.6055 26.1543 40.6055 22.5947C40.6055 21.2544 40.3491 20.1265 39.8584 19.2549C39.1479 17.8999 37.9248 17.1675 36.3794 17.1675C34.0796 17.1675 32.4536 18.7129 32.4536 20.8809C32.4536 22.917 33.9185 24.3965 35.9326 24.3965C37.1704 24.3965 38.1738 23.8179 38.6719 22.8145H38.6938C38.6938 22.8145 38.7231 22.8145 38.7305 22.8145C38.7451 22.8145 38.7964 22.8145 38.7964 22.8145C38.7964 25.2314 37.8809 26.6743 36.3354 26.6743C35.4272 26.6743 34.7241 26.1763 34.4824 25.3779H32.6001C32.915 27.1138 34.3872 28.2563 36.3208 28.2563ZM36.3867 22.895C35.1709 22.895 34.3066 22.0308 34.3066 20.8223C34.3066 19.6431 35.2148 18.7422 36.394 18.7422C37.5732 18.7422 38.4814 19.6577 38.4814 20.8516C38.4814 22.0308 37.5952 22.895 36.3867 22.895Z" fill="black"/>
<path d="M43.6966 28.1538C44.3924 28.1538 44.8685 27.6558 44.8685 26.9966C44.8685 26.3301 44.3924 25.8394 43.6966 25.8394C43.0081 25.8394 42.5247 26.3301 42.5247 26.9966C42.5247 27.6558 43.0081 28.1538 43.6966 28.1538ZM43.6966 22.6606C44.3924 22.6606 44.8685 22.1699 44.8685 21.5107C44.8685 20.8442 44.3924 20.3535 43.6966 20.3535C43.0081 20.3535 42.5247 20.8442 42.5247 21.5107C42.5247 22.1699 43.0081 22.6606 43.6966 22.6606Z" fill="black"/>
<path d="M51.7242 28H53.5333V26.0298H54.9615V24.4331H53.5333V17.4312H50.8673C48.9996 20.2437 47.5128 22.5947 46.5606 24.3452V26.0298H51.7242V28ZM48.3111 24.3672C49.5416 22.1992 50.6402 20.4634 51.651 18.9692H51.7535V24.4771H48.3111V24.3672Z" fill="black"/>
<path d="M58.9901 28H60.8798V17.4312H58.9975L56.2362 19.3647V21.1812L58.8656 19.3354H58.9901V28Z" fill="black"/>
<defs>
<clipPath id="clip0_5_1505">
<rect width="100" height="100" fill="white" transform="translate(145 271)"/>
</clipPath>
</defs>
</svg>
