<svg width="390" height="844" viewBox="0 0 390 844" fill="none" xmlns="http://www.w3.org/2000/svg">
<rect width="390" height="844" fill="white"/>
<path opacity="0.35" d="M351.5 20C351.5 18.8034 352.47 17.8334 353.667 17.8334H370.333C371.53 17.8334 372.5 18.8034 372.5 20V26C372.5 27.1967 371.53 28.1667 370.333 28.1667H353.667C352.47 28.1667 351.5 27.1967 351.5 26V20Z" stroke="black"/>
<path opacity="0.4" d="M374 21.0001V25.0001C374.805 24.6613 375.328 23.8732 375.328 23.0001C375.328 22.1269 374.805 21.3388 374 21.0001Z" fill="black"/>
<path d="M353 20.6667C353 19.9303 353.597 19.3334 354.333 19.3334H369.667C370.403 19.3334 371 19.9303 371 20.6667V25.3334C371 26.0698 370.403 26.6667 369.667 26.6667H354.333C353.597 26.6667 353 26.0698 353 25.3334V20.6667Z" fill="black"/>
<path fill-rule="evenodd" clip-rule="evenodd" d="M338.33 19.608C340.546 19.6081 342.677 20.4596 344.283 21.9863C344.404 22.1042 344.597 22.1027 344.716 21.983L345.872 20.8163C345.933 20.7556 345.966 20.6734 345.966 20.5878C345.965 20.5022 345.931 20.4204 345.87 20.3603C341.655 16.3208 335.005 16.3208 330.79 20.3603C330.729 20.4203 330.694 20.5021 330.693 20.5877C330.693 20.6733 330.726 20.7556 330.787 20.8163L331.943 21.983C332.062 22.1029 332.255 22.1044 332.376 21.9863C333.982 20.4595 336.114 19.608 338.33 19.608ZM338.33 23.4037C339.547 23.4036 340.721 23.8561 341.624 24.6733C341.746 24.7893 341.938 24.7868 342.057 24.6677L343.212 23.501C343.273 23.4398 343.307 23.3568 343.306 23.2705C343.305 23.1843 343.269 23.102 343.207 23.042C340.459 20.4856 336.203 20.4856 333.455 23.042C333.393 23.102 333.357 23.1843 333.357 23.2706C333.356 23.3569 333.39 23.4399 333.451 23.501L334.605 24.6677C334.724 24.7868 334.916 24.7893 335.038 24.6733C335.94 23.8567 337.113 23.4042 338.33 23.4037ZM340.643 25.9575C340.645 26.044 340.611 26.1274 340.549 26.188L338.552 28.2037C338.493 28.2629 338.413 28.2963 338.33 28.2963C338.247 28.2963 338.167 28.2629 338.108 28.2037L336.111 26.188C336.049 26.1274 336.015 26.0439 336.017 25.9574C336.019 25.8709 336.056 25.789 336.12 25.731C337.396 24.6521 339.264 24.6521 340.54 25.731C340.604 25.7891 340.641 25.871 340.643 25.9575Z" fill="black"/>
<path fill-rule="evenodd" clip-rule="evenodd" d="M324.667 17.6666H323.667C323.114 17.6666 322.667 18.1143 322.667 18.6666V27.3333C322.667 27.8856 323.114 28.3333 323.667 28.3333H324.667C325.219 28.3333 325.667 27.8856 325.667 27.3333V18.6666C325.667 18.1143 325.219 17.6666 324.667 17.6666ZM319 20H320C320.552 20 321 20.4477 321 21V27.3333C321 27.8856 320.552 28.3333 320 28.3333H319C318.448 28.3333 318 27.8856 318 27.3333V21C318 20.4477 318.448 20 319 20ZM315.333 22.3333H314.333C313.781 22.3333 313.333 22.781 313.333 23.3333V27.3333C313.333 27.8856 313.781 28.3333 314.333 28.3333H315.333C315.885 28.3333 316.333 27.8856 316.333 27.3333V23.3333C316.333 22.781 315.885 22.3333 315.333 22.3333ZM310.667 24.3333H309.667C309.114 24.3333 308.667 24.781 308.667 25.3333V27.3333C308.667 27.8856 309.114 28.3333 309.667 28.3333H310.667C311.219 28.3333 311.667 27.8856 311.667 27.3333V25.3333C311.667 24.781 311.219 24.3333 310.667 24.3333Z" fill="black"/>
<path d="M36.3208 28.2563C39.0088 28.2563 40.6055 26.1543 40.6055 22.5947C40.6055 21.2544 40.3491 20.1265 39.8584 19.2549C39.1479 17.8999 37.9248 17.1675 36.3794 17.1675C34.0796 17.1675 32.4536 18.7129 32.4536 20.8809C32.4536 22.917 33.9185 24.3965 35.9326 24.3965C37.1704 24.3965 38.1738 23.8179 38.6719 22.8145H38.6938C38.6938 22.8145 38.7231 22.8145 38.7305 22.8145C38.7451 22.8145 38.7964 22.8145 38.7964 22.8145C38.7964 25.2314 37.8809 26.6743 36.3354 26.6743C35.4272 26.6743 34.7241 26.1763 34.4824 25.3779H32.6001C32.915 27.1138 34.3872 28.2563 36.3208 28.2563ZM36.3867 22.895C35.1709 22.895 34.3066 22.0308 34.3066 20.8223C34.3066 19.6431 35.2148 18.7422 36.394 18.7422C37.5732 18.7422 38.4814 19.6577 38.4814 20.8516C38.4814 22.0308 37.5952 22.895 36.3867 22.895Z" fill="black"/>
<path d="M43.6966 28.1538C44.3924 28.1538 44.8685 27.6558 44.8685 26.9966C44.8685 26.3301 44.3924 25.8394 43.6966 25.8394C43.0081 25.8394 42.5247 26.3301 42.5247 26.9966C42.5247 27.6558 43.0081 28.1538 43.6966 28.1538ZM43.6966 22.6606C44.3924 22.6606 44.8685 22.1699 44.8685 21.5107C44.8685 20.8442 44.3924 20.3535 43.6966 20.3535C43.0081 20.3535 42.5247 20.8442 42.5247 21.5107C42.5247 22.1699 43.0081 22.6606 43.6966 22.6606Z" fill="black"/>
<path d="M51.7242 28H53.5333V26.0298H54.9615V24.4331H53.5333V17.4312H50.8673C48.9996 20.2437 47.5128 22.5947 46.5606 24.3452V26.0298H51.7242V28ZM48.3111 24.3672C49.5416 22.1992 50.6402 20.4634 51.651 18.9692H51.7535V24.4771H48.3111V24.3672Z" fill="black"/>
<path d="M58.9901 28H60.8798V17.4312H58.9975L56.2362 19.3647V21.1812L58.8656 19.3354H58.9901V28Z" fill="black"/>
<rect x="36.5" y="91.5" width="40" height="40" rx="11.5" fill="white" stroke="#E8ECF4"/>
<rect x="36.5" y="91.5" width="40" height="40" rx="11.5" fill="white" stroke="#E8ECF4"/>
<path d="M59.1573 104.367C59.0654 104.275 58.9562 104.202 58.836 104.152C58.7157 104.102 58.5869 104.076 58.4567 104.076C58.3265 104.076 58.1976 104.102 58.0774 104.152C57.9572 104.202 57.848 104.275 57.7561 104.367L51.1773 110.946C51.1039 111.019 51.0457 111.106 51.006 111.202C50.9662 111.298 50.9458 111.4 50.9458 111.504C50.9458 111.608 50.9662 111.71 51.006 111.806C51.0457 111.902 51.1039 111.989 51.1773 112.062L57.7561 118.641C58.144 119.029 58.7694 119.029 59.1573 118.641C59.5452 118.253 59.5452 117.627 59.1573 117.24L53.4257 111.5L59.1652 105.76C59.5452 105.38 59.5452 104.747 59.1573 104.367Z" fill="#1E232C" stroke="#1E232C" stroke-width="0.2"/>
<path d="M66 158C66 153.582 69.5817 150 74 150H317C321.418 150 325 153.582 325 158V198C325 202.418 321.418 206 317 206H74C69.5817 206 66 202.418 66 198V158Z" fill="#D9D9D9"/>
<path d="M86.376 183.182C85.7133 183.182 85.0903 183.051 84.507 182.79C83.9237 182.524 83.4103 182.16 82.967 181.698C82.5283 181.231 82.183 180.69 81.931 180.074C81.6837 179.458 81.56 178.8 81.56 178.1C81.56 177.4 81.6837 176.742 81.931 176.126C82.183 175.51 82.5283 174.971 82.967 174.509C83.4103 174.042 83.9237 173.678 84.507 173.417C85.0903 173.151 85.7133 173.018 86.376 173.018C87.1693 173.018 87.8997 173.202 88.567 173.571C89.2343 173.94 89.7873 174.43 90.226 175.041L89.358 175.51C89.0127 175.048 88.574 174.682 88.042 174.411C87.5147 174.136 86.9593 173.998 86.376 173.998C85.8393 173.998 85.3377 174.108 84.871 174.327C84.409 174.542 84.003 174.838 83.653 175.216C83.303 175.594 83.03 176.03 82.834 176.525C82.638 177.02 82.54 177.545 82.54 178.1C82.54 178.665 82.638 179.194 82.834 179.689C83.0347 180.184 83.31 180.62 83.66 180.998C84.0147 181.376 84.423 181.672 84.885 181.887C85.3517 182.097 85.8487 182.202 86.376 182.202C86.9827 182.202 87.545 182.064 88.063 181.789C88.5857 181.509 89.0173 181.145 89.358 180.697L90.226 181.166C89.7873 181.777 89.2343 182.267 88.567 182.636C87.8997 183 87.1693 183.182 86.376 183.182ZM97.0276 176H98.0076V183H97.0276L96.9926 181.698C96.7639 182.141 96.4443 182.501 96.0336 182.776C95.6229 183.047 95.1329 183.182 94.5636 183.182C94.0503 183.182 93.5696 183.086 93.1216 182.895C92.6736 182.699 92.2793 182.431 91.9386 182.09C91.5979 181.749 91.3319 181.355 91.1406 180.907C90.9493 180.459 90.8536 179.978 90.8536 179.465C90.8536 178.961 90.9469 178.487 91.1336 178.044C91.3249 177.601 91.5863 177.211 91.9176 176.875C92.2536 176.539 92.6409 176.278 93.0796 176.091C93.5229 175.9 93.9966 175.804 94.5006 175.804C95.0839 175.804 95.5926 175.944 96.0266 176.224C96.4606 176.499 96.8059 176.861 97.0626 177.309L97.0276 176ZM94.5426 182.23C95.0419 182.23 95.4713 182.109 95.8306 181.866C96.1899 181.619 96.4653 181.287 96.6566 180.872C96.8526 180.457 96.9506 179.999 96.9506 179.5C96.9506 178.987 96.8526 178.525 96.6566 178.114C96.4606 177.699 96.1829 177.37 95.8236 177.127C95.4643 176.884 95.0373 176.763 94.5426 176.763C94.0479 176.763 93.5953 176.887 93.1846 177.134C92.7786 177.377 92.4543 177.706 92.2116 178.121C91.9736 178.536 91.8546 178.996 91.8546 179.5C91.8546 180.009 91.9783 180.471 92.2256 180.886C92.4729 181.297 92.7996 181.623 93.2056 181.866C93.6163 182.109 94.0619 182.23 94.5426 182.23ZM99.4084 183V176H100.388V176.966C100.636 176.611 100.958 176.329 101.354 176.119C101.751 175.909 102.183 175.804 102.649 175.804C102.92 175.804 103.181 175.839 103.433 175.909L103.034 176.882C102.838 176.821 102.647 176.791 102.46 176.791C102.082 176.791 101.735 176.884 101.417 177.071C101.105 177.258 100.855 177.507 100.668 177.82C100.482 178.133 100.388 178.48 100.388 178.863V183H99.4084ZM109.708 172.5H110.688V183H109.708V181.691C109.466 182.139 109.132 182.501 108.707 182.776C108.287 183.047 107.788 183.182 107.209 183.182C106.701 183.182 106.225 183.086 105.781 182.895C105.338 182.704 104.946 182.44 104.605 182.104C104.269 181.763 104.006 181.371 103.814 180.928C103.623 180.485 103.527 180.009 103.527 179.5C103.527 178.991 103.623 178.515 103.814 178.072C104.006 177.624 104.269 177.232 104.605 176.896C104.946 176.555 105.338 176.289 105.781 176.098C106.225 175.907 106.701 175.811 107.209 175.811C107.788 175.811 108.287 175.949 108.707 176.224C109.132 176.495 109.466 176.852 109.708 177.295V172.5ZM107.216 182.23C107.716 182.23 108.145 182.109 108.504 181.866C108.864 181.619 109.139 181.287 109.33 180.872C109.526 180.457 109.624 179.999 109.624 179.5C109.624 178.987 109.526 178.525 109.33 178.114C109.134 177.699 108.857 177.37 108.497 177.127C108.138 176.884 107.711 176.763 107.216 176.763C106.722 176.763 106.271 176.887 105.865 177.134C105.459 177.377 105.135 177.706 104.892 178.121C104.65 178.536 104.528 178.996 104.528 179.5C104.528 180.009 104.652 180.471 104.899 180.886C105.147 181.297 105.473 181.623 105.879 181.866C106.29 182.109 106.736 182.23 107.216 182.23ZM121.837 178.667V183H120.857V178.863C120.857 178.48 120.763 178.133 120.577 177.82C120.39 177.507 120.14 177.258 119.828 177.071C119.515 176.884 119.167 176.791 118.785 176.791C118.407 176.791 118.059 176.884 117.742 177.071C117.429 177.258 117.179 177.507 116.993 177.82C116.806 178.133 116.713 178.48 116.713 178.863V183H115.733V172.5H116.713V176.966C116.96 176.611 117.282 176.329 117.679 176.119C118.075 175.909 118.507 175.804 118.974 175.804C119.501 175.804 119.982 175.932 120.416 176.189C120.85 176.446 121.195 176.791 121.452 177.225C121.708 177.659 121.837 178.14 121.837 178.667ZM126.182 183.182C125.538 183.182 124.95 183.016 124.418 182.685C123.89 182.354 123.468 181.91 123.151 181.355C122.838 180.795 122.682 180.177 122.682 179.5C122.682 178.987 122.773 178.508 122.955 178.065C123.137 177.617 123.386 177.225 123.704 176.889C124.026 176.548 124.399 176.282 124.824 176.091C125.248 175.9 125.701 175.804 126.182 175.804C126.826 175.804 127.411 175.97 127.939 176.301C128.471 176.632 128.893 177.078 129.206 177.638C129.523 178.198 129.682 178.819 129.682 179.5C129.682 180.009 129.591 180.485 129.409 180.928C129.227 181.371 128.975 181.763 128.653 182.104C128.335 182.44 127.964 182.704 127.54 182.895C127.12 183.086 126.667 183.182 126.182 183.182ZM126.182 182.202C126.658 182.202 127.085 182.078 127.463 181.831C127.845 181.579 128.146 181.248 128.366 180.837C128.59 180.426 128.702 179.981 128.702 179.5C128.702 179.01 128.59 178.56 128.366 178.149C128.142 177.734 127.838 177.402 127.456 177.155C127.078 176.908 126.653 176.784 126.182 176.784C125.706 176.784 125.276 176.91 124.894 177.162C124.516 177.409 124.215 177.738 123.991 178.149C123.771 178.56 123.662 179.01 123.662 179.5C123.662 180.004 123.776 180.461 124.005 180.872C124.233 181.278 124.539 181.602 124.922 181.845C125.304 182.083 125.724 182.202 126.182 182.202ZM130.813 183V172.5H131.793V183H130.813ZM139.185 172.5H140.165V183H139.185V181.691C138.942 182.139 138.609 182.501 138.184 182.776C137.764 183.047 137.265 183.182 136.686 183.182C136.177 183.182 135.701 183.086 135.258 182.895C134.815 182.704 134.423 182.44 134.082 182.104C133.746 181.763 133.482 181.371 133.291 180.928C133.1 180.485 133.004 180.009 133.004 179.5C133.004 178.991 133.1 178.515 133.291 178.072C133.482 177.624 133.746 177.232 134.082 176.896C134.423 176.555 134.815 176.289 135.258 176.098C135.701 175.907 136.177 175.811 136.686 175.811C137.265 175.811 137.764 175.949 138.184 176.224C138.609 176.495 138.942 176.852 139.185 177.295V172.5ZM136.693 182.23C137.192 182.23 137.622 182.109 137.981 181.866C138.34 181.619 138.616 181.287 138.807 180.872C139.003 180.457 139.101 179.999 139.101 179.5C139.101 178.987 139.003 178.525 138.807 178.114C138.611 177.699 138.333 177.37 137.974 177.127C137.615 176.884 137.188 176.763 136.693 176.763C136.198 176.763 135.748 176.887 135.342 177.134C134.936 177.377 134.612 177.706 134.369 178.121C134.126 178.536 134.005 178.996 134.005 179.5C134.005 180.009 134.129 180.471 134.376 180.886C134.623 181.297 134.95 181.623 135.356 181.866C135.767 182.109 136.212 182.23 136.693 182.23ZM144.871 183.182C144.227 183.182 143.639 183.016 143.107 182.685C142.58 182.354 142.158 181.91 141.84 181.355C141.528 180.795 141.371 180.177 141.371 179.5C141.371 178.987 141.462 178.508 141.644 178.065C141.826 177.617 142.076 177.225 142.393 176.889C142.715 176.548 143.089 176.282 143.513 176.091C143.938 175.9 144.391 175.804 144.871 175.804C145.389 175.804 145.865 175.907 146.299 176.112C146.738 176.317 147.114 176.604 147.426 176.973C147.744 177.342 147.982 177.773 148.14 178.268C148.304 178.763 148.371 179.297 148.343 179.871H142.407C142.463 180.314 142.603 180.711 142.827 181.061C143.056 181.411 143.345 181.689 143.695 181.894C144.05 182.095 144.442 182.197 144.871 182.202C145.338 182.202 145.758 182.081 146.131 181.838C146.509 181.595 146.813 181.262 147.041 180.837L148.035 181.068C147.755 181.689 147.333 182.197 146.768 182.594C146.204 182.986 145.571 183.182 144.871 183.182ZM142.379 179.08H147.356C147.324 178.646 147.191 178.249 146.957 177.89C146.729 177.526 146.432 177.237 146.068 177.022C145.704 176.803 145.305 176.693 144.871 176.693C144.437 176.693 144.041 176.8 143.681 177.015C143.322 177.225 143.028 177.512 142.799 177.876C142.571 178.235 142.431 178.637 142.379 179.08ZM149.543 183V176H150.523V176.966C150.77 176.611 151.092 176.329 151.489 176.119C151.886 175.909 152.317 175.804 152.784 175.804C153.055 175.804 153.316 175.839 153.568 175.909L153.169 176.882C152.973 176.821 152.782 176.791 152.595 176.791C152.217 176.791 151.869 176.884 151.552 177.071C151.239 177.258 150.99 177.507 150.803 177.82C150.616 178.133 150.523 178.48 150.523 178.863V183H149.543ZM156.614 183.133C156.232 183.124 155.858 183.054 155.494 182.923C155.13 182.792 154.813 182.615 154.542 182.391C154.272 182.167 154.078 181.913 153.961 181.628L154.808 181.264C154.883 181.446 155.021 181.614 155.221 181.768C155.427 181.917 155.66 182.039 155.921 182.132C156.183 182.221 156.442 182.265 156.698 182.265C156.983 182.265 157.249 182.218 157.496 182.125C157.744 182.032 157.944 181.899 158.098 181.726C158.257 181.549 158.336 181.341 158.336 181.103C158.336 180.846 158.252 180.646 158.084 180.501C157.916 180.352 157.704 180.235 157.447 180.151C157.191 180.062 156.927 179.978 156.656 179.899C156.162 179.764 155.725 179.614 155.347 179.451C154.969 179.288 154.673 179.08 154.458 178.828C154.248 178.571 154.143 178.242 154.143 177.841C154.143 177.416 154.262 177.05 154.5 176.742C154.743 176.429 155.058 176.189 155.445 176.021C155.837 175.848 156.255 175.762 156.698 175.762C157.268 175.762 157.786 175.886 158.252 176.133C158.724 176.38 159.064 176.709 159.274 177.12L158.483 177.589C158.399 177.398 158.266 177.232 158.084 177.092C157.902 176.952 157.695 176.842 157.461 176.763C157.233 176.684 156.999 176.642 156.761 176.637C156.463 176.632 156.185 176.677 155.928 176.77C155.672 176.859 155.464 176.992 155.305 177.169C155.151 177.346 155.074 177.563 155.074 177.82C155.074 178.077 155.151 178.273 155.305 178.408C155.459 178.539 155.667 178.646 155.928 178.73C156.194 178.809 156.493 178.903 156.824 179.01C157.249 179.145 157.648 179.299 158.021 179.472C158.395 179.645 158.696 179.859 158.924 180.116C159.153 180.373 159.265 180.697 159.26 181.089C159.26 181.509 159.134 181.875 158.882 182.188C158.63 182.501 158.304 182.741 157.902 182.909C157.501 183.072 157.072 183.147 156.614 183.133ZM163.83 183V173.2H164.894L170.067 181.229V173.2H171.047V183H169.99L164.81 174.971V183H163.83ZM178.43 176H179.41V183H178.43L178.395 181.698C178.166 182.141 177.847 182.501 177.436 182.776C177.025 183.047 176.535 183.182 175.966 183.182C175.453 183.182 174.972 183.086 174.524 182.895C174.076 182.699 173.682 182.431 173.341 182.09C173 181.749 172.734 181.355 172.543 180.907C172.352 180.459 172.256 179.978 172.256 179.465C172.256 178.961 172.349 178.487 172.536 178.044C172.727 177.601 172.989 177.211 173.32 176.875C173.656 176.539 174.043 176.278 174.482 176.091C174.925 175.9 175.399 175.804 175.903 175.804C176.486 175.804 176.995 175.944 177.429 176.224C177.863 176.499 178.208 176.861 178.465 177.309L178.43 176ZM175.945 182.23C176.444 182.23 176.874 182.109 177.233 181.866C177.592 181.619 177.868 181.287 178.059 180.872C178.255 180.457 178.353 179.999 178.353 179.5C178.353 178.987 178.255 178.525 178.059 178.114C177.863 177.699 177.585 177.37 177.226 177.127C176.867 176.884 176.44 176.763 175.945 176.763C175.45 176.763 174.998 176.887 174.587 177.134C174.181 177.377 173.857 177.706 173.614 178.121C173.376 178.536 173.257 178.996 173.257 179.5C173.257 180.009 173.381 180.471 173.628 180.886C173.875 181.297 174.202 181.623 174.608 181.866C175.019 182.109 175.464 182.23 175.945 182.23ZM180.811 183V176H181.791V176.966C182.043 176.611 182.365 176.329 182.757 176.119C183.149 175.909 183.578 175.804 184.045 175.804C184.572 175.804 185.055 175.935 185.494 176.196C185.932 176.453 186.275 176.796 186.523 177.225C186.77 176.796 187.111 176.453 187.545 176.196C187.979 175.935 188.459 175.804 188.987 175.804C189.514 175.804 189.995 175.932 190.429 176.189C190.863 176.446 191.208 176.791 191.465 177.225C191.721 177.659 191.85 178.14 191.85 178.667V183H190.87V178.884C190.87 178.511 190.779 178.165 190.597 177.848C190.415 177.531 190.17 177.276 189.862 177.085C189.558 176.889 189.22 176.791 188.847 176.791C188.473 176.791 188.133 176.882 187.825 177.064C187.521 177.241 187.279 177.489 187.097 177.806C186.915 178.119 186.824 178.478 186.824 178.884V183H185.844V178.884C185.844 178.478 185.753 178.119 185.571 177.806C185.389 177.489 185.144 177.241 184.836 177.064C184.528 176.882 184.187 176.791 183.814 176.791C183.445 176.791 183.107 176.889 182.799 177.085C182.491 177.276 182.246 177.531 182.064 177.848C181.882 178.165 181.791 178.511 181.791 178.884V183H180.811ZM196.195 183.182C195.551 183.182 194.963 183.016 194.431 182.685C193.904 182.354 193.482 181.91 193.164 181.355C192.852 180.795 192.695 180.177 192.695 179.5C192.695 178.987 192.786 178.508 192.968 178.065C193.15 177.617 193.4 177.225 193.717 176.889C194.039 176.548 194.413 176.282 194.837 176.091C195.262 175.9 195.715 175.804 196.195 175.804C196.713 175.804 197.189 175.907 197.623 176.112C198.062 176.317 198.438 176.604 198.75 176.973C199.068 177.342 199.306 177.773 199.464 178.268C199.628 178.763 199.695 179.297 199.667 179.871H193.731C193.787 180.314 193.927 180.711 194.151 181.061C194.38 181.411 194.669 181.689 195.019 181.894C195.374 182.095 195.766 182.197 196.195 182.202C196.662 182.202 197.082 182.081 197.455 181.838C197.833 181.595 198.137 181.262 198.365 180.837L199.359 181.068C199.079 181.689 198.657 182.197 198.092 182.594C197.528 182.986 196.895 183.182 196.195 183.182ZM193.703 179.08H198.68C198.648 178.646 198.515 178.249 198.281 177.89C198.053 177.526 197.756 177.237 197.392 177.022C197.028 176.803 196.629 176.693 196.195 176.693C195.761 176.693 195.365 176.8 195.005 177.015C194.646 177.225 194.352 177.512 194.123 177.876C193.895 178.235 193.755 178.637 193.703 179.08Z" fill="#8391A1"/>
<path d="M66 254C66 249.582 69.5817 246 74 246H317C321.418 246 325 249.582 325 254V294C325 298.418 321.418 302 317 302H74C69.5817 302 66 298.418 66 294V254Z" fill="#D9D9D9"/>
<path d="M86.376 279.182C85.7133 279.182 85.0903 279.051 84.507 278.79C83.9237 278.524 83.4103 278.16 82.967 277.698C82.5283 277.231 82.183 276.69 81.931 276.074C81.6837 275.458 81.56 274.8 81.56 274.1C81.56 273.4 81.6837 272.742 81.931 272.126C82.183 271.51 82.5283 270.971 82.967 270.509C83.4103 270.042 83.9237 269.678 84.507 269.417C85.0903 269.151 85.7133 269.018 86.376 269.018C87.1693 269.018 87.8997 269.202 88.567 269.571C89.2343 269.94 89.7873 270.43 90.226 271.041L89.358 271.51C89.0127 271.048 88.574 270.682 88.042 270.411C87.5147 270.136 86.9593 269.998 86.376 269.998C85.8393 269.998 85.3377 270.108 84.871 270.327C84.409 270.542 84.003 270.838 83.653 271.216C83.303 271.594 83.03 272.03 82.834 272.525C82.638 273.02 82.54 273.545 82.54 274.1C82.54 274.665 82.638 275.194 82.834 275.689C83.0347 276.184 83.31 276.62 83.66 276.998C84.0147 277.376 84.423 277.672 84.885 277.887C85.3517 278.097 85.8487 278.202 86.376 278.202C86.9827 278.202 87.545 278.064 88.063 277.789C88.5857 277.509 89.0173 277.145 89.358 276.697L90.226 277.166C89.7873 277.777 89.2343 278.267 88.567 278.636C87.8997 279 87.1693 279.182 86.376 279.182ZM97.0276 272H98.0076V279H97.0276L96.9926 277.698C96.7639 278.141 96.4443 278.501 96.0336 278.776C95.6229 279.047 95.1329 279.182 94.5636 279.182C94.0503 279.182 93.5696 279.086 93.1216 278.895C92.6736 278.699 92.2793 278.431 91.9386 278.09C91.5979 277.749 91.3319 277.355 91.1406 276.907C90.9493 276.459 90.8536 275.978 90.8536 275.465C90.8536 274.961 90.9469 274.487 91.1336 274.044C91.3249 273.601 91.5863 273.211 91.9176 272.875C92.2536 272.539 92.6409 272.278 93.0796 272.091C93.5229 271.9 93.9966 271.804 94.5006 271.804C95.0839 271.804 95.5926 271.944 96.0266 272.224C96.4606 272.499 96.8059 272.861 97.0626 273.309L97.0276 272ZM94.5426 278.23C95.0419 278.23 95.4713 278.109 95.8306 277.866C96.1899 277.619 96.4653 277.287 96.6566 276.872C96.8526 276.457 96.9506 275.999 96.9506 275.5C96.9506 274.987 96.8526 274.525 96.6566 274.114C96.4606 273.699 96.1829 273.37 95.8236 273.127C95.4643 272.884 95.0373 272.763 94.5426 272.763C94.0479 272.763 93.5953 272.887 93.1846 273.134C92.7786 273.377 92.4543 273.706 92.2116 274.121C91.9736 274.536 91.8546 274.996 91.8546 275.5C91.8546 276.009 91.9783 276.471 92.2256 276.886C92.4729 277.297 92.7996 277.623 93.2056 277.866C93.6163 278.109 94.0619 278.23 94.5426 278.23ZM99.4084 279V272H100.388V272.966C100.636 272.611 100.958 272.329 101.354 272.119C101.751 271.909 102.183 271.804 102.649 271.804C102.92 271.804 103.181 271.839 103.433 271.909L103.034 272.882C102.838 272.821 102.647 272.791 102.46 272.791C102.082 272.791 101.735 272.884 101.417 273.071C101.105 273.258 100.855 273.507 100.668 273.82C100.482 274.133 100.388 274.48 100.388 274.863V279H99.4084ZM109.708 268.5H110.688V279H109.708V277.691C109.466 278.139 109.132 278.501 108.707 278.776C108.287 279.047 107.788 279.182 107.209 279.182C106.701 279.182 106.225 279.086 105.781 278.895C105.338 278.704 104.946 278.44 104.605 278.104C104.269 277.763 104.006 277.371 103.814 276.928C103.623 276.485 103.527 276.009 103.527 275.5C103.527 274.991 103.623 274.515 103.814 274.072C104.006 273.624 104.269 273.232 104.605 272.896C104.946 272.555 105.338 272.289 105.781 272.098C106.225 271.907 106.701 271.811 107.209 271.811C107.788 271.811 108.287 271.949 108.707 272.224C109.132 272.495 109.466 272.852 109.708 273.295V268.5ZM107.216 278.23C107.716 278.23 108.145 278.109 108.504 277.866C108.864 277.619 109.139 277.287 109.33 276.872C109.526 276.457 109.624 275.999 109.624 275.5C109.624 274.987 109.526 274.525 109.33 274.114C109.134 273.699 108.857 273.37 108.497 273.127C108.138 272.884 107.711 272.763 107.216 272.763C106.722 272.763 106.271 272.887 105.865 273.134C105.459 273.377 105.135 273.706 104.892 274.121C104.65 274.536 104.528 274.996 104.528 275.5C104.528 276.009 104.652 276.471 104.899 276.886C105.147 277.297 105.473 277.623 105.879 277.866C106.29 278.109 106.736 278.23 107.216 278.23ZM121.837 274.667V279H120.857V274.863C120.857 274.48 120.763 274.133 120.577 273.82C120.39 273.507 120.14 273.258 119.828 273.071C119.515 272.884 119.167 272.791 118.785 272.791C118.407 272.791 118.059 272.884 117.742 273.071C117.429 273.258 117.179 273.507 116.993 273.82C116.806 274.133 116.713 274.48 116.713 274.863V279H115.733V272H116.713V272.966C116.96 272.611 117.282 272.329 117.679 272.119C118.075 271.909 118.507 271.804 118.974 271.804C119.501 271.804 119.982 271.932 120.416 272.189C120.85 272.446 121.195 272.791 121.452 273.225C121.708 273.659 121.837 274.14 121.837 274.667ZM122.958 276.319V272H123.938V276.123C123.938 276.506 124.032 276.853 124.218 277.166C124.405 277.479 124.655 277.728 124.967 277.915C125.285 278.102 125.632 278.195 126.01 278.195C126.393 278.195 126.738 278.102 127.046 277.915C127.359 277.728 127.609 277.479 127.795 277.166C127.982 276.853 128.075 276.506 128.075 276.123V272H129.055L129.062 279H128.082L128.075 278.02C127.828 278.375 127.506 278.657 127.109 278.867C126.717 279.077 126.288 279.182 125.821 279.182C125.294 279.182 124.813 279.054 124.379 278.797C123.945 278.54 123.6 278.195 123.343 277.761C123.087 277.327 122.958 276.846 122.958 276.319ZM130.457 279V272H131.437V272.966C131.689 272.611 132.011 272.329 132.403 272.119C132.795 271.909 133.225 271.804 133.691 271.804C134.219 271.804 134.702 271.935 135.14 272.196C135.579 272.453 135.922 272.796 136.169 273.225C136.417 272.796 136.757 272.453 137.191 272.196C137.625 271.935 138.106 271.804 138.633 271.804C139.161 271.804 139.641 271.932 140.075 272.189C140.509 272.446 140.855 272.791 141.111 273.225C141.368 273.659 141.496 274.14 141.496 274.667V279H140.516V274.884C140.516 274.511 140.425 274.165 140.243 273.848C140.061 273.531 139.816 273.276 139.508 273.085C139.205 272.889 138.867 272.791 138.493 272.791C138.12 272.791 137.779 272.882 137.471 273.064C137.168 273.241 136.925 273.489 136.743 273.806C136.561 274.119 136.47 274.478 136.47 274.884V279H135.49V274.884C135.49 274.478 135.399 274.119 135.217 273.806C135.035 273.489 134.79 273.241 134.482 273.064C134.174 272.882 133.834 272.791 133.46 272.791C133.092 272.791 132.753 272.889 132.445 273.085C132.137 273.276 131.892 273.531 131.71 273.848C131.528 274.165 131.437 274.511 131.437 274.884V279H130.457ZM146.466 271.804C147.148 271.804 147.766 271.97 148.321 272.301C148.881 272.632 149.327 273.078 149.658 273.638C149.99 274.193 150.155 274.812 150.155 275.493C150.155 276.002 150.06 276.48 149.868 276.928C149.677 277.371 149.411 277.763 149.07 278.104C148.734 278.44 148.342 278.704 147.894 278.895C147.451 279.086 146.975 279.182 146.466 279.182C145.888 279.182 145.388 279.044 144.968 278.769C144.548 278.494 144.217 278.134 143.974 277.691V279H142.994V268.5H143.974V273.295C144.217 272.852 144.548 272.492 144.968 272.217C145.388 271.942 145.888 271.804 146.466 271.804ZM146.459 278.223C146.959 278.223 147.411 278.102 147.817 277.859C148.223 277.612 148.548 277.28 148.79 276.865C149.033 276.45 149.154 275.992 149.154 275.493C149.154 274.98 149.031 274.518 148.783 274.107C148.536 273.692 148.207 273.363 147.796 273.12C147.39 272.877 146.945 272.756 146.459 272.756C145.965 272.756 145.535 272.88 145.171 273.127C144.812 273.374 144.534 273.706 144.338 274.121C144.147 274.536 144.051 274.994 144.051 275.493C144.051 276.002 144.149 276.464 144.345 276.879C144.541 277.29 144.819 277.616 145.178 277.859C145.542 278.102 145.969 278.223 146.459 278.223ZM154.359 279.182C153.715 279.182 153.127 279.016 152.595 278.685C152.068 278.354 151.646 277.91 151.328 277.355C151.016 276.795 150.859 276.177 150.859 275.5C150.859 274.987 150.95 274.508 151.132 274.065C151.314 273.617 151.564 273.225 151.881 272.889C152.203 272.548 152.577 272.282 153.001 272.091C153.426 271.9 153.879 271.804 154.359 271.804C154.877 271.804 155.353 271.907 155.787 272.112C156.226 272.317 156.602 272.604 156.914 272.973C157.232 273.342 157.47 273.773 157.628 274.268C157.792 274.763 157.859 275.297 157.831 275.871H151.895C151.951 276.314 152.091 276.711 152.315 277.061C152.544 277.411 152.833 277.689 153.183 277.894C153.538 278.095 153.93 278.197 154.359 278.202C154.826 278.202 155.246 278.081 155.619 277.838C155.997 277.595 156.301 277.262 156.529 276.837L157.523 277.068C157.243 277.689 156.821 278.197 156.256 278.594C155.692 278.986 155.059 279.182 154.359 279.182ZM151.867 275.08H156.844C156.812 274.646 156.679 274.249 156.445 273.89C156.217 273.526 155.92 273.237 155.556 273.022C155.192 272.803 154.793 272.693 154.359 272.693C153.925 272.693 153.529 272.8 153.169 273.015C152.81 273.225 152.516 273.512 152.287 273.876C152.059 274.235 151.919 274.637 151.867 275.08ZM159.031 279V272H160.011V272.966C160.259 272.611 160.581 272.329 160.977 272.119C161.374 271.909 161.806 271.804 162.272 271.804C162.543 271.804 162.804 271.839 163.056 271.909L162.657 272.882C162.461 272.821 162.27 272.791 162.083 272.791C161.705 272.791 161.358 272.884 161.04 273.071C160.728 273.258 160.478 273.507 160.291 273.82C160.105 274.133 160.011 274.48 160.011 274.863V279H159.031Z" fill="#8391A1"/>
<path d="M65 350C65 345.582 68.5817 342 73 342H316C320.418 342 324 345.582 324 350V390C324 394.418 320.418 398 316 398H73C68.5817 398 65 394.418 65 390V350Z" fill="#D9D9D9"/>
<path d="M80.84 375V365.2H86.804V366.18H81.82V369.26H85.943V370.24H81.82V374.02H86.804V375H80.84ZM87.6967 375L90.2587 371.486L87.7037 367.979H88.9147L90.8677 370.646L92.8137 367.979H94.0177L91.4697 371.486L94.0317 375H92.8207L90.8677 372.312L88.9077 375H87.6967ZM96.2712 378.5H95.2912V368H96.2712V369.309C96.5138 368.866 96.8452 368.506 97.2652 368.231C97.6852 367.956 98.1845 367.818 98.7632 367.818C99.2718 367.818 99.7478 367.914 100.191 368.105C100.639 368.296 101.031 368.562 101.367 368.903C101.703 369.239 101.967 369.629 102.158 370.072C102.35 370.515 102.445 370.991 102.445 371.5C102.445 372.009 102.35 372.487 102.158 372.935C101.967 373.383 101.703 373.777 101.367 374.118C101.031 374.454 100.639 374.718 100.191 374.909C99.7478 375.1 99.2718 375.196 98.7632 375.196C98.1845 375.196 97.6852 375.058 97.2652 374.783C96.8452 374.508 96.5138 374.148 96.2712 373.705V378.5ZM98.7562 368.77C98.2662 368.77 97.8392 368.894 97.4752 369.141C97.1158 369.384 96.8382 369.71 96.6422 370.121C96.4462 370.532 96.3482 370.991 96.3482 371.5C96.3482 371.999 96.4438 372.457 96.6352 372.872C96.8312 373.287 97.1088 373.619 97.4682 373.866C97.8322 374.113 98.2615 374.237 98.7562 374.237C99.2415 374.237 99.6872 374.116 100.093 373.873C100.504 373.63 100.833 373.304 101.08 372.893C101.328 372.478 101.451 372.013 101.451 371.5C101.451 371.001 101.33 370.546 101.087 370.135C100.845 369.72 100.52 369.388 100.114 369.141C99.7082 368.894 99.2555 368.77 98.7562 368.77ZM103.563 368H104.543V375H103.563V368ZM104.06 366.775C103.901 366.775 103.766 366.724 103.654 366.621C103.546 366.514 103.493 366.381 103.493 366.222C103.493 366.063 103.546 365.933 103.654 365.83C103.766 365.723 103.901 365.669 104.06 365.669C104.214 365.669 104.344 365.723 104.452 365.83C104.564 365.933 104.62 366.063 104.62 366.222C104.62 366.381 104.566 366.514 104.459 366.621C104.351 366.724 104.218 366.775 104.06 366.775ZM106.201 375V368H107.181V368.966C107.429 368.611 107.751 368.329 108.147 368.119C108.544 367.909 108.976 367.804 109.442 367.804C109.713 367.804 109.974 367.839 110.226 367.909L109.827 368.882C109.631 368.821 109.44 368.791 109.253 368.791C108.875 368.791 108.528 368.884 108.21 369.071C107.898 369.258 107.648 369.507 107.461 369.82C107.275 370.133 107.181 370.48 107.181 370.863V375H106.201ZM113.82 375.182C113.176 375.182 112.588 375.016 112.056 374.685C111.529 374.354 111.107 373.91 110.789 373.355C110.477 372.795 110.32 372.177 110.32 371.5C110.32 370.987 110.411 370.508 110.593 370.065C110.775 369.617 111.025 369.225 111.342 368.889C111.664 368.548 112.038 368.282 112.462 368.091C112.887 367.9 113.34 367.804 113.82 367.804C114.338 367.804 114.814 367.907 115.248 368.112C115.687 368.317 116.063 368.604 116.375 368.973C116.693 369.342 116.931 369.773 117.089 370.268C117.253 370.763 117.32 371.297 117.292 371.871H111.356C111.412 372.314 111.552 372.711 111.776 373.061C112.005 373.411 112.294 373.689 112.644 373.894C112.999 374.095 113.391 374.197 113.82 374.202C114.287 374.202 114.707 374.081 115.08 373.838C115.458 373.595 115.762 373.262 115.99 372.837L116.984 373.068C116.704 373.689 116.282 374.197 115.717 374.594C115.153 374.986 114.52 375.182 113.82 375.182ZM111.328 371.08H116.305C116.273 370.646 116.14 370.249 115.906 369.89C115.678 369.526 115.381 369.237 115.017 369.022C114.653 368.803 114.254 368.693 113.82 368.693C113.386 368.693 112.99 368.8 112.63 369.015C112.271 369.225 111.977 369.512 111.748 369.876C111.52 370.235 111.38 370.637 111.328 371.08ZM127.685 364.5H128.665V375H127.685V373.691C127.442 374.139 127.109 374.501 126.684 374.776C126.264 375.047 125.765 375.182 125.186 375.182C124.677 375.182 124.201 375.086 123.758 374.895C123.315 374.704 122.923 374.44 122.582 374.104C122.246 373.763 121.982 373.371 121.791 372.928C121.6 372.485 121.504 372.009 121.504 371.5C121.504 370.991 121.6 370.515 121.791 370.072C121.982 369.624 122.246 369.232 122.582 368.896C122.923 368.555 123.315 368.289 123.758 368.098C124.201 367.907 124.677 367.811 125.186 367.811C125.765 367.811 126.264 367.949 126.684 368.224C127.109 368.495 127.442 368.852 127.685 369.295V364.5ZM125.193 374.23C125.692 374.23 126.122 374.109 126.481 373.866C126.84 373.619 127.116 373.287 127.307 372.872C127.503 372.457 127.601 371.999 127.601 371.5C127.601 370.987 127.503 370.525 127.307 370.114C127.111 369.699 126.833 369.37 126.474 369.127C126.115 368.884 125.688 368.763 125.193 368.763C124.698 368.763 124.248 368.887 123.842 369.134C123.436 369.377 123.112 369.706 122.869 370.121C122.626 370.536 122.505 370.996 122.505 371.5C122.505 372.009 122.629 372.471 122.876 372.886C123.123 373.297 123.45 373.623 123.856 373.866C124.267 374.109 124.712 374.23 125.193 374.23ZM136.045 368H137.025V375H136.045L136.01 373.698C135.782 374.141 135.462 374.501 135.051 374.776C134.641 375.047 134.151 375.182 133.581 375.182C133.068 375.182 132.587 375.086 132.139 374.895C131.691 374.699 131.297 374.431 130.956 374.09C130.616 373.749 130.35 373.355 130.158 372.907C129.967 372.459 129.871 371.978 129.871 371.465C129.871 370.961 129.965 370.487 130.151 370.044C130.343 369.601 130.604 369.211 130.935 368.875C131.271 368.539 131.659 368.278 132.097 368.091C132.541 367.9 133.014 367.804 133.518 367.804C134.102 367.804 134.61 367.944 135.044 368.224C135.478 368.499 135.824 368.861 136.08 369.309L136.045 368ZM133.56 374.23C134.06 374.23 134.489 374.109 134.848 373.866C135.208 373.619 135.483 373.287 135.674 372.872C135.87 372.457 135.968 371.999 135.968 371.5C135.968 370.987 135.87 370.525 135.674 370.114C135.478 369.699 135.201 369.37 134.841 369.127C134.482 368.884 134.055 368.763 133.56 368.763C133.066 368.763 132.613 368.887 132.202 369.134C131.796 369.377 131.472 369.706 131.229 370.121C130.991 370.536 130.872 370.996 130.872 371.5C130.872 372.009 130.996 372.471 131.243 372.886C131.491 373.297 131.817 373.623 132.223 373.866C132.634 374.109 133.08 374.23 133.56 374.23ZM142.003 368.98H140.33L140.323 375H139.343L139.35 368.98H138.083V368H139.35L139.343 365.802H140.323L140.33 368H142.003V368.98ZM146.141 375.182C145.497 375.182 144.909 375.016 144.377 374.685C143.849 374.354 143.427 373.91 143.11 373.355C142.797 372.795 142.641 372.177 142.641 371.5C142.641 370.987 142.732 370.508 142.914 370.065C143.096 369.617 143.345 369.225 143.663 368.889C143.985 368.548 144.358 368.282 144.783 368.091C145.207 367.9 145.66 367.804 146.141 367.804C146.659 367.804 147.135 367.907 147.569 368.112C148.007 368.317 148.383 368.604 148.696 368.973C149.013 369.342 149.251 369.773 149.41 370.268C149.573 370.763 149.641 371.297 149.613 371.871H143.677C143.733 372.314 143.873 372.711 144.097 373.061C144.325 373.411 144.615 373.689 144.965 373.894C145.319 374.095 145.711 374.197 146.141 374.202C146.607 374.202 147.027 374.081 147.401 373.838C147.779 373.595 148.082 373.262 148.311 372.837L149.305 373.068C149.025 373.689 148.602 374.197 148.038 374.594C147.473 374.986 146.841 375.182 146.141 375.182ZM143.649 371.08H148.626C148.593 370.646 148.46 370.249 148.227 369.89C147.998 369.526 147.702 369.237 147.338 369.022C146.974 368.803 146.575 368.693 146.141 368.693C145.707 368.693 145.31 368.8 144.951 369.015C144.591 369.225 144.297 369.512 144.069 369.876C143.84 370.235 143.7 370.637 143.649 371.08Z" fill="#8391A1"/>
<path d="M65 446C65 441.582 68.5817 438 73 438H316C320.418 438 324 441.582 324 446V486C324 490.418 320.418 494 316 494H73C68.5817 494 65 490.418 65 486V446Z" fill="#D9D9D9"/>
<path d="M84.263 471.182C83.7403 471.182 83.234 471.1 82.744 470.937C82.2587 470.774 81.834 470.54 81.47 470.237C81.106 469.934 80.8493 469.572 80.7 469.152L81.617 468.809C81.7197 469.098 81.9063 469.348 82.177 469.558C82.4523 469.763 82.772 469.922 83.136 470.034C83.5047 470.146 83.8803 470.202 84.263 470.202C84.711 470.202 85.1287 470.127 85.516 469.978C85.9033 469.829 86.216 469.621 86.454 469.355C86.692 469.084 86.811 468.767 86.811 468.403C86.811 468.034 86.6873 467.731 86.44 467.493C86.1927 467.255 85.873 467.068 85.481 466.933C85.0937 466.793 84.6877 466.686 84.263 466.611C83.5957 466.494 82.996 466.336 82.464 466.135C81.9367 465.934 81.519 465.652 81.211 465.288C80.903 464.919 80.749 464.434 80.749 463.832C80.749 463.267 80.9123 462.777 81.239 462.362C81.5657 461.947 81.995 461.625 82.527 461.396C83.0637 461.167 83.6423 461.053 84.263 461.053C84.7717 461.053 85.2687 461.132 85.754 461.291C86.2393 461.45 86.6663 461.681 87.035 461.984C87.4083 462.287 87.6767 462.658 87.84 463.097L86.909 463.433C86.8063 463.139 86.6173 462.889 86.342 462.684C86.0713 462.474 85.754 462.315 85.39 462.208C85.026 462.096 84.6503 462.04 84.263 462.04C83.8197 462.035 83.4043 462.11 83.017 462.264C82.6343 462.413 82.324 462.623 82.086 462.894C81.848 463.16 81.729 463.473 81.729 463.832C81.729 464.252 81.8387 464.576 82.058 464.805C82.282 465.029 82.5853 465.197 82.968 465.309C83.3507 465.421 83.7823 465.521 84.263 465.61C84.8883 465.717 85.4693 465.885 86.006 466.114C86.5427 466.338 86.9743 466.639 87.301 467.017C87.6277 467.39 87.791 467.852 87.791 468.403C87.791 468.963 87.6277 469.453 87.301 469.873C86.9743 470.288 86.5427 470.61 86.006 470.839C85.474 471.068 84.893 471.182 84.263 471.182ZM92.3692 471.182C91.7252 471.182 91.1372 471.016 90.6052 470.685C90.0779 470.354 89.6556 469.91 89.3382 469.355C89.0256 468.795 88.8692 468.177 88.8692 467.5C88.8692 466.987 88.9602 466.508 89.1422 466.065C89.3242 465.617 89.5739 465.225 89.8912 464.889C90.2132 464.548 90.5866 464.282 91.0112 464.091C91.4359 463.9 91.8886 463.804 92.3692 463.804C92.8872 463.804 93.3632 463.907 93.7972 464.112C94.2359 464.317 94.6116 464.604 94.9242 464.973C95.2416 465.342 95.4796 465.773 95.6382 466.268C95.8016 466.763 95.8692 467.297 95.8412 467.871H89.9052C89.9612 468.314 90.1012 468.711 90.3252 469.061C90.5539 469.411 90.8432 469.689 91.1932 469.894C91.5479 470.095 91.9399 470.197 92.3692 470.202C92.8359 470.202 93.2559 470.081 93.6292 469.838C94.0072 469.595 94.3106 469.262 94.5392 468.837L95.5332 469.068C95.2532 469.689 94.8309 470.197 94.2662 470.594C93.7016 470.986 93.0692 471.182 92.3692 471.182ZM89.8772 467.08H94.8542C94.8216 466.646 94.6886 466.249 94.4552 465.89C94.2266 465.526 93.9302 465.237 93.5662 465.022C93.2022 464.803 92.8032 464.693 92.3692 464.693C91.9352 464.693 91.5386 464.8 91.1792 465.015C90.8199 465.225 90.5259 465.512 90.2972 465.876C90.0686 466.235 89.9286 466.637 89.8772 467.08ZM101.971 469.243L102.846 469.719C102.528 470.162 102.125 470.517 101.635 470.783C101.149 471.049 100.622 471.182 100.053 471.182C99.4088 471.182 98.8208 471.016 98.2888 470.685C97.7615 470.354 97.3391 469.91 97.0218 469.355C96.7091 468.795 96.5528 468.177 96.5528 467.5C96.5528 466.987 96.6438 466.508 96.8258 466.065C97.0078 465.617 97.2575 465.225 97.5748 464.889C97.8968 464.548 98.2701 464.282 98.6948 464.091C99.1195 463.9 99.5721 463.804 100.053 463.804C100.622 463.804 101.149 463.937 101.635 464.203C102.125 464.469 102.528 464.826 102.846 465.274L101.971 465.743C101.728 465.435 101.436 465.199 101.096 465.036C100.755 464.868 100.407 464.784 100.053 464.784C99.5815 464.784 99.1545 464.91 98.7718 465.162C98.3891 465.409 98.0858 465.738 97.8618 466.149C97.6425 466.56 97.5328 467.01 97.5328 467.5C97.5328 467.99 97.6448 468.44 97.8688 468.851C98.0975 469.262 98.4031 469.591 98.7858 469.838C99.1685 470.081 99.5908 470.202 100.053 470.202C100.435 470.202 100.795 470.113 101.131 469.936C101.467 469.759 101.747 469.528 101.971 469.243ZM103.761 468.319V464H104.741V468.123C104.741 468.506 104.835 468.853 105.021 469.166C105.208 469.479 105.458 469.728 105.77 469.915C106.088 470.102 106.435 470.195 106.813 470.195C107.196 470.195 107.541 470.102 107.849 469.915C108.162 469.728 108.412 469.479 108.598 469.166C108.785 468.853 108.878 468.506 108.878 468.123V464H109.858L109.865 471H108.885L108.878 470.02C108.631 470.375 108.309 470.657 107.912 470.867C107.52 471.077 107.091 471.182 106.624 471.182C106.097 471.182 105.616 471.054 105.182 470.797C104.748 470.54 104.403 470.195 104.146 469.761C103.89 469.327 103.761 468.846 103.761 468.319ZM111.26 471V464H112.24V464.966C112.487 464.611 112.809 464.329 113.206 464.119C113.603 463.909 114.034 463.804 114.501 463.804C114.772 463.804 115.033 463.839 115.285 463.909L114.886 464.882C114.69 464.821 114.499 464.791 114.312 464.791C113.934 464.791 113.586 464.884 113.269 465.071C112.956 465.258 112.707 465.507 112.52 465.82C112.333 466.133 112.24 466.48 112.24 466.863V471H111.26ZM116.168 464H117.148V471H116.168V464ZM116.665 462.775C116.506 462.775 116.371 462.724 116.259 462.621C116.152 462.514 116.098 462.381 116.098 462.222C116.098 462.063 116.152 461.933 116.259 461.83C116.371 461.723 116.506 461.669 116.665 461.669C116.819 461.669 116.95 461.723 117.057 461.83C117.169 461.933 117.225 462.063 117.225 462.222C117.225 462.381 117.171 462.514 117.064 462.621C116.957 462.724 116.824 462.775 116.665 462.775ZM122.411 464.98H120.738L120.731 471H119.751L119.758 464.98H118.491V464H119.758L119.751 461.802H120.731L120.738 464H122.411V464.98ZM128.332 464H129.368L125.539 474.5H124.496L125.77 471L123.257 464H124.328L126.26 469.649L128.332 464ZM138.669 471.182C138.006 471.182 137.383 471.051 136.8 470.79C136.217 470.524 135.703 470.16 135.26 469.698C134.821 469.231 134.476 468.69 134.224 468.074C133.977 467.458 133.853 466.8 133.853 466.1C133.853 465.4 133.977 464.742 134.224 464.126C134.476 463.51 134.821 462.971 135.26 462.509C135.703 462.042 136.217 461.678 136.8 461.417C137.383 461.151 138.006 461.018 138.669 461.018C139.462 461.018 140.193 461.202 140.86 461.571C141.527 461.94 142.08 462.43 142.519 463.041L141.651 463.51C141.306 463.048 140.867 462.682 140.335 462.411C139.808 462.136 139.252 461.998 138.669 461.998C138.132 461.998 137.631 462.108 137.164 462.327C136.702 462.542 136.296 462.838 135.946 463.216C135.596 463.594 135.323 464.03 135.127 464.525C134.931 465.02 134.833 465.545 134.833 466.1C134.833 466.665 134.931 467.194 135.127 467.689C135.328 468.184 135.603 468.62 135.953 468.998C136.308 469.376 136.716 469.672 137.178 469.887C137.645 470.097 138.142 470.202 138.669 470.202C139.276 470.202 139.838 470.064 140.356 469.789C140.879 469.509 141.31 469.145 141.651 468.697L142.519 469.166C142.08 469.777 141.527 470.267 140.86 470.636C140.193 471 139.462 471.182 138.669 471.182ZM146.647 471.182C146.003 471.182 145.415 471.016 144.883 470.685C144.355 470.354 143.933 469.91 143.616 469.355C143.303 468.795 143.147 468.177 143.147 467.5C143.147 466.987 143.238 466.508 143.42 466.065C143.602 465.617 143.851 465.225 144.169 464.889C144.491 464.548 144.864 464.282 145.289 464.091C145.713 463.9 146.166 463.804 146.647 463.804C147.291 463.804 147.876 463.97 148.404 464.301C148.936 464.632 149.358 465.078 149.671 465.638C149.988 466.198 150.147 466.819 150.147 467.5C150.147 468.009 150.056 468.485 149.874 468.928C149.692 469.371 149.44 469.763 149.118 470.104C148.8 470.44 148.429 470.704 148.005 470.895C147.585 471.086 147.132 471.182 146.647 471.182ZM146.647 470.202C147.123 470.202 147.55 470.078 147.928 469.831C148.31 469.579 148.611 469.248 148.831 468.837C149.055 468.426 149.167 467.981 149.167 467.5C149.167 467.01 149.055 466.56 148.831 466.149C148.607 465.734 148.303 465.402 147.921 465.155C147.543 464.908 147.118 464.784 146.647 464.784C146.171 464.784 145.741 464.91 145.359 465.162C144.981 465.409 144.68 465.738 144.456 466.149C144.236 466.56 144.127 467.01 144.127 467.5C144.127 468.004 144.241 468.461 144.47 468.872C144.698 469.278 145.004 469.602 145.387 469.845C145.769 470.083 146.189 470.202 146.647 470.202ZM157.025 460.5H158.005V471H157.025V469.691C156.782 470.139 156.448 470.501 156.024 470.776C155.604 471.047 155.104 471.182 154.526 471.182C154.017 471.182 153.541 471.086 153.098 470.895C152.654 470.704 152.262 470.44 151.922 470.104C151.586 469.763 151.322 469.371 151.131 468.928C150.939 468.485 150.844 468.009 150.844 467.5C150.844 466.991 150.939 466.515 151.131 466.072C151.322 465.624 151.586 465.232 151.922 464.896C152.262 464.555 152.654 464.289 153.098 464.098C153.541 463.907 154.017 463.811 154.526 463.811C155.104 463.811 155.604 463.949 156.024 464.224C156.448 464.495 156.782 464.852 157.025 465.295V460.5ZM154.533 470.23C155.032 470.23 155.461 470.109 155.821 469.866C156.18 469.619 156.455 469.287 156.647 468.872C156.843 468.457 156.941 467.999 156.941 467.5C156.941 466.987 156.843 466.525 156.647 466.114C156.451 465.699 156.173 465.37 155.814 465.127C155.454 464.884 155.027 464.763 154.533 464.763C154.038 464.763 153.588 464.887 153.182 465.134C152.776 465.377 152.451 465.706 152.209 466.121C151.966 466.536 151.845 466.996 151.845 467.5C151.845 468.009 151.968 468.471 152.216 468.886C152.463 469.297 152.79 469.623 153.196 469.866C153.606 470.109 154.052 470.23 154.533 470.23ZM162.711 471.182C162.067 471.182 161.479 471.016 160.947 470.685C160.42 470.354 159.997 469.91 159.68 469.355C159.367 468.795 159.211 468.177 159.211 467.5C159.211 466.987 159.302 466.508 159.484 466.065C159.666 465.617 159.916 465.225 160.233 464.889C160.555 464.548 160.928 464.282 161.353 464.091C161.778 463.9 162.23 463.804 162.711 463.804C163.229 463.804 163.705 463.907 164.139 464.112C164.578 464.317 164.953 464.604 165.266 464.973C165.583 465.342 165.821 465.773 165.98 466.268C166.143 466.763 166.211 467.297 166.183 467.871H160.247C160.303 468.314 160.443 468.711 160.667 469.061C160.896 469.411 161.185 469.689 161.535 469.894C161.89 470.095 162.282 470.197 162.711 470.202C163.178 470.202 163.598 470.081 163.971 469.838C164.349 469.595 164.652 469.262 164.881 468.837L165.875 469.068C165.595 469.689 165.173 470.197 164.608 470.594C164.043 470.986 163.411 471.182 162.711 471.182ZM160.219 467.08H165.196C165.163 466.646 165.03 466.249 164.797 465.89C164.568 465.526 164.272 465.237 163.908 465.022C163.544 464.803 163.145 464.693 162.711 464.693C162.277 464.693 161.88 464.8 161.521 465.015C161.162 465.225 160.868 465.512 160.639 465.876C160.41 466.235 160.27 466.637 160.219 467.08Z" fill="#8391A1"/>
<path d="M123.046 672V662.2H124.026V672H123.046ZM135.03 665H136.01V672H135.03L134.995 670.698C134.766 671.141 134.446 671.501 134.036 671.776C133.625 672.047 133.135 672.182 132.566 672.182C132.052 672.182 131.572 672.086 131.124 671.895C130.676 671.699 130.281 671.431 129.941 671.09C129.6 670.749 129.334 670.355 129.143 669.907C128.951 669.459 128.856 668.978 128.856 668.465C128.856 667.961 128.949 667.487 129.136 667.044C129.327 666.601 129.588 666.211 129.92 665.875C130.256 665.539 130.643 665.278 131.082 665.091C131.525 664.9 131.999 664.804 132.503 664.804C133.086 664.804 133.595 664.944 134.029 665.224C134.463 665.499 134.808 665.861 135.065 666.309L135.03 665ZM132.545 671.23C133.044 671.23 133.473 671.109 133.833 670.866C134.192 670.619 134.467 670.287 134.659 669.872C134.855 669.457 134.953 668.999 134.953 668.5C134.953 667.987 134.855 667.525 134.659 667.114C134.463 666.699 134.185 666.37 133.826 666.127C133.466 665.884 133.039 665.763 132.545 665.763C132.05 665.763 131.597 665.887 131.187 666.134C130.781 666.377 130.456 666.706 130.214 667.121C129.976 667.536 129.857 667.996 129.857 668.5C129.857 669.009 129.98 669.471 130.228 669.886C130.475 670.297 130.802 670.623 131.208 670.866C131.618 671.109 132.064 671.23 132.545 671.23ZM142.839 665H143.819V672.259C143.819 672.707 143.721 673.127 143.525 673.519C143.333 673.911 143.072 674.254 142.741 674.548C142.414 674.847 142.041 675.08 141.621 675.248C141.201 675.416 140.764 675.5 140.312 675.5C139.826 675.5 139.357 675.388 138.905 675.164C138.452 674.945 138.058 674.651 137.722 674.282C137.39 673.913 137.155 673.505 137.015 673.057L137.918 672.644C138.006 672.994 138.172 673.309 138.415 673.589C138.662 673.874 138.951 674.098 139.283 674.261C139.619 674.429 139.962 674.513 140.312 674.513C140.634 674.513 140.944 674.452 141.243 674.331C141.546 674.214 141.817 674.053 142.055 673.848C142.297 673.643 142.489 673.402 142.629 673.127C142.769 672.856 142.839 672.567 142.839 672.259V670.712C142.596 671.151 142.267 671.505 141.852 671.776C141.441 672.047 140.963 672.182 140.417 672.182C139.927 672.182 139.465 672.086 139.031 671.895C138.601 671.704 138.223 671.44 137.897 671.104C137.57 670.763 137.313 670.371 137.127 669.928C136.945 669.485 136.854 669.009 136.854 668.5C136.854 667.991 136.945 667.515 137.127 667.072C137.313 666.624 137.57 666.232 137.897 665.896C138.223 665.555 138.601 665.289 139.031 665.098C139.465 664.907 139.927 664.811 140.417 664.811C140.963 664.811 141.441 664.946 141.852 665.217C142.267 665.483 142.596 665.838 142.839 666.281V665ZM140.424 671.23C140.909 671.23 141.327 671.104 141.677 670.852C142.031 670.6 142.304 670.266 142.496 669.851C142.687 669.436 142.783 668.985 142.783 668.5C142.783 668.001 142.685 667.546 142.489 667.135C142.297 666.72 142.024 666.388 141.67 666.141C141.315 665.889 140.9 665.763 140.424 665.763C139.948 665.763 139.514 665.887 139.122 666.134C138.734 666.377 138.426 666.706 138.198 667.121C137.969 667.536 137.855 667.996 137.855 668.5C137.855 669.004 137.971 669.464 138.205 669.879C138.438 670.29 138.748 670.619 139.136 670.866C139.528 671.109 139.957 671.23 140.424 671.23ZM145.504 672V665H146.484V665.966C146.731 665.611 147.053 665.329 147.45 665.119C147.847 664.909 148.278 664.804 148.745 664.804C149.016 664.804 149.277 664.839 149.529 664.909L149.13 665.882C148.934 665.821 148.743 665.791 148.556 665.791C148.178 665.791 147.83 665.884 147.513 666.071C147.2 666.258 146.951 666.507 146.764 666.82C146.577 667.133 146.484 667.48 146.484 667.863V672H145.504ZM153.123 672.182C152.479 672.182 151.891 672.016 151.359 671.685C150.832 671.354 150.409 670.91 150.092 670.355C149.779 669.795 149.623 669.177 149.623 668.5C149.623 667.987 149.714 667.508 149.896 667.065C150.078 666.617 150.328 666.225 150.645 665.889C150.967 665.548 151.34 665.282 151.765 665.091C152.19 664.9 152.642 664.804 153.123 664.804C153.641 664.804 154.117 664.907 154.551 665.112C154.99 665.317 155.365 665.604 155.678 665.973C155.995 666.342 156.233 666.773 156.392 667.268C156.555 667.763 156.623 668.297 156.595 668.871H150.659C150.715 669.314 150.855 669.711 151.079 670.061C151.308 670.411 151.597 670.689 151.947 670.894C152.302 671.095 152.694 671.197 153.123 671.202C153.59 671.202 154.01 671.081 154.383 670.838C154.761 670.595 155.064 670.262 155.293 669.837L156.287 670.068C156.007 670.689 155.585 671.197 155.02 671.594C154.455 671.986 153.823 672.182 153.123 672.182ZM150.631 668.08H155.608C155.575 667.646 155.442 667.249 155.209 666.89C154.98 666.526 154.684 666.237 154.32 666.022C153.956 665.803 153.557 665.693 153.123 665.693C152.689 665.693 152.292 665.8 151.933 666.015C151.574 666.225 151.28 666.512 151.051 666.876C150.822 667.235 150.682 667.637 150.631 668.08ZM160.807 672.182C160.163 672.182 159.575 672.016 159.043 671.685C158.515 671.354 158.093 670.91 157.776 670.355C157.463 669.795 157.307 669.177 157.307 668.5C157.307 667.987 157.398 667.508 157.58 667.065C157.762 666.617 158.011 666.225 158.329 665.889C158.651 665.548 159.024 665.282 159.449 665.091C159.873 664.9 160.326 664.804 160.807 664.804C161.325 664.804 161.801 664.907 162.235 665.112C162.673 665.317 163.049 665.604 163.362 665.973C163.679 666.342 163.917 666.773 164.076 667.268C164.239 667.763 164.307 668.297 164.279 668.871H158.343C158.399 669.314 158.539 669.711 158.763 670.061C158.991 670.411 159.281 670.689 159.631 670.894C159.985 671.095 160.377 671.197 160.807 671.202C161.273 671.202 161.693 671.081 162.067 670.838C162.445 670.595 162.748 670.262 162.977 669.837L163.971 670.068C163.691 670.689 163.268 671.197 162.704 671.594C162.139 671.986 161.507 672.182 160.807 672.182ZM158.315 668.08H163.292C163.259 667.646 163.126 667.249 162.893 666.89C162.664 666.526 162.368 666.237 162.004 666.022C161.64 665.803 161.241 665.693 160.807 665.693C160.373 665.693 159.976 665.8 159.617 666.015C159.257 666.225 158.963 666.512 158.735 666.876C158.506 667.235 158.366 667.637 158.315 668.08ZM172.487 665.98H170.814L170.807 672H169.827L169.834 665.98H168.567V665H169.834L169.827 662.802H170.807L170.814 665H172.487V665.98ZM176.625 672.182C175.981 672.182 175.393 672.016 174.861 671.685C174.334 671.354 173.911 670.91 173.594 670.355C173.281 669.795 173.125 669.177 173.125 668.5C173.125 667.987 173.216 667.508 173.398 667.065C173.58 666.617 173.83 666.225 174.147 665.889C174.469 665.548 174.842 665.282 175.267 665.091C175.692 664.9 176.144 664.804 176.625 664.804C177.269 664.804 177.855 664.97 178.382 665.301C178.914 665.632 179.336 666.078 179.649 666.638C179.966 667.198 180.125 667.819 180.125 668.5C180.125 669.009 180.034 669.485 179.852 669.928C179.67 670.371 179.418 670.763 179.096 671.104C178.779 671.44 178.408 671.704 177.983 671.895C177.563 672.086 177.11 672.182 176.625 672.182ZM176.625 671.202C177.101 671.202 177.528 671.078 177.906 670.831C178.289 670.579 178.59 670.248 178.809 669.837C179.033 669.426 179.145 668.981 179.145 668.5C179.145 668.01 179.033 667.56 178.809 667.149C178.585 666.734 178.282 666.402 177.899 666.155C177.521 665.908 177.096 665.784 176.625 665.784C176.149 665.784 175.72 665.91 175.337 666.162C174.959 666.409 174.658 666.738 174.434 667.149C174.215 667.56 174.105 668.01 174.105 668.5C174.105 669.004 174.219 669.461 174.448 669.872C174.677 670.278 174.982 670.602 175.365 670.845C175.748 671.083 176.168 671.202 176.625 671.202Z" fill="black"/>
<path d="M192.155 662.2V663.18H188.795V672H187.815V663.18H184.462V662.2H192.155ZM195.547 672.182C194.903 672.182 194.315 672.016 193.783 671.685C193.256 671.354 192.833 670.91 192.516 670.355C192.203 669.795 192.047 669.177 192.047 668.5C192.047 667.987 192.138 667.508 192.32 667.065C192.502 666.617 192.752 666.225 193.069 665.889C193.391 665.548 193.764 665.282 194.189 665.091C194.614 664.9 195.066 664.804 195.547 664.804C196.065 664.804 196.541 664.907 196.975 665.112C197.414 665.317 197.789 665.604 198.102 665.973C198.419 666.342 198.657 666.773 198.816 667.268C198.979 667.763 199.047 668.297 199.019 668.871H193.083C193.139 669.314 193.279 669.711 193.503 670.061C193.732 670.411 194.021 670.689 194.371 670.894C194.726 671.095 195.118 671.197 195.547 671.202C196.014 671.202 196.434 671.081 196.807 670.838C197.185 670.595 197.488 670.262 197.717 669.837L198.711 670.068C198.431 670.689 198.009 671.197 197.444 671.594C196.879 671.986 196.247 672.182 195.547 672.182ZM193.055 668.08H198.032C197.999 667.646 197.866 667.249 197.633 666.89C197.404 666.526 197.108 666.237 196.744 666.022C196.38 665.803 195.981 665.693 195.547 665.693C195.113 665.693 194.716 665.8 194.357 666.015C193.998 666.225 193.704 666.512 193.475 666.876C193.246 667.235 193.106 667.637 193.055 668.08ZM200.219 672V665H201.199V665.966C201.446 665.611 201.768 665.329 202.165 665.119C202.562 664.909 202.993 664.804 203.46 664.804C203.731 664.804 203.992 664.839 204.244 664.909L203.845 665.882C203.649 665.821 203.458 665.791 203.271 665.791C202.893 665.791 202.545 665.884 202.228 666.071C201.915 666.258 201.666 666.507 201.479 666.82C201.292 667.133 201.199 667.48 201.199 667.863V672H200.219ZM205.154 672V665H206.134V665.966C206.386 665.611 206.708 665.329 207.1 665.119C207.492 664.909 207.922 664.804 208.388 664.804C208.916 664.804 209.399 664.935 209.837 665.196C210.276 665.453 210.619 665.796 210.866 666.225C211.114 665.796 211.454 665.453 211.888 665.196C212.322 664.935 212.803 664.804 213.33 664.804C213.858 664.804 214.338 664.932 214.772 665.189C215.206 665.446 215.552 665.791 215.808 666.225C216.065 666.659 216.193 667.14 216.193 667.667V672H215.213V667.884C215.213 667.511 215.122 667.165 214.94 666.848C214.758 666.531 214.513 666.276 214.205 666.085C213.902 665.889 213.564 665.791 213.19 665.791C212.817 665.791 212.476 665.882 212.168 666.064C211.865 666.241 211.622 666.489 211.44 666.806C211.258 667.119 211.167 667.478 211.167 667.884V672H210.187V667.884C210.187 667.478 210.096 667.119 209.914 666.806C209.732 666.489 209.487 666.241 209.179 666.064C208.871 665.882 208.531 665.791 208.157 665.791C207.789 665.791 207.45 665.889 207.142 666.085C206.834 666.276 206.589 666.531 206.407 666.848C206.225 667.165 206.134 667.511 206.134 667.884V672H205.154ZM219.759 672.133C219.376 672.124 219.003 672.054 218.639 671.923C218.275 671.792 217.958 671.615 217.687 671.391C217.416 671.167 217.223 670.913 217.106 670.628L217.953 670.264C218.028 670.446 218.165 670.614 218.366 670.768C218.571 670.917 218.805 671.039 219.066 671.132C219.327 671.221 219.586 671.265 219.843 671.265C220.128 671.265 220.394 671.218 220.641 671.125C220.888 671.032 221.089 670.899 221.243 670.726C221.402 670.549 221.481 670.341 221.481 670.103C221.481 669.846 221.397 669.646 221.229 669.501C221.061 669.352 220.849 669.235 220.592 669.151C220.335 669.062 220.072 668.978 219.801 668.899C219.306 668.764 218.87 668.614 218.492 668.451C218.114 668.288 217.818 668.08 217.603 667.828C217.393 667.571 217.288 667.242 217.288 666.841C217.288 666.416 217.407 666.05 217.645 665.742C217.888 665.429 218.203 665.189 218.59 665.021C218.982 664.848 219.4 664.762 219.843 664.762C220.412 664.762 220.93 664.886 221.397 665.133C221.868 665.38 222.209 665.709 222.419 666.12L221.628 666.589C221.544 666.398 221.411 666.232 221.229 666.092C221.047 665.952 220.839 665.842 220.606 665.763C220.377 665.684 220.144 665.642 219.906 665.637C219.607 665.632 219.33 665.677 219.073 665.77C218.816 665.859 218.609 665.992 218.45 666.169C218.296 666.346 218.219 666.563 218.219 666.82C218.219 667.077 218.296 667.273 218.45 667.408C218.604 667.539 218.812 667.646 219.073 667.73C219.339 667.809 219.638 667.903 219.969 668.01C220.394 668.145 220.793 668.299 221.166 668.472C221.539 668.645 221.84 668.859 222.069 669.116C222.298 669.373 222.41 669.697 222.405 670.089C222.405 670.509 222.279 670.875 222.027 671.188C221.775 671.501 221.448 671.741 221.047 671.909C220.646 672.072 220.216 672.147 219.759 672.133ZM232.729 665H233.709V672H232.729L232.694 670.698C232.465 671.141 232.145 671.501 231.735 671.776C231.324 672.047 230.834 672.182 230.265 672.182C229.751 672.182 229.271 672.086 228.823 671.895C228.375 671.699 227.98 671.431 227.64 671.09C227.299 670.749 227.033 670.355 226.842 669.907C226.65 669.459 226.555 668.978 226.555 668.465C226.555 667.961 226.648 667.487 226.835 667.044C227.026 666.601 227.287 666.211 227.619 665.875C227.955 665.539 228.342 665.278 228.781 665.091C229.224 664.9 229.698 664.804 230.202 664.804C230.785 664.804 231.294 664.944 231.728 665.224C232.162 665.499 232.507 665.861 232.764 666.309L232.729 665ZM230.244 671.23C230.743 671.23 231.172 671.109 231.532 670.866C231.891 670.619 232.166 670.287 232.358 669.872C232.554 669.457 232.652 668.999 232.652 668.5C232.652 667.987 232.554 667.525 232.358 667.114C232.162 666.699 231.884 666.37 231.525 666.127C231.165 665.884 230.738 665.763 230.244 665.763C229.749 665.763 229.296 665.887 228.886 666.134C228.48 666.377 228.155 666.706 227.913 667.121C227.675 667.536 227.556 667.996 227.556 668.5C227.556 669.009 227.679 669.471 227.927 669.886C228.174 670.297 228.501 670.623 228.907 670.866C229.317 671.109 229.763 671.23 230.244 671.23ZM241.214 667.667V672H240.234V667.863C240.234 667.48 240.14 667.133 239.954 666.82C239.767 666.507 239.517 666.258 239.205 666.071C238.892 665.884 238.544 665.791 238.162 665.791C237.784 665.791 237.436 665.884 237.119 666.071C236.806 666.258 236.556 666.507 236.37 666.82C236.183 667.133 236.09 667.48 236.09 667.863V672H235.11V665H236.09V665.966C236.337 665.611 236.659 665.329 237.056 665.119C237.452 664.909 237.884 664.804 238.351 664.804C238.878 664.804 239.359 664.932 239.793 665.189C240.227 665.446 240.572 665.791 240.829 666.225C241.085 666.659 241.214 667.14 241.214 667.667ZM248.24 661.5H249.22V672H248.24V670.691C247.997 671.139 247.663 671.501 247.239 671.776C246.819 672.047 246.319 672.182 245.741 672.182C245.232 672.182 244.756 672.086 244.313 671.895C243.869 671.704 243.477 671.44 243.137 671.104C242.801 670.763 242.537 670.371 242.346 669.928C242.154 669.485 242.059 669.009 242.059 668.5C242.059 667.991 242.154 667.515 242.346 667.072C242.537 666.624 242.801 666.232 243.137 665.896C243.477 665.555 243.869 665.289 244.313 665.098C244.756 664.907 245.232 664.811 245.741 664.811C246.319 664.811 246.819 664.949 247.239 665.224C247.663 665.495 247.997 665.852 248.24 666.295V661.5ZM245.748 671.23C246.247 671.23 246.676 671.109 247.036 670.866C247.395 670.619 247.67 670.287 247.862 669.872C248.058 669.457 248.156 668.999 248.156 668.5C248.156 667.987 248.058 667.525 247.862 667.114C247.666 666.699 247.388 666.37 247.029 666.127C246.669 665.884 246.242 665.763 245.748 665.763C245.253 665.763 244.803 665.887 244.397 666.134C243.991 666.377 243.666 666.706 243.424 667.121C243.181 667.536 243.06 667.996 243.06 668.5C243.06 669.009 243.183 669.471 243.431 669.886C243.678 670.297 244.005 670.623 244.411 670.866C244.821 671.109 245.267 671.23 245.748 671.23ZM258.8 672.182C258.137 672.182 257.514 672.051 256.931 671.79C256.347 671.524 255.834 671.16 255.391 670.698C254.952 670.231 254.607 669.69 254.355 669.074C254.107 668.458 253.984 667.8 253.984 667.1C253.984 666.4 254.107 665.742 254.355 665.126C254.607 664.51 254.952 663.971 255.391 663.509C255.834 663.042 256.347 662.678 256.931 662.417C257.514 662.151 258.137 662.018 258.8 662.018C259.593 662.018 260.323 662.202 260.991 662.571C261.658 662.94 262.211 663.43 262.65 664.041L261.782 664.51C261.436 664.048 260.998 663.682 260.466 663.411C259.938 663.136 259.383 662.998 258.8 662.998C258.263 662.998 257.761 663.108 257.295 663.327C256.833 663.542 256.427 663.838 256.077 664.216C255.727 664.594 255.454 665.03 255.258 665.525C255.062 666.02 254.964 666.545 254.964 667.1C254.964 667.665 255.062 668.194 255.258 668.689C255.458 669.184 255.734 669.62 256.084 669.998C256.438 670.376 256.847 670.672 257.309 670.887C257.775 671.097 258.272 671.202 258.8 671.202C259.406 671.202 259.969 671.064 260.487 670.789C261.009 670.509 261.441 670.145 261.782 669.697L262.65 670.166C262.211 670.777 261.658 671.267 260.991 671.636C260.323 672 259.593 672.182 258.8 672.182ZM266.777 672.182C266.133 672.182 265.545 672.016 265.013 671.685C264.486 671.354 264.064 670.91 263.746 670.355C263.434 669.795 263.277 669.177 263.277 668.5C263.277 667.987 263.368 667.508 263.55 667.065C263.732 666.617 263.982 666.225 264.299 665.889C264.621 665.548 264.995 665.282 265.419 665.091C265.844 664.9 266.297 664.804 266.777 664.804C267.421 664.804 268.007 664.97 268.534 665.301C269.066 665.632 269.489 666.078 269.801 666.638C270.119 667.198 270.277 667.819 270.277 668.5C270.277 669.009 270.186 669.485 270.004 669.928C269.822 670.371 269.57 670.763 269.248 671.104C268.931 671.44 268.56 671.704 268.135 671.895C267.715 672.086 267.263 672.182 266.777 672.182ZM266.777 671.202C267.253 671.202 267.68 671.078 268.058 670.831C268.441 670.579 268.742 670.248 268.961 669.837C269.185 669.426 269.297 668.981 269.297 668.5C269.297 668.01 269.185 667.56 268.961 667.149C268.737 666.734 268.434 666.402 268.051 666.155C267.673 665.908 267.249 665.784 266.777 665.784C266.301 665.784 265.872 665.91 265.489 666.162C265.111 666.409 264.81 666.738 264.586 667.149C264.367 667.56 264.257 668.01 264.257 668.5C264.257 669.004 264.372 669.461 264.6 669.872C264.829 670.278 265.135 670.602 265.517 670.845C265.9 671.083 266.32 671.202 266.777 671.202ZM277.567 667.667V672H276.587V667.863C276.587 667.48 276.494 667.133 276.307 666.82C276.12 666.507 275.871 666.258 275.558 666.071C275.245 665.884 274.898 665.791 274.515 665.791C274.137 665.791 273.789 665.884 273.472 666.071C273.159 666.258 272.91 666.507 272.723 666.82C272.536 667.133 272.443 667.48 272.443 667.863V672H271.463V665H272.443V665.966C272.69 665.611 273.012 665.329 273.409 665.119C273.806 664.909 274.237 664.804 274.704 664.804C275.231 664.804 275.712 664.932 276.146 665.189C276.58 665.446 276.925 665.791 277.182 666.225C277.439 666.659 277.567 667.14 277.567 667.667ZM284.593 661.5H285.573V672H284.593V670.691C284.351 671.139 284.017 671.501 283.592 671.776C283.172 672.047 282.673 672.182 282.094 672.182C281.586 672.182 281.11 672.086 280.666 671.895C280.223 671.704 279.831 671.44 279.49 671.104C279.154 670.763 278.891 670.371 278.699 669.928C278.508 669.485 278.412 669.009 278.412 668.5C278.412 667.991 278.508 667.515 278.699 667.072C278.891 666.624 279.154 666.232 279.49 665.896C279.831 665.555 280.223 665.289 280.666 665.098C281.11 664.907 281.586 664.811 282.094 664.811C282.673 664.811 283.172 664.949 283.592 665.224C284.017 665.495 284.351 665.852 284.593 666.295V661.5ZM282.101 671.23C282.601 671.23 283.03 671.109 283.389 670.866C283.749 670.619 284.024 670.287 284.215 669.872C284.411 669.457 284.509 668.999 284.509 668.5C284.509 667.987 284.411 667.525 284.215 667.114C284.019 666.699 283.742 666.37 283.382 666.127C283.023 665.884 282.596 665.763 282.101 665.763C281.607 665.763 281.156 665.887 280.75 666.134C280.344 666.377 280.02 666.706 279.777 667.121C279.535 667.536 279.413 667.996 279.413 668.5C279.413 669.009 279.537 669.471 279.784 669.886C280.032 670.297 280.358 670.623 280.764 670.866C281.175 671.109 281.621 671.23 282.101 671.23ZM287.254 665H288.234V672H287.254V665ZM287.751 663.775C287.592 663.775 287.457 663.724 287.345 663.621C287.238 663.514 287.184 663.381 287.184 663.222C287.184 663.063 287.238 662.933 287.345 662.83C287.457 662.723 287.592 662.669 287.751 662.669C287.905 662.669 288.036 662.723 288.143 662.83C288.255 662.933 288.311 663.063 288.311 663.222C288.311 663.381 288.257 663.514 288.15 663.621C288.043 663.724 287.91 663.775 287.751 663.775ZM293.497 665.98H291.824L291.817 672H290.837L290.844 665.98H289.577V665H290.844L290.837 662.802H291.817L291.824 665H293.497V665.98ZM294.692 665H295.672V672H294.692V665ZM295.189 663.775C295.03 663.775 294.895 663.724 294.783 663.621C294.675 663.514 294.622 663.381 294.622 663.222C294.622 663.063 294.675 662.933 294.783 662.83C294.895 662.723 295.03 662.669 295.189 662.669C295.343 662.669 295.473 662.723 295.581 662.83C295.693 662.933 295.749 663.063 295.749 663.222C295.749 663.381 295.695 663.514 295.588 663.621C295.48 663.724 295.347 663.775 295.189 663.775ZM300.369 672.182C299.725 672.182 299.137 672.016 298.605 671.685C298.078 671.354 297.656 670.91 297.338 670.355C297.026 669.795 296.869 669.177 296.869 668.5C296.869 667.987 296.96 667.508 297.142 667.065C297.324 666.617 297.574 666.225 297.891 665.889C298.213 665.548 298.587 665.282 299.011 665.091C299.436 664.9 299.889 664.804 300.369 664.804C301.013 664.804 301.599 664.97 302.126 665.301C302.658 665.632 303.081 666.078 303.393 666.638C303.711 667.198 303.869 667.819 303.869 668.5C303.869 669.009 303.778 669.485 303.596 669.928C303.414 670.371 303.162 670.763 302.84 671.104C302.523 671.44 302.152 671.704 301.727 671.895C301.307 672.086 300.855 672.182 300.369 672.182ZM300.369 671.202C300.845 671.202 301.272 671.078 301.65 670.831C302.033 670.579 302.334 670.248 302.553 669.837C302.777 669.426 302.889 668.981 302.889 668.5C302.889 668.01 302.777 667.56 302.553 667.149C302.329 666.734 302.026 666.402 301.643 666.155C301.265 665.908 300.841 665.784 300.369 665.784C299.893 665.784 299.464 665.91 299.081 666.162C298.703 666.409 298.402 666.738 298.178 667.149C297.959 667.56 297.849 668.01 297.849 668.5C297.849 669.004 297.964 669.461 298.192 669.872C298.421 670.278 298.727 670.602 299.109 670.845C299.492 671.083 299.912 671.202 300.369 671.202ZM311.159 667.667V672H310.179V667.863C310.179 667.48 310.086 667.133 309.899 666.82C309.712 666.507 309.463 666.258 309.15 666.071C308.837 665.884 308.49 665.791 308.107 665.791C307.729 665.791 307.381 665.884 307.064 666.071C306.751 666.258 306.502 666.507 306.315 666.82C306.128 667.133 306.035 667.48 306.035 667.863V672H305.055V665H306.035V665.966C306.282 665.611 306.604 665.329 307.001 665.119C307.398 664.909 307.829 664.804 308.296 664.804C308.823 664.804 309.304 664.932 309.738 665.189C310.172 665.446 310.517 665.791 310.774 666.225C311.031 666.659 311.159 667.14 311.159 667.667ZM314.724 672.133C314.341 672.124 313.968 672.054 313.604 671.923C313.24 671.792 312.922 671.615 312.652 671.391C312.381 671.167 312.187 670.913 312.071 670.628L312.918 670.264C312.992 670.446 313.13 670.614 313.331 670.768C313.536 670.917 313.769 671.039 314.031 671.132C314.292 671.221 314.551 671.265 314.808 671.265C315.092 671.265 315.358 671.218 315.606 671.125C315.853 671.032 316.054 670.899 316.208 670.726C316.366 670.549 316.446 670.341 316.446 670.103C316.446 669.846 316.362 669.646 316.194 669.501C316.026 669.352 315.813 669.235 315.557 669.151C315.3 669.062 315.036 668.978 314.766 668.899C314.271 668.764 313.835 668.614 313.457 668.451C313.079 668.288 312.782 668.08 312.568 667.828C312.358 667.571 312.253 667.242 312.253 666.841C312.253 666.416 312.372 666.05 312.61 665.742C312.852 665.429 313.167 665.189 313.555 665.021C313.947 664.848 314.364 664.762 314.808 664.762C315.377 664.762 315.895 664.886 316.362 665.133C316.833 665.38 317.174 665.709 317.384 666.12L316.593 666.589C316.509 666.398 316.376 666.232 316.194 666.092C316.012 665.952 315.804 665.842 315.571 665.763C315.342 665.684 315.109 665.642 314.871 665.637C314.572 665.632 314.294 665.677 314.038 665.77C313.781 665.859 313.573 665.992 313.415 666.169C313.261 666.346 313.184 666.563 313.184 666.82C313.184 667.077 313.261 667.273 313.415 667.408C313.569 667.539 313.776 667.646 314.038 667.73C314.304 667.809 314.602 667.903 314.934 668.01C315.358 668.145 315.757 668.299 316.131 668.472C316.504 668.645 316.805 668.859 317.034 669.116C317.262 669.373 317.374 669.697 317.37 670.089C317.37 670.509 317.244 670.875 316.992 671.188C316.74 671.501 316.413 671.741 316.012 671.909C315.61 672.072 315.181 672.147 314.724 672.133Z" fill="#31732B"/>
<path d="M183.902 672.875H317.734V673.225H183.902V672.875Z" fill="#31732B"/>
<rect x="76" y="654" width="30" height="30" rx="8" fill="#D9D9D9"/>
<rect x="68" y="723" width="259" height="48" rx="8" fill="#31732B"/>
<path d="M186.361 751V741.2H189.497C190.02 741.2 190.491 741.328 190.911 741.585C191.331 741.837 191.665 742.18 191.912 742.614C192.164 743.043 192.29 743.526 192.29 744.063C192.29 744.604 192.162 745.092 191.905 745.526C191.653 745.96 191.315 746.303 190.89 746.555C190.47 746.807 190.006 746.933 189.497 746.933H187.341V751H186.361ZM187.341 745.953H189.42C189.766 745.953 190.081 745.869 190.365 745.701C190.655 745.528 190.883 745.297 191.051 745.008C191.224 744.714 191.31 744.383 191.31 744.014C191.31 743.645 191.224 743.316 191.051 743.027C190.883 742.733 190.655 742.502 190.365 742.334C190.081 742.161 189.766 742.075 189.42 742.075H187.341V745.953ZM198.869 744H199.849V751H198.869L198.834 749.698C198.606 750.141 198.286 750.501 197.875 750.776C197.465 751.047 196.975 751.182 196.405 751.182C195.892 751.182 195.411 751.086 194.963 750.895C194.515 750.699 194.121 750.431 193.78 750.09C193.44 749.749 193.174 749.355 192.982 748.907C192.791 748.459 192.695 747.978 192.695 747.465C192.695 746.961 192.789 746.487 192.975 746.044C193.167 745.601 193.428 745.211 193.759 744.875C194.095 744.539 194.483 744.278 194.921 744.091C195.365 743.9 195.838 743.804 196.342 743.804C196.926 743.804 197.434 743.944 197.868 744.224C198.302 744.499 198.648 744.861 198.904 745.309L198.869 744ZM196.384 750.23C196.884 750.23 197.313 750.109 197.672 749.866C198.032 749.619 198.307 749.287 198.498 748.872C198.694 748.457 198.792 747.999 198.792 747.5C198.792 746.987 198.694 746.525 198.498 746.114C198.302 745.699 198.025 745.37 197.665 745.127C197.306 744.884 196.879 744.763 196.384 744.763C195.89 744.763 195.437 744.887 195.026 745.134C194.62 745.377 194.296 745.706 194.053 746.121C193.815 746.536 193.696 746.996 193.696 747.5C193.696 748.009 193.82 748.471 194.067 748.886C194.315 749.297 194.641 749.623 195.047 749.866C195.458 750.109 195.904 750.23 196.384 750.23ZM205.881 744H206.917L203.088 754.5H202.045L203.319 751L200.806 744H201.877L203.809 749.649L205.881 744Z" fill="white"/>
<path d="M81 554C81 542.954 89.9543 534 101 534H156C167.046 534 176 542.954 176 554C176 565.046 167.046 574 156 574H101C89.9543 574 81 565.046 81 554Z" fill="#D9D9D9"/>
<path d="M137.972 546.966C138.136 546.012 137.601 545.062 136.657 544.847C135.777 544.647 134.721 544.5 133.532 544.5C128.332 544.5 124.67 547.13 124.648 550.889C124.605 553.663 127.269 555.204 129.262 556.128C131.3 557.073 131.992 557.69 131.992 558.533C131.971 559.826 130.346 560.423 128.83 560.423C126.728 560.423 125.601 560.115 123.89 559.396C123.538 559.239 123.134 559.456 123.069 559.835L122.739 561.78C122.575 562.744 123.094 563.699 124.043 563.93C125.252 564.226 126.773 564.436 128.332 564.45C133.857 564.45 137.454 561.861 137.496 557.855C137.517 555.656 136.11 553.972 133.076 552.595C131.235 551.712 130.107 551.116 130.107 550.212C130.129 549.39 131.061 548.548 133.14 548.548C134.852 548.507 136.109 548.897 137.062 549.287C137.305 549.392 137.581 549.242 137.626 548.981L137.972 546.966Z" fill="url(#paint0_linear_5_1448)"/>
<path d="M119.535 562.003C119.322 563.25 118.241 564.162 116.976 564.162C115.369 564.162 114.148 562.715 114.418 561.131L116.826 547.009C117.039 545.762 118.12 544.85 119.385 544.85C120.992 544.85 122.213 546.297 121.943 547.881L119.535 562.003Z" fill="url(#paint1_linear_5_1448)"/>
<path fill-rule="evenodd" clip-rule="evenodd" d="M152.627 548.828C152.116 546.505 150.058 544.85 147.679 544.85C146.423 544.85 145.469 545.199 144.927 546.452L138.647 560.673C137.921 562.316 139.124 564.162 140.92 564.162H141.081C142.014 564.162 142.777 563.779 143.11 562.907C143.443 562.034 144.353 561.265 145.287 561.265H149.02C149.883 561.265 150.683 562.117 150.866 562.96C151.049 563.809 151.745 564.162 152.613 564.162H153.044C154.562 564.162 155.691 562.758 155.365 561.275L152.627 548.828ZM145.712 557.321C145.491 557.321 145.339 557.099 145.419 556.893C145.881 555.71 146.81 553.318 147.189 552.344C147.201 552.312 147.503 551.521 147.515 551.489L147.516 551.486L147.517 551.484C147.673 551.073 148.279 551.116 148.374 551.544L148.415 551.731C148.415 551.732 148.415 551.732 148.416 551.732C148.419 551.75 148.844 553.721 149.199 555.353C149.418 556.362 148.648 557.321 147.615 557.321H145.712Z" fill="url(#paint2_linear_5_1448)"/>
<path d="M111.231 544.85C110.189 544.85 109.253 545.488 108.873 546.458L105.342 555.477C105.046 556.232 103.95 556.141 103.783 555.348L103.783 555.347L101.942 546.473C101.638 545.24 100.707 544.891 99.5583 544.85H91.2665C91.1614 544.85 91.0705 544.923 91.0477 545.026C91.0212 545.145 91.0951 545.263 91.2135 545.293C92.5508 545.63 93.7953 546.06 94.9438 546.57C95.9823 547.032 96.7058 547.977 97.0118 549.072L100.424 561.272C100.899 562.969 102.445 564.142 104.206 564.142C105.777 564.142 107.196 563.206 107.815 561.763L113.557 548.379C114.274 546.709 113.048 544.85 111.231 544.85Z" fill="url(#paint3_linear_5_1448)"/>
<path d="M214 556.5C214 544.074 224.074 534 236.5 534H264.5C276.926 534 287 544.074 287 556.5C287 568.926 276.926 579 264.5 579H236.5C224.074 579 214 568.926 214 556.5Z" fill="#D9D9D9"/>
<g clip-path="url(#clip0_5_1448)">
<path d="M273.289 556.995C273.289 564.731 267.03 570.99 259.294 570.99C256.029 570.99 253.035 569.863 250.664 567.997C253.93 565.431 255.99 561.466 255.99 556.995C255.99 552.524 253.891 548.559 250.664 545.993C253.035 544.127 256.029 543 259.294 543C267.03 543 273.289 549.298 273.289 556.995Z" fill="#F79E1B"/>
<path d="M250.664 545.993C250.664 545.993 250.664 545.993 250.664 545.993C253.891 548.559 255.99 552.524 255.99 556.995C255.99 561.466 253.93 565.431 250.664 567.997L250.625 567.997C247.399 565.47 245.299 561.466 245.299 556.995C245.299 552.524 247.399 548.559 250.625 545.993C250.625 545.993 250.625 545.994 250.625 545.993L250.664 545.993Z" fill="#FF5F00"/>
<path d="M245.299 556.995C245.299 552.524 247.399 548.559 250.625 545.994C248.254 544.128 245.26 543 241.995 543C234.259 543 228 549.259 228 556.995C228 564.731 234.259 570.99 241.995 570.99C245.26 570.99 248.254 569.863 250.625 567.997C247.399 565.47 245.299 561.466 245.299 556.995Z" fill="#EB001B"/>
</g>
<path d="M171.971 619.182C171.308 619.182 170.685 619.051 170.102 618.79C169.519 618.524 169.005 618.158 168.562 617.691C168.119 617.224 167.771 616.685 167.519 616.074C167.267 615.458 167.141 614.8 167.141 614.1C167.141 613.4 167.267 612.744 167.519 612.133C167.771 611.517 168.119 610.976 168.562 610.509C169.005 610.042 169.519 609.678 170.102 609.417C170.685 609.151 171.308 609.018 171.971 609.018C172.638 609.018 173.264 609.151 173.847 609.417C174.43 609.678 174.944 610.042 175.387 610.509C175.83 610.976 176.176 611.517 176.423 612.133C176.675 612.744 176.801 613.4 176.801 614.1C176.801 614.8 176.675 615.458 176.423 616.074C176.176 616.685 175.83 617.224 175.387 617.691C174.944 618.158 174.43 618.524 173.847 618.79C173.264 619.051 172.638 619.182 171.971 619.182ZM171.971 618.202C172.508 618.202 173.007 618.095 173.469 617.88C173.936 617.661 174.344 617.362 174.694 616.984C175.049 616.606 175.324 616.17 175.52 615.675C175.721 615.18 175.821 614.655 175.821 614.1C175.821 613.54 175.721 613.013 175.52 612.518C175.319 612.019 175.042 611.582 174.687 611.209C174.337 610.831 173.929 610.535 173.462 610.32C173 610.105 172.503 609.998 171.971 609.998C171.434 609.998 170.933 610.108 170.466 610.327C170.004 610.542 169.596 610.838 169.241 611.216C168.891 611.594 168.616 612.03 168.415 612.525C168.219 613.02 168.121 613.545 168.121 614.1C168.121 614.665 168.221 615.194 168.422 615.689C168.623 616.184 168.898 616.62 169.248 616.998C169.603 617.376 170.011 617.672 170.473 617.887C170.94 618.097 171.439 618.202 171.971 618.202ZM178.167 619V612H179.147V612.966C179.394 612.611 179.716 612.329 180.113 612.119C180.51 611.909 180.941 611.804 181.408 611.804C181.679 611.804 181.94 611.839 182.192 611.909L181.793 612.882C181.597 612.821 181.406 612.791 181.219 612.791C180.841 612.791 180.493 612.884 180.176 613.071C179.863 613.258 179.614 613.507 179.427 613.82C179.24 614.133 179.147 614.48 179.147 614.863V619H178.167Z" fill="black"/>
<path d="M191.084 619.182C190.422 619.182 189.799 619.051 189.215 618.79C188.632 618.524 188.119 618.158 187.675 617.691C187.232 617.224 186.884 616.685 186.632 616.074C186.38 615.458 186.254 614.8 186.254 614.1C186.254 613.4 186.38 612.744 186.632 612.133C186.884 611.517 187.232 610.976 187.675 610.509C188.119 610.042 188.632 609.678 189.215 609.417C189.799 609.151 190.422 609.018 191.084 609.018C191.752 609.018 192.377 609.151 192.96 609.417C193.544 609.678 194.057 610.042 194.5 610.509C194.944 610.976 195.289 611.517 195.536 612.133C195.788 612.744 195.914 613.4 195.914 614.1C195.914 614.8 195.788 615.458 195.536 616.074C195.289 616.685 194.944 617.224 194.5 617.691C194.057 618.158 193.544 618.524 192.96 618.79C192.377 619.051 191.752 619.182 191.084 619.182ZM191.084 618.202C191.621 618.202 192.12 618.095 192.582 617.88C193.049 617.661 193.457 617.362 193.807 616.984C194.162 616.606 194.437 616.17 194.633 615.675C194.834 615.18 194.934 614.655 194.934 614.1C194.934 613.54 194.834 613.013 194.633 612.518C194.433 612.019 194.155 611.582 193.8 611.209C193.45 610.831 193.042 610.535 192.575 610.32C192.113 610.105 191.616 609.998 191.084 609.998C190.548 609.998 190.046 610.108 189.579 610.327C189.117 610.542 188.709 610.838 188.354 611.216C188.004 611.594 187.729 612.03 187.528 612.525C187.332 613.02 187.234 613.545 187.234 614.1C187.234 614.665 187.335 615.194 187.535 615.689C187.736 616.184 188.011 616.62 188.361 616.998C188.716 617.376 189.124 617.672 189.586 617.887C190.053 618.097 190.552 618.202 191.084 618.202ZM200.885 612.98H199.212L199.205 619H198.225L198.232 612.98H196.965V612H198.232L198.225 609.802H199.205L199.212 612H200.885V612.98ZM208.238 614.667V619H207.258V614.863C207.258 614.48 207.165 614.133 206.978 613.82C206.791 613.507 206.542 613.258 206.229 613.071C205.916 612.884 205.569 612.791 205.186 612.791C204.808 612.791 204.46 612.884 204.143 613.071C203.83 613.258 203.581 613.507 203.394 613.82C203.207 614.133 203.114 614.48 203.114 614.863V619H202.134V608.5H203.114V612.966C203.361 612.611 203.683 612.329 204.08 612.119C204.477 611.909 204.908 611.804 205.375 611.804C205.902 611.804 206.383 611.932 206.817 612.189C207.251 612.446 207.596 612.791 207.853 613.225C208.11 613.659 208.238 614.14 208.238 614.667ZM212.583 619.182C211.939 619.182 211.351 619.016 210.819 618.685C210.292 618.354 209.869 617.91 209.552 617.355C209.239 616.795 209.083 616.177 209.083 615.5C209.083 614.987 209.174 614.508 209.356 614.065C209.538 613.617 209.788 613.225 210.105 612.889C210.427 612.548 210.8 612.282 211.225 612.091C211.65 611.9 212.102 611.804 212.583 611.804C213.101 611.804 213.577 611.907 214.011 612.112C214.45 612.317 214.825 612.604 215.138 612.973C215.455 613.342 215.693 613.773 215.852 614.268C216.015 614.763 216.083 615.297 216.055 615.871H210.119C210.175 616.314 210.315 616.711 210.539 617.061C210.768 617.411 211.057 617.689 211.407 617.894C211.762 618.095 212.154 618.197 212.583 618.202C213.05 618.202 213.47 618.081 213.843 617.838C214.221 617.595 214.524 617.262 214.753 616.837L215.747 617.068C215.467 617.689 215.045 618.197 214.48 618.594C213.915 618.986 213.283 619.182 212.583 619.182ZM210.091 615.08H215.068C215.035 614.646 214.902 614.249 214.669 613.89C214.44 613.526 214.144 613.237 213.78 613.022C213.416 612.803 213.017 612.693 212.583 612.693C212.149 612.693 211.752 612.8 211.393 613.015C211.034 613.225 210.74 613.512 210.511 613.876C210.282 614.235 210.142 614.637 210.091 615.08ZM217.255 619V612H218.235V612.966C218.482 612.611 218.804 612.329 219.201 612.119C219.598 611.909 220.029 611.804 220.496 611.804C220.767 611.804 221.028 611.839 221.28 611.909L220.881 612.882C220.685 612.821 220.494 612.791 220.307 612.791C219.929 612.791 219.581 612.884 219.264 613.071C218.951 613.258 218.702 613.507 218.515 613.82C218.328 614.133 218.235 614.48 218.235 614.863V619H217.255Z" fill="#222357"/>
<path d="M185.694 619.875H221.42V620.225H185.694V619.875Z" fill="#222357"/>
<defs>
<linearGradient id="paint0_linear_5_1448" x1="91" y1="554.517" x2="156" y2="554.517" gradientUnits="userSpaceOnUse">
<stop stop-color="#222357"/>
<stop offset="1" stop-color="#254AA5"/>
</linearGradient>
<linearGradient id="paint1_linear_5_1448" x1="91" y1="554.517" x2="156" y2="554.517" gradientUnits="userSpaceOnUse">
<stop stop-color="#222357"/>
<stop offset="1" stop-color="#254AA5"/>
</linearGradient>
<linearGradient id="paint2_linear_5_1448" x1="91" y1="554.517" x2="156" y2="554.517" gradientUnits="userSpaceOnUse">
<stop stop-color="#222357"/>
<stop offset="1" stop-color="#254AA5"/>
</linearGradient>
<linearGradient id="paint3_linear_5_1448" x1="91" y1="554.517" x2="156" y2="554.517" gradientUnits="userSpaceOnUse">
<stop stop-color="#222357"/>
<stop offset="1" stop-color="#254AA5"/>
</linearGradient>
<clipPath id="clip0_5_1448">
<rect width="45.2894" height="27.99" fill="white" transform="translate(228 543)"/>
</clipPath>
</defs>
</svg>
