<svg width="390" height="844" viewBox="0 0 390 844" fill="none" xmlns="http://www.w3.org/2000/svg">
<rect width="390" height="844" fill="white"/>
<path opacity="0.35" d="M351.5 20C351.5 18.8034 352.47 17.8334 353.667 17.8334H370.333C371.53 17.8334 372.5 18.8034 372.5 20V26C372.5 27.1967 371.53 28.1667 370.333 28.1667H353.667C352.47 28.1667 351.5 27.1967 351.5 26V20Z" stroke="black"/>
<path opacity="0.4" d="M374 21.0001V25.0001C374.805 24.6613 375.328 23.8732 375.328 23.0001C375.328 22.1269 374.805 21.3388 374 21.0001Z" fill="black"/>
<path d="M353 20.6667C353 19.9303 353.597 19.3334 354.333 19.3334H369.667C370.403 19.3334 371 19.9303 371 20.6667V25.3334C371 26.0698 370.403 26.6667 369.667 26.6667H354.333C353.597 26.6667 353 26.0698 353 25.3334V20.6667Z" fill="black"/>
<path fill-rule="evenodd" clip-rule="evenodd" d="M338.33 19.608C340.546 19.6081 342.677 20.4596 344.283 21.9863C344.404 22.1042 344.598 22.1027 344.717 21.983L345.873 20.8163C345.933 20.7556 345.967 20.6734 345.966 20.5878C345.966 20.5022 345.931 20.4204 345.87 20.3603C341.655 16.3208 335.005 16.3208 330.79 20.3603C330.729 20.4203 330.694 20.5021 330.694 20.5877C330.693 20.6733 330.727 20.7556 330.787 20.8163L331.943 21.983C332.062 22.1029 332.256 22.1044 332.377 21.9863C333.983 20.4595 336.114 19.608 338.33 19.608ZM338.33 23.4037C339.548 23.4036 340.722 23.8561 341.624 24.6733C341.746 24.7893 341.939 24.7868 342.058 24.6677L343.212 23.501C343.273 23.4398 343.307 23.3568 343.306 23.2705C343.305 23.1843 343.27 23.102 343.208 23.042C340.459 20.4856 336.204 20.4856 333.455 23.042C333.393 23.102 333.358 23.1843 333.357 23.2706C333.356 23.3569 333.39 23.4399 333.451 23.501L334.605 24.6677C334.724 24.7868 334.917 24.7893 335.039 24.6733C335.941 23.8567 337.114 23.4042 338.33 23.4037ZM340.643 25.9575C340.645 26.044 340.611 26.1274 340.549 26.188L338.552 28.2037C338.493 28.2629 338.414 28.2963 338.33 28.2963C338.247 28.2963 338.167 28.2629 338.109 28.2037L336.111 26.188C336.049 26.1274 336.015 26.0439 336.017 25.9574C336.019 25.8709 336.056 25.789 336.121 25.731C337.396 24.6521 339.264 24.6521 340.54 25.731C340.604 25.7891 340.642 25.871 340.643 25.9575Z" fill="black"/>
<path fill-rule="evenodd" clip-rule="evenodd" d="M324.667 17.6666H323.667C323.114 17.6666 322.667 18.1143 322.667 18.6666V27.3333C322.667 27.8856 323.114 28.3333 323.667 28.3333H324.667C325.219 28.3333 325.667 27.8856 325.667 27.3333V18.6666C325.667 18.1143 325.219 17.6666 324.667 17.6666ZM319 20H320C320.552 20 321 20.4477 321 21V27.3333C321 27.8856 320.552 28.3333 320 28.3333H319C318.448 28.3333 318 27.8856 318 27.3333V21C318 20.4477 318.448 20 319 20ZM315.333 22.3333H314.333C313.781 22.3333 313.333 22.781 313.333 23.3333V27.3333C313.333 27.8856 313.781 28.3333 314.333 28.3333H315.333C315.886 28.3333 316.333 27.8856 316.333 27.3333V23.3333C316.333 22.781 315.886 22.3333 315.333 22.3333ZM310.667 24.3333H309.667C309.114 24.3333 308.667 24.781 308.667 25.3333V27.3333C308.667 27.8856 309.114 28.3333 309.667 28.3333H310.667C311.219 28.3333 311.667 27.8856 311.667 27.3333V25.3333C311.667 24.781 311.219 24.3333 310.667 24.3333Z" fill="black"/>
<path d="M17.3207 28.2563C20.0087 28.2563 21.6053 26.1543 21.6053 22.5947C21.6053 21.2544 21.349 20.1265 20.8583 19.2549C20.1478 17.8999 18.9247 17.1675 17.3793 17.1675C15.0795 17.1675 13.4535 18.7129 13.4535 20.8809C13.4535 22.917 14.9183 24.3965 16.9325 24.3965C18.1703 24.3965 19.1737 23.8179 19.6718 22.8145H19.6937C19.6937 22.8145 19.723 22.8145 19.7303 22.8145C19.745 22.8145 19.7963 22.8145 19.7963 22.8145C19.7963 25.2314 18.8807 26.6743 17.3353 26.6743C16.4271 26.6743 15.724 26.1763 15.4823 25.3779H13.6C13.9149 27.1138 15.3871 28.2563 17.3207 28.2563ZM17.3866 22.895C16.1708 22.895 15.3065 22.0308 15.3065 20.8223C15.3065 19.6431 16.2147 18.7422 17.3939 18.7422C18.5731 18.7422 19.4813 19.6577 19.4813 20.8516C19.4813 22.0308 18.5951 22.895 17.3866 22.895Z" fill="black"/>
<path d="M24.6965 28.1538C25.3923 28.1538 25.8683 27.6558 25.8683 26.9966C25.8683 26.3301 25.3923 25.8394 24.6965 25.8394C24.008 25.8394 23.5246 26.3301 23.5246 26.9966C23.5246 27.6558 24.008 28.1538 24.6965 28.1538ZM24.6965 22.6606C25.3923 22.6606 25.8683 22.1699 25.8683 21.5107C25.8683 20.8442 25.3923 20.3535 24.6965 20.3535C24.008 20.3535 23.5246 20.8442 23.5246 21.5107C23.5246 22.1699 24.008 22.6606 24.6965 22.6606Z" fill="black"/>
<path d="M32.7241 28H34.5332V26.0298H35.9614V24.4331H34.5332V17.4312H31.8672C29.9995 20.2437 28.5127 22.5947 27.5605 24.3452V26.0298H32.7241V28ZM29.311 24.3672C30.5415 22.1992 31.6401 20.4634 32.6509 18.9692H32.7534V24.4771H29.311V24.3672Z" fill="black"/>
<path d="M39.99 28H41.8797V17.4312H39.9973L37.2361 19.3647V21.1812L39.8655 19.3354H39.99V28Z" fill="black"/>
<rect x="36.5" y="91.5" width="40" height="40" rx="11.5" fill="white" stroke="#E8ECF4"/>
<path d="M59.1575 104.367C59.0656 104.275 58.9564 104.202 58.8362 104.152C58.7159 104.102 58.5871 104.076 58.4569 104.076C58.3267 104.076 58.1978 104.102 58.0776 104.152C57.9574 104.202 57.8482 104.275 57.7563 104.367L51.1775 110.946C51.1041 111.019 51.0459 111.106 51.0062 111.202C50.9664 111.298 50.946 111.4 50.946 111.504C50.946 111.608 50.9664 111.71 51.0062 111.806C51.0459 111.902 51.1041 111.989 51.1775 112.062L57.7563 118.641C58.1442 119.029 58.7696 119.029 59.1575 118.641C59.5454 118.253 59.5454 117.627 59.1575 117.24L53.4259 111.5L59.1654 105.76C59.5454 105.38 59.5454 104.747 59.1575 104.367Z" fill="#1E232C" stroke="#1E232C" stroke-width="0.2"/>
<path d="M37.585 195L32.215 174H35.995L39.655 188.355L43.315 174H46.66L50.32 188.355L53.965 174H57.745L52.405 195H48.25L44.98 182.28L41.755 195H37.585ZM64.5004 195.39C63.1204 195.39 61.8604 195.035 60.7204 194.325C59.5904 193.615 58.6854 192.66 58.0054 191.46C57.3354 190.26 57.0004 188.935 57.0004 187.485C57.0004 186.395 57.1954 185.375 57.5854 184.425C57.9754 183.465 58.5104 182.625 59.1904 181.905C59.8804 181.175 60.6804 180.605 61.5904 180.195C62.5004 179.785 63.4704 179.58 64.5004 179.58C65.6704 179.58 66.7404 179.83 67.7104 180.33C68.6904 180.82 69.5204 181.495 70.2004 182.355C70.8804 183.215 71.3754 184.195 71.6854 185.295C71.9954 186.395 72.0654 187.545 71.8954 188.745H60.9304C61.0704 189.305 61.3004 189.81 61.6204 190.26C61.9404 190.7 62.3454 191.055 62.8354 191.325C63.3254 191.585 63.8804 191.72 64.5004 191.73C65.1404 191.74 65.7204 191.59 66.2404 191.28C66.7704 190.96 67.2104 190.53 67.5604 189.99L71.2954 190.86C70.6854 192.19 69.7754 193.28 68.5654 194.13C67.3554 194.97 66.0004 195.39 64.5004 195.39ZM60.8104 186H68.1904C68.0804 185.4 67.8454 184.86 67.4854 184.38C67.1354 183.89 66.7004 183.5 66.1804 183.21C65.6604 182.92 65.1004 182.775 64.5004 182.775C63.9004 182.775 63.3454 182.92 62.8354 183.21C62.3254 183.49 61.8904 183.875 61.5304 184.365C61.1804 184.845 60.9404 185.39 60.8104 186ZM73.8016 195V172.5H77.4616V195H73.8016ZM89.8328 190.485L93.1328 192.27C92.4428 193.21 91.5778 193.965 90.5378 194.535C89.4978 195.105 88.3628 195.39 87.1328 195.39C85.7528 195.39 84.4928 195.035 83.3528 194.325C82.2228 193.615 81.3178 192.665 80.6378 191.475C79.9678 190.275 79.6328 188.95 79.6328 187.5C79.6328 186.4 79.8278 185.375 80.2178 184.425C80.6078 183.465 81.1428 182.625 81.8228 181.905C82.5128 181.175 83.3128 180.605 84.2228 180.195C85.1328 179.785 86.1028 179.58 87.1328 179.58C88.3628 179.58 89.4978 179.865 90.5378 180.435C91.5778 181.005 92.4428 181.77 93.1328 182.73L89.8328 184.5C89.4828 184.1 89.0678 183.79 88.5878 183.57C88.1178 183.35 87.6328 183.24 87.1328 183.24C86.4128 183.24 85.7628 183.44 85.1828 183.84C84.6028 184.23 84.1428 184.75 83.8028 185.4C83.4628 186.04 83.2928 186.74 83.2928 187.5C83.2928 188.25 83.4628 188.95 83.8028 189.6C84.1428 190.24 84.6028 190.755 85.1828 191.145C85.7628 191.535 86.4128 191.73 87.1328 191.73C87.6528 191.73 88.1478 191.62 88.6178 191.4C89.0878 191.17 89.4928 190.865 89.8328 190.485ZM101.657 195.39C100.277 195.39 99.017 195.035 97.877 194.325C96.747 193.615 95.842 192.665 95.162 191.475C94.492 190.275 94.157 188.95 94.157 187.5C94.157 186.4 94.352 185.375 94.742 184.425C95.132 183.465 95.667 182.625 96.347 181.905C97.037 181.175 97.837 180.605 98.747 180.195C99.657 179.785 100.627 179.58 101.657 179.58C103.037 179.58 104.292 179.935 105.422 180.645C106.562 181.355 107.467 182.31 108.137 183.51C108.817 184.71 109.157 186.04 109.157 187.5C109.157 188.59 108.962 189.61 108.572 190.56C108.182 191.51 107.642 192.35 106.952 193.08C106.272 193.8 105.477 194.365 104.567 194.775C103.667 195.185 102.697 195.39 101.657 195.39ZM101.657 191.73C102.387 191.73 103.042 191.535 103.622 191.145C104.202 190.755 104.657 190.24 104.987 189.6C105.327 188.96 105.497 188.26 105.497 187.5C105.497 186.72 105.322 186.01 104.972 185.37C104.632 184.72 104.167 184.205 103.577 183.825C102.997 183.435 102.357 183.24 101.657 183.24C100.937 183.24 100.287 183.435 99.707 183.825C99.127 184.215 98.667 184.735 98.327 185.385C97.987 186.035 97.817 186.74 97.817 187.5C97.817 188.29 97.992 189.005 98.342 189.645C98.692 190.285 99.157 190.795 99.737 191.175C100.327 191.545 100.967 191.73 101.657 191.73ZM111.193 195V180H114.853V181.335C115.363 180.795 115.973 180.37 116.683 180.06C117.393 179.74 118.158 179.58 118.978 179.58C120.018 179.58 120.973 179.825 121.843 180.315C122.723 180.805 123.423 181.46 123.943 182.28C124.473 181.46 125.173 180.805 126.043 180.315C126.913 179.825 127.868 179.58 128.908 179.58C130.008 179.58 131.003 179.85 131.893 180.39C132.793 180.92 133.508 181.635 134.038 182.535C134.578 183.425 134.848 184.42 134.848 185.52V195H131.188V186.495C131.188 185.915 131.043 185.385 130.753 184.905C130.473 184.415 130.093 184.025 129.613 183.735C129.143 183.435 128.613 183.285 128.023 183.285C127.433 183.285 126.898 183.43 126.418 183.72C125.948 184 125.568 184.38 125.278 184.86C124.988 185.34 124.843 185.885 124.843 186.495V195H121.183V186.495C121.183 185.885 121.043 185.34 120.763 184.86C120.483 184.38 120.103 184 119.623 183.72C119.143 183.43 118.608 183.285 118.018 183.285C117.438 183.285 116.908 183.435 116.428 183.735C115.948 184.025 115.563 184.415 115.273 184.905C114.993 185.385 114.853 185.915 114.853 186.495V195H111.193ZM143.86 195.39C142.48 195.39 141.22 195.035 140.08 194.325C138.95 193.615 138.045 192.66 137.365 191.46C136.695 190.26 136.36 188.935 136.36 187.485C136.36 186.395 136.555 185.375 136.945 184.425C137.335 183.465 137.87 182.625 138.55 181.905C139.24 181.175 140.04 180.605 140.95 180.195C141.86 179.785 142.83 179.58 143.86 179.58C145.03 179.58 146.1 179.83 147.07 180.33C148.05 180.82 148.88 181.495 149.56 182.355C150.24 183.215 150.735 184.195 151.045 185.295C151.355 186.395 151.425 187.545 151.255 188.745H140.29C140.43 189.305 140.66 189.81 140.98 190.26C141.3 190.7 141.705 191.055 142.195 191.325C142.685 191.585 143.24 191.72 143.86 191.73C144.5 191.74 145.08 191.59 145.6 191.28C146.13 190.96 146.57 190.53 146.92 189.99L150.655 190.86C150.045 192.19 149.135 193.28 147.925 194.13C146.715 194.97 145.36 195.39 143.86 195.39ZM140.17 186H147.55C147.44 185.4 147.205 184.86 146.845 184.38C146.495 183.89 146.06 183.5 145.54 183.21C145.02 182.92 144.46 182.775 143.86 182.775C143.26 182.775 142.705 182.92 142.195 183.21C141.685 183.49 141.25 183.875 140.89 184.365C140.54 184.845 140.3 185.39 140.17 186ZM152.854 196.68L153.784 191.61H157.444L155.299 196.68H152.854ZM172.434 195L167.064 174H170.844L174.504 188.355L178.164 174H181.509L185.169 188.355L188.814 174H192.594L187.254 195H183.099L179.829 182.28L176.604 195H172.434ZM199.349 195.39C197.969 195.39 196.709 195.035 195.569 194.325C194.439 193.615 193.534 192.66 192.854 191.46C192.184 190.26 191.849 188.935 191.849 187.485C191.849 186.395 192.044 185.375 192.434 184.425C192.824 183.465 193.359 182.625 194.039 181.905C194.729 181.175 195.529 180.605 196.439 180.195C197.349 179.785 198.319 179.58 199.349 179.58C200.519 179.58 201.589 179.83 202.559 180.33C203.539 180.82 204.369 181.495 205.049 182.355C205.729 183.215 206.224 184.195 206.534 185.295C206.844 186.395 206.914 187.545 206.744 188.745H195.779C195.919 189.305 196.149 189.81 196.469 190.26C196.789 190.7 197.194 191.055 197.684 191.325C198.174 191.585 198.729 191.72 199.349 191.73C199.989 191.74 200.569 191.59 201.089 191.28C201.619 190.96 202.059 190.53 202.409 189.99L206.144 190.86C205.534 192.19 204.624 193.28 203.414 194.13C202.204 194.97 200.849 195.39 199.349 195.39ZM195.659 186H203.039C202.929 185.4 202.694 184.86 202.334 184.38C201.984 183.89 201.549 183.5 201.029 183.21C200.509 182.92 199.949 182.775 199.349 182.775C198.749 182.775 198.194 182.92 197.684 183.21C197.174 183.49 196.739 183.875 196.379 184.365C196.029 184.845 195.789 185.39 195.659 186ZM227.453 180H231.113V195H227.453L227.288 193.14C226.878 193.81 226.333 194.355 225.653 194.775C224.983 195.185 224.188 195.39 223.268 195.39C222.158 195.39 221.118 195.18 220.148 194.76C219.178 194.34 218.323 193.76 217.583 193.02C216.853 192.28 216.278 191.425 215.858 190.455C215.448 189.485 215.243 188.445 215.243 187.335C215.243 186.265 215.438 185.26 215.828 184.32C216.228 183.38 216.783 182.555 217.493 181.845C218.203 181.135 219.023 180.58 219.953 180.18C220.883 179.78 221.883 179.58 222.953 179.58C223.943 179.58 224.828 179.8 225.608 180.24C226.398 180.68 227.068 181.24 227.618 181.92L227.453 180ZM223.178 191.865C223.958 191.865 224.648 191.67 225.248 191.28C225.848 190.89 226.318 190.365 226.658 189.705C226.998 189.035 227.168 188.3 227.168 187.5C227.168 186.69 226.998 185.955 226.658 185.295C226.318 184.625 225.843 184.095 225.233 183.705C224.633 183.315 223.948 183.12 223.178 183.12C222.408 183.12 221.703 183.32 221.063 183.72C220.433 184.11 219.928 184.635 219.548 185.295C219.178 185.955 218.993 186.69 218.993 187.5C218.993 188.31 219.183 189.045 219.563 189.705C219.943 190.365 220.448 190.89 221.078 191.28C221.718 191.67 222.418 191.865 223.178 191.865ZM233.817 195L233.802 180H237.462L237.477 181.335C237.987 180.795 238.597 180.37 239.307 180.06C240.017 179.74 240.782 179.58 241.602 179.58C242.152 179.58 242.702 179.66 243.252 179.82L241.812 183.51C241.432 183.36 241.052 183.285 240.672 183.285C240.082 183.285 239.542 183.43 239.052 183.72C238.572 184 238.187 184.385 237.897 184.875C237.617 185.355 237.477 185.89 237.477 186.48V195H233.817ZM250.532 195.39C249.152 195.39 247.892 195.035 246.752 194.325C245.622 193.615 244.717 192.66 244.037 191.46C243.367 190.26 243.032 188.935 243.032 187.485C243.032 186.395 243.227 185.375 243.617 184.425C244.007 183.465 244.542 182.625 245.222 181.905C245.912 181.175 246.712 180.605 247.622 180.195C248.532 179.785 249.502 179.58 250.532 179.58C251.702 179.58 252.772 179.83 253.742 180.33C254.722 180.82 255.552 181.495 256.232 182.355C256.912 183.215 257.407 184.195 257.717 185.295C258.027 186.395 258.097 187.545 257.927 188.745H246.962C247.102 189.305 247.332 189.81 247.652 190.26C247.972 190.7 248.377 191.055 248.867 191.325C249.357 191.585 249.912 191.72 250.532 191.73C251.172 191.74 251.752 191.59 252.272 191.28C252.802 190.96 253.242 190.53 253.592 189.99L257.327 190.86C256.717 192.19 255.807 193.28 254.597 194.13C253.387 194.97 252.032 195.39 250.532 195.39ZM246.842 186H254.222C254.112 185.4 253.877 184.86 253.517 184.38C253.167 183.89 252.732 183.5 252.212 183.21C251.692 182.92 251.132 182.775 250.532 182.775C249.932 182.775 249.377 182.92 248.867 183.21C248.357 183.49 247.922 183.875 247.562 184.365C247.212 184.845 246.972 185.39 246.842 186ZM42.52 234.39C41.06 234.39 39.7 234.105 38.44 233.535C37.19 232.965 36.1 232.18 35.17 231.18C34.24 230.17 33.51 229.01 32.98 227.7C32.46 226.38 32.2 224.97 32.2 223.47C32.2 221.89 32.48 220.44 33.04 219.12C33.61 217.8 34.385 216.655 35.365 215.685C36.345 214.715 37.455 213.965 38.695 213.435C39.945 212.905 41.245 212.64 42.595 212.64C44.105 212.64 45.57 212.995 46.99 213.705C48.42 214.405 49.68 215.49 50.77 216.96L47.5 218.715C46.83 217.895 46.06 217.285 45.19 216.885C44.33 216.475 43.45 216.27 42.55 216.27C41.67 216.27 40.825 216.45 40.015 216.81C39.215 217.17 38.5 217.68 37.87 218.34C37.25 218.99 36.76 219.76 36.4 220.65C36.04 221.53 35.86 222.495 35.86 223.545C35.86 224.535 36.035 225.47 36.385 226.35C36.735 227.22 37.215 227.985 37.825 228.645C38.445 229.295 39.16 229.805 39.97 230.175C40.78 230.545 41.65 230.73 42.58 230.73C43.2 230.73 43.805 230.635 44.395 230.445C44.995 230.245 45.555 229.96 46.075 229.59C46.605 229.22 47.075 228.77 47.485 228.24C47.905 227.71 48.255 227.11 48.535 226.44H44.71V223.245H52.84C52.88 224.775 52.64 226.21 52.12 227.55C51.6 228.89 50.865 230.075 49.915 231.105C48.965 232.135 47.86 232.94 46.6 233.52C45.34 234.1 43.98 234.39 42.52 234.39ZM55.293 234V211.5H58.953V234H55.293ZM73.3342 219H76.9942V234H73.3342L73.1692 232.14C72.7592 232.81 72.2142 233.355 71.5342 233.775C70.8642 234.185 70.0692 234.39 69.1492 234.39C68.0392 234.39 66.9992 234.18 66.0292 233.76C65.0592 233.34 64.2042 232.76 63.4642 232.02C62.7342 231.28 62.1592 230.425 61.7392 229.455C61.3292 228.485 61.1242 227.445 61.1242 226.335C61.1242 225.265 61.3192 224.26 61.7092 223.32C62.1092 222.38 62.6642 221.555 63.3742 220.845C64.0842 220.135 64.9042 219.58 65.8342 219.18C66.7642 218.78 67.7642 218.58 68.8342 218.58C69.8242 218.58 70.7092 218.8 71.4892 219.24C72.2792 219.68 72.9492 220.24 73.4992 220.92L73.3342 219ZM69.0592 230.865C69.8392 230.865 70.5292 230.67 71.1292 230.28C71.7292 229.89 72.1992 229.365 72.5392 228.705C72.8792 228.035 73.0492 227.3 73.0492 226.5C73.0492 225.69 72.8792 224.955 72.5392 224.295C72.1992 223.625 71.7242 223.095 71.1142 222.705C70.5142 222.315 69.8292 222.12 69.0592 222.12C68.2892 222.12 67.5842 222.32 66.9442 222.72C66.3142 223.11 65.8092 223.635 65.4292 224.295C65.0592 224.955 64.8742 225.69 64.8742 226.5C64.8742 227.31 65.0642 228.045 65.4442 228.705C65.8242 229.365 66.3292 229.89 66.9592 230.28C67.5992 230.67 68.2992 230.865 69.0592 230.865ZM90.7302 211.5H94.3902V234H90.7302V232.125C90.2502 232.795 89.6452 233.34 88.9152 233.76C88.1852 234.18 87.3402 234.39 86.3802 234.39C85.2902 234.39 84.2702 234.185 83.3202 233.775C82.3702 233.365 81.5302 232.8 80.8002 232.08C80.0802 231.35 79.5152 230.51 79.1052 229.56C78.6952 228.61 78.4902 227.59 78.4902 226.5C78.4902 225.41 78.6952 224.39 79.1052 223.44C79.5152 222.49 80.0802 221.655 80.8002 220.935C81.5302 220.205 82.3702 219.635 83.3202 219.225C84.2702 218.815 85.2902 218.61 86.3802 218.61C87.3402 218.61 88.1852 218.82 88.9152 219.24C89.6452 219.65 90.2502 220.195 90.7302 220.875V211.5ZM86.4252 230.865C87.2052 230.865 87.8952 230.67 88.4952 230.28C89.0952 229.89 89.5652 229.365 89.9052 228.705C90.2452 228.035 90.4152 227.3 90.4152 226.5C90.4152 225.69 90.2452 224.955 89.9052 224.295C89.5652 223.625 89.0902 223.095 88.4802 222.705C87.8802 222.315 87.1952 222.12 86.4252 222.12C85.6552 222.12 84.9502 222.32 84.3102 222.72C83.6802 223.11 83.1752 223.635 82.7952 224.295C82.4252 224.955 82.2402 225.69 82.2402 226.5C82.2402 227.31 82.4302 228.045 82.8102 228.705C83.1902 229.365 83.6952 229.89 84.3252 230.28C84.9652 230.67 85.6652 230.865 86.4252 230.865ZM112.641 222.66H109.731V234H106.071V222.66H103.851V219H106.071V214.29H109.731V219H112.641V222.66ZM121.301 234.39C119.921 234.39 118.661 234.035 117.521 233.325C116.391 232.615 115.486 231.665 114.806 230.475C114.136 229.275 113.801 227.95 113.801 226.5C113.801 225.4 113.996 224.375 114.386 223.425C114.776 222.465 115.311 221.625 115.991 220.905C116.681 220.175 117.481 219.605 118.391 219.195C119.301 218.785 120.271 218.58 121.301 218.58C122.681 218.58 123.936 218.935 125.066 219.645C126.206 220.355 127.111 221.31 127.781 222.51C128.461 223.71 128.801 225.04 128.801 226.5C128.801 227.59 128.606 228.61 128.216 229.56C127.826 230.51 127.286 231.35 126.596 232.08C125.916 232.8 125.121 233.365 124.211 233.775C123.311 234.185 122.341 234.39 121.301 234.39ZM121.301 230.73C122.031 230.73 122.686 230.535 123.266 230.145C123.846 229.755 124.301 229.24 124.631 228.6C124.971 227.96 125.141 227.26 125.141 226.5C125.141 225.72 124.966 225.01 124.616 224.37C124.276 223.72 123.811 223.205 123.221 222.825C122.641 222.435 122.001 222.24 121.301 222.24C120.581 222.24 119.931 222.435 119.351 222.825C118.771 223.215 118.311 223.735 117.971 224.385C117.631 225.035 117.461 225.74 117.461 226.5C117.461 227.29 117.636 228.005 117.986 228.645C118.336 229.285 118.801 229.795 119.381 230.175C119.971 230.545 120.611 230.73 121.301 230.73ZM142.52 234.27C141.74 234.22 140.985 234.065 140.255 233.805C139.535 233.535 138.895 233.17 138.335 232.71C137.775 232.25 137.345 231.7 137.045 231.06L140.135 229.74C140.255 229.94 140.45 230.155 140.72 230.385C140.99 230.605 141.31 230.79 141.68 230.94C142.06 231.09 142.475 231.165 142.925 231.165C143.305 231.165 143.665 231.115 144.005 231.015C144.355 230.905 144.635 230.74 144.845 230.52C145.065 230.3 145.175 230.015 145.175 229.665C145.175 229.295 145.045 229.01 144.785 228.81C144.535 228.6 144.215 228.445 143.825 228.345C143.445 228.235 143.075 228.135 142.715 228.045C141.765 227.855 140.88 227.56 140.06 227.16C139.25 226.76 138.595 226.245 138.095 225.615C137.605 224.975 137.36 224.205 137.36 223.305C137.36 222.315 137.62 221.46 138.14 220.74C138.67 220.02 139.355 219.465 140.195 219.075C141.045 218.685 141.96 218.49 142.94 218.49C144.13 218.49 145.22 218.74 146.21 219.24C147.21 219.73 148 220.425 148.58 221.325L145.685 223.035C145.545 222.795 145.35 222.575 145.1 222.375C144.85 222.165 144.565 221.995 144.245 221.865C143.925 221.725 143.59 221.645 143.24 221.625C142.79 221.605 142.38 221.645 142.01 221.745C141.64 221.845 141.34 222.015 141.11 222.255C140.89 222.495 140.78 222.815 140.78 223.215C140.78 223.595 140.93 223.88 141.23 224.07C141.53 224.25 141.89 224.39 142.31 224.49C142.74 224.59 143.15 224.7 143.54 224.82C144.42 225.11 145.245 225.465 146.015 225.885C146.795 226.305 147.42 226.82 147.89 227.43C148.36 228.04 148.585 228.77 148.565 229.62C148.565 230.59 148.275 231.44 147.695 232.17C147.115 232.89 146.365 233.44 145.445 233.82C144.535 234.2 143.56 234.35 142.52 234.27ZM157.198 234.39C155.818 234.39 154.558 234.035 153.418 233.325C152.288 232.615 151.383 231.66 150.703 230.46C150.033 229.26 149.698 227.935 149.698 226.485C149.698 225.395 149.893 224.375 150.283 223.425C150.673 222.465 151.208 221.625 151.888 220.905C152.578 220.175 153.378 219.605 154.288 219.195C155.198 218.785 156.168 218.58 157.198 218.58C158.368 218.58 159.438 218.83 160.408 219.33C161.388 219.82 162.218 220.495 162.898 221.355C163.578 222.215 164.073 223.195 164.383 224.295C164.693 225.395 164.763 226.545 164.593 227.745H153.628C153.768 228.305 153.998 228.81 154.318 229.26C154.638 229.7 155.043 230.055 155.533 230.325C156.023 230.585 156.578 230.72 157.198 230.73C157.838 230.74 158.418 230.59 158.938 230.28C159.468 229.96 159.908 229.53 160.258 228.99L163.993 229.86C163.383 231.19 162.473 232.28 161.263 233.13C160.053 233.97 158.698 234.39 157.198 234.39ZM153.508 225H160.888C160.778 224.4 160.543 223.86 160.183 223.38C159.833 222.89 159.398 222.5 158.878 222.21C158.358 221.92 157.798 221.775 157.198 221.775C156.598 221.775 156.043 221.92 155.533 222.21C155.023 222.49 154.588 222.875 154.228 223.365C153.878 223.845 153.638 224.39 153.508 225ZM173.392 234.39C172.012 234.39 170.752 234.035 169.612 233.325C168.482 232.615 167.577 231.66 166.897 230.46C166.227 229.26 165.892 227.935 165.892 226.485C165.892 225.395 166.087 224.375 166.477 223.425C166.867 222.465 167.402 221.625 168.082 220.905C168.772 220.175 169.572 219.605 170.482 219.195C171.392 218.785 172.362 218.58 173.392 218.58C174.562 218.58 175.632 218.83 176.602 219.33C177.582 219.82 178.412 220.495 179.092 221.355C179.772 222.215 180.267 223.195 180.577 224.295C180.887 225.395 180.957 226.545 180.787 227.745H169.822C169.962 228.305 170.192 228.81 170.512 229.26C170.832 229.7 171.237 230.055 171.727 230.325C172.217 230.585 172.772 230.72 173.392 230.73C174.032 230.74 174.612 230.59 175.132 230.28C175.662 229.96 176.102 229.53 176.452 228.99L180.187 229.86C179.577 231.19 178.667 232.28 177.457 233.13C176.247 233.97 174.892 234.39 173.392 234.39ZM169.702 225H177.082C176.972 224.4 176.737 223.86 176.377 223.38C176.027 222.89 175.592 222.5 175.072 222.21C174.552 221.92 173.992 221.775 173.392 221.775C172.792 221.775 172.237 221.92 171.727 222.21C171.217 222.49 170.782 222.875 170.422 223.365C170.072 223.845 169.832 224.39 169.702 225ZM200.476 219H204.361L196.156 241.5H192.271L194.986 234L189.586 219H193.591L196.816 228.99L200.476 219ZM212.16 234.39C210.78 234.39 209.52 234.035 208.38 233.325C207.25 232.615 206.345 231.665 205.665 230.475C204.995 229.275 204.66 227.95 204.66 226.5C204.66 225.4 204.855 224.375 205.245 223.425C205.635 222.465 206.17 221.625 206.85 220.905C207.54 220.175 208.34 219.605 209.25 219.195C210.16 218.785 211.13 218.58 212.16 218.58C213.54 218.58 214.795 218.935 215.925 219.645C217.065 220.355 217.97 221.31 218.64 222.51C219.32 223.71 219.66 225.04 219.66 226.5C219.66 227.59 219.465 228.61 219.075 229.56C218.685 230.51 218.145 231.35 217.455 232.08C216.775 232.8 215.98 233.365 215.07 233.775C214.17 234.185 213.2 234.39 212.16 234.39ZM212.16 230.73C212.89 230.73 213.545 230.535 214.125 230.145C214.705 229.755 215.16 229.24 215.49 228.6C215.83 227.96 216 227.26 216 226.5C216 225.72 215.825 225.01 215.475 224.37C215.135 223.72 214.67 223.205 214.08 222.825C213.5 222.435 212.86 222.24 212.16 222.24C211.44 222.24 210.79 222.435 210.21 222.825C209.63 223.215 209.17 223.735 208.83 224.385C208.49 225.035 208.32 225.74 208.32 226.5C208.32 227.29 208.495 228.005 208.845 228.645C209.195 229.285 209.66 229.795 210.24 230.175C210.83 230.545 211.47 230.73 212.16 230.73ZM220.773 228.45V219H224.433V227.49C224.433 228.08 224.578 228.62 224.868 229.11C225.158 229.59 225.543 229.975 226.023 230.265C226.513 230.545 227.048 230.685 227.628 230.685C228.228 230.685 228.768 230.545 229.248 230.265C229.728 229.975 230.113 229.59 230.403 229.11C230.693 228.62 230.838 228.08 230.838 227.49V219H234.498L234.513 234H230.853L230.838 232.635C230.318 233.175 229.703 233.605 228.993 233.925C228.283 234.235 227.523 234.39 226.713 234.39C225.623 234.39 224.628 234.125 223.728 233.595C222.828 233.055 222.108 232.34 221.568 231.45C221.038 230.55 220.773 229.55 220.773 228.45ZM236.946 227.7V213H240.036V227.7H236.946ZM238.506 234.39C237.976 234.39 237.526 234.205 237.156 233.835C236.796 233.465 236.616 233.015 236.616 232.485C236.616 231.965 236.796 231.525 237.156 231.165C237.526 230.805 237.976 230.625 238.506 230.625C239.016 230.625 239.451 230.805 239.811 231.165C240.171 231.525 240.351 231.965 240.351 232.485C240.351 233.015 240.171 233.465 239.811 233.835C239.451 234.205 239.016 234.39 238.506 234.39Z" fill="#1E232C"/>
<rect x="32.5" y="300.5" width="329" height="55" rx="7.5" fill="#F7F8F9" stroke="#DADADA"/>
<path d="M56.9496 334.195C56.1096 334.195 55.3796 333.99 54.7596 333.58C54.1446 333.17 53.6696 332.62 53.3346 331.93C53.0046 331.235 52.8396 330.465 52.8396 329.62V323.5H54.0996V329.62C54.0996 330.22 54.2096 330.772 54.4296 331.277C54.6546 331.782 54.9771 332.185 55.3971 332.485C55.8221 332.785 56.3396 332.935 56.9496 332.935C57.5696 332.935 58.0896 332.785 58.5096 332.485C58.9296 332.18 59.2471 331.777 59.4621 331.277C59.6821 330.772 59.7921 330.22 59.7921 329.62V323.5H61.0521V329.62C61.0521 330.255 60.9571 330.85 60.7671 331.405C60.5771 331.955 60.3021 332.44 59.9421 332.86C59.5871 333.28 59.1571 333.607 58.6521 333.842C58.1471 334.077 57.5796 334.195 56.9496 334.195ZM65.1466 334.143C64.7416 334.128 64.3466 334.053 63.9616 333.917C63.5816 333.777 63.2466 333.59 62.9566 333.355C62.6716 333.115 62.4641 332.84 62.3341 332.53L63.4141 332.065C63.4891 332.235 63.6241 332.395 63.8191 332.545C64.0141 332.695 64.2391 332.815 64.4941 332.905C64.7491 332.995 65.0066 333.04 65.2666 333.04C65.5416 333.04 65.7991 332.997 66.0391 332.912C66.2791 332.827 66.4741 332.702 66.6241 332.537C66.7791 332.367 66.8566 332.165 66.8566 331.93C66.8566 331.68 66.7716 331.485 66.6016 331.345C66.4366 331.2 66.2266 331.087 65.9716 331.007C65.7216 330.922 65.4666 330.842 65.2066 330.767C64.6916 330.637 64.2316 330.482 63.8266 330.302C63.4216 330.117 63.1016 329.885 62.8666 329.605C62.6366 329.32 62.5216 328.957 62.5216 328.517C62.5216 328.052 62.6491 327.65 62.9041 327.31C63.1641 326.97 63.5041 326.707 63.9241 326.522C64.3441 326.337 64.7941 326.245 65.2741 326.245C65.8791 326.245 66.4316 326.375 66.9316 326.635C67.4316 326.895 67.8041 327.247 68.0491 327.692L67.0366 328.285C66.9516 328.105 66.8216 327.947 66.6466 327.812C66.4716 327.672 66.2716 327.562 66.0466 327.482C65.8216 327.402 65.5916 327.36 65.3566 327.355C65.0666 327.345 64.7941 327.382 64.5391 327.467C64.2891 327.552 64.0866 327.682 63.9316 327.857C63.7816 328.027 63.7066 328.24 63.7066 328.495C63.7066 328.745 63.7866 328.935 63.9466 329.065C64.1116 329.195 64.3241 329.3 64.5841 329.38C64.8491 329.455 65.1366 329.542 65.4466 329.642C65.9016 329.787 66.3266 329.955 66.7216 330.145C67.1166 330.335 67.4341 330.572 67.6741 330.857C67.9191 331.142 68.0391 331.495 68.0341 331.915C68.0341 332.375 67.8966 332.777 67.6216 333.122C67.3466 333.462 66.9891 333.722 66.5491 333.902C66.1141 334.083 65.6466 334.163 65.1466 334.143ZM72.5458 334.195C71.8558 334.195 71.2258 334.017 70.6558 333.662C70.0908 333.307 69.6383 332.832 69.2983 332.237C68.9633 331.637 68.7958 330.975 68.7958 330.25C68.7958 329.7 68.8933 329.187 69.0883 328.712C69.2833 328.232 69.5508 327.812 69.8908 327.452C70.2358 327.087 70.6358 326.802 71.0908 326.597C71.5458 326.392 72.0308 326.29 72.5458 326.29C73.1108 326.29 73.6283 326.405 74.0983 326.635C74.5733 326.86 74.9783 327.175 75.3133 327.58C75.6533 327.985 75.9058 328.455 76.0708 328.99C76.2408 329.525 76.3033 330.097 76.2583 330.707H70.1383C70.1983 331.132 70.3383 331.512 70.5583 331.847C70.7783 332.177 71.0583 332.44 71.3983 332.635C71.7433 332.83 72.1258 332.93 72.5458 332.935C72.9958 332.935 73.4033 332.82 73.7683 332.59C74.1333 332.355 74.4283 332.035 74.6533 331.63L75.9358 331.93C75.6358 332.595 75.1833 333.14 74.5783 333.565C73.9733 333.985 73.2958 334.195 72.5458 334.195ZM70.1008 329.717H74.9908C74.9508 329.297 74.8158 328.915 74.5858 328.57C74.3558 328.22 74.0633 327.94 73.7083 327.73C73.3533 327.52 72.9658 327.415 72.5458 327.415C72.1258 327.415 71.7408 327.517 71.3908 327.722C71.0408 327.927 70.7508 328.205 70.5208 328.555C70.2958 328.9 70.1558 329.287 70.1008 329.717ZM77.5222 334V326.5H78.7822V327.437C79.0472 327.087 79.3822 326.81 79.7872 326.605C80.1922 326.395 80.6322 326.29 81.1072 326.29C81.3972 326.29 81.6772 326.327 81.9472 326.402L81.4372 327.662C81.2322 327.597 81.0322 327.565 80.8372 327.565C80.4622 327.565 80.1172 327.657 79.8022 327.842C79.4922 328.022 79.2447 328.267 79.0597 328.577C78.8747 328.887 78.7822 329.232 78.7822 329.612V334H77.5222ZM89.5282 329.335V334H88.2682V329.612C88.2682 329.232 88.1757 328.887 87.9907 328.577C87.8057 328.267 87.5582 328.022 87.2482 327.842C86.9382 327.657 86.5932 327.565 86.2132 327.565C85.8382 327.565 85.4932 327.657 85.1782 327.842C84.8682 328.022 84.6207 328.267 84.4357 328.577C84.2507 328.887 84.1582 329.232 84.1582 329.612V334H82.8982V326.5H84.1582V327.437C84.4232 327.087 84.7582 326.81 85.1632 326.605C85.5682 326.395 86.0082 326.29 86.4832 326.29C87.0432 326.29 87.5532 326.427 88.0132 326.702C88.4782 326.972 88.8457 327.337 89.1157 327.797C89.3907 328.257 89.5282 328.77 89.5282 329.335ZM96.9116 326.5H98.1716V334H96.9116L96.8591 332.732C96.6241 333.167 96.2991 333.52 95.8841 333.79C95.4741 334.06 94.9841 334.195 94.4141 334.195C93.8641 334.195 93.3491 334.093 92.8691 333.887C92.3891 333.677 91.9641 333.39 91.5941 333.025C91.2291 332.655 90.9441 332.23 90.7391 331.75C90.5341 331.27 90.4316 330.752 90.4316 330.197C90.4316 329.662 90.5316 329.157 90.7316 328.682C90.9316 328.207 91.2091 327.792 91.5641 327.437C91.9241 327.077 92.3391 326.797 92.8091 326.597C93.2791 326.392 93.7841 326.29 94.3241 326.29C94.9141 326.29 95.4316 326.43 95.8766 326.71C96.3216 326.985 96.6816 327.342 96.9566 327.782L96.9116 326.5ZM94.3916 332.972C94.8866 332.972 95.3141 332.852 95.6741 332.612C96.0391 332.367 96.3191 332.037 96.5141 331.622C96.7141 331.207 96.8141 330.75 96.8141 330.25C96.8141 329.74 96.7141 329.28 96.5141 328.87C96.3141 328.455 96.0316 328.127 95.6666 327.887C95.3066 327.642 94.8816 327.52 94.3916 327.52C93.8966 327.52 93.4466 327.642 93.0416 327.887C92.6366 328.132 92.3141 328.462 92.0741 328.877C91.8391 329.287 91.7216 329.745 91.7216 330.25C91.7216 330.755 91.8441 331.215 92.0891 331.63C92.3341 332.04 92.6591 332.367 93.0641 332.612C93.4691 332.852 93.9116 332.972 94.3916 332.972ZM99.6706 334V326.5H100.931V327.437C101.196 327.087 101.528 326.81 101.928 326.605C102.333 326.395 102.773 326.29 103.248 326.29C103.803 326.29 104.311 326.425 104.771 326.695C105.231 326.965 105.593 327.322 105.858 327.767C106.123 327.322 106.483 326.965 106.938 326.695C107.398 326.425 107.903 326.29 108.453 326.29C109.018 326.29 109.531 326.427 109.991 326.702C110.451 326.972 110.816 327.337 111.086 327.797C111.361 328.257 111.498 328.77 111.498 329.335V334H110.238V329.635C110.238 329.265 110.148 328.922 109.968 328.607C109.788 328.292 109.546 328.04 109.241 327.85C108.936 327.66 108.598 327.565 108.228 327.565C107.858 327.565 107.521 327.655 107.216 327.835C106.911 328.01 106.668 328.255 106.488 328.57C106.308 328.88 106.218 329.235 106.218 329.635V334H104.958V329.635C104.958 329.235 104.868 328.88 104.688 328.57C104.508 328.255 104.263 328.01 103.953 327.835C103.648 327.655 103.311 327.565 102.941 327.565C102.576 327.565 102.238 327.66 101.928 327.85C101.623 328.04 101.381 328.292 101.201 328.607C101.021 328.922 100.931 329.265 100.931 329.635V334H99.6706ZM116.154 334.195C115.464 334.195 114.834 334.017 114.264 333.662C113.699 333.307 113.247 332.832 112.907 332.237C112.572 331.637 112.404 330.975 112.404 330.25C112.404 329.7 112.502 329.187 112.697 328.712C112.892 328.232 113.159 327.812 113.499 327.452C113.844 327.087 114.244 326.802 114.699 326.597C115.154 326.392 115.639 326.29 116.154 326.29C116.719 326.29 117.237 326.405 117.707 326.635C118.182 326.86 118.587 327.175 118.922 327.58C119.262 327.985 119.514 328.455 119.679 328.99C119.849 329.525 119.912 330.097 119.867 330.707H113.747C113.807 331.132 113.947 331.512 114.167 331.847C114.387 332.177 114.667 332.44 115.007 332.635C115.352 332.83 115.734 332.93 116.154 332.935C116.604 332.935 117.012 332.82 117.377 332.59C117.742 332.355 118.037 332.035 118.262 331.63L119.544 331.93C119.244 332.595 118.792 333.14 118.187 333.565C117.582 333.985 116.904 334.195 116.154 334.195ZM113.709 329.717H118.599C118.559 329.297 118.424 328.915 118.194 328.57C117.964 328.22 117.672 327.94 117.317 327.73C116.962 327.52 116.574 327.415 116.154 327.415C115.734 327.415 115.349 327.517 114.999 327.722C114.649 327.927 114.359 328.205 114.129 328.555C113.904 328.9 113.764 329.287 113.709 329.717Z" fill="#8391A1"/>
<rect x="32.5" y="371.5" width="329" height="55" rx="7.5" fill="#F7F8F9" stroke="#DADADA"/>
<path d="M52.8396 405V394.5H59.2821V395.76H54.0996V398.745H58.3446V400.005H54.0996V403.74H59.2821V405H52.8396ZM60.9255 405V397.5H62.1855V398.437C62.4505 398.087 62.783 397.81 63.183 397.605C63.588 397.395 64.028 397.29 64.503 397.29C65.058 397.29 65.5655 397.425 66.0255 397.695C66.4855 397.965 66.848 398.322 67.113 398.767C67.378 398.322 67.738 397.965 68.193 397.695C68.653 397.425 69.158 397.29 69.708 397.29C70.273 397.29 70.7855 397.427 71.2455 397.702C71.7055 397.972 72.0705 398.337 72.3405 398.797C72.6155 399.257 72.753 399.77 72.753 400.335V405H71.493V400.635C71.493 400.265 71.403 399.922 71.223 399.607C71.043 399.292 70.8005 399.04 70.4955 398.85C70.1905 398.66 69.853 398.565 69.483 398.565C69.113 398.565 68.7755 398.655 68.4705 398.835C68.1655 399.01 67.923 399.255 67.743 399.57C67.563 399.88 67.473 400.235 67.473 400.635V405H66.213V400.635C66.213 400.235 66.123 399.88 65.943 399.57C65.763 399.255 65.518 399.01 65.208 398.835C64.903 398.655 64.5655 398.565 64.1955 398.565C63.8305 398.565 63.493 398.66 63.183 398.85C62.878 399.04 62.6355 399.292 62.4555 399.607C62.2755 399.922 62.1855 400.265 62.1855 400.635V405H60.9255ZM80.1391 397.5H81.3991V405H80.1391L80.0866 403.732C79.8516 404.167 79.5266 404.52 79.1116 404.79C78.7016 405.06 78.2116 405.195 77.6416 405.195C77.0916 405.195 76.5766 405.093 76.0966 404.887C75.6166 404.677 75.1916 404.39 74.8216 404.025C74.4566 403.655 74.1716 403.23 73.9666 402.75C73.7616 402.27 73.6591 401.752 73.6591 401.197C73.6591 400.662 73.7591 400.157 73.9591 399.682C74.1591 399.207 74.4366 398.792 74.7916 398.437C75.1516 398.077 75.5666 397.797 76.0366 397.597C76.5066 397.392 77.0116 397.29 77.5516 397.29C78.1416 397.29 78.6591 397.43 79.1041 397.71C79.5491 397.985 79.9091 398.342 80.1841 398.782L80.1391 397.5ZM77.6191 403.972C78.1141 403.972 78.5416 403.852 78.9016 403.612C79.2666 403.367 79.5466 403.037 79.7416 402.622C79.9416 402.207 80.0416 401.75 80.0416 401.25C80.0416 400.74 79.9416 400.28 79.7416 399.87C79.5416 399.455 79.2591 399.127 78.8941 398.887C78.5341 398.642 78.1091 398.52 77.6191 398.52C77.1241 398.52 76.6741 398.642 76.2691 398.887C75.8641 399.132 75.5416 399.462 75.3016 399.877C75.0666 400.287 74.9491 400.745 74.9491 401.25C74.9491 401.755 75.0716 402.215 75.3166 402.63C75.5616 403.04 75.8866 403.367 76.2916 403.612C76.6966 403.852 77.1391 403.972 77.6191 403.972ZM82.8982 397.5H84.1582V405H82.8982V397.5ZM83.5432 396.277C83.3432 396.277 83.1757 396.212 83.0407 396.082C82.9057 395.952 82.8382 395.79 82.8382 395.595C82.8382 395.4 82.9057 395.237 83.0407 395.107C83.1757 394.977 83.3407 394.912 83.5357 394.912C83.7307 394.912 83.8957 394.977 84.0307 395.107C84.1657 395.237 84.2332 395.4 84.2332 395.595C84.2332 395.79 84.1657 395.952 84.0307 396.082C83.9007 396.212 83.7382 396.277 83.5432 396.277ZM86.0036 405V393.75H87.2636V405H86.0036Z" fill="#8391A1"/>
<rect x="32.5" y="442.5" width="329" height="55" rx="7.5" fill="#F7F8F9" stroke="#DADADA"/>
<path d="M52.8396 476V465.5H56.3046C56.8696 465.5 57.3771 465.637 57.8271 465.912C58.2821 466.187 58.6421 466.56 58.9071 467.03C59.1771 467.495 59.3121 468.015 59.3121 468.59C59.3121 469.175 59.1746 469.702 58.8996 470.172C58.6296 470.637 58.2646 471.007 57.8046 471.282C57.3496 471.552 56.8496 471.687 56.3046 471.687H54.0996V476H52.8396ZM54.0996 470.427H56.1921C56.5321 470.427 56.8421 470.345 57.1221 470.18C57.4071 470.01 57.6321 469.782 57.7971 469.497C57.9671 469.207 58.0521 468.882 58.0521 468.522C58.0521 468.157 57.9671 467.832 57.7971 467.547C57.6321 467.257 57.4071 467.03 57.1221 466.865C56.8421 466.695 56.5321 466.61 56.1921 466.61H54.0996V470.427ZM66.2084 468.5H67.4684V476H66.2084L66.1559 474.732C65.9209 475.167 65.5959 475.52 65.1809 475.79C64.7709 476.06 64.2809 476.195 63.7109 476.195C63.1609 476.195 62.6459 476.093 62.1659 475.887C61.6859 475.677 61.2609 475.39 60.8909 475.025C60.5259 474.655 60.2409 474.23 60.0359 473.75C59.8309 473.27 59.7284 472.752 59.7284 472.197C59.7284 471.662 59.8284 471.157 60.0284 470.682C60.2284 470.207 60.5059 469.792 60.8609 469.437C61.2209 469.077 61.6359 468.797 62.1059 468.597C62.5759 468.392 63.0809 468.29 63.6209 468.29C64.2109 468.29 64.7284 468.43 65.1734 468.71C65.6184 468.985 65.9784 469.342 66.2534 469.782L66.2084 468.5ZM63.6884 474.972C64.1834 474.972 64.6109 474.852 64.9709 474.612C65.3359 474.367 65.6159 474.037 65.8109 473.622C66.0109 473.207 66.1109 472.75 66.1109 472.25C66.1109 471.74 66.0109 471.28 65.8109 470.87C65.6109 470.455 65.3284 470.127 64.9634 469.887C64.6034 469.642 64.1784 469.52 63.6884 469.52C63.1934 469.52 62.7434 469.642 62.3384 469.887C61.9334 470.132 61.6109 470.462 61.3709 470.877C61.1359 471.287 61.0184 471.745 61.0184 472.25C61.0184 472.755 61.1409 473.215 61.3859 473.63C61.6309 474.04 61.9559 474.367 62.3609 474.612C62.7659 474.852 63.2084 474.972 63.6884 474.972ZM71.255 476.143C70.85 476.128 70.455 476.053 70.07 475.917C69.69 475.777 69.355 475.59 69.065 475.355C68.78 475.115 68.5725 474.84 68.4425 474.53L69.5225 474.065C69.5975 474.235 69.7325 474.395 69.9275 474.545C70.1225 474.695 70.3475 474.815 70.6025 474.905C70.8575 474.995 71.115 475.04 71.375 475.04C71.65 475.04 71.9075 474.997 72.1475 474.912C72.3875 474.827 72.5825 474.702 72.7325 474.537C72.8875 474.367 72.965 474.165 72.965 473.93C72.965 473.68 72.88 473.485 72.71 473.345C72.545 473.2 72.335 473.087 72.08 473.007C71.83 472.922 71.575 472.842 71.315 472.767C70.8 472.637 70.34 472.482 69.935 472.302C69.53 472.117 69.21 471.885 68.975 471.605C68.745 471.32 68.63 470.957 68.63 470.517C68.63 470.052 68.7575 469.65 69.0125 469.31C69.2725 468.97 69.6125 468.707 70.0325 468.522C70.4525 468.337 70.9025 468.245 71.3825 468.245C71.9875 468.245 72.54 468.375 73.04 468.635C73.54 468.895 73.9125 469.247 74.1575 469.692L73.145 470.285C73.06 470.105 72.93 469.947 72.755 469.812C72.58 469.672 72.38 469.562 72.155 469.482C71.93 469.402 71.7 469.36 71.465 469.355C71.175 469.345 70.9025 469.382 70.6475 469.467C70.3975 469.552 70.195 469.682 70.04 469.857C69.89 470.027 69.815 470.24 69.815 470.495C69.815 470.745 69.895 470.935 70.055 471.065C70.22 471.195 70.4325 471.3 70.6925 471.38C70.9575 471.455 71.245 471.542 71.555 471.642C72.01 471.787 72.435 471.955 72.83 472.145C73.225 472.335 73.5425 472.572 73.7825 472.857C74.0275 473.142 74.1475 473.495 74.1425 473.915C74.1425 474.375 74.005 474.777 73.73 475.122C73.455 475.462 73.0975 475.722 72.6575 475.902C72.2225 476.083 71.755 476.163 71.255 476.143ZM77.715 476.143C77.31 476.128 76.915 476.053 76.53 475.917C76.15 475.777 75.815 475.59 75.525 475.355C75.24 475.115 75.0325 474.84 74.9025 474.53L75.9825 474.065C76.0575 474.235 76.1925 474.395 76.3875 474.545C76.5825 474.695 76.8075 474.815 77.0625 474.905C77.3175 474.995 77.575 475.04 77.835 475.04C78.11 475.04 78.3675 474.997 78.6075 474.912C78.8475 474.827 79.0425 474.702 79.1925 474.537C79.3475 474.367 79.425 474.165 79.425 473.93C79.425 473.68 79.34 473.485 79.17 473.345C79.005 473.2 78.795 473.087 78.54 473.007C78.29 472.922 78.035 472.842 77.775 472.767C77.26 472.637 76.8 472.482 76.395 472.302C75.99 472.117 75.67 471.885 75.435 471.605C75.205 471.32 75.09 470.957 75.09 470.517C75.09 470.052 75.2175 469.65 75.4725 469.31C75.7325 468.97 76.0725 468.707 76.4925 468.522C76.9125 468.337 77.3625 468.245 77.8425 468.245C78.4475 468.245 79 468.375 79.5 468.635C80 468.895 80.3725 469.247 80.6175 469.692L79.605 470.285C79.52 470.105 79.39 469.947 79.215 469.812C79.04 469.672 78.84 469.562 78.615 469.482C78.39 469.402 78.16 469.36 77.925 469.355C77.635 469.345 77.3625 469.382 77.1075 469.467C76.8575 469.552 76.655 469.682 76.5 469.857C76.35 470.027 76.275 470.24 76.275 470.495C76.275 470.745 76.355 470.935 76.515 471.065C76.68 471.195 76.8925 471.3 77.1525 471.38C77.4175 471.455 77.705 471.542 78.015 471.642C78.47 471.787 78.895 471.955 79.29 472.145C79.685 472.335 80.0025 472.572 80.2425 472.857C80.4875 473.142 80.6075 473.495 80.6025 473.915C80.6025 474.375 80.465 474.777 80.19 475.122C79.915 475.462 79.5575 475.722 79.1175 475.902C78.6825 476.083 78.215 476.163 77.715 476.143ZM85.0491 476H83.7741L81.2616 468.5H82.4916L84.4266 474.222L86.3391 468.5H87.6366L89.5566 474.222L91.4691 468.5H92.7141L90.2016 476H88.9191L86.9766 470.225L85.0491 476ZM96.9355 476.195C96.2455 476.195 95.6155 476.017 95.0455 475.662C94.4805 475.307 94.028 474.832 93.688 474.237C93.353 473.637 93.1855 472.975 93.1855 472.25C93.1855 471.7 93.283 471.187 93.478 470.712C93.673 470.232 93.9405 469.812 94.2805 469.452C94.6255 469.087 95.0255 468.802 95.4805 468.597C95.9355 468.392 96.4205 468.29 96.9355 468.29C97.6255 468.29 98.253 468.467 98.818 468.822C99.388 469.177 99.8405 469.655 100.175 470.255C100.515 470.855 100.685 471.52 100.685 472.25C100.685 472.795 100.588 473.305 100.393 473.78C100.198 474.255 99.928 474.675 99.583 475.04C99.243 475.4 98.8455 475.682 98.3905 475.887C97.9405 476.093 97.4555 476.195 96.9355 476.195ZM96.9355 474.935C97.4055 474.935 97.828 474.812 98.203 474.567C98.583 474.317 98.8805 473.99 99.0955 473.585C99.3155 473.175 99.4255 472.73 99.4255 472.25C99.4255 471.76 99.313 471.31 99.088 470.9C98.868 470.49 98.5705 470.162 98.1955 469.917C97.8205 469.672 97.4005 469.55 96.9355 469.55C96.4655 469.55 96.043 469.675 95.668 469.925C95.293 470.17 94.9955 470.497 94.7755 470.907C94.5555 471.317 94.4455 471.765 94.4455 472.25C94.4455 472.75 94.558 473.205 94.783 473.615C95.008 474.02 95.3105 474.342 95.6905 474.582C96.0705 474.817 96.4855 474.935 96.9355 474.935ZM101.926 476V468.5H103.186V469.437C103.451 469.087 103.786 468.81 104.191 468.605C104.596 468.395 105.036 468.29 105.511 468.29C105.801 468.29 106.081 468.327 106.351 468.402L105.841 469.662C105.636 469.597 105.436 469.565 105.241 469.565C104.866 469.565 104.521 469.657 104.206 469.842C103.896 470.022 103.649 470.267 103.464 470.577C103.279 470.887 103.186 471.232 103.186 471.612V476H101.926ZM112.93 464.75H114.19V476H112.93V474.725C112.675 475.165 112.332 475.52 111.902 475.79C111.472 476.06 110.967 476.195 110.387 476.195C109.842 476.195 109.332 476.093 108.857 475.887C108.382 475.682 107.962 475.4 107.597 475.04C107.237 474.675 106.955 474.255 106.75 473.78C106.545 473.305 106.442 472.795 106.442 472.25C106.442 471.705 106.545 471.195 106.75 470.72C106.955 470.24 107.237 469.82 107.597 469.46C107.962 469.095 108.382 468.81 108.857 468.605C109.332 468.4 109.842 468.297 110.387 468.297C110.967 468.297 111.472 468.432 111.902 468.702C112.332 468.972 112.675 469.327 112.93 469.767V464.75ZM110.402 474.972C110.897 474.972 111.325 474.852 111.685 474.612C112.05 474.367 112.33 474.037 112.525 473.622C112.725 473.207 112.825 472.75 112.825 472.25C112.825 471.74 112.725 471.28 112.525 470.87C112.325 470.455 112.042 470.127 111.677 469.887C111.317 469.642 110.892 469.52 110.402 469.52C109.907 469.52 109.457 469.642 109.052 469.887C108.652 470.132 108.332 470.462 108.092 470.877C107.852 471.287 107.732 471.745 107.732 472.25C107.732 472.755 107.855 473.215 108.1 473.63C108.345 474.04 108.67 474.367 109.075 474.612C109.48 474.852 109.922 474.972 110.402 474.972Z" fill="#8391A1"/>
<rect x="32.5" y="513.5" width="329" height="55" rx="7.5" fill="#F7F8F9" stroke="#DADADA"/>
<path d="M57.76 546.195C57.05 546.195 56.3825 546.055 55.7575 545.775C55.1325 545.49 54.5825 545.1 54.1075 544.605C53.6375 544.105 53.2675 543.525 52.9975 542.865C52.7325 542.205 52.6 541.5 52.6 540.75C52.6 540 52.7325 539.295 52.9975 538.635C53.2675 537.975 53.6375 537.397 54.1075 536.902C54.5825 536.402 55.1325 536.012 55.7575 535.732C56.3825 535.447 57.05 535.305 57.76 535.305C58.61 535.305 59.3925 535.502 60.1075 535.897C60.8225 536.292 61.415 536.817 61.885 537.472L60.7675 538.072C60.4175 537.612 59.975 537.247 59.44 536.977C58.91 536.702 58.35 536.565 57.76 536.565C57.215 536.565 56.705 536.675 56.23 536.895C55.76 537.115 55.3475 537.417 54.9925 537.802C54.6375 538.187 54.36 538.632 54.16 539.137C53.96 539.642 53.86 540.18 53.86 540.75C53.86 541.325 53.96 541.865 54.16 542.37C54.365 542.875 54.645 543.32 55 543.705C55.36 544.09 55.775 544.392 56.245 544.612C56.72 544.827 57.225 544.935 57.76 544.935C58.37 544.935 58.935 544.797 59.455 544.522C59.98 544.242 60.4175 543.877 60.7675 543.427L61.885 544.035C61.415 544.69 60.8225 545.215 60.1075 545.61C59.3925 546 58.61 546.195 57.76 546.195ZM66.2781 546.195C65.5881 546.195 64.9581 546.017 64.3881 545.662C63.8231 545.307 63.3706 544.832 63.0306 544.237C62.6956 543.637 62.5281 542.975 62.5281 542.25C62.5281 541.7 62.6256 541.187 62.8206 540.712C63.0156 540.232 63.2831 539.812 63.6231 539.452C63.9681 539.087 64.3681 538.802 64.8231 538.597C65.2781 538.392 65.7631 538.29 66.2781 538.29C66.9681 538.29 67.5956 538.467 68.1606 538.822C68.7306 539.177 69.1831 539.655 69.5181 540.255C69.8581 540.855 70.0281 541.52 70.0281 542.25C70.0281 542.795 69.9306 543.305 69.7356 543.78C69.5406 544.255 69.2706 544.675 68.9256 545.04C68.5856 545.4 68.1881 545.682 67.7331 545.887C67.2831 546.093 66.7981 546.195 66.2781 546.195ZM66.2781 544.935C66.7481 544.935 67.1706 544.812 67.5456 544.567C67.9256 544.317 68.2231 543.99 68.4381 543.585C68.6581 543.175 68.7681 542.73 68.7681 542.25C68.7681 541.76 68.6556 541.31 68.4306 540.9C68.2106 540.49 67.9131 540.162 67.5381 539.917C67.1631 539.672 66.7431 539.55 66.2781 539.55C65.8081 539.55 65.3856 539.675 65.0106 539.925C64.6356 540.17 64.3381 540.497 64.1181 540.907C63.8981 541.317 63.7881 541.765 63.7881 542.25C63.7881 542.75 63.9006 543.205 64.1256 543.615C64.3506 544.02 64.6531 544.342 65.0331 544.582C65.4131 544.817 65.8281 544.935 66.2781 544.935ZM77.8991 541.335V546H76.6391V541.612C76.6391 541.232 76.5466 540.887 76.3616 540.577C76.1766 540.267 75.9291 540.022 75.6191 539.842C75.3091 539.657 74.9641 539.565 74.5841 539.565C74.2091 539.565 73.8641 539.657 73.5491 539.842C73.2391 540.022 72.9916 540.267 72.8066 540.577C72.6216 540.887 72.5291 541.232 72.5291 541.612V546H71.2691V538.5H72.5291V539.437C72.7941 539.087 73.1291 538.81 73.5341 538.605C73.9391 538.395 74.3791 538.29 74.8541 538.29C75.4141 538.29 75.9241 538.427 76.3841 538.702C76.8491 538.972 77.2166 539.337 77.4866 539.797C77.7616 540.257 77.8991 540.77 77.8991 541.335ZM81.1015 536.647V538.5H83.299V539.76H81.1015V546H79.8415V539.76H78.874V538.5H79.8415V536.647C79.8415 536.262 79.934 535.915 80.119 535.605C80.309 535.29 80.5615 535.04 80.8765 534.855C81.1965 534.665 81.5465 534.57 81.9265 534.57C82.2065 534.57 82.479 534.627 82.744 534.742C83.009 534.852 83.244 535.017 83.449 535.237L82.549 536.13C82.479 536.035 82.3865 535.962 82.2715 535.912C82.1615 535.857 82.0465 535.83 81.9265 535.83C81.7015 535.83 81.5065 535.91 81.3415 536.07C81.1815 536.23 81.1015 536.422 81.1015 536.647ZM84.4527 538.5H85.7127V546H84.4527V538.5ZM85.0977 537.277C84.8977 537.277 84.7302 537.212 84.5952 537.082C84.4602 536.952 84.3927 536.79 84.3927 536.595C84.3927 536.4 84.4602 536.237 84.5952 536.107C84.7302 535.977 84.8952 535.912 85.0902 535.912C85.2852 535.912 85.4502 535.977 85.5852 536.107C85.7202 536.237 85.7877 536.4 85.7877 536.595C85.7877 536.79 85.7202 536.952 85.5852 537.082C85.4552 537.212 85.2927 537.277 85.0977 537.277ZM87.4703 546V538.5H88.7303V539.437C88.9953 539.087 89.3303 538.81 89.7353 538.605C90.1403 538.395 90.5803 538.29 91.0553 538.29C91.3453 538.29 91.6253 538.327 91.8953 538.402L91.3853 539.662C91.1803 539.597 90.9803 539.565 90.7853 539.565C90.4103 539.565 90.0653 539.657 89.7503 539.842C89.4403 540.022 89.1928 540.267 89.0078 540.577C88.8228 540.887 88.7303 541.232 88.7303 541.612V546H87.4703ZM92.8463 546V538.5H94.1063V539.437C94.3713 539.087 94.7038 538.81 95.1038 538.605C95.5088 538.395 95.9488 538.29 96.4238 538.29C96.9788 538.29 97.4863 538.425 97.9463 538.695C98.4063 538.965 98.7688 539.322 99.0338 539.767C99.2988 539.322 99.6588 538.965 100.114 538.695C100.574 538.425 101.079 538.29 101.629 538.29C102.194 538.29 102.706 538.427 103.166 538.702C103.626 538.972 103.991 539.337 104.261 539.797C104.536 540.257 104.674 540.77 104.674 541.335V546H103.414V541.635C103.414 541.265 103.324 540.922 103.144 540.607C102.964 540.292 102.721 540.04 102.416 539.85C102.111 539.66 101.774 539.565 101.404 539.565C101.034 539.565 100.696 539.655 100.391 539.835C100.086 540.01 99.8438 540.255 99.6638 540.57C99.4838 540.88 99.3938 541.235 99.3938 541.635V546H98.1338V541.635C98.1338 541.235 98.0438 540.88 97.8638 540.57C97.6838 540.255 97.4388 540.01 97.1288 539.835C96.8238 539.655 96.4863 539.565 96.1163 539.565C95.7513 539.565 95.4138 539.66 95.1038 539.85C94.7988 540.04 94.5563 540.292 94.3763 540.607C94.1963 540.922 94.1063 541.265 94.1063 541.635V546H92.8463ZM111.04 549.75H109.78V538.5H111.04V539.782C111.295 539.342 111.635 538.987 112.06 538.717C112.485 538.442 112.99 538.305 113.575 538.305C114.12 538.305 114.63 538.407 115.105 538.612C115.585 538.817 116.005 539.102 116.365 539.467C116.725 539.827 117.007 540.245 117.212 540.72C117.417 541.195 117.52 541.705 117.52 542.25C117.52 542.795 117.417 543.307 117.212 543.787C117.007 544.267 116.725 544.69 116.365 545.055C116.005 545.415 115.585 545.697 115.105 545.902C114.63 546.108 114.12 546.21 113.575 546.21C112.99 546.21 112.485 546.075 112.06 545.805C111.635 545.53 111.295 545.172 111.04 544.732V549.75ZM113.56 539.527C113.075 539.527 112.65 539.65 112.285 539.895C111.92 540.14 111.637 540.467 111.437 540.877C111.242 541.287 111.145 541.745 111.145 542.25C111.145 542.75 111.242 543.207 111.437 543.622C111.637 544.037 111.917 544.367 112.277 544.612C112.642 544.857 113.07 544.98 113.56 544.98C114.045 544.98 114.49 544.86 114.895 544.62C115.3 544.375 115.625 544.047 115.87 543.637C116.115 543.222 116.237 542.76 116.237 542.25C116.237 541.75 116.117 541.295 115.877 540.885C115.637 540.47 115.315 540.14 114.91 539.895C114.505 539.65 114.055 539.527 113.56 539.527ZM124.76 538.5H126.02V546H124.76L124.708 544.732C124.473 545.167 124.148 545.52 123.733 545.79C123.323 546.06 122.833 546.195 122.263 546.195C121.713 546.195 121.198 546.093 120.718 545.887C120.238 545.677 119.813 545.39 119.443 545.025C119.078 544.655 118.793 544.23 118.588 543.75C118.383 543.27 118.28 542.752 118.28 542.197C118.28 541.662 118.38 541.157 118.58 540.682C118.78 540.207 119.058 539.792 119.413 539.437C119.773 539.077 120.188 538.797 120.658 538.597C121.128 538.392 121.633 538.29 122.173 538.29C122.763 538.29 123.28 538.43 123.725 538.71C124.17 538.985 124.53 539.342 124.805 539.782L124.76 538.5ZM122.24 544.972C122.735 544.972 123.163 544.852 123.523 544.612C123.888 544.367 124.168 544.037 124.363 543.622C124.563 543.207 124.663 542.75 124.663 542.25C124.663 541.74 124.563 541.28 124.363 540.87C124.163 540.455 123.88 540.127 123.515 539.887C123.155 539.642 122.73 539.52 122.24 539.52C121.745 539.52 121.295 539.642 120.89 539.887C120.485 540.132 120.163 540.462 119.923 540.877C119.688 541.287 119.57 541.745 119.57 542.25C119.57 542.755 119.693 543.215 119.938 543.63C120.183 544.04 120.508 544.367 120.913 544.612C121.318 544.852 121.76 544.972 122.24 544.972ZM129.807 546.143C129.402 546.128 129.007 546.053 128.622 545.917C128.242 545.777 127.907 545.59 127.617 545.355C127.332 545.115 127.124 544.84 126.994 544.53L128.074 544.065C128.149 544.235 128.284 544.395 128.479 544.545C128.674 544.695 128.899 544.815 129.154 544.905C129.409 544.995 129.667 545.04 129.927 545.04C130.202 545.04 130.459 544.997 130.699 544.912C130.939 544.827 131.134 544.702 131.284 544.537C131.439 544.367 131.517 544.165 131.517 543.93C131.517 543.68 131.432 543.485 131.262 543.345C131.097 543.2 130.887 543.087 130.632 543.007C130.382 542.922 130.127 542.842 129.867 542.767C129.352 542.637 128.892 542.482 128.487 542.302C128.082 542.117 127.762 541.885 127.527 541.605C127.297 541.32 127.182 540.957 127.182 540.517C127.182 540.052 127.309 539.65 127.564 539.31C127.824 538.97 128.164 538.707 128.584 538.522C129.004 538.337 129.454 538.245 129.934 538.245C130.539 538.245 131.092 538.375 131.592 538.635C132.092 538.895 132.464 539.247 132.709 539.692L131.697 540.285C131.612 540.105 131.482 539.947 131.307 539.812C131.132 539.672 130.932 539.562 130.707 539.482C130.482 539.402 130.252 539.36 130.017 539.355C129.727 539.345 129.454 539.382 129.199 539.467C128.949 539.552 128.747 539.682 128.592 539.857C128.442 540.027 128.367 540.24 128.367 540.495C128.367 540.745 128.447 540.935 128.607 541.065C128.772 541.195 128.984 541.3 129.244 541.38C129.509 541.455 129.797 541.542 130.107 541.642C130.562 541.787 130.987 541.955 131.382 542.145C131.777 542.335 132.094 542.572 132.334 542.857C132.579 543.142 132.699 543.495 132.694 543.915C132.694 544.375 132.557 544.777 132.282 545.122C132.007 545.462 131.649 545.722 131.209 545.902C130.774 546.083 130.307 546.163 129.807 546.143ZM136.267 546.143C135.862 546.128 135.467 546.053 135.082 545.917C134.702 545.777 134.367 545.59 134.077 545.355C133.792 545.115 133.584 544.84 133.454 544.53L134.534 544.065C134.609 544.235 134.744 544.395 134.939 544.545C135.134 544.695 135.359 544.815 135.614 544.905C135.869 544.995 136.127 545.04 136.387 545.04C136.662 545.04 136.919 544.997 137.159 544.912C137.399 544.827 137.594 544.702 137.744 544.537C137.899 544.367 137.977 544.165 137.977 543.93C137.977 543.68 137.892 543.485 137.722 543.345C137.557 543.2 137.347 543.087 137.092 543.007C136.842 542.922 136.587 542.842 136.327 542.767C135.812 542.637 135.352 542.482 134.947 542.302C134.542 542.117 134.222 541.885 133.987 541.605C133.757 541.32 133.642 540.957 133.642 540.517C133.642 540.052 133.769 539.65 134.024 539.31C134.284 538.97 134.624 538.707 135.044 538.522C135.464 538.337 135.914 538.245 136.394 538.245C136.999 538.245 137.552 538.375 138.052 538.635C138.552 538.895 138.924 539.247 139.169 539.692L138.157 540.285C138.072 540.105 137.942 539.947 137.767 539.812C137.592 539.672 137.392 539.562 137.167 539.482C136.942 539.402 136.712 539.36 136.477 539.355C136.187 539.345 135.914 539.382 135.659 539.467C135.409 539.552 135.207 539.682 135.052 539.857C134.902 540.027 134.827 540.24 134.827 540.495C134.827 540.745 134.907 540.935 135.067 541.065C135.232 541.195 135.444 541.3 135.704 541.38C135.969 541.455 136.257 541.542 136.567 541.642C137.022 541.787 137.447 541.955 137.842 542.145C138.237 542.335 138.554 542.572 138.794 542.857C139.039 543.142 139.159 543.495 139.154 543.915C139.154 544.375 139.017 544.777 138.742 545.122C138.467 545.462 138.109 545.722 137.669 545.902C137.234 546.083 136.767 546.163 136.267 546.143ZM143.601 546H142.326L139.813 538.5H141.043L142.978 544.222L144.891 538.5H146.188L148.108 544.222L150.021 538.5H151.266L148.753 546H147.471L145.528 540.225L143.601 546ZM155.487 546.195C154.797 546.195 154.167 546.017 153.597 545.662C153.032 545.307 152.58 544.832 152.24 544.237C151.905 543.637 151.737 542.975 151.737 542.25C151.737 541.7 151.835 541.187 152.03 540.712C152.225 540.232 152.492 539.812 152.832 539.452C153.177 539.087 153.577 538.802 154.032 538.597C154.487 538.392 154.972 538.29 155.487 538.29C156.177 538.29 156.805 538.467 157.37 538.822C157.94 539.177 158.392 539.655 158.727 540.255C159.067 540.855 159.237 541.52 159.237 542.25C159.237 542.795 159.14 543.305 158.945 543.78C158.75 544.255 158.48 544.675 158.135 545.04C157.795 545.4 157.397 545.682 156.942 545.887C156.492 546.093 156.007 546.195 155.487 546.195ZM155.487 544.935C155.957 544.935 156.38 544.812 156.755 544.567C157.135 544.317 157.432 543.99 157.647 543.585C157.867 543.175 157.977 542.73 157.977 542.25C157.977 541.76 157.865 541.31 157.64 540.9C157.42 540.49 157.122 540.162 156.747 539.917C156.372 539.672 155.952 539.55 155.487 539.55C155.017 539.55 154.595 539.675 154.22 539.925C153.845 540.17 153.547 540.497 153.327 540.907C153.107 541.317 152.997 541.765 152.997 542.25C152.997 542.75 153.11 543.205 153.335 543.615C153.56 544.02 153.862 544.342 154.242 544.582C154.622 544.817 155.037 544.935 155.487 544.935ZM160.478 546V538.5H161.738V539.437C162.003 539.087 162.338 538.81 162.743 538.605C163.148 538.395 163.588 538.29 164.063 538.29C164.353 538.29 164.633 538.327 164.903 538.402L164.393 539.662C164.188 539.597 163.988 539.565 163.793 539.565C163.418 539.565 163.073 539.657 162.758 539.842C162.448 540.022 162.201 540.267 162.016 540.577C161.831 540.887 161.738 541.232 161.738 541.612V546H160.478ZM171.481 534.75H172.741V546H171.481V544.725C171.226 545.165 170.884 545.52 170.454 545.79C170.024 546.06 169.519 546.195 168.939 546.195C168.394 546.195 167.884 546.093 167.409 545.887C166.934 545.682 166.514 545.4 166.149 545.04C165.789 544.675 165.506 544.255 165.301 543.78C165.096 543.305 164.994 542.795 164.994 542.25C164.994 541.705 165.096 541.195 165.301 540.72C165.506 540.24 165.789 539.82 166.149 539.46C166.514 539.095 166.934 538.81 167.409 538.605C167.884 538.4 168.394 538.297 168.939 538.297C169.519 538.297 170.024 538.432 170.454 538.702C170.884 538.972 171.226 539.327 171.481 539.767V534.75ZM168.954 544.972C169.449 544.972 169.876 544.852 170.236 544.612C170.601 544.367 170.881 544.037 171.076 543.622C171.276 543.207 171.376 542.75 171.376 542.25C171.376 541.74 171.276 541.28 171.076 540.87C170.876 540.455 170.594 540.127 170.229 539.887C169.869 539.642 169.444 539.52 168.954 539.52C168.459 539.52 168.009 539.642 167.604 539.887C167.204 540.132 166.884 540.462 166.644 540.877C166.404 541.287 166.284 541.745 166.284 542.25C166.284 542.755 166.406 543.215 166.651 543.63C166.896 544.04 167.221 544.367 167.626 544.612C168.031 544.852 168.474 544.972 168.954 544.972Z" fill="#8391A1"/>
<g clip-path="url(#clip0_2_45)">
<path d="M86.7956 754V743.07H90.3496L90.8779 738.791H86.7956V736.065C86.7956 734.83 87.1272 733.985 88.8355 733.985H91V730.17C89.9468 730.052 88.8882 729.996 87.829 730C84.6877 730 82.5308 731.99 82.5308 735.642V738.783H79V743.062H82.5386V754H86.7956Z" fill="#4092FF"/>
<rect x="32.5" y="714.5" width="104" height="55" rx="7.5" stroke="#DADADA"/>
<g clip-path="url(#clip1_2_45)">
<path d="M304.668 754.513C304.156 754.172 303.701 753.751 303.323 753.265C302.906 752.764 302.521 752.238 302.168 751.691C301.339 750.477 300.689 749.15 300.238 747.751C299.696 746.126 299.433 744.568 299.433 743.045C299.433 741.343 299.802 739.858 300.521 738.61C301.055 737.635 301.84 736.82 302.794 736.249C303.719 735.675 304.782 735.36 305.87 735.339C306.251 735.339 306.661 735.394 307.097 735.5C307.41 735.589 307.791 735.728 308.256 735.902C308.849 736.13 309.175 736.27 309.285 736.304C309.632 736.431 309.924 736.486 310.153 736.486C310.327 736.486 310.572 736.431 310.851 736.347C311.008 736.291 311.303 736.194 311.727 736.013C312.146 735.86 312.476 735.729 312.738 735.632C313.14 735.513 313.53 735.403 313.876 735.348C314.288 735.283 314.705 735.266 315.12 735.297C315.84 735.344 316.549 735.496 317.224 735.749C318.328 736.194 319.221 736.888 319.886 737.874C319.605 738.047 319.341 738.247 319.098 738.47C318.57 738.939 318.12 739.489 317.765 740.1C317.301 740.934 317.061 741.874 317.067 742.829C317.084 744.001 317.385 745.034 317.977 745.927C318.413 746.589 318.979 747.154 319.64 747.59C319.979 747.818 320.271 747.975 320.55 748.081C320.42 748.487 320.28 748.88 320.115 749.27C319.741 750.145 319.287 750.983 318.76 751.775C318.291 752.457 317.923 752.965 317.643 753.303C317.208 753.819 316.788 754.213 316.365 754.487C315.9 754.796 315.35 754.961 314.791 754.961C314.412 754.975 314.033 754.93 313.669 754.825C313.356 754.72 313.047 754.605 312.742 754.474C312.425 754.329 312.099 754.206 311.765 754.106C310.939 753.894 310.073 753.893 309.247 754.102C308.908 754.2 308.582 754.313 308.26 754.453C307.808 754.643 307.507 754.771 307.333 754.825C306.986 754.927 306.627 754.99 306.263 755.011C305.699 755.011 305.175 754.85 304.655 754.525L304.668 754.513ZM312.095 734.514C311.359 734.882 310.656 735.038 309.958 734.987C309.848 734.284 309.958 733.565 310.249 732.778C310.498 732.111 310.865 731.494 311.333 730.958C311.827 730.393 312.426 729.931 313.097 729.596C313.812 729.227 314.494 729.028 315.146 728.999C315.23 729.735 315.146 730.459 314.875 731.242C314.625 731.933 314.258 732.577 313.792 733.146C313.316 733.712 312.732 734.176 312.074 734.513L312.095 734.514Z" fill="black"/>
</g>
<rect x="257.5" y="714.5" width="104" height="55" rx="7.5" stroke="#DADADA"/>
<path d="M191.42 744.466L190.597 747.537L187.59 747.601C186.692 745.934 186.182 744.027 186.182 742C186.182 740.04 186.658 738.192 187.503 736.565H187.504L190.181 737.056L191.354 739.717C191.108 740.432 190.975 741.201 190.975 742C190.975 742.868 191.132 743.699 191.42 744.466Z" fill="#FBBB00"/>
<path d="M209.612 739.792C209.747 740.507 209.818 741.245 209.818 742C209.818 742.846 209.729 743.671 209.56 744.467C208.984 747.177 207.481 749.542 205.399 751.216L205.398 751.215L202.026 751.043L201.549 748.064C202.931 747.254 204.01 745.986 204.579 744.467H198.26V739.792H204.672H209.612Z" fill="#518EF8"/>
<path d="M205.398 751.216L205.399 751.216C203.373 752.844 200.801 753.818 198 753.818C193.499 753.818 189.586 751.303 187.59 747.601L191.42 744.466C192.418 747.129 194.988 749.025 198 749.025C199.295 749.025 200.508 748.675 201.549 748.064L205.398 751.216Z" fill="#28B446"/>
<path d="M205.544 732.903L201.715 736.037C200.638 735.364 199.364 734.975 198 734.975C194.92 734.975 192.302 736.958 191.354 739.717L187.504 736.565H187.503C189.47 732.773 193.433 730.182 198 730.182C200.868 730.182 203.497 731.203 205.544 732.903Z" fill="#F14336"/>
<rect x="145.5" y="714.5" width="104" height="55" rx="7.5" stroke="#DADADA"/>
<path d="M161.015 688.182C160.353 688.182 159.73 688.051 159.146 687.79C158.563 687.524 158.05 687.158 157.606 686.691C157.163 686.224 156.815 685.685 156.563 685.074C156.311 684.458 156.185 683.8 156.185 683.1C156.185 682.4 156.311 681.744 156.563 681.133C156.815 680.517 157.163 679.976 157.606 679.509C158.05 679.042 158.563 678.678 159.146 678.417C159.73 678.151 160.353 678.018 161.015 678.018C161.683 678.018 162.308 678.151 162.891 678.417C163.475 678.678 163.988 679.042 164.431 679.509C164.875 679.976 165.22 680.517 165.467 681.133C165.719 681.744 165.845 682.4 165.845 683.1C165.845 683.8 165.719 684.458 165.467 685.074C165.22 685.685 164.875 686.224 164.431 686.691C163.988 687.158 163.475 687.524 162.891 687.79C162.308 688.051 161.683 688.182 161.015 688.182ZM161.015 686.726C161.482 686.726 161.918 686.63 162.324 686.439C162.73 686.248 163.087 685.986 163.395 685.655C163.708 685.319 163.951 684.934 164.123 684.5C164.301 684.061 164.389 683.595 164.389 683.1C164.389 682.605 164.301 682.139 164.123 681.7C163.951 681.261 163.708 680.876 163.395 680.545C163.087 680.209 162.73 679.948 162.324 679.761C161.918 679.57 161.482 679.474 161.015 679.474C160.549 679.474 160.112 679.57 159.706 679.761C159.3 679.952 158.941 680.216 158.628 680.552C158.32 680.883 158.078 681.268 157.9 681.707C157.728 682.141 157.641 682.605 157.641 683.1C157.641 683.599 157.728 684.068 157.9 684.507C158.078 684.941 158.32 685.326 158.628 685.662C158.941 685.993 159.3 686.255 159.706 686.446C160.112 686.633 160.549 686.726 161.015 686.726ZM167.184 688V681H168.64V681.742C168.883 681.453 169.181 681.224 169.536 681.056C169.891 680.888 170.273 680.804 170.684 680.804C170.945 680.804 171.204 680.839 171.461 680.909L170.88 682.379C170.698 682.309 170.516 682.274 170.334 682.274C170.026 682.274 169.744 682.351 169.487 682.505C169.23 682.654 169.025 682.857 168.871 683.114C168.717 683.371 168.64 683.655 168.64 683.968V688H167.184ZM175.811 688V678.2H177.267V686.544H181.488V688H175.811ZM185.481 688.182C184.837 688.182 184.249 688.016 183.717 687.685C183.19 687.354 182.767 686.91 182.45 686.355C182.137 685.795 181.981 685.177 181.981 684.5C181.981 683.987 182.072 683.508 182.254 683.065C182.436 682.617 182.686 682.225 183.003 681.889C183.325 681.548 183.698 681.282 184.123 681.091C184.548 680.9 185 680.804 185.481 680.804C186.125 680.804 186.711 680.97 187.238 681.301C187.77 681.632 188.192 682.078 188.505 682.638C188.822 683.198 188.981 683.819 188.981 684.5C188.981 685.009 188.89 685.485 188.708 685.928C188.526 686.371 188.274 686.763 187.952 687.104C187.635 687.44 187.264 687.704 186.839 687.895C186.419 688.086 185.966 688.182 185.481 688.182ZM185.481 686.726C185.868 686.726 186.216 686.623 186.524 686.418C186.832 686.213 187.075 685.942 187.252 685.606C187.434 685.265 187.525 684.897 187.525 684.5C187.525 684.094 187.432 683.721 187.245 683.38C187.063 683.039 186.818 682.769 186.51 682.568C186.202 682.363 185.859 682.26 185.481 682.26C185.098 682.26 184.751 682.363 184.438 682.568C184.13 682.773 183.885 683.046 183.703 683.387C183.526 683.728 183.437 684.099 183.437 684.5C183.437 684.915 183.53 685.291 183.717 685.627C183.904 685.963 184.151 686.231 184.459 686.432C184.772 686.628 185.112 686.726 185.481 686.726ZM195.425 681H196.881V688.182C196.881 688.663 196.779 689.106 196.573 689.512C196.373 689.918 196.1 690.268 195.754 690.562C195.409 690.861 195.012 691.092 194.564 691.255C194.121 691.418 193.657 691.5 193.171 691.5C192.681 691.5 192.21 691.395 191.757 691.185C191.305 690.98 190.906 690.7 190.56 690.345C190.22 689.99 189.965 689.589 189.797 689.141L191.134 688.539C191.228 688.828 191.377 689.085 191.582 689.309C191.792 689.533 192.035 689.71 192.31 689.841C192.59 689.972 192.877 690.037 193.171 690.037C193.461 690.037 193.738 689.99 194.004 689.897C194.275 689.808 194.515 689.682 194.725 689.519C194.94 689.356 195.11 689.16 195.236 688.931C195.362 688.702 195.425 688.453 195.425 688.182V686.999C195.197 687.354 194.903 687.641 194.543 687.86C194.184 688.075 193.766 688.182 193.29 688.182C192.796 688.182 192.329 688.086 191.89 687.895C191.452 687.704 191.067 687.44 190.735 687.104C190.404 686.763 190.145 686.371 189.958 685.928C189.772 685.485 189.678 685.009 189.678 684.5C189.678 683.991 189.772 683.515 189.958 683.072C190.145 682.624 190.404 682.232 190.735 681.896C191.067 681.555 191.452 681.289 191.89 681.098C192.329 680.907 192.796 680.811 193.29 680.811C193.766 680.811 194.184 680.921 194.543 681.14C194.903 681.355 195.197 681.642 195.425 682.001V681ZM193.304 686.775C193.71 686.775 194.065 686.672 194.368 686.467C194.672 686.257 194.907 685.979 195.075 685.634C195.243 685.289 195.327 684.911 195.327 684.5C195.327 684.08 195.241 683.7 195.068 683.359C194.9 683.014 194.665 682.738 194.361 682.533C194.058 682.323 193.706 682.218 193.304 682.218C192.912 682.218 192.553 682.321 192.226 682.526C191.904 682.731 191.648 683.007 191.456 683.352C191.265 683.697 191.169 684.08 191.169 684.5C191.169 684.92 191.265 685.303 191.456 685.648C191.652 685.993 191.911 686.269 192.233 686.474C192.56 686.675 192.917 686.775 193.304 686.775ZM198.438 681H199.894V688H198.438V681ZM199.18 679.985C198.956 679.985 198.769 679.913 198.62 679.768C198.471 679.623 198.396 679.441 198.396 679.222C198.396 679.007 198.471 678.828 198.62 678.683C198.769 678.534 198.954 678.459 199.173 678.459C199.388 678.459 199.57 678.534 199.719 678.683C199.868 678.828 199.943 679.007 199.943 679.222C199.943 679.441 199.868 679.623 199.719 679.768C199.574 679.913 199.395 679.985 199.18 679.985ZM207.814 683.611V688H206.358V683.968C206.358 683.655 206.281 683.371 206.127 683.114C205.978 682.857 205.775 682.654 205.518 682.505C205.266 682.351 204.982 682.274 204.664 682.274C204.356 682.274 204.074 682.351 203.817 682.505C203.561 682.654 203.355 682.857 203.201 683.114C203.047 683.371 202.97 683.655 202.97 683.968V688H201.514V681H202.97V681.742C203.213 681.453 203.512 681.224 203.866 681.056C204.221 680.888 204.604 680.804 205.014 680.804C205.532 680.804 206.004 680.93 206.428 681.182C206.853 681.434 207.189 681.772 207.436 682.197C207.688 682.622 207.814 683.093 207.814 683.611ZM215.949 688H214.5L212.155 681H213.583L215.235 685.914L216.873 681H218.343L219.981 685.914L221.626 681H223.054L220.716 688H219.253L217.601 683.051L215.949 688ZM224.141 681H225.597V688H224.141V681ZM224.883 679.985C224.659 679.985 224.472 679.913 224.323 679.768C224.174 679.623 224.099 679.441 224.099 679.222C224.099 679.007 224.174 678.828 224.323 678.683C224.472 678.534 224.657 678.459 224.876 678.459C225.091 678.459 225.273 678.534 225.422 678.683C225.571 678.828 225.646 679.007 225.646 679.222C225.646 679.441 225.571 679.623 225.422 679.768C225.277 679.913 225.098 679.985 224.883 679.985ZM230.968 682.456H229.498L229.491 688H228.035L228.042 682.456H226.929V681H228.042L228.035 678.802H229.491L229.498 681H230.968V682.456ZM238.521 683.611V688H237.065V683.968C237.065 683.655 236.988 683.371 236.834 683.114C236.685 682.857 236.482 682.654 236.225 682.505C235.973 682.351 235.689 682.274 235.371 682.274C235.063 682.274 234.781 682.351 234.524 682.505C234.268 682.654 234.062 682.857 233.908 683.114C233.754 683.371 233.677 683.655 233.677 683.968V688H232.221V677.5H233.677V681.742C233.92 681.453 234.219 681.224 234.573 681.056C234.928 680.888 235.311 680.804 235.721 680.804C236.239 680.804 236.711 680.93 237.135 681.182C237.56 681.434 237.896 681.772 238.143 682.197C238.395 682.622 238.521 683.093 238.521 683.611Z" fill="#6A707C"/>
<line x1="32" y1="683.5" x2="143.662" y2="683.5" stroke="#E8ECF4"/>
<line x1="251.335" y1="683.5" x2="362" y2="683.5" stroke="#E8ECF4"/>
</g>
<rect x="32" y="589" width="330" height="56" rx="8" fill="#1E232C"/>
<path d="M137.743 611.5H139.565L143.383 622H141.733L141.005 620.005H136.303L135.583 622H133.925L137.743 611.5ZM136.88 618.445H140.428L138.65 613.57L136.88 618.445ZM149.85 614.5H151.41V622.195C151.41 622.71 151.3 623.185 151.08 623.62C150.865 624.055 150.572 624.43 150.202 624.745C149.832 625.065 149.407 625.313 148.927 625.488C148.452 625.663 147.955 625.75 147.435 625.75C146.91 625.75 146.405 625.638 145.92 625.413C145.435 625.193 145.007 624.893 144.637 624.513C144.272 624.133 144 623.703 143.82 623.223L145.252 622.578C145.352 622.888 145.512 623.163 145.732 623.403C145.957 623.643 146.217 623.833 146.512 623.973C146.812 624.113 147.12 624.183 147.435 624.183C147.745 624.183 148.042 624.133 148.327 624.033C148.617 623.938 148.875 623.803 149.1 623.628C149.33 623.453 149.512 623.243 149.647 622.998C149.782 622.753 149.85 622.485 149.85 622.195V620.927C149.605 621.307 149.29 621.615 148.905 621.85C148.52 622.08 148.072 622.195 147.562 622.195C147.032 622.195 146.532 622.093 146.062 621.887C145.592 621.682 145.18 621.4 144.825 621.04C144.47 620.675 144.192 620.255 143.992 619.78C143.792 619.305 143.692 618.795 143.692 618.25C143.692 617.705 143.792 617.195 143.992 616.72C144.192 616.24 144.47 615.82 144.825 615.46C145.18 615.095 145.592 614.81 146.062 614.605C146.532 614.4 147.032 614.297 147.562 614.297C148.072 614.297 148.52 614.415 148.905 614.65C149.29 614.88 149.605 615.187 149.85 615.572V614.5ZM147.577 620.687C148.012 620.687 148.392 620.577 148.717 620.357C149.042 620.132 149.295 619.835 149.475 619.465C149.655 619.095 149.745 618.69 149.745 618.25C149.745 617.8 149.652 617.392 149.467 617.027C149.287 616.657 149.035 616.362 148.71 616.142C148.385 615.917 148.007 615.805 147.577 615.805C147.157 615.805 146.772 615.915 146.422 616.135C146.077 616.355 145.802 616.65 145.597 617.02C145.392 617.39 145.29 617.8 145.29 618.25C145.29 618.7 145.392 619.11 145.597 619.48C145.807 619.85 146.085 620.145 146.43 620.365C146.78 620.58 147.162 620.687 147.577 620.687ZM153.21 622V614.5H154.77V615.295C155.03 614.985 155.35 614.74 155.73 614.56C156.11 614.38 156.52 614.29 156.96 614.29C157.24 614.29 157.517 614.327 157.792 614.402L157.17 615.977C156.975 615.902 156.78 615.865 156.585 615.865C156.255 615.865 155.952 615.947 155.677 616.112C155.402 616.272 155.182 616.49 155.017 616.765C154.852 617.04 154.77 617.345 154.77 617.68V622H153.21ZM161.607 622.195C160.917 622.195 160.287 622.017 159.717 621.662C159.152 621.307 158.7 620.832 158.36 620.237C158.025 619.637 157.857 618.975 157.857 618.25C157.857 617.7 157.955 617.187 158.15 616.712C158.345 616.232 158.612 615.812 158.952 615.452C159.297 615.087 159.697 614.802 160.152 614.597C160.607 614.392 161.092 614.29 161.607 614.29C162.182 614.29 162.71 614.41 163.19 614.65C163.67 614.885 164.08 615.212 164.42 615.632C164.76 616.047 165.01 616.527 165.17 617.072C165.33 617.612 165.377 618.187 165.312 618.797H159.53C159.595 619.142 159.72 619.455 159.905 619.735C160.095 620.01 160.335 620.227 160.625 620.387C160.92 620.547 161.247 620.63 161.607 620.635C161.987 620.635 162.332 620.54 162.642 620.35C162.957 620.16 163.215 619.897 163.415 619.562L164.997 619.93C164.697 620.595 164.245 621.14 163.64 621.565C163.035 621.985 162.357 622.195 161.607 622.195ZM159.477 617.605H163.737C163.687 617.245 163.56 616.92 163.355 616.63C163.155 616.335 162.902 616.102 162.597 615.932C162.297 615.757 161.967 615.67 161.607 615.67C161.252 615.67 160.922 615.755 160.617 615.925C160.317 616.095 160.067 616.327 159.867 616.622C159.672 616.912 159.542 617.24 159.477 617.605ZM169.84 622.195C169.15 622.195 168.52 622.017 167.95 621.662C167.385 621.307 166.932 620.832 166.592 620.237C166.257 619.637 166.09 618.975 166.09 618.25C166.09 617.7 166.187 617.187 166.382 616.712C166.577 616.232 166.845 615.812 167.185 615.452C167.53 615.087 167.93 614.802 168.385 614.597C168.84 614.392 169.325 614.29 169.84 614.29C170.415 614.29 170.942 614.41 171.422 614.65C171.902 614.885 172.312 615.212 172.652 615.632C172.992 616.047 173.242 616.527 173.402 617.072C173.562 617.612 173.61 618.187 173.545 618.797H167.762C167.827 619.142 167.952 619.455 168.137 619.735C168.327 620.01 168.567 620.227 168.857 620.387C169.152 620.547 169.48 620.63 169.84 620.635C170.22 620.635 170.565 620.54 170.875 620.35C171.19 620.16 171.447 619.897 171.647 619.562L173.23 619.93C172.93 620.595 172.477 621.14 171.872 621.565C171.267 621.985 170.59 622.195 169.84 622.195ZM167.71 617.605H171.97C171.92 617.245 171.792 616.92 171.587 616.63C171.387 616.335 171.135 616.102 170.83 615.932C170.53 615.757 170.2 615.67 169.84 615.67C169.485 615.67 169.155 615.755 168.85 615.925C168.55 616.095 168.3 616.327 168.1 616.622C167.905 616.912 167.775 617.24 167.71 617.605ZM184.357 614.5H185.917V622H184.35L184.29 620.912C184.07 621.297 183.772 621.607 183.397 621.842C183.022 622.077 182.58 622.195 182.07 622.195C181.52 622.195 181.002 622.093 180.517 621.887C180.032 621.677 179.605 621.387 179.235 621.017C178.87 620.647 178.585 620.222 178.38 619.742C178.175 619.257 178.072 618.737 178.072 618.182C178.072 617.647 178.172 617.145 178.372 616.675C178.572 616.2 178.85 615.785 179.205 615.43C179.56 615.075 179.97 614.797 180.435 614.597C180.905 614.392 181.407 614.29 181.942 614.29C182.487 614.29 182.967 614.415 183.382 614.665C183.802 614.91 184.15 615.225 184.425 615.61L184.357 614.5ZM182.032 620.687C182.472 620.687 182.857 620.58 183.187 620.365C183.517 620.145 183.772 619.85 183.952 619.48C184.137 619.11 184.23 618.7 184.23 618.25C184.23 617.795 184.137 617.382 183.952 617.012C183.767 616.642 183.51 616.35 183.18 616.135C182.855 615.915 182.472 615.805 182.032 615.805C181.597 615.805 181.2 615.915 180.84 616.135C180.48 616.355 180.195 616.65 179.985 617.02C179.775 617.39 179.67 617.8 179.67 618.25C179.67 618.705 179.777 619.117 179.992 619.487C180.212 619.852 180.5 620.145 180.855 620.365C181.215 620.58 181.607 620.687 182.032 620.687ZM194.164 617.297V622H192.604V617.68C192.604 617.345 192.521 617.04 192.356 616.765C192.196 616.49 191.979 616.272 191.704 616.112C191.434 615.947 191.129 615.865 190.789 615.865C190.459 615.865 190.156 615.947 189.881 616.112C189.606 616.272 189.386 616.49 189.221 616.765C189.056 617.04 188.974 617.345 188.974 617.68V622H187.414V614.5H188.974V615.295C189.234 614.985 189.554 614.74 189.934 614.56C190.314 614.38 190.724 614.29 191.164 614.29C191.719 614.29 192.224 614.425 192.679 614.695C193.134 614.965 193.494 615.327 193.759 615.782C194.029 616.237 194.164 616.742 194.164 617.297ZM201.357 610.75H202.917V622H201.357V620.898C201.112 621.287 200.792 621.602 200.397 621.842C200.002 622.077 199.539 622.195 199.009 622.195C198.464 622.195 197.954 622.093 197.479 621.887C197.004 621.682 196.584 621.4 196.219 621.04C195.859 620.675 195.577 620.255 195.372 619.78C195.167 619.305 195.064 618.795 195.064 618.25C195.064 617.705 195.167 617.195 195.372 616.72C195.577 616.24 195.859 615.82 196.219 615.46C196.584 615.095 197.004 614.81 197.479 614.605C197.954 614.4 198.464 614.297 199.009 614.297C199.539 614.297 200.002 614.417 200.397 614.657C200.792 614.892 201.112 615.202 201.357 615.587V610.75ZM199.024 620.687C199.464 620.687 199.849 620.58 200.179 620.365C200.509 620.145 200.764 619.85 200.944 619.48C201.129 619.11 201.222 618.7 201.222 618.25C201.222 617.795 201.129 617.382 200.944 617.012C200.759 616.642 200.502 616.35 200.172 616.135C199.847 615.915 199.464 615.805 199.024 615.805C198.589 615.805 198.192 615.915 197.832 616.135C197.477 616.355 197.192 616.65 196.977 617.02C196.767 617.39 196.662 617.8 196.662 618.25C196.662 618.705 196.769 619.117 196.984 619.487C197.204 619.852 197.492 620.145 197.847 620.365C198.207 620.58 198.599 620.687 199.024 620.687ZM208.317 622V611.5H212.179C212.749 611.5 213.262 611.64 213.717 611.92C214.172 612.2 214.532 612.577 214.797 613.052C215.067 613.522 215.202 614.047 215.202 614.627C215.202 615.117 215.109 615.565 214.924 615.97C214.744 616.375 214.489 616.72 214.159 617.005C213.834 617.29 213.462 617.495 213.042 617.62L215.577 622H213.769L211.309 617.763H209.877V622H208.317ZM209.877 616.202H212.014C212.314 616.202 212.587 616.127 212.832 615.977C213.082 615.827 213.279 615.627 213.424 615.377C213.569 615.127 213.642 614.845 213.642 614.53C213.642 614.215 213.569 613.932 213.424 613.682C213.279 613.427 213.082 613.227 212.832 613.082C212.587 612.932 212.314 612.857 212.014 612.857H209.877V616.202ZM219.952 622.195C219.262 622.195 218.632 622.017 218.062 621.662C217.497 621.307 217.044 620.832 216.704 620.237C216.369 619.637 216.202 618.975 216.202 618.25C216.202 617.7 216.299 617.187 216.494 616.712C216.689 616.232 216.957 615.812 217.297 615.452C217.642 615.087 218.042 614.802 218.497 614.597C218.952 614.392 219.437 614.29 219.952 614.29C220.527 614.29 221.054 614.41 221.534 614.65C222.014 614.885 222.424 615.212 222.764 615.632C223.104 616.047 223.354 616.527 223.514 617.072C223.674 617.612 223.722 618.187 223.657 618.797H217.874C217.939 619.142 218.064 619.455 218.249 619.735C218.439 620.01 218.679 620.227 218.969 620.387C219.264 620.547 219.592 620.63 219.952 620.635C220.332 620.635 220.677 620.54 220.987 620.35C221.302 620.16 221.559 619.897 221.759 619.562L223.342 619.93C223.042 620.595 222.589 621.14 221.984 621.565C221.379 621.985 220.702 622.195 219.952 622.195ZM217.822 617.605H222.082C222.032 617.245 221.904 616.92 221.699 616.63C221.499 616.335 221.247 616.102 220.942 615.932C220.642 615.757 220.312 615.67 219.952 615.67C219.597 615.67 219.267 615.755 218.962 615.925C218.662 616.095 218.412 616.327 218.212 616.622C218.017 616.912 217.887 617.24 217.822 617.605ZM230.592 614.5H232.152V622.195C232.152 622.71 232.042 623.185 231.822 623.62C231.607 624.055 231.314 624.43 230.944 624.745C230.574 625.065 230.149 625.313 229.669 625.488C229.194 625.663 228.697 625.75 228.177 625.75C227.652 625.75 227.147 625.638 226.662 625.413C226.177 625.193 225.749 624.893 225.379 624.513C225.014 624.133 224.742 623.703 224.562 623.223L225.994 622.578C226.094 622.888 226.254 623.163 226.474 623.403C226.699 623.643 226.959 623.833 227.254 623.973C227.554 624.113 227.862 624.183 228.177 624.183C228.487 624.183 228.784 624.133 229.069 624.033C229.359 623.938 229.617 623.803 229.842 623.628C230.072 623.453 230.254 623.243 230.389 622.998C230.524 622.753 230.592 622.485 230.592 622.195V620.927C230.347 621.307 230.032 621.615 229.647 621.85C229.262 622.08 228.814 622.195 228.304 622.195C227.774 622.195 227.274 622.093 226.804 621.887C226.334 621.682 225.922 621.4 225.567 621.04C225.212 620.675 224.934 620.255 224.734 619.78C224.534 619.305 224.434 618.795 224.434 618.25C224.434 617.705 224.534 617.195 224.734 616.72C224.934 616.24 225.212 615.82 225.567 615.46C225.922 615.095 226.334 614.81 226.804 614.605C227.274 614.4 227.774 614.297 228.304 614.297C228.814 614.297 229.262 614.415 229.647 614.65C230.032 614.88 230.347 615.187 230.592 615.572V614.5ZM228.319 620.687C228.754 620.687 229.134 620.577 229.459 620.357C229.784 620.132 230.037 619.835 230.217 619.465C230.397 619.095 230.487 618.69 230.487 618.25C230.487 617.8 230.394 617.392 230.209 617.027C230.029 616.657 229.777 616.362 229.452 616.142C229.127 615.917 228.749 615.805 228.319 615.805C227.899 615.805 227.514 615.915 227.164 616.135C226.819 616.355 226.544 616.65 226.339 617.02C226.134 617.39 226.032 617.8 226.032 618.25C226.032 618.7 226.134 619.11 226.339 619.48C226.549 619.85 226.827 620.145 227.172 620.365C227.522 620.58 227.904 620.687 228.319 620.687ZM233.82 614.5H235.38V622H233.82V614.5ZM234.615 613.412C234.375 613.412 234.175 613.335 234.015 613.18C233.855 613.025 233.775 612.83 233.775 612.595C233.775 612.365 233.855 612.172 234.015 612.017C234.175 611.857 234.372 611.777 234.607 611.777C234.837 611.777 235.032 611.857 235.192 612.017C235.352 612.172 235.432 612.365 235.432 612.595C235.432 612.83 235.352 613.025 235.192 613.18C235.037 613.335 234.845 613.412 234.615 613.412ZM239.322 622.143C238.927 622.118 238.542 622.038 238.167 621.902C237.792 621.767 237.462 621.585 237.177 621.355C236.897 621.12 236.687 620.845 236.547 620.53L237.874 619.96C237.939 620.095 238.052 620.227 238.212 620.357C238.377 620.487 238.569 620.595 238.789 620.68C239.009 620.76 239.239 620.8 239.479 620.8C239.714 620.8 239.932 620.767 240.132 620.702C240.337 620.632 240.504 620.527 240.634 620.387C240.764 620.247 240.829 620.08 240.829 619.885C240.829 619.665 240.754 619.495 240.604 619.375C240.459 619.25 240.277 619.155 240.057 619.09C239.837 619.025 239.617 618.962 239.397 618.902C238.907 618.792 238.457 618.642 238.047 618.452C237.642 618.257 237.319 618.01 237.079 617.71C236.839 617.405 236.719 617.032 236.719 616.592C236.719 616.112 236.849 615.697 237.109 615.347C237.369 614.992 237.709 614.72 238.129 614.53C238.554 614.34 239.007 614.245 239.487 614.245C240.087 614.245 240.637 614.372 241.137 614.627C241.637 614.882 242.019 615.232 242.284 615.677L241.047 616.412C240.972 616.262 240.859 616.127 240.709 616.007C240.559 615.887 240.389 615.792 240.199 615.722C240.009 615.647 239.812 615.605 239.607 615.595C239.352 615.585 239.114 615.615 238.894 615.685C238.679 615.75 238.507 615.855 238.377 616C238.247 616.145 238.182 616.33 238.182 616.555C238.182 616.775 238.259 616.94 238.414 617.05C238.569 617.155 238.764 617.24 238.999 617.305C239.239 617.37 239.484 617.442 239.734 617.522C240.179 617.662 240.597 617.835 240.987 618.04C241.377 618.24 241.692 618.487 241.932 618.782C242.172 619.077 242.287 619.437 242.277 619.862C242.277 620.332 242.134 620.745 241.849 621.1C241.569 621.455 241.204 621.725 240.754 621.91C240.304 622.095 239.827 622.173 239.322 622.143ZM247.521 616.06H245.946L245.939 622H244.379L244.386 616.06H243.194V614.5H244.386L244.379 612.145H245.939L245.946 614.5H247.521V616.06ZM251.988 622.195C251.298 622.195 250.668 622.017 250.098 621.662C249.533 621.307 249.081 620.832 248.741 620.237C248.406 619.637 248.238 618.975 248.238 618.25C248.238 617.7 248.336 617.187 248.531 616.712C248.726 616.232 248.993 615.812 249.333 615.452C249.678 615.087 250.078 614.802 250.533 614.597C250.988 614.392 251.473 614.29 251.988 614.29C252.563 614.29 253.091 614.41 253.571 614.65C254.051 614.885 254.461 615.212 254.801 615.632C255.141 616.047 255.391 616.527 255.551 617.072C255.711 617.612 255.758 618.187 255.693 618.797H249.911C249.976 619.142 250.101 619.455 250.286 619.735C250.476 620.01 250.716 620.227 251.006 620.387C251.301 620.547 251.628 620.63 251.988 620.635C252.368 620.635 252.713 620.54 253.023 620.35C253.338 620.16 253.596 619.897 253.796 619.562L255.378 619.93C255.078 620.595 254.626 621.14 254.021 621.565C253.416 621.985 252.738 622.195 251.988 622.195ZM249.858 617.605H254.118C254.068 617.245 253.941 616.92 253.736 616.63C253.536 616.335 253.283 616.102 252.978 615.932C252.678 615.757 252.348 615.67 251.988 615.67C251.633 615.67 251.303 615.755 250.998 615.925C250.698 616.095 250.448 616.327 250.248 616.622C250.053 616.912 249.923 617.24 249.858 617.605ZM256.935 622V614.5H258.495V615.295C258.755 614.985 259.075 614.74 259.455 614.56C259.835 614.38 260.245 614.29 260.685 614.29C260.965 614.29 261.243 614.327 261.518 614.402L260.895 615.977C260.7 615.902 260.505 615.865 260.31 615.865C259.98 615.865 259.678 615.947 259.403 616.112C259.128 616.272 258.908 616.49 258.743 616.765C258.578 617.04 258.495 617.345 258.495 617.68V622H256.935Z" fill="white"/>
<defs>
<clipPath id="clip0_2_45">
<rect width="330" height="95" fill="white" transform="translate(32 675)"/>
</clipPath>
<clipPath id="clip1_2_45">
<rect width="26" height="26" fill="white" transform="translate(297 729)"/>
</clipPath>
</defs>
</svg>
