<svg width="390" height="844" viewBox="0 0 390 844" fill="none" xmlns="http://www.w3.org/2000/svg">
<rect width="390" height="844" fill="white"/>
<path opacity="0.35" d="M351.5 20C351.5 18.8034 352.47 17.8334 353.667 17.8334H370.333C371.53 17.8334 372.5 18.8034 372.5 20V26C372.5 27.1967 371.53 28.1667 370.333 28.1667H353.667C352.47 28.1667 351.5 27.1967 351.5 26V20Z" stroke="black"/>
<path opacity="0.4" d="M374 21.0001V25.0001C374.805 24.6613 375.328 23.8732 375.328 23.0001C375.328 22.1269 374.805 21.3388 374 21.0001Z" fill="black"/>
<path d="M353 20.6667C353 19.9303 353.597 19.3334 354.333 19.3334H369.667C370.403 19.3334 371 19.9303 371 20.6667V25.3334C371 26.0698 370.403 26.6667 369.667 26.6667H354.333C353.597 26.6667 353 26.0698 353 25.3334V20.6667Z" fill="black"/>
<path fill-rule="evenodd" clip-rule="evenodd" d="M338.33 19.608C340.546 19.6081 342.677 20.4596 344.283 21.9863C344.404 22.1042 344.597 22.1027 344.716 21.983L345.872 20.8163C345.933 20.7556 345.966 20.6734 345.966 20.5878C345.965 20.5022 345.931 20.4204 345.87 20.3603C341.655 16.3208 335.005 16.3208 330.79 20.3603C330.729 20.4203 330.694 20.5021 330.693 20.5877C330.693 20.6733 330.726 20.7556 330.787 20.8163L331.943 21.983C332.062 22.1029 332.255 22.1044 332.376 21.9863C333.982 20.4595 336.114 19.608 338.33 19.608ZM338.33 23.4037C339.547 23.4036 340.721 23.8561 341.624 24.6733C341.746 24.7893 341.938 24.7868 342.057 24.6677L343.212 23.501C343.273 23.4398 343.307 23.3568 343.306 23.2705C343.305 23.1843 343.269 23.102 343.207 23.042C340.459 20.4856 336.203 20.4856 333.455 23.042C333.393 23.102 333.357 23.1843 333.357 23.2706C333.356 23.3569 333.39 23.4399 333.451 23.501L334.605 24.6677C334.724 24.7868 334.916 24.7893 335.038 24.6733C335.94 23.8567 337.113 23.4042 338.33 23.4037ZM340.643 25.9575C340.645 26.044 340.611 26.1274 340.549 26.188L338.552 28.2037C338.493 28.2629 338.413 28.2963 338.33 28.2963C338.247 28.2963 338.167 28.2629 338.108 28.2037L336.111 26.188C336.049 26.1274 336.015 26.0439 336.017 25.9574C336.019 25.8709 336.056 25.789 336.12 25.731C337.396 24.6521 339.264 24.6521 340.54 25.731C340.604 25.7891 340.641 25.871 340.643 25.9575Z" fill="black"/>
<path fill-rule="evenodd" clip-rule="evenodd" d="M324.667 17.6666H323.667C323.114 17.6666 322.667 18.1143 322.667 18.6666V27.3333C322.667 27.8856 323.114 28.3333 323.667 28.3333H324.667C325.219 28.3333 325.667 27.8856 325.667 27.3333V18.6666C325.667 18.1143 325.219 17.6666 324.667 17.6666ZM319 20H320C320.552 20 321 20.4477 321 21V27.3333C321 27.8856 320.552 28.3333 320 28.3333H319C318.448 28.3333 318 27.8856 318 27.3333V21C318 20.4477 318.448 20 319 20ZM315.333 22.3333H314.333C313.781 22.3333 313.333 22.781 313.333 23.3333V27.3333C313.333 27.8856 313.781 28.3333 314.333 28.3333H315.333C315.885 28.3333 316.333 27.8856 316.333 27.3333V23.3333C316.333 22.781 315.885 22.3333 315.333 22.3333ZM310.667 24.3333H309.667C309.114 24.3333 308.667 24.781 308.667 25.3333V27.3333C308.667 27.8856 309.114 28.3333 309.667 28.3333H310.667C311.219 28.3333 311.667 27.8856 311.667 27.3333V25.3333C311.667 24.781 311.219 24.3333 310.667 24.3333Z" fill="black"/>
<path d="M36.3208 28.2563C39.0088 28.2563 40.6055 26.1543 40.6055 22.5947C40.6055 21.2544 40.3491 20.1265 39.8584 19.2549C39.1479 17.8999 37.9248 17.1675 36.3794 17.1675C34.0796 17.1675 32.4536 18.7129 32.4536 20.8809C32.4536 22.917 33.9185 24.3965 35.9326 24.3965C37.1704 24.3965 38.1738 23.8179 38.6719 22.8145H38.6938C38.6938 22.8145 38.7231 22.8145 38.7305 22.8145C38.7451 22.8145 38.7964 22.8145 38.7964 22.8145C38.7964 25.2314 37.8809 26.6743 36.3354 26.6743C35.4272 26.6743 34.7241 26.1763 34.4824 25.3779H32.6001C32.915 27.1138 34.3872 28.2563 36.3208 28.2563ZM36.3867 22.895C35.1709 22.895 34.3066 22.0308 34.3066 20.8223C34.3066 19.6431 35.2148 18.7422 36.394 18.7422C37.5732 18.7422 38.4814 19.6577 38.4814 20.8516C38.4814 22.0308 37.5952 22.895 36.3867 22.895Z" fill="black"/>
<path d="M43.6966 28.1538C44.3924 28.1538 44.8685 27.6558 44.8685 26.9966C44.8685 26.3301 44.3924 25.8394 43.6966 25.8394C43.0081 25.8394 42.5247 26.3301 42.5247 26.9966C42.5247 27.6558 43.0081 28.1538 43.6966 28.1538ZM43.6966 22.6606C44.3924 22.6606 44.8685 22.1699 44.8685 21.5107C44.8685 20.8442 44.3924 20.3535 43.6966 20.3535C43.0081 20.3535 42.5247 20.8442 42.5247 21.5107C42.5247 22.1699 43.0081 22.6606 43.6966 22.6606Z" fill="black"/>
<path d="M51.7242 28H53.5333V26.0298H54.9615V24.4331H53.5333V17.4312H50.8673C48.9996 20.2437 47.5128 22.5947 46.5606 24.3452V26.0298H51.7242V28ZM48.3111 24.3672C49.5416 22.1992 50.6402 20.4634 51.651 18.9692H51.7535V24.4771H48.3111V24.3672Z" fill="black"/>
<path d="M58.9901 28H60.8798V17.4312H58.9975L56.2362 19.3647V21.1812L58.8656 19.3354H58.9901V28Z" fill="black"/>
<rect x="36.5" y="91.5" width="40" height="40" rx="11.5" fill="white" stroke="#E8ECF4"/>
<rect x="36.5" y="91.5" width="40" height="40" rx="11.5" fill="white" stroke="#E8ECF4"/>
<path d="M59.1573 104.367C59.0654 104.275 58.9562 104.202 58.836 104.152C58.7157 104.102 58.5869 104.076 58.4567 104.076C58.3265 104.076 58.1976 104.102 58.0774 104.152C57.9572 104.202 57.848 104.275 57.7561 104.367L51.1773 110.946C51.1039 111.019 51.0457 111.106 51.006 111.202C50.9662 111.298 50.9458 111.4 50.9458 111.504C50.9458 111.608 50.9662 111.71 51.006 111.806C51.0457 111.902 51.1039 111.989 51.1773 112.062L57.7561 118.641C58.144 119.029 58.7694 119.029 59.1573 118.641C59.5452 118.253 59.5452 117.627 59.1573 117.24L53.4257 111.5L59.1652 105.76C59.5452 105.38 59.5452 104.747 59.1573 104.367Z" fill="#1E232C" stroke="#1E232C" stroke-width="0.2"/>
<path d="M66 170C66 165.582 69.5817 162 74 162H317C321.418 162 325 165.582 325 170V210C325 214.418 321.418 218 317 218H74C69.5817 218 66 214.418 66 210V170Z" fill="#D9D9D9"/>
<path d="M87.846 185.2H89.001L85.697 190.562V195H84.717V190.562L81.42 185.2H82.575L85.207 189.491L87.846 185.2ZM92.2208 195.182C91.5768 195.182 90.9888 195.016 90.4568 194.685C89.9294 194.354 89.5071 193.91 89.1898 193.355C88.8771 192.795 88.7208 192.177 88.7208 191.5C88.7208 190.987 88.8118 190.508 88.9938 190.065C89.1758 189.617 89.4254 189.225 89.7428 188.889C90.0648 188.548 90.4381 188.282 90.8628 188.091C91.2874 187.9 91.7401 187.804 92.2208 187.804C92.8648 187.804 93.4504 187.97 93.9778 188.301C94.5098 188.632 94.9321 189.078 95.2448 189.638C95.5621 190.198 95.7208 190.819 95.7208 191.5C95.7208 192.009 95.6298 192.485 95.4478 192.928C95.2658 193.371 95.0138 193.763 94.6918 194.104C94.3744 194.44 94.0034 194.704 93.5788 194.895C93.1588 195.086 92.7061 195.182 92.2208 195.182ZM92.2208 194.202C92.6968 194.202 93.1238 194.078 93.5018 193.831C93.8844 193.579 94.1854 193.248 94.4048 192.837C94.6288 192.426 94.7408 191.981 94.7408 191.5C94.7408 191.01 94.6288 190.56 94.4048 190.149C94.1808 189.734 93.8774 189.402 93.4948 189.155C93.1168 188.908 92.6921 188.784 92.2208 188.784C91.7448 188.784 91.3154 188.91 90.9328 189.162C90.5548 189.409 90.2538 189.738 90.0298 190.149C89.8104 190.56 89.7008 191.01 89.7008 191.5C89.7008 192.004 89.8151 192.461 90.0438 192.872C90.2724 193.278 90.5781 193.602 90.9608 193.845C91.3434 194.083 91.7634 194.202 92.2208 194.202ZM96.558 192.319V188H97.538V192.123C97.538 192.506 97.6314 192.853 97.818 193.166C98.0047 193.479 98.2544 193.728 98.567 193.915C98.8844 194.102 99.232 194.195 99.61 194.195C99.9927 194.195 100.338 194.102 100.646 193.915C100.959 193.728 101.208 193.479 101.395 193.166C101.582 192.853 101.675 192.506 101.675 192.123V188H102.655L102.662 195H101.682L101.675 194.02C101.428 194.375 101.106 194.657 100.709 194.867C100.317 195.077 99.8877 195.182 99.421 195.182C98.8937 195.182 98.413 195.054 97.979 194.797C97.545 194.54 97.1997 194.195 96.943 193.761C96.6864 193.327 96.558 192.846 96.558 192.319ZM104.057 195V188H105.037V188.966C105.284 188.611 105.606 188.329 106.003 188.119C106.399 187.909 106.831 187.804 107.298 187.804C107.568 187.804 107.83 187.839 108.082 187.909L107.683 188.882C107.487 188.821 107.295 188.791 107.109 188.791C106.731 188.791 106.383 188.884 106.066 189.071C105.753 189.258 105.503 189.507 105.317 189.82C105.13 190.133 105.037 190.48 105.037 190.863V195H104.057ZM112.424 195V185.2H113.488L118.661 193.229V185.2H119.641V195H118.584L113.404 186.971V195H112.424ZM127.024 188H128.004V195H127.024L126.989 193.698C126.76 194.141 126.44 194.501 126.03 194.776C125.619 195.047 125.129 195.182 124.56 195.182C124.046 195.182 123.566 195.086 123.118 194.895C122.67 194.699 122.275 194.431 121.935 194.09C121.594 193.749 121.328 193.355 121.137 192.907C120.945 192.459 120.85 191.978 120.85 191.465C120.85 190.961 120.943 190.487 121.13 190.044C121.321 189.601 121.582 189.211 121.914 188.875C122.25 188.539 122.637 188.278 123.076 188.091C123.519 187.9 123.993 187.804 124.497 187.804C125.08 187.804 125.589 187.944 126.023 188.224C126.457 188.499 126.802 188.861 127.059 189.309L127.024 188ZM124.539 194.23C125.038 194.23 125.467 194.109 125.827 193.866C126.186 193.619 126.461 193.287 126.653 192.872C126.849 192.457 126.947 191.999 126.947 191.5C126.947 190.987 126.849 190.525 126.653 190.114C126.457 189.699 126.179 189.37 125.82 189.127C125.46 188.884 125.033 188.763 124.539 188.763C124.044 188.763 123.591 188.887 123.181 189.134C122.775 189.377 122.45 189.706 122.208 190.121C121.97 190.536 121.851 190.996 121.851 191.5C121.851 192.009 121.974 192.471 122.222 192.886C122.469 193.297 122.796 193.623 123.202 193.866C123.612 194.109 124.058 194.23 124.539 194.23ZM129.404 195V188H130.384V188.966C130.636 188.611 130.958 188.329 131.35 188.119C131.742 187.909 132.172 187.804 132.638 187.804C133.166 187.804 133.649 187.935 134.087 188.196C134.526 188.453 134.869 188.796 135.116 189.225C135.364 188.796 135.704 188.453 136.138 188.196C136.572 187.935 137.053 187.804 137.58 187.804C138.108 187.804 138.588 187.932 139.022 188.189C139.456 188.446 139.802 188.791 140.058 189.225C140.315 189.659 140.443 190.14 140.443 190.667V195H139.463V190.884C139.463 190.511 139.372 190.165 139.19 189.848C139.008 189.531 138.763 189.276 138.455 189.085C138.152 188.889 137.814 188.791 137.44 188.791C137.067 188.791 136.726 188.882 136.418 189.064C136.115 189.241 135.872 189.489 135.69 189.806C135.508 190.119 135.417 190.478 135.417 190.884V195H134.437V190.884C134.437 190.478 134.346 190.119 134.164 189.806C133.982 189.489 133.737 189.241 133.429 189.064C133.121 188.882 132.781 188.791 132.407 188.791C132.039 188.791 131.7 188.889 131.392 189.085C131.084 189.276 130.839 189.531 130.657 189.848C130.475 190.165 130.384 190.511 130.384 190.884V195H129.404ZM144.789 195.182C144.145 195.182 143.557 195.016 143.025 194.685C142.498 194.354 142.075 193.91 141.758 193.355C141.445 192.795 141.289 192.177 141.289 191.5C141.289 190.987 141.38 190.508 141.562 190.065C141.744 189.617 141.994 189.225 142.311 188.889C142.633 188.548 143.006 188.282 143.431 188.091C143.856 187.9 144.308 187.804 144.789 187.804C145.307 187.804 145.783 187.907 146.217 188.112C146.656 188.317 147.031 188.604 147.344 188.973C147.661 189.342 147.899 189.773 148.058 190.268C148.221 190.763 148.289 191.297 148.261 191.871H142.325C142.381 192.314 142.521 192.711 142.745 193.061C142.974 193.411 143.263 193.689 143.613 193.894C143.968 194.095 144.36 194.197 144.789 194.202C145.256 194.202 145.676 194.081 146.049 193.838C146.427 193.595 146.73 193.262 146.959 192.837L147.953 193.068C147.673 193.689 147.251 194.197 146.686 194.594C146.121 194.986 145.489 195.182 144.789 195.182ZM142.297 191.08H147.274C147.241 190.646 147.108 190.249 146.875 189.89C146.646 189.526 146.35 189.237 145.986 189.022C145.622 188.803 145.223 188.693 144.789 188.693C144.355 188.693 143.958 188.8 143.599 189.015C143.24 189.225 142.946 189.512 142.717 189.876C142.488 190.235 142.348 190.637 142.297 191.08Z" fill="#8391A1"/>
<path d="M66 265C66 260.582 69.5817 257 74 257H317C321.418 257 325 260.582 325 265V305C325 309.418 321.418 313 317 313H74C69.5817 313 66 309.418 66 305V265Z" fill="#D9D9D9"/>
<path d="M87.846 280.2H89.001L85.697 285.562V290H84.717V285.562L81.42 280.2H82.575L85.207 284.491L87.846 280.2ZM92.2208 290.182C91.5768 290.182 90.9888 290.016 90.4568 289.685C89.9294 289.354 89.5071 288.91 89.1898 288.355C88.8771 287.795 88.7208 287.177 88.7208 286.5C88.7208 285.987 88.8118 285.508 88.9938 285.065C89.1758 284.617 89.4254 284.225 89.7428 283.889C90.0648 283.548 90.4381 283.282 90.8628 283.091C91.2874 282.9 91.7401 282.804 92.2208 282.804C92.8648 282.804 93.4504 282.97 93.9778 283.301C94.5098 283.632 94.9321 284.078 95.2448 284.638C95.5621 285.198 95.7208 285.819 95.7208 286.5C95.7208 287.009 95.6298 287.485 95.4478 287.928C95.2658 288.371 95.0138 288.763 94.6918 289.104C94.3744 289.44 94.0034 289.704 93.5788 289.895C93.1588 290.086 92.7061 290.182 92.2208 290.182ZM92.2208 289.202C92.6968 289.202 93.1238 289.078 93.5018 288.831C93.8844 288.579 94.1854 288.248 94.4048 287.837C94.6288 287.426 94.7408 286.981 94.7408 286.5C94.7408 286.01 94.6288 285.56 94.4048 285.149C94.1808 284.734 93.8774 284.402 93.4948 284.155C93.1168 283.908 92.6921 283.784 92.2208 283.784C91.7448 283.784 91.3154 283.91 90.9328 284.162C90.5548 284.409 90.2538 284.738 90.0298 285.149C89.8104 285.56 89.7008 286.01 89.7008 286.5C89.7008 287.004 89.8151 287.461 90.0438 287.872C90.2724 288.278 90.5781 288.602 90.9608 288.845C91.3434 289.083 91.7634 289.202 92.2208 289.202ZM96.558 287.319V283H97.538V287.123C97.538 287.506 97.6314 287.853 97.818 288.166C98.0047 288.479 98.2544 288.728 98.567 288.915C98.8844 289.102 99.232 289.195 99.61 289.195C99.9927 289.195 100.338 289.102 100.646 288.915C100.959 288.728 101.208 288.479 101.395 288.166C101.582 287.853 101.675 287.506 101.675 287.123V283H102.655L102.662 290H101.682L101.675 289.02C101.428 289.375 101.106 289.657 100.709 289.867C100.317 290.077 99.8877 290.182 99.421 290.182C98.8937 290.182 98.413 290.054 97.979 289.797C97.545 289.54 97.1997 289.195 96.943 288.761C96.6864 288.327 96.558 287.846 96.558 287.319ZM104.057 290V283H105.037V283.966C105.284 283.611 105.606 283.329 106.003 283.119C106.399 282.909 106.831 282.804 107.298 282.804C107.568 282.804 107.83 282.839 108.082 282.909L107.683 283.882C107.487 283.821 107.295 283.791 107.109 283.791C106.731 283.791 106.383 283.884 106.066 284.071C105.753 284.258 105.503 284.507 105.317 284.82C105.13 285.133 105.037 285.48 105.037 285.863V290H104.057ZM112.424 290V280.2H115.56C116.083 280.2 116.554 280.328 116.974 280.585C117.394 280.837 117.728 281.18 117.975 281.614C118.227 282.043 118.353 282.526 118.353 283.063C118.353 283.604 118.225 284.092 117.968 284.526C117.716 284.96 117.378 285.303 116.953 285.555C116.533 285.807 116.069 285.933 115.56 285.933H113.404V290H112.424ZM113.404 284.953H115.483C115.828 284.953 116.143 284.869 116.428 284.701C116.717 284.528 116.946 284.297 117.114 284.008C117.287 283.714 117.373 283.383 117.373 283.014C117.373 282.645 117.287 282.316 117.114 282.027C116.946 281.733 116.717 281.502 116.428 281.334C116.143 281.161 115.828 281.075 115.483 281.075H113.404V284.953ZM125.883 285.667V290H124.903V285.863C124.903 285.48 124.81 285.133 124.623 284.82C124.437 284.507 124.187 284.258 123.874 284.071C123.562 283.884 123.214 283.791 122.831 283.791C122.453 283.791 122.106 283.884 121.788 284.071C121.476 284.258 121.226 284.507 121.039 284.82C120.853 285.133 120.759 285.48 120.759 285.863V290H119.779V279.5H120.759V283.966C121.007 283.611 121.329 283.329 121.725 283.119C122.122 282.909 122.554 282.804 123.02 282.804C123.548 282.804 124.028 282.932 124.462 283.189C124.896 283.446 125.242 283.791 125.498 284.225C125.755 284.659 125.883 285.14 125.883 285.667ZM130.229 290.182C129.585 290.182 128.997 290.016 128.465 289.685C127.937 289.354 127.515 288.91 127.198 288.355C126.885 287.795 126.729 287.177 126.729 286.5C126.729 285.987 126.82 285.508 127.002 285.065C127.184 284.617 127.433 284.225 127.751 283.889C128.073 283.548 128.446 283.282 128.871 283.091C129.295 282.9 129.748 282.804 130.229 282.804C130.873 282.804 131.458 282.97 131.986 283.301C132.518 283.632 132.94 284.078 133.253 284.638C133.57 285.198 133.729 285.819 133.729 286.5C133.729 287.009 133.638 287.485 133.456 287.928C133.274 288.371 133.022 288.763 132.7 289.104C132.382 289.44 132.011 289.704 131.587 289.895C131.167 290.086 130.714 290.182 130.229 290.182ZM130.229 289.202C130.705 289.202 131.132 289.078 131.51 288.831C131.892 288.579 132.193 288.248 132.413 287.837C132.637 287.426 132.749 286.981 132.749 286.5C132.749 286.01 132.637 285.56 132.413 285.149C132.189 284.734 131.885 284.402 131.503 284.155C131.125 283.908 130.7 283.784 130.229 283.784C129.753 283.784 129.323 283.91 128.941 284.162C128.563 284.409 128.262 284.738 128.038 285.149C127.818 285.56 127.709 286.01 127.709 286.5C127.709 287.004 127.823 287.461 128.052 287.872C128.28 288.278 128.586 288.602 128.969 288.845C129.351 289.083 129.771 289.202 130.229 289.202ZM141.018 285.667V290H140.038V285.863C140.038 285.48 139.945 285.133 139.758 284.82C139.572 284.507 139.322 284.258 139.009 284.071C138.697 283.884 138.349 283.791 137.966 283.791C137.588 283.791 137.241 283.884 136.923 284.071C136.611 284.258 136.361 284.507 136.174 284.82C135.988 285.133 135.894 285.48 135.894 285.863V290H134.914V283H135.894V283.966C136.142 283.611 136.464 283.329 136.86 283.119C137.257 282.909 137.689 282.804 138.155 282.804C138.683 282.804 139.163 282.932 139.597 283.189C140.031 283.446 140.377 283.791 140.633 284.225C140.89 284.659 141.018 285.14 141.018 285.667ZM145.363 290.182C144.719 290.182 144.131 290.016 143.599 289.685C143.072 289.354 142.65 288.91 142.332 288.355C142.02 287.795 141.863 287.177 141.863 286.5C141.863 285.987 141.954 285.508 142.136 285.065C142.318 284.617 142.568 284.225 142.885 283.889C143.207 283.548 143.581 283.282 144.005 283.091C144.43 282.9 144.883 282.804 145.363 282.804C145.881 282.804 146.357 282.907 146.791 283.112C147.23 283.317 147.606 283.604 147.918 283.973C148.236 284.342 148.474 284.773 148.632 285.268C148.796 285.763 148.863 286.297 148.835 286.871H142.899C142.955 287.314 143.095 287.711 143.319 288.061C143.548 288.411 143.837 288.689 144.187 288.894C144.542 289.095 144.934 289.197 145.363 289.202C145.83 289.202 146.25 289.081 146.623 288.838C147.001 288.595 147.305 288.262 147.533 287.837L148.527 288.068C148.247 288.689 147.825 289.197 147.26 289.594C146.696 289.986 146.063 290.182 145.363 290.182ZM142.871 286.08H147.848C147.816 285.646 147.683 285.249 147.449 284.89C147.221 284.526 146.924 284.237 146.56 284.022C146.196 283.803 145.797 283.693 145.363 283.693C144.929 283.693 144.533 283.8 144.173 284.015C143.814 284.225 143.52 284.512 143.291 284.876C143.063 285.235 142.923 285.637 142.871 286.08Z" fill="#8391A1"/>
<path d="M65 360C65 355.582 68.5817 352 73 352H316C320.418 352 324 355.582 324 360V400C324 404.418 320.418 408 316 408H73C68.5817 408 65 404.418 65 400V360Z" fill="#D9D9D9"/>
<path d="M86.846 375.2H88.001L84.697 380.562V385H83.717V380.562L80.42 375.2H81.575L84.207 379.491L86.846 375.2ZM91.2208 385.182C90.5768 385.182 89.9888 385.016 89.4568 384.685C88.9294 384.354 88.5071 383.91 88.1898 383.355C87.8771 382.795 87.7208 382.177 87.7208 381.5C87.7208 380.987 87.8118 380.508 87.9938 380.065C88.1758 379.617 88.4254 379.225 88.7428 378.889C89.0648 378.548 89.4381 378.282 89.8628 378.091C90.2874 377.9 90.7401 377.804 91.2208 377.804C91.8648 377.804 92.4504 377.97 92.9778 378.301C93.5098 378.632 93.9321 379.078 94.2448 379.638C94.5621 380.198 94.7208 380.819 94.7208 381.5C94.7208 382.009 94.6298 382.485 94.4478 382.928C94.2658 383.371 94.0138 383.763 93.6918 384.104C93.3744 384.44 93.0034 384.704 92.5788 384.895C92.1588 385.086 91.7061 385.182 91.2208 385.182ZM91.2208 384.202C91.6968 384.202 92.1238 384.078 92.5018 383.831C92.8844 383.579 93.1854 383.248 93.4048 382.837C93.6288 382.426 93.7408 381.981 93.7408 381.5C93.7408 381.01 93.6288 380.56 93.4048 380.149C93.1808 379.734 92.8774 379.402 92.4948 379.155C92.1168 378.908 91.6921 378.784 91.2208 378.784C90.7448 378.784 90.3154 378.91 89.9328 379.162C89.5548 379.409 89.2538 379.738 89.0298 380.149C88.8104 380.56 88.7008 381.01 88.7008 381.5C88.7008 382.004 88.8151 382.461 89.0438 382.872C89.2724 383.278 89.5781 383.602 89.9608 383.845C90.3434 384.083 90.7634 384.202 91.2208 384.202ZM95.558 382.319V378H96.538V382.123C96.538 382.506 96.6314 382.853 96.818 383.166C97.0047 383.479 97.2544 383.728 97.567 383.915C97.8844 384.102 98.232 384.195 98.61 384.195C98.9927 384.195 99.338 384.102 99.646 383.915C99.9587 383.728 100.208 383.479 100.395 383.166C100.582 382.853 100.675 382.506 100.675 382.123V378H101.655L101.662 385H100.682L100.675 384.02C100.428 384.375 100.106 384.657 99.709 384.867C99.317 385.077 98.8877 385.182 98.421 385.182C97.8937 385.182 97.413 385.054 96.979 384.797C96.545 384.54 96.1997 384.195 95.943 383.761C95.6864 383.327 95.558 382.846 95.558 382.319ZM103.057 385V378H104.037V378.966C104.284 378.611 104.606 378.329 105.003 378.119C105.399 377.909 105.831 377.804 106.298 377.804C106.568 377.804 106.83 377.839 107.082 377.909L106.683 378.882C106.487 378.821 106.295 378.791 106.109 378.791C105.731 378.791 105.383 378.884 105.066 379.071C104.753 379.258 104.503 379.507 104.317 379.82C104.13 380.133 104.037 380.48 104.037 380.863V385H103.057ZM117.178 378H118.158V385H117.178L117.143 383.698C116.914 384.141 116.595 384.501 116.184 384.776C115.773 385.047 115.283 385.182 114.714 385.182C114.201 385.182 113.72 385.086 113.272 384.895C112.824 384.699 112.43 384.431 112.089 384.09C111.748 383.749 111.482 383.355 111.291 382.907C111.1 382.459 111.004 381.978 111.004 381.465C111.004 380.961 111.097 380.487 111.284 380.044C111.475 379.601 111.737 379.211 112.068 378.875C112.404 378.539 112.791 378.278 113.23 378.091C113.673 377.9 114.147 377.804 114.651 377.804C115.234 377.804 115.743 377.944 116.177 378.224C116.611 378.499 116.956 378.861 117.213 379.309L117.178 378ZM114.693 384.23C115.192 384.23 115.622 384.109 115.981 383.866C116.34 383.619 116.616 383.287 116.807 382.872C117.003 382.457 117.101 381.999 117.101 381.5C117.101 380.987 117.003 380.525 116.807 380.114C116.611 379.699 116.333 379.37 115.974 379.127C115.615 378.884 115.188 378.763 114.693 378.763C114.198 378.763 113.746 378.887 113.335 379.134C112.929 379.377 112.605 379.706 112.362 380.121C112.124 380.536 112.005 380.996 112.005 381.5C112.005 382.009 112.129 382.471 112.376 382.886C112.623 383.297 112.95 383.623 113.356 383.866C113.767 384.109 114.212 384.23 114.693 384.23ZM125.183 374.5H126.163V385H125.183V383.691C124.94 384.139 124.607 384.501 124.182 384.776C123.762 385.047 123.263 385.182 122.684 385.182C122.175 385.182 121.699 385.086 121.256 384.895C120.813 384.704 120.421 384.44 120.08 384.104C119.744 383.763 119.48 383.371 119.289 382.928C119.098 382.485 119.002 382.009 119.002 381.5C119.002 380.991 119.098 380.515 119.289 380.072C119.48 379.624 119.744 379.232 120.08 378.896C120.421 378.555 120.813 378.289 121.256 378.098C121.699 377.907 122.175 377.811 122.684 377.811C123.263 377.811 123.762 377.949 124.182 378.224C124.607 378.495 124.94 378.852 125.183 379.295V374.5ZM122.691 384.23C123.19 384.23 123.62 384.109 123.979 383.866C124.338 383.619 124.614 383.287 124.805 382.872C125.001 382.457 125.099 381.999 125.099 381.5C125.099 380.987 125.001 380.525 124.805 380.114C124.609 379.699 124.331 379.37 123.972 379.127C123.613 378.884 123.186 378.763 122.691 378.763C122.196 378.763 121.746 378.887 121.34 379.134C120.934 379.377 120.61 379.706 120.367 380.121C120.124 380.536 120.003 380.996 120.003 381.5C120.003 382.009 120.127 382.471 120.374 382.886C120.621 383.297 120.948 383.623 121.354 383.866C121.765 384.109 122.21 384.23 122.691 384.23ZM133.55 374.5H134.53V385H133.55V383.691C133.308 384.139 132.974 384.501 132.549 384.776C132.129 385.047 131.63 385.182 131.051 385.182C130.543 385.182 130.067 385.086 129.623 384.895C129.18 384.704 128.788 384.44 128.447 384.104C128.111 383.763 127.848 383.371 127.656 382.928C127.465 382.485 127.369 382.009 127.369 381.5C127.369 380.991 127.465 380.515 127.656 380.072C127.848 379.624 128.111 379.232 128.447 378.896C128.788 378.555 129.18 378.289 129.623 378.098C130.067 377.907 130.543 377.811 131.051 377.811C131.63 377.811 132.129 377.949 132.549 378.224C132.974 378.495 133.308 378.852 133.55 379.295V374.5ZM131.058 384.23C131.558 384.23 131.987 384.109 132.346 383.866C132.706 383.619 132.981 383.287 133.172 382.872C133.368 382.457 133.466 381.999 133.466 381.5C133.466 380.987 133.368 380.525 133.172 380.114C132.976 379.699 132.699 379.37 132.339 379.127C131.98 378.884 131.553 378.763 131.058 378.763C130.564 378.763 130.113 378.887 129.707 379.134C129.301 379.377 128.977 379.706 128.734 380.121C128.492 380.536 128.37 380.996 128.37 381.5C128.37 382.009 128.494 382.471 128.741 382.886C128.989 383.297 129.315 383.623 129.721 383.866C130.132 384.109 130.578 384.23 131.058 384.23ZM136.211 385V378H137.191V378.966C137.438 378.611 137.76 378.329 138.157 378.119C138.554 377.909 138.985 377.804 139.452 377.804C139.723 377.804 139.984 377.839 140.236 377.909L139.837 378.882C139.641 378.821 139.45 378.791 139.263 378.791C138.885 378.791 138.537 378.884 138.22 379.071C137.907 379.258 137.658 379.507 137.471 379.82C137.284 380.133 137.191 380.48 137.191 380.863V385H136.211ZM143.83 385.182C143.186 385.182 142.598 385.016 142.066 384.685C141.539 384.354 141.116 383.91 140.799 383.355C140.486 382.795 140.33 382.177 140.33 381.5C140.33 380.987 140.421 380.508 140.603 380.065C140.785 379.617 141.035 379.225 141.352 378.889C141.674 378.548 142.047 378.282 142.472 378.091C142.897 377.9 143.349 377.804 143.83 377.804C144.348 377.804 144.824 377.907 145.258 378.112C145.697 378.317 146.072 378.604 146.385 378.973C146.702 379.342 146.94 379.773 147.099 380.268C147.262 380.763 147.33 381.297 147.302 381.871H141.366C141.422 382.314 141.562 382.711 141.786 383.061C142.015 383.411 142.304 383.689 142.654 383.894C143.009 384.095 143.401 384.197 143.83 384.202C144.297 384.202 144.717 384.081 145.09 383.838C145.468 383.595 145.771 383.262 146 382.837L146.994 383.068C146.714 383.689 146.292 384.197 145.727 384.594C145.162 384.986 144.53 385.182 143.83 385.182ZM141.338 381.08H146.315C146.282 380.646 146.149 380.249 145.916 379.89C145.687 379.526 145.391 379.237 145.027 379.022C144.663 378.803 144.264 378.693 143.83 378.693C143.396 378.693 142.999 378.8 142.64 379.015C142.281 379.225 141.987 379.512 141.758 379.876C141.529 380.235 141.389 380.637 141.338 381.08ZM150.679 385.133C150.296 385.124 149.923 385.054 149.559 384.923C149.195 384.792 148.877 384.615 148.607 384.391C148.336 384.167 148.142 383.913 148.026 383.628L148.873 383.264C148.947 383.446 149.085 383.614 149.286 383.768C149.491 383.917 149.724 384.039 149.986 384.132C150.247 384.221 150.506 384.265 150.763 384.265C151.047 384.265 151.313 384.218 151.561 384.125C151.808 384.032 152.009 383.899 152.163 383.726C152.321 383.549 152.401 383.341 152.401 383.103C152.401 382.846 152.317 382.646 152.149 382.501C151.981 382.352 151.768 382.235 151.512 382.151C151.255 382.062 150.991 381.978 150.721 381.899C150.226 381.764 149.79 381.614 149.412 381.451C149.034 381.288 148.737 381.08 148.523 380.828C148.313 380.571 148.208 380.242 148.208 379.841C148.208 379.416 148.327 379.05 148.565 378.742C148.807 378.429 149.122 378.189 149.51 378.021C149.902 377.848 150.319 377.762 150.763 377.762C151.332 377.762 151.85 377.886 152.317 378.133C152.788 378.38 153.129 378.709 153.339 379.12L152.548 379.589C152.464 379.398 152.331 379.232 152.149 379.092C151.967 378.952 151.759 378.842 151.526 378.763C151.297 378.684 151.064 378.642 150.826 378.637C150.527 378.632 150.249 378.677 149.993 378.77C149.736 378.859 149.528 378.992 149.37 379.169C149.216 379.346 149.139 379.563 149.139 379.82C149.139 380.077 149.216 380.273 149.37 380.408C149.524 380.539 149.731 380.646 149.993 380.73C150.259 380.809 150.557 380.903 150.889 381.01C151.313 381.145 151.712 381.299 152.086 381.472C152.459 381.645 152.76 381.859 152.989 382.116C153.217 382.373 153.329 382.697 153.325 383.089C153.325 383.509 153.199 383.875 152.947 384.188C152.695 384.501 152.368 384.741 151.967 384.909C151.565 385.072 151.136 385.147 150.679 385.133ZM156.694 385.133C156.312 385.124 155.938 385.054 155.574 384.923C155.21 384.792 154.893 384.615 154.622 384.391C154.352 384.167 154.158 383.913 154.041 383.628L154.888 383.264C154.963 383.446 155.101 383.614 155.301 383.768C155.507 383.917 155.74 384.039 156.001 384.132C156.263 384.221 156.522 384.265 156.778 384.265C157.063 384.265 157.329 384.218 157.576 384.125C157.824 384.032 158.024 383.899 158.178 383.726C158.337 383.549 158.416 383.341 158.416 383.103C158.416 382.846 158.332 382.646 158.164 382.501C157.996 382.352 157.784 382.235 157.527 382.151C157.271 382.062 157.007 381.978 156.736 381.899C156.242 381.764 155.805 381.614 155.427 381.451C155.049 381.288 154.753 381.08 154.538 380.828C154.328 380.571 154.223 380.242 154.223 379.841C154.223 379.416 154.342 379.05 154.58 378.742C154.823 378.429 155.138 378.189 155.525 378.021C155.917 377.848 156.335 377.762 156.778 377.762C157.348 377.762 157.866 377.886 158.332 378.133C158.804 378.38 159.144 378.709 159.354 379.12L158.563 379.589C158.479 379.398 158.346 379.232 158.164 379.092C157.982 378.952 157.775 378.842 157.541 378.763C157.313 378.684 157.079 378.642 156.841 378.637C156.543 378.632 156.265 378.677 156.008 378.77C155.752 378.859 155.544 378.992 155.385 379.169C155.231 379.346 155.154 379.563 155.154 379.82C155.154 380.077 155.231 380.273 155.385 380.408C155.539 380.539 155.747 380.646 156.008 380.73C156.274 380.809 156.573 380.903 156.904 381.01C157.329 381.145 157.728 381.299 158.101 381.472C158.475 381.645 158.776 381.859 159.004 382.116C159.233 382.373 159.345 382.697 159.34 383.089C159.34 383.509 159.214 383.875 158.962 384.188C158.71 384.501 158.384 384.741 157.982 384.909C157.581 385.072 157.152 385.147 156.694 385.133Z" fill="#8391A1"/>
<path d="M65 455C65 450.582 68.5817 447 73 447H316C320.418 447 324 450.582 324 455V495C324 499.418 320.418 503 316 503H73C68.5817 503 65 499.418 65 495V455Z" fill="#D9D9D9"/>
<path d="M86.846 470.2H88.001L84.697 475.562V480H83.717V475.562L80.42 470.2H81.575L84.207 474.491L86.846 470.2ZM91.2208 480.182C90.5768 480.182 89.9888 480.016 89.4568 479.685C88.9294 479.354 88.5071 478.91 88.1898 478.355C87.8771 477.795 87.7208 477.177 87.7208 476.5C87.7208 475.987 87.8118 475.508 87.9938 475.065C88.1758 474.617 88.4254 474.225 88.7428 473.889C89.0648 473.548 89.4381 473.282 89.8628 473.091C90.2874 472.9 90.7401 472.804 91.2208 472.804C91.8648 472.804 92.4504 472.97 92.9778 473.301C93.5098 473.632 93.9321 474.078 94.2448 474.638C94.5621 475.198 94.7208 475.819 94.7208 476.5C94.7208 477.009 94.6298 477.485 94.4478 477.928C94.2658 478.371 94.0138 478.763 93.6918 479.104C93.3744 479.44 93.0034 479.704 92.5788 479.895C92.1588 480.086 91.7061 480.182 91.2208 480.182ZM91.2208 479.202C91.6968 479.202 92.1238 479.078 92.5018 478.831C92.8844 478.579 93.1854 478.248 93.4048 477.837C93.6288 477.426 93.7408 476.981 93.7408 476.5C93.7408 476.01 93.6288 475.56 93.4048 475.149C93.1808 474.734 92.8774 474.402 92.4948 474.155C92.1168 473.908 91.6921 473.784 91.2208 473.784C90.7448 473.784 90.3154 473.91 89.9328 474.162C89.5548 474.409 89.2538 474.738 89.0298 475.149C88.8104 475.56 88.7008 476.01 88.7008 476.5C88.7008 477.004 88.8151 477.461 89.0438 477.872C89.2724 478.278 89.5781 478.602 89.9608 478.845C90.3434 479.083 90.7634 479.202 91.2208 479.202ZM95.558 477.319V473H96.538V477.123C96.538 477.506 96.6314 477.853 96.818 478.166C97.0047 478.479 97.2544 478.728 97.567 478.915C97.8844 479.102 98.232 479.195 98.61 479.195C98.9927 479.195 99.338 479.102 99.646 478.915C99.9587 478.728 100.208 478.479 100.395 478.166C100.582 477.853 100.675 477.506 100.675 477.123V473H101.655L101.662 480H100.682L100.675 479.02C100.428 479.375 100.106 479.657 99.709 479.867C99.317 480.077 98.8877 480.182 98.421 480.182C97.8937 480.182 97.413 480.054 96.979 479.797C96.545 479.54 96.1997 479.195 95.943 478.761C95.6864 478.327 95.558 477.846 95.558 477.319ZM103.057 480V473H104.037V473.966C104.284 473.611 104.606 473.329 105.003 473.119C105.399 472.909 105.831 472.804 106.298 472.804C106.568 472.804 106.83 472.839 107.082 472.909L106.683 473.882C106.487 473.821 106.295 473.791 106.109 473.791C105.731 473.791 105.383 473.884 105.066 474.071C104.753 474.258 104.503 474.507 104.317 474.82C104.13 475.133 104.037 475.48 104.037 475.863V480H103.057ZM116.422 478.243L117.297 478.719C116.98 479.162 116.576 479.517 116.086 479.783C115.601 480.049 115.073 480.182 114.504 480.182C113.86 480.182 113.272 480.016 112.74 479.685C112.213 479.354 111.79 478.91 111.473 478.355C111.16 477.795 111.004 477.177 111.004 476.5C111.004 475.987 111.095 475.508 111.277 475.065C111.459 474.617 111.709 474.225 112.026 473.889C112.348 473.548 112.721 473.282 113.146 473.091C113.571 472.9 114.023 472.804 114.504 472.804C115.073 472.804 115.601 472.937 116.086 473.203C116.576 473.469 116.98 473.826 117.297 474.274L116.422 474.743C116.179 474.435 115.888 474.199 115.547 474.036C115.206 473.868 114.859 473.784 114.504 473.784C114.033 473.784 113.606 473.91 113.223 474.162C112.84 474.409 112.537 474.738 112.313 475.149C112.094 475.56 111.984 476.01 111.984 476.5C111.984 476.99 112.096 477.44 112.32 477.851C112.549 478.262 112.854 478.591 113.237 478.838C113.62 479.081 114.042 479.202 114.504 479.202C114.887 479.202 115.246 479.113 115.582 478.936C115.918 478.759 116.198 478.528 116.422 478.243ZM118.438 473H119.418V480H118.438V473ZM118.935 471.775C118.776 471.775 118.641 471.724 118.529 471.621C118.421 471.514 118.368 471.381 118.368 471.222C118.368 471.063 118.421 470.933 118.529 470.83C118.641 470.723 118.776 470.669 118.935 470.669C119.089 470.669 119.219 470.723 119.327 470.83C119.439 470.933 119.495 471.063 119.495 471.222C119.495 471.381 119.441 471.514 119.334 471.621C119.226 471.724 119.093 471.775 118.935 471.775ZM124.681 473.98H123.008L123.001 480H122.021L122.028 473.98H120.761V473H122.028L122.021 470.802H123.001L123.008 473H124.681V473.98ZM125.875 473H126.855V480H125.875V473ZM126.372 471.775C126.213 471.775 126.078 471.724 125.966 471.621C125.859 471.514 125.805 471.381 125.805 471.222C125.805 471.063 125.859 470.933 125.966 470.83C126.078 470.723 126.213 470.669 126.372 470.669C126.526 470.669 126.657 470.723 126.764 470.83C126.876 470.933 126.932 471.063 126.932 471.222C126.932 471.381 126.878 471.514 126.771 471.621C126.664 471.724 126.531 471.775 126.372 471.775ZM134.239 473.98L129.647 479.02H134.239V480H128.261V479.02L132.853 473.98H128.261V473H134.239V473.98ZM138.649 480.182C138.005 480.182 137.417 480.016 136.885 479.685C136.357 479.354 135.935 478.91 135.618 478.355C135.305 477.795 135.149 477.177 135.149 476.5C135.149 475.987 135.24 475.508 135.422 475.065C135.604 474.617 135.853 474.225 136.171 473.889C136.493 473.548 136.866 473.282 137.291 473.091C137.715 472.9 138.168 472.804 138.649 472.804C139.167 472.804 139.643 472.907 140.077 473.112C140.515 473.317 140.891 473.604 141.204 473.973C141.521 474.342 141.759 474.773 141.918 475.268C142.081 475.763 142.149 476.297 142.121 476.871H136.185C136.241 477.314 136.381 477.711 136.605 478.061C136.833 478.411 137.123 478.689 137.473 478.894C137.827 479.095 138.219 479.197 138.649 479.202C139.115 479.202 139.535 479.081 139.909 478.838C140.287 478.595 140.59 478.262 140.819 477.837L141.813 478.068C141.533 478.689 141.11 479.197 140.546 479.594C139.981 479.986 139.349 480.182 138.649 480.182ZM136.157 476.08H141.134C141.101 475.646 140.968 475.249 140.735 474.89C140.506 474.526 140.21 474.237 139.846 474.022C139.482 473.803 139.083 473.693 138.649 473.693C138.215 473.693 137.818 473.8 137.459 474.015C137.099 474.225 136.805 474.512 136.577 474.876C136.348 475.235 136.208 475.637 136.157 476.08ZM149.424 475.667V480H148.444V475.863C148.444 475.48 148.351 475.133 148.164 474.82C147.978 474.507 147.728 474.258 147.415 474.071C147.103 473.884 146.755 473.791 146.372 473.791C145.994 473.791 145.647 473.884 145.329 474.071C145.017 474.258 144.767 474.507 144.58 474.82C144.394 475.133 144.3 475.48 144.3 475.863V480H143.32V473H144.3V473.966C144.548 473.611 144.87 473.329 145.266 473.119C145.663 472.909 146.095 472.804 146.561 472.804C147.089 472.804 147.569 472.932 148.003 473.189C148.437 473.446 148.783 473.791 149.039 474.225C149.296 474.659 149.424 475.14 149.424 475.667ZM152.989 480.133C152.607 480.124 152.233 480.054 151.869 479.923C151.505 479.792 151.188 479.615 150.917 479.391C150.647 479.167 150.453 478.913 150.336 478.628L151.183 478.264C151.258 478.446 151.396 478.614 151.596 478.768C151.802 478.917 152.035 479.039 152.296 479.132C152.558 479.221 152.817 479.265 153.073 479.265C153.358 479.265 153.624 479.218 153.871 479.125C154.119 479.032 154.319 478.899 154.473 478.726C154.632 478.549 154.711 478.341 154.711 478.103C154.711 477.846 154.627 477.646 154.459 477.501C154.291 477.352 154.079 477.235 153.822 477.151C153.566 477.062 153.302 476.978 153.031 476.899C152.537 476.764 152.1 476.614 151.722 476.451C151.344 476.288 151.048 476.08 150.833 475.828C150.623 475.571 150.518 475.242 150.518 474.841C150.518 474.416 150.637 474.05 150.875 473.742C151.118 473.429 151.433 473.189 151.82 473.021C152.212 472.848 152.63 472.762 153.073 472.762C153.643 472.762 154.161 472.886 154.627 473.133C155.099 473.38 155.439 473.709 155.649 474.12L154.858 474.589C154.774 474.398 154.641 474.232 154.459 474.092C154.277 473.952 154.07 473.842 153.836 473.763C153.608 473.684 153.374 473.642 153.136 473.637C152.838 473.632 152.56 473.677 152.303 473.77C152.047 473.859 151.839 473.992 151.68 474.169C151.526 474.346 151.449 474.563 151.449 474.82C151.449 475.077 151.526 475.273 151.68 475.408C151.834 475.539 152.042 475.646 152.303 475.73C152.569 475.809 152.868 475.903 153.199 476.01C153.624 476.145 154.023 476.299 154.396 476.472C154.77 476.645 155.071 476.859 155.299 477.116C155.528 477.373 155.64 477.697 155.635 478.089C155.635 478.509 155.509 478.875 155.257 479.188C155.005 479.501 154.679 479.741 154.277 479.909C153.876 480.072 153.447 480.147 152.989 480.133ZM162.946 475.667V480H161.966V475.863C161.966 475.48 161.873 475.133 161.686 474.82C161.499 474.507 161.25 474.258 160.937 474.071C160.624 473.884 160.277 473.791 159.894 473.791C159.516 473.791 159.168 473.884 158.851 474.071C158.538 474.258 158.289 474.507 158.102 474.82C157.915 475.133 157.822 475.48 157.822 475.863V480H156.842V469.5H157.822V473.966C158.069 473.611 158.391 473.329 158.788 473.119C159.185 472.909 159.616 472.804 160.083 472.804C160.61 472.804 161.091 472.932 161.525 473.189C161.959 473.446 162.304 473.791 162.561 474.225C162.818 474.659 162.946 475.14 162.946 475.667ZM164.348 473H165.328V480H164.348V473ZM164.845 471.775C164.686 471.775 164.551 471.724 164.439 471.621C164.331 471.514 164.278 471.381 164.278 471.222C164.278 471.063 164.331 470.933 164.439 470.83C164.551 470.723 164.686 470.669 164.845 470.669C164.999 470.669 165.129 470.723 165.237 470.83C165.349 470.933 165.405 471.063 165.405 471.222C165.405 471.381 165.351 471.514 165.244 471.621C165.136 471.724 165.003 471.775 164.845 471.775ZM167.939 483.5H166.959V473H167.939V474.309C168.182 473.866 168.513 473.506 168.933 473.231C169.353 472.956 169.852 472.818 170.431 472.818C170.94 472.818 171.416 472.914 171.859 473.105C172.307 473.296 172.699 473.562 173.035 473.903C173.371 474.239 173.635 474.629 173.826 475.072C174.017 475.515 174.113 475.991 174.113 476.5C174.113 477.009 174.017 477.487 173.826 477.935C173.635 478.383 173.371 478.777 173.035 479.118C172.699 479.454 172.307 479.718 171.859 479.909C171.416 480.1 170.94 480.196 170.431 480.196C169.852 480.196 169.353 480.058 168.933 479.783C168.513 479.508 168.182 479.148 167.939 478.705V483.5ZM170.424 473.77C169.934 473.77 169.507 473.894 169.143 474.141C168.784 474.384 168.506 474.71 168.31 475.121C168.114 475.532 168.016 475.991 168.016 476.5C168.016 476.999 168.112 477.457 168.303 477.872C168.499 478.287 168.777 478.619 169.136 478.866C169.5 479.113 169.929 479.237 170.424 479.237C170.909 479.237 171.355 479.116 171.761 478.873C172.172 478.63 172.501 478.304 172.748 477.893C172.995 477.478 173.119 477.013 173.119 476.5C173.119 476.001 172.998 475.546 172.755 475.135C172.512 474.72 172.188 474.388 171.782 474.141C171.376 473.894 170.923 473.77 170.424 473.77ZM175.454 480V470.2H176.434V480H175.454ZM178.32 480V470.2H181.561C182.238 470.2 182.873 470.328 183.465 470.585C184.058 470.837 184.578 471.189 185.026 471.642C185.474 472.09 185.824 472.61 186.076 473.203C186.333 473.791 186.461 474.423 186.461 475.1C186.461 475.777 186.333 476.411 186.076 477.004C185.824 477.592 185.474 478.112 185.026 478.565C184.578 479.013 184.058 479.365 183.465 479.622C182.873 479.874 182.238 480 181.561 480H178.32ZM179.3 479.02H181.561C182.103 479.02 182.609 478.92 183.08 478.719C183.556 478.514 183.974 478.231 184.333 477.872C184.693 477.513 184.973 477.097 185.173 476.626C185.379 476.15 185.481 475.641 185.481 475.1C185.481 474.559 185.379 474.052 185.173 473.581C184.973 473.105 184.69 472.687 184.326 472.328C183.967 471.969 183.552 471.689 183.08 471.488C182.609 471.283 182.103 471.18 181.561 471.18H179.3V479.02Z" fill="#8391A1"/>
<path d="M67 550C67 545.582 70.5817 542 75 542H318C322.418 542 326 545.582 326 550V590C326 594.418 322.418 598 318 598H75C70.5817 598 67 594.418 67 590V550Z" fill="#D9D9D9"/>
<path d="M86.123 565.2H87.341L90.911 575H89.868L89.105 572.9H84.366L83.603 575H82.56L86.123 565.2ZM84.723 571.92H88.741L86.732 566.404L84.723 571.92ZM97.1823 568H98.1623V575.259C98.1623 575.707 98.0643 576.127 97.8683 576.519C97.677 576.911 97.4157 577.254 97.0843 577.548C96.7577 577.847 96.3843 578.08 95.9643 578.248C95.5443 578.416 95.108 578.5 94.6553 578.5C94.17 578.5 93.701 578.388 93.2483 578.164C92.7957 577.945 92.4013 577.651 92.0653 577.282C91.734 576.913 91.4983 576.505 91.3583 576.057L92.2613 575.644C92.35 575.994 92.5157 576.309 92.7583 576.589C93.0057 576.874 93.295 577.098 93.6263 577.261C93.9623 577.429 94.3053 577.513 94.6553 577.513C94.9773 577.513 95.2877 577.452 95.5863 577.331C95.8897 577.214 96.1603 577.053 96.3983 576.848C96.641 576.643 96.8323 576.402 96.9723 576.127C97.1123 575.856 97.1823 575.567 97.1823 575.259V573.712C96.9397 574.151 96.6107 574.505 96.1953 574.776C95.7847 575.047 95.3063 575.182 94.7603 575.182C94.2703 575.182 93.8083 575.086 93.3743 574.895C92.945 574.704 92.567 574.44 92.2403 574.104C91.9137 573.763 91.657 573.371 91.4703 572.928C91.2883 572.485 91.1973 572.009 91.1973 571.5C91.1973 570.991 91.2883 570.515 91.4703 570.072C91.657 569.624 91.9137 569.232 92.2403 568.896C92.567 568.555 92.945 568.289 93.3743 568.098C93.8083 567.907 94.2703 567.811 94.7603 567.811C95.3063 567.811 95.7847 567.946 96.1953 568.217C96.6107 568.483 96.9397 568.838 97.1823 569.281V568ZM94.7673 574.23C95.2527 574.23 95.6703 574.104 96.0203 573.852C96.375 573.6 96.648 573.266 96.8393 572.851C97.0307 572.436 97.1263 571.985 97.1263 571.5C97.1263 571.001 97.0283 570.546 96.8323 570.135C96.641 569.72 96.368 569.388 96.0133 569.141C95.6587 568.889 95.2433 568.763 94.7673 568.763C94.2913 568.763 93.8573 568.887 93.4653 569.134C93.078 569.377 92.77 569.706 92.5413 570.121C92.3127 570.536 92.1983 570.996 92.1983 571.5C92.1983 572.004 92.315 572.464 92.5483 572.879C92.7817 573.29 93.092 573.619 93.4793 573.866C93.8713 574.109 94.3007 574.23 94.7673 574.23ZM102.859 575.182C102.215 575.182 101.627 575.016 101.095 574.685C100.568 574.354 100.146 573.91 99.8285 573.355C99.5158 572.795 99.3595 572.177 99.3595 571.5C99.3595 570.987 99.4505 570.508 99.6325 570.065C99.8145 569.617 100.064 569.225 100.381 568.889C100.703 568.548 101.077 568.282 101.501 568.091C101.926 567.9 102.379 567.804 102.859 567.804C103.377 567.804 103.853 567.907 104.287 568.112C104.726 568.317 105.102 568.604 105.414 568.973C105.732 569.342 105.97 569.773 106.128 570.268C106.292 570.763 106.359 571.297 106.331 571.871H100.395C100.451 572.314 100.591 572.711 100.815 573.061C101.044 573.411 101.333 573.689 101.683 573.894C102.038 574.095 102.43 574.197 102.859 574.202C103.326 574.202 103.746 574.081 104.119 573.838C104.497 573.595 104.801 573.262 105.029 572.837L106.023 573.068C105.743 573.689 105.321 574.197 104.756 574.594C104.192 574.986 103.559 575.182 102.859 575.182ZM100.367 571.08H105.344C105.312 570.646 105.179 570.249 104.945 569.89C104.717 569.526 104.42 569.237 104.056 569.022C103.692 568.803 103.293 568.693 102.859 568.693C102.425 568.693 102.029 568.8 101.669 569.015C101.31 569.225 101.016 569.512 100.787 569.876C100.559 570.235 100.419 570.637 100.367 571.08Z" fill="#8391A1"/>
<rect x="68" y="734" width="259" height="48" rx="8" fill="#31732B"/>
<path d="M183.149 762V752.2H184.213L189.386 760.229V752.2H190.366V762H189.309L184.129 753.971V762H183.149ZM195.074 762.182C194.43 762.182 193.842 762.016 193.31 761.685C192.783 761.354 192.361 760.91 192.043 760.355C191.731 759.795 191.574 759.177 191.574 758.5C191.574 757.987 191.665 757.508 191.847 757.065C192.029 756.617 192.279 756.225 192.596 755.889C192.918 755.548 193.292 755.282 193.716 755.091C194.141 754.9 194.594 754.804 195.074 754.804C195.592 754.804 196.068 754.907 196.502 755.112C196.941 755.317 197.317 755.604 197.629 755.973C197.947 756.342 198.185 756.773 198.343 757.268C198.507 757.763 198.574 758.297 198.546 758.871H192.61C192.666 759.314 192.806 759.711 193.03 760.061C193.259 760.411 193.548 760.689 193.898 760.894C194.253 761.095 194.645 761.197 195.074 761.202C195.541 761.202 195.961 761.081 196.334 760.838C196.712 760.595 197.016 760.262 197.244 759.837L198.238 760.068C197.958 760.689 197.536 761.197 196.971 761.594C196.407 761.986 195.774 762.182 195.074 762.182ZM192.582 758.08H197.559C197.527 757.646 197.394 757.249 197.16 756.89C196.932 756.526 196.635 756.237 196.271 756.022C195.907 755.803 195.508 755.693 195.074 755.693C194.64 755.693 194.244 755.8 193.884 756.015C193.525 756.225 193.231 756.512 193.002 756.876C192.774 757.235 192.634 757.637 192.582 758.08ZM198.974 762L201.536 758.486L198.981 754.979H200.192L202.145 757.646L204.091 754.979H205.295L202.747 758.486L205.309 762H204.098L202.145 759.312L200.185 762H198.974ZM210.282 755.98H208.609L208.602 762H207.622L207.629 755.98H206.362V755H207.629L207.622 752.802H208.602L208.609 755H210.282V755.98Z" fill="white"/>
</svg>
